<?xml version="1.0" encoding="UTF-8"?>
<svg version="1.1" xmlns="http://www.w3.org/2000/svg" width="668" height="705">
<path d="M0 0 C1.04753952 0.05628571 1.04753952 0.05628571 2.11624146 0.1137085 C22.12992861 1.21279415 22.12992861 1.21279415 27.8125 7.0625 C30.24641228 10.93463318 29.97938341 14.46360412 29.3515625 18.84375 C28.52666126 22.23899568 27.10347494 24.4533341 24.8125 27.0625 C13.65359894 31.52606042 0.83100425 29.0625 -11.1875 29.0625 C-11.1875 73.2825 -11.1875 117.5025 -11.1875 163.0625 C-7.8875 163.3925 -4.5875 163.7225 -1.1875 164.0625 C2.68606597 165.0785173 4.95188456 165.86434448 7.31640625 169.15625 C10.22755243 174.26527007 11.93788791 178.45491995 11.93554783 184.38234997 C11.93753888 185.49255951 11.93952993 186.60276905 11.94158131 187.74662131 C11.93866847 188.9713134 11.93575563 190.19600548 11.93275452 191.45780945 C11.93403615 193.40338351 11.93403615 193.40338351 11.93534368 195.38826209 C11.93758549 198.99579404 11.93357163 202.60329643 11.92856562 206.21082461 C11.92425682 210.09833376 11.92570785 213.98584118 11.9264679 217.87335205 C11.92699286 224.6111713 11.92384895 231.34898089 11.91823006 238.08679771 C11.91011131 247.82861176 11.90749945 257.57042113 11.90624207 267.31223819 C11.90405214 283.11677147 11.89739365 298.9212996 11.88793945 314.72583008 C11.87876381 330.08064752 11.87168372 345.43546357 11.86743164 360.7902832 C11.86716892 361.73637263 11.86690619 362.68246206 11.86663551 363.65722086 C11.86533049 368.40335954 11.86406678 373.14949822 11.86282361 377.89563692 C11.85245284 417.28459489 11.83483612 456.6735471 11.8125 496.0625 C13.08770508 496.04646729 14.36291016 496.03043457 15.67675781 496.01391602 C19.9101568 495.96069095 21.99314043 496.72735306 25.27734375 499.390625 C30.50540471 505.08428936 31.44044518 512.73985493 32.8125 520.0625 C33.43705078 520.04155273 34.06160156 520.02060547 34.70507812 519.99902344 C37.5740506 519.91514156 40.44276408 519.86361489 43.3125 519.8125 C44.29476563 519.77898438 45.27703125 519.74546875 46.2890625 519.7109375 C53.60564772 519.61338303 59.2629949 520.62603647 64.65234375 525.84375 C65.01457031 526.4109375 65.37679688 526.978125 65.75 527.5625 C66.13027344 528.1296875 66.51054687 528.696875 66.90234375 529.28125 C69.11192691 533.60558442 69.33731387 538.2839316 68.8125 543.0625 C67.38012553 546.67754034 65.88996372 549.62617456 62.8125 552.0625 C60.1062563 552.96458123 58.57399014 553.18477599 55.80004883 553.17602539 C54.99944534 553.17594986 54.19884186 553.17587433 53.37397766 553.17579651 C52.51451035 553.17063522 51.65504303 553.16547394 50.76953125 553.16015625 C49.8859343 553.1587413 49.00233734 553.15732635 48.09196472 553.15586853 C45.26960872 553.15027069 42.44733203 553.13771861 39.625 553.125 C37.71158969 553.11998472 35.79817813 553.11542186 33.88476562 553.11132812 C29.19397986 553.10030197 24.50325337 553.08303883 19.8125 553.0625 C19.83344727 553.72781738 19.85439453 554.39313477 19.87597656 555.07861328 C19.95950609 558.11475302 20.01127603 561.15065043 20.0625 564.1875 C20.09601563 565.23421875 20.12953125 566.2809375 20.1640625 567.359375 C20.24314281 573.60671914 20.07517286 577.35595816 15.8125 582.0625 C10.25769751 586.2569427 6.55217626 587.18729892 -0.32792664 587.20967102 C-1.05988481 587.21334771 -1.79184298 587.2170244 -2.54598171 587.2208125 C-5.00551505 587.23185004 -7.46500614 587.23569331 -9.92456055 587.23950195 C-11.68540074 587.24576659 -13.44623961 587.25241339 -15.20707703 587.25941467 C-20.9961149 587.28045875 -26.78515304 587.29081789 -32.57421875 587.30078125 C-34.56727424 587.30482878 -36.56032958 587.3089457 -38.55338478 587.31313133 C-47.91755757 587.33218435 -57.28172247 587.34641473 -66.64591092 587.3547433 C-77.45340017 587.3645143 -88.26068453 587.3908298 -99.06810158 587.43124419 C-107.42235986 587.46141222 -115.77655943 587.47621287 -124.13087112 587.47952431 C-129.12003626 587.48187417 -134.10898254 587.4908262 -139.09808922 587.51598549 C-143.79391905 587.53928295 -148.48938619 587.54349269 -153.18525887 587.53322411 C-154.90573712 587.53272903 -156.62623333 587.53904117 -158.3466568 587.55278015 C-176.22237996 587.68750769 -176.22237996 587.68750769 -183.05151367 581.32617188 C-186.69212727 575.47316703 -186.78879575 570.33364954 -186.5 563.5625 C-186.47744141 562.54929687 -186.45488281 561.53609375 -186.43164062 560.4921875 C-186.3731939 558.01404633 -186.29132997 555.53908434 -186.1875 553.0625 C-187.965802 553.08606567 -187.965802 553.08606567 -189.7800293 553.11010742 C-194.187512 553.16449565 -198.59496515 553.19888246 -203.00268555 553.22729492 C-204.90866081 553.24236128 -206.81460152 553.26281824 -208.72045898 553.28881836 C-211.46346576 553.32529642 -214.20601328 553.34224792 -216.94921875 553.35546875 C-217.79836349 553.37095261 -218.64750824 553.38643646 -219.52238464 553.40238953 C-224.26027826 553.40373073 -227.33342347 553.12363909 -231.1875 550.0625 C-235.0850424 545.74360167 -235.82009225 542.22340528 -235.57421875 536.59375 C-234.75410893 531.22575846 -232.59830872 527.40276828 -228.6875 523.6875 C-224.63627549 521.05420407 -221.86446407 519.81867317 -216.984375 519.6484375 C-215.51484375 519.59042969 -215.51484375 519.59042969 -214.015625 519.53125 C-212.99984375 519.5003125 -211.9840625 519.469375 -210.9375 519.4375 C-209.390625 519.37949219 -209.390625 519.37949219 -207.8125 519.3203125 C-205.2710106 519.22618326 -202.72952567 519.14055021 -200.1875 519.0625 C-199.94515625 518.19367187 -199.7028125 517.32484375 -199.453125 516.4296875 C-194.77741968 500.3524546 -194.77741968 500.3524546 -187.1875 496.0625 C-184.71923828 495.90380859 -184.71923828 495.90380859 -182.0078125 495.9609375 C-180.65453857 495.98293213 -180.65453857 495.98293213 -179.27392578 496.00537109 C-178.58540527 496.02422363 -177.89688477 496.04307617 -177.1875 496.0625 C-177.18863916 495.38804775 -177.18977832 494.7135955 -177.190952 494.01870531 C-177.25807336 454.05302637 -177.30955317 414.0873547 -177.34069599 374.12163081 C-177.34444815 369.32384428 -177.34833111 364.52605785 -177.35229492 359.72827148 C-177.35308185 358.77311093 -177.35386878 357.81795038 -177.35467956 356.83384556 C-177.36773662 341.36415896 -177.39139212 325.89450578 -177.41895839 310.42483901 C-177.44700422 294.55378313 -177.46367452 278.68274476 -177.46976548 262.81166512 C-177.47388363 253.0168603 -177.48689464 243.22214994 -177.5112494 233.42737419 C-177.52709644 226.71246443 -177.5319027 219.99760356 -177.52800413 213.28267645 C-177.52608098 209.40740954 -177.52904744 205.53230777 -177.54511642 201.65707016 C-177.5624113 197.45551156 -177.55646776 193.25430517 -177.54826355 189.05271912 C-177.55700207 187.82800555 -177.5657406 186.60329199 -177.57474393 185.34146589 C-177.53567749 177.95987578 -177.1365134 172.58229019 -172.25 166.75 C-169.1875 165.0625 -169.1875 165.0625 -157.1875 163.0625 C-156.8575 118.8425 -156.5275 74.6225 -156.1875 29.0625 C-166.4175 29.0625 -176.6475 29.0625 -187.1875 29.0625 C-194.64464286 24.09107143 -194.64464286 24.09107143 -196.1875 20.0625 C-196.81713735 14.90880168 -197.0421748 10.61357649 -194.5 6 C-188.6878307 1.13034464 -181.48426298 0.99775421 -174.17578125 0.5625 C-173.50414948 0.52216644 -172.8325177 0.48183289 -172.14053345 0.4402771 C-169.92726746 0.30956856 -167.71373021 0.18508624 -165.5 0.0625 C-164.72343048 0.01925598 -163.94686096 -0.02398804 -163.14675903 -0.06854248 C-108.86480516 -3.05671722 -54.27909682 -3.05387379 0 0 Z M-157.01904297 9.80419922 C-161.13742626 9.9837466 -165.25490603 10.12829369 -169.37548828 10.24658203 C-170.83348595 10.29595665 -170.83348595 10.29595665 -172.32093811 10.34632874 C-174.14174661 10.40798113 -175.96296002 10.45896139 -177.78440857 10.49729919 C-182.14417906 10.53763594 -182.14417906 10.53763594 -185.93565369 12.40464783 C-187.48880114 14.1152874 -187.48880114 14.1152874 -187.1875 17.0625 C-186.5275 17.0625 -185.8675 17.0625 -185.1875 17.0625 C-185.1875 17.7225 -185.1875 18.3825 -185.1875 19.0625 C-158.75413704 19.10916206 -132.32078022 19.14446036 -105.88738441 19.16612434 C-93.61468761 19.17644939 -81.34201635 19.19053312 -69.06933594 19.21337891 C-58.37601275 19.23327525 -47.68270807 19.24620749 -36.98936689 19.25067699 C-31.32413213 19.25329075 -25.6589503 19.25945959 -19.99373245 19.27396011 C-14.66687128 19.28748476 -9.3400851 19.29173306 -4.01320839 19.28871536 C-2.05317465 19.28926783 -0.09313853 19.29327561 1.86688042 19.30091095 C4.53312257 19.31079223 7.19907779 19.30849402 9.86532593 19.30300903 C10.64936275 19.30883472 11.43339957 19.3146604 12.24119508 19.32066262 C16.48760621 19.44850295 16.48760621 19.44850295 19.8125 17.0625 C19.64742354 14.48709787 19.64742354 14.48709787 18.8125 12.0625 C15.86318544 10.58784272 12.80470139 10.72440406 9.5625 10.5625 C8.81474808 10.52216644 8.06699615 10.48183289 7.29658508 10.4402771 C4.80215693 10.30839691 2.30742393 10.18462564 -0.1875 10.0625 C-1.05283356 10.01925598 -1.91816711 9.97601196 -2.8097229 9.93145752 C-23.26056097 8.91932909 -43.71414326 8.3427833 -64.1875 8.0625 C-65.48953369 8.0444632 -65.48953369 8.0444632 -66.81787109 8.02606201 C-96.91714197 7.631237 -126.94880689 8.48827275 -157.01904297 9.80419922 Z M-146.1875 29.0625 C-146.1875 73.2825 -146.1875 117.5025 -146.1875 163.0625 C-104.6075 163.0625 -63.0275 163.0625 -20.1875 163.0625 C-20.5175 118.8425 -20.8475 74.6225 -21.1875 29.0625 C-62.4375 29.0625 -103.6875 29.0625 -146.1875 29.0625 Z M-146.1875 173.0625 C-146.1875 237.4125 -146.1875 301.7625 -146.1875 368.0625 C-132.9875 368.3925 -119.7875 368.7225 -106.1875 369.0625 C-106.8475 370.7125 -107.5075 372.3625 -108.1875 374.0625 C-109.392854 374.03518799 -110.59820801 374.00787598 -111.84008789 373.97973633 C-116.33387986 373.89256988 -120.82551859 373.87830919 -125.32006836 373.88549805 C-127.26099466 373.87854364 -129.20195661 373.85209904 -131.14233398 373.80541992 C-142.26608615 373.09458689 -142.26608615 373.09458689 -151.92407227 377.42211914 C-153.69936313 380.24306129 -154.92111309 382.9878969 -156.1875 386.0625 C-157.40461045 387.70779943 -158.66928756 389.32014552 -160 390.875 C-163.0159438 394.44306165 -163.56785715 396.20357144 -165.1875 401.0625 C-111.0675 401.0625 -56.9475 401.0625 -1.1875 401.0625 C-3.4975 397.1025 -5.8075 393.1425 -8.1875 389.0625 C-8.81841553 387.6811084 -9.44933105 386.2997168 -10.09936523 384.87646484 C-13.31228716 378.19510443 -13.31228716 378.19510443 -19.32891846 374.31115723 C-25.60208304 373.1414419 -31.90470923 373.44754522 -38.25 373.6875 C-40.18418241 373.70953273 -42.11844815 373.72521784 -44.05273438 373.734375 C-48.7684616 373.7704381 -53.47476576 373.89281488 -58.1875 374.0625 C-58.6825 371.5875 -58.6825 371.5875 -59.1875 369.0625 C-57.46865601 369.02491577 -57.46865601 369.02491577 -55.71508789 368.98657227 C-51.47896402 368.89266894 -47.24301072 368.79240725 -43.00708008 368.69018555 C-41.17085753 368.6467718 -39.33459292 368.60510161 -37.49829102 368.56518555 C-34.86461689 368.50763831 -32.23115579 368.44390002 -29.59765625 368.37890625 C-28.77161392 368.36219376 -27.94557159 368.34548126 -27.09449768 368.32826233 C-23.33273247 368.58442567 -23.33273247 368.58442567 -20.1875 367.0625 C-20.08756162 364.57326994 -20.05308485 362.11172448 -20.06051636 359.62194824 C-20.05895637 358.83367378 -20.05739638 358.04539931 -20.05578911 357.23323774 C-20.05177593 354.57148887 -20.05496998 351.90979625 -20.05810547 349.24804688 C-20.05675157 347.3480679 -20.0549717 345.44808918 -20.05279541 343.54811096 C-20.04821974 338.37264175 -20.05001119 333.19719237 -20.0531745 328.02172279 C-20.05569741 322.61828175 -20.05336075 317.21484247 -20.05178833 311.81140137 C-20.04996643 302.73542982 -20.05237347 293.6594664 -20.05712891 284.58349609 C-20.06257156 274.07423168 -20.06080892 263.56498666 -20.0553025 253.05572271 C-20.05077194 244.05023962 -20.05012054 235.04476238 -20.05274117 226.03927851 C-20.05430426 220.6530084 -20.05449684 215.26674743 -20.05120468 209.88047791 C-20.0483268 204.81790695 -20.05030012 199.75536112 -20.05609894 194.69279289 C-20.05742698 192.82909627 -20.05703167 190.96539754 -20.05483627 189.10170174 C-20.0521265 186.56878936 -20.05550375 184.03595884 -20.06051636 181.50305176 C-20.05828564 180.7556937 -20.05605491 180.00833564 -20.05375659 179.23833036 C-19.7678887 175.86438172 -19.7678887 175.86438172 -21.1875 173.0625 C-22.8070634 172.96646978 -24.43083083 172.94062145 -26.05323792 172.94224548 C-27.62965356 172.94017924 -27.62965356 172.94017924 -29.23791599 172.93807125 C-30.40536319 172.94166936 -31.57281038 172.94526747 -32.77563477 172.94897461 C-34.01477851 172.94885407 -35.25392225 172.94873354 -36.53061581 172.94860935 C-39.89322457 172.94923441 -43.2557723 172.9541935 -46.61837006 172.96121979 C-49.76962692 172.96689988 -52.92088217 172.9671821 -56.07214355 172.96789551 C-65.29810041 172.9731502 -74.52405065 172.98711125 -83.75 173 C-104.354375 173.020625 -124.95875 173.04125 -146.1875 173.0625 Z M-167.1875 177.0625 C-168.45255417 180.85766252 -168.32206858 184.40444749 -168.30775452 188.35771179 C-168.30860894 189.21373751 -168.30946337 190.06976323 -168.31034368 190.95172912 C-168.31199564 193.8307148 -168.30648171 196.7096427 -168.30102539 199.58862305 C-168.30074343 201.64815266 -168.30090142 203.70768236 -168.3014679 205.76721191 C-168.30175553 211.36810407 -168.29586425 216.96897493 -168.28889394 222.56986213 C-168.28265479 228.4195239 -168.28205615 234.26918612 -168.28086853 240.11885071 C-168.27775688 251.20041169 -168.26954571 262.28196284 -168.25951904 273.36351949 C-168.24835277 285.97761619 -168.24284615 298.59171335 -168.23782361 311.20581377 C-168.22736297 337.15804797 -168.20976672 363.11027343 -168.1875 389.0625 C-164.90924943 385.90331937 -162.73542351 382.85609046 -160.5 378.875 C-157.25694444 373.13194444 -157.25694444 373.13194444 -156.1875 372.0625 C-156.0897375 369.5079283 -156.05754854 366.98041539 -156.06724548 364.42539978 C-156.06639106 363.61600199 -156.06553663 362.8066042 -156.06465632 361.9726792 C-156.06299904 359.23949528 -156.06852691 356.50637169 -156.07397461 353.77319336 C-156.07425645 351.82233176 -156.0740988 349.87147006 -156.0735321 347.92060852 C-156.07324402 342.60677841 -156.07914246 337.29297066 -156.08610606 331.97914577 C-156.09233784 326.43243315 -156.09294326 320.88572009 -156.09413147 315.33900452 C-156.09724531 304.82757375 -156.1054594 294.31615334 -156.11548096 283.80472714 C-156.12664047 271.84120865 -156.13215214 259.87768968 -156.13717639 247.91416728 C-156.14764197 223.29693911 -156.16524242 198.67972013 -156.1875 174.0625 C-162.33813541 173.74003205 -162.33813541 173.74003205 -167.1875 177.0625 Z M-11.1875 174.0625 C-11.35116897 199.55801884 -11.47453349 225.05345872 -11.5501852 250.54939747 C-11.5862485 262.38817236 -11.63539849 274.22662044 -11.71557617 286.06518555 C-11.78544225 296.38613743 -11.83053037 306.70685259 -11.84611946 317.02803439 C-11.85522922 322.49094531 -11.87657265 327.95317911 -11.9276104 333.41587257 C-11.97531006 338.56324296 -11.98974332 343.70966072 -11.97925377 348.85723114 C-11.98117125 350.74096806 -11.99498508 352.62473856 -12.02193832 354.50828362 C-12.17360725 365.65910379 -11.63863652 373.14356601 -4.1875 382.0625 C-3.2208793 383.45260715 -2.26151728 384.8478161 -1.3125 386.25 C-0.61125 387.178125 0.09 388.10625 0.8125 389.0625 C1.1425 389.0625 1.4725 389.0625 1.8125 389.0625 C1.92923092 361.76830761 2.01743808 334.47415255 2.07156086 307.17976093 C2.09735743 294.50688146 2.13253597 281.83415696 2.18969727 269.16137695 C2.23948745 258.11753796 2.27178043 247.07381117 2.28294247 236.02986306 C2.2894686 230.18053212 2.30483746 224.33152225 2.34115028 218.48229408 C2.37504019 212.97885674 2.38556699 207.47587331 2.37803841 201.97234154 C2.37941608 199.95065725 2.38939001 197.92895807 2.40852737 195.90736389 C2.43335591 193.14974364 2.42744259 190.39384362 2.41377258 187.63618469 C2.42833679 186.83364976 2.442901 186.03111482 2.45790654 185.20426065 C2.40638297 181.36677503 1.92889373 179.23591876 -0.22507954 176.02664471 C-4.22538562 173.37436083 -6.46650886 173.662416 -11.1875 174.0625 Z M-168.1875 411.0625 C-168.1875 438.7825 -168.1875 466.5025 -168.1875 495.0625 C-167.09709594 496.37788409 -167.09709594 496.37788409 -164.42511654 496.18554783 C-163.17977422 496.18462604 -161.9344319 496.18370424 -160.65135193 496.18275452 C-159.61488977 496.18403615 -159.61488977 496.18403615 -158.55748898 496.18534368 C-156.2250678 496.18700047 -153.89271737 496.1814739 -151.56030273 496.17602539 C-149.89515179 496.17574354 -148.23000072 496.17590122 -146.56484985 496.1764679 C-142.02991894 496.17675594 -137.49501424 496.17085816 -132.96008945 496.16389394 C-128.22616631 496.15766148 -123.49224264 496.15705669 -118.75831604 496.15586853 C-109.787479 496.15275489 -100.81665408 496.14454108 -91.84582239 496.13451904 C-79.72810753 496.12127395 -67.61038938 496.11585826 -55.49266911 496.11001682 C-36.39093698 496.1006012 -17.28923045 496.0806825 1.8125 496.0625 C1.8125 468.0125 1.8125 439.9625 1.8125 411.0625 C-54.2875 411.0625 -110.3875 411.0625 -168.1875 411.0625 Z M-185.06862068 506.97634125 C-188.02717235 510.85190107 -188.02717235 510.85190107 -189.1875 520.0625 C-119.2275 520.0625 -49.2675 520.0625 22.8125 520.0625 C20.07960519 508.88239159 20.07960519 508.88239159 15.8125 505.0625 C13.12158868 504.76346006 10.66082805 504.64917336 7.96853638 504.66809082 C6.75716816 504.65895416 6.75716816 504.65895416 5.52132785 504.64963293 C2.80590646 504.63293798 0.09095066 504.63778793 -2.62451172 504.64257812 C-4.56756073 504.63524151 -6.51060537 504.62665648 -8.4536438 504.61691284 C-13.73879569 504.59464404 -19.02379191 504.59176888 -24.30898428 504.59366035 C-28.71764999 504.59377982 -33.12628244 504.5852254 -37.53493893 504.57688284 C-47.93461064 504.55762907 -58.33420207 504.55477198 -68.73388672 504.56152344 C-79.46932322 504.56816456 -90.20441617 504.54530142 -100.93978298 504.50820971 C-110.15005665 504.4775397 -119.36021967 504.46614979 -128.57054341 504.47004652 C-134.07438502 504.47211698 -139.57795941 504.46658909 -145.08175278 504.44215393 C-150.25780619 504.41993429 -155.43330024 504.42172486 -160.60935593 504.44208145 C-162.51008028 504.44550009 -164.41084193 504.44036582 -166.31151581 504.42609787 C-168.90485685 504.4079723 -171.49628677 504.42060333 -174.08956909 504.44104004 C-175.22026489 504.42226327 -175.22026489 504.42226327 -176.37380302 504.40310717 C-179.98641423 504.46422358 -182.04327547 504.96669601 -185.06862068 506.97634125 Z M-224.1875 533.0625 C-224.67011667 535.57130616 -224.67011667 535.57130616 -224.4375 538.25 C-224.40140625 539.15105469 -224.3653125 540.05210937 -224.328125 540.98046875 C-224.28171875 541.66753906 -224.2353125 542.35460937 -224.1875 543.0625 C-188.40678397 543.08536518 -152.62606921 543.10299762 -116.84534738 543.11356533 C-112.62565801 543.11481611 -108.40596865 543.11611042 -104.1862793 543.11743164 C-103.34617886 543.11769395 -102.50607842 543.11795626 -101.64052039 543.11822652 C-88.01945574 543.12258346 -74.3983953 543.13047114 -60.77733315 543.1396528 C-46.81150533 543.14898867 -32.84567971 543.15455547 -18.8798489 543.15658849 C-10.25509329 543.15796386 -1.63034954 543.16231519 6.99440242 543.17041647 C12.90050626 543.17568311 18.80660393 543.17730448 24.71270996 543.17600138 C28.12541604 543.17535787 31.53810132 543.17637695 34.95080376 543.18170547 C38.64201909 543.18663512 42.33318243 543.18550099 46.0243988 543.18275452 C47.66006425 543.18712378 47.66006425 543.18712378 49.32877344 543.19158131 C50.30959864 543.18959026 51.29042385 543.18759921 52.30097103 543.18554783 C53.15420261 543.18592755 54.0074342 543.18630727 54.88652128 543.1866985 C56.82026349 543.27478225 56.82026349 543.27478225 57.8125 542.0625 C58.08184623 538.56099899 58.02101253 535.7298183 56.97024441 532.36696625 C54.41888171 529.64211654 53.76238765 529.67351374 50.15975285 529.43888092 C48.11951873 529.41382928 46.07883474 529.41691304 44.03858948 529.44104004 C42.91587157 529.43465122 41.79315366 529.4282624 40.63641399 529.42167997 C36.85433907 529.40635484 33.07329909 529.42694249 29.29125977 529.44726562 C26.58796647 529.44652999 23.88470772 529.43830785 21.181427 529.43045044 C14.58899886 529.41590334 7.99687804 529.42817862 1.40447897 529.44956368 C-6.26904845 529.47354432 -13.942505 529.4718611 -21.61606158 529.46925777 C-35.30636085 529.46556515 -48.99651509 529.48641339 -62.68676758 529.52050781 C-75.97716946 529.55359426 -89.26741909 529.56776749 -102.55786133 529.56152344 C-117.02163009 529.55476159 -131.48533502 529.55721431 -145.94909436 529.57688284 C-147.09607191 529.57844207 -147.09607191 529.57844207 -148.26622074 529.5800328 C-149.80207806 529.58212373 -151.33793536 529.5842347 -152.87379263 529.58636597 C-158.22499939 529.59326629 -163.5761865 529.59393008 -168.92739677 529.59248352 C-175.44789525 529.59104476 -181.96826944 529.60071704 -188.48872667 529.62442988 C-191.81684877 529.63630218 -195.14465103 529.64180822 -198.47281456 529.63759232 C-202.07761199 529.6338961 -205.68187047 529.64856111 -209.28660583 529.66809082 C-210.87107542 529.66009893 -210.87107542 529.66009893 -212.48755449 529.65194559 C-213.93362631 529.66553055 -213.93362631 529.66553055 -215.40891171 529.67938995 C-216.24115133 529.68096116 -217.07339096 529.68253236 -217.93084997 529.68415117 C-220.82216501 530.16890762 -222.16383589 530.94064289 -224.1875 533.0625 Z M-176.1875 553.0625 C-176.1875 559.6625 -176.1875 566.2625 -176.1875 573.0625 C-172.68529813 577.44270802 -172.68529813 577.44270802 -168.4375 577.3125 C-166.82875 577.18875 -166.82875 577.18875 -165.1875 577.0625 C-164.8575 573.1025 -164.5275 569.1425 -164.1875 565.0625 C-160.1875 564.0625 -160.1875 564.0625 -158.1875 564.0625 C-157.8575 568.3525 -157.5275 572.6425 -157.1875 577.0625 C-152.2375 577.0625 -147.2875 577.0625 -142.1875 577.0625 C-142.22875 575.845625 -142.27 574.62875 -142.3125 573.375 C-142.32504508 569.84355873 -141.78748217 567.26246434 -140.1875 564.0625 C-138.5375 564.0625 -136.8875 564.0625 -135.1875 564.0625 C-134.6925 570.4975 -134.6925 570.4975 -134.1875 577.0625 C-129.8975 577.0625 -125.6075 577.0625 -121.1875 577.0625 C-120.8575 573.1025 -120.5275 569.1425 -120.1875 565.0625 C-118.5375 564.7325 -116.8875 564.4025 -115.1875 564.0625 C-113.24499132 567.94751735 -113.53400443 572.80544555 -113.1875 577.0625 C-108.2375 577.0625 -103.2875 577.0625 -98.1875 577.0625 C-97.8575 573.1025 -97.5275 569.1425 -97.1875 565.0625 C-93.7225 564.5675 -93.7225 564.5675 -90.1875 564.0625 C-90.1875 568.3525 -90.1875 572.6425 -90.1875 577.0625 C-85.8975 577.0625 -81.6075 577.0625 -77.1875 577.0625 C-76.8575 573.1025 -76.5275 569.1425 -76.1875 565.0625 C-71.1875 564.0625 -71.1875 564.0625 -69.1875 564.0625 C-68.6925 570.4975 -68.6925 570.4975 -68.1875 577.0625 C-63.2375 577.0625 -58.2875 577.0625 -53.1875 577.0625 C-52.8575 573.1025 -52.5275 569.1425 -52.1875 565.0625 C-49.7125 564.5675 -49.7125 564.5675 -47.1875 564.0625 C-44.72660088 566.52339912 -45.41087672 574.03095878 -45.1875 577.0625 C-40.5675 577.0625 -35.9475 577.0625 -31.1875 577.0625 C-30.8575 573.1025 -30.5275 569.1425 -30.1875 565.0625 C-26.1875 564.0625 -26.1875 564.0625 -24.1875 565.0625 C-23.58136091 569.04815046 -23.44185265 573.03524969 -23.1875 577.0625 C-18.5675 577.0625 -13.9475 577.0625 -9.1875 577.0625 C-8.8575 573.1025 -8.5275 569.1425 -8.1875 565.0625 C-6.5375 564.7325 -4.8875 564.4025 -3.1875 564.0625 C-0.97836 567.37621 -0.96268447 568.4071021 -1.0625 572.25 C-1.08054687 573.15105469 -1.09859375 574.05210937 -1.1171875 574.98046875 C-1.14039063 575.66753906 -1.16359375 576.35460937 -1.1875 577.0625 C4.09339024 577.36716674 5.389668 577.379624 9.8125 574.0625 C9.8125 567.1325 9.8125 560.2025 9.8125 553.0625 C-51.5675 553.0625 -112.9475 553.0625 -176.1875 553.0625 Z " fill="#000000" transform="translate(418.1875,55.9375)"/>
<path d="M0 0 C4.42000747 2.54810132 7.6193968 5.32937379 9.65625 10.08203125 C10.36874544 15.90074403 10.46312891 21.1174565 8.21875 26.58203125 C3.61225023 31.07617736 -1.34676674 34.29848212 -7.90625 34.70703125 C-14.2106918 34.32126995 -18.60216008 30.95758963 -22.78125 26.45703125 C-25.95267156 21.63647048 -26.0649782 16.67776725 -25.34375 11.08203125 C-23.43606875 6.06046669 -20.29902501 2.0785483 -15.42578125 -0.2890625 C-10.28627635 -1.84152083 -5.02815373 -1.96936021 0 0 Z M-16.34375 10.08203125 C-17.95614752 13.3068263 -17.79130657 16.58590093 -17.34375 20.08203125 C-16.04162944 23.61897403 -16.04162944 23.61897403 -13.34375 26.08203125 C-9.40693964 27.54497957 -6.38872024 27.52324091 -2.53125 25.89453125 C1.03183856 22.94225787 2.48366995 21.41336305 3.09375 16.70703125 C2.58227348 12.46908294 1.32035812 10.37298834 -1.34375 7.08203125 C-7.06247108 4.22267071 -12.12145087 5.73178366 -16.34375 10.08203125 Z " fill="#000000" transform="translate(342.34375,276.91796875)"/>
<path d="M0 0 C3.23872284 2.71148889 5.79118119 5.45736239 7.6875 9.25 C8.1771025 15.06101979 8.49115453 20.41766768 6.125 25.8125 C0.8163245 31.1211755 -3.94849915 33.0162222 -11.3125 33.25 C-17.45773679 31.89804791 -21.9254376 29.11158374 -25.6875 24.0625 C-28.18854957 19.14446976 -28.24107257 14.31044333 -26.65234375 9.07421875 C-24.43861449 3.98551642 -21.25122808 0.77351676 -16.3125 -1.75 C-10.68274867 -3.60397433 -5.16225487 -2.72722899 0 0 Z M-18.1875 8.9375 C-19.84285084 12.34016562 -19.86603847 15.57916591 -19.3125 19.25 C-17.58282287 22.99547604 -17.58282287 22.99547604 -14.3125 25.25 C-10.30597405 25.81020451 -6.12433167 26.3338993 -2.54296875 24.19140625 C-0.03254251 21.52181754 1.03802088 18.81822862 1.3125 15.25 C0.98677524 10.53603896 -0.82498735 8.35843518 -4.3125 5.25 C-9.97635291 3.20137235 -13.84462866 5.0289158 -18.1875 8.9375 Z " fill="#000000" transform="translate(344.3125,348.75)"/>
<path d="M0 0 C5.04109122 2.3273823 8.25753602 5.23772829 10.77734375 10.27734375 C11.2706313 16.13210086 11.63478663 21.46718656 9.08984375 26.83984375 C5.45006455 30.67636777 2.00037307 33.97158642 -3.22265625 35.27734375 C-9.27344928 35.3783774 -13.50564141 34.24392441 -18.22265625 30.27734375 C-23.03307885 25.29744826 -24.54421962 21.38030342 -24.43359375 14.5546875 C-23.98594863 9.72177817 -21.84460996 6.62722242 -18.28515625 3.52734375 C-12.39995146 -0.79648018 -7.16124492 -2.32834852 0 0 Z M-14.22265625 9.27734375 C-16.76623608 12.32963954 -17.2316927 13.77130276 -17.16015625 17.77734375 C-16.1474937 21.5579506 -14.92869799 23.48930075 -12.22265625 26.27734375 C-9.02092371 27.87821002 -5.69688566 27.77651464 -2.22265625 27.27734375 C0.58737835 25.48370464 2.28674843 24.2585344 3.77734375 21.27734375 C4.27472035 16.30357775 4.32245794 14.21425877 1.77734375 9.83984375 C-1.46229155 7.07265527 -3.14716726 6.32037709 -7.296875 6.109375 C-10.30705914 6.37192656 -11.94487044 7.32495591 -14.22265625 9.27734375 Z " fill="#000000" transform="translate(341.22265625,417.72265625)"/>
<path d="M0 0 C5.43887529 2.49420815 9.41168675 5.52441938 12 11 C12.92875846 16.63312199 13.34444876 22.47303888 10.60546875 27.62109375 C6.83148346 32.1021874 3.25151303 34.4945331 -2.61328125 35.40625 C-8.91259603 35.62503951 -12.48719803 34.77768978 -17.34375 30.703125 C-21.99157977 25.92375288 -23.36693655 21.93480979 -23.28125 15.34765625 C-22.68425031 10.36436715 -20.16040931 7.07337861 -16.5 3.6875 C-11.0157906 -0.01434134 -6.60898226 -1.1111593 0 0 Z M-12 9 C-14.91574059 12.54054214 -15.52344517 15.60710563 -15.36328125 20.06640625 C-14.78568163 23.14072683 -13.19864432 24.86602169 -11 27 C-7.78540014 28.60729993 -4.47611897 28.61930855 -1 28 C1.96050874 25.70800597 1.96050874 25.70800597 4 23 C4.33 22.67 4.66 22.34 5 22 C5.6066518 16.87804863 5.6066518 16.87804863 3.953125 12.171875 C2.16998077 10.01112375 0.52253812 8.26126906 -2 7 C-5.88795111 6.74643797 -8.78463789 6.67163434 -12 9 Z " fill="#000000" transform="translate(340,488)"/>
</svg>
