<?xml version="1.0" encoding="UTF-8"?>
<svg version="1.1" xmlns="http://www.w3.org/2000/svg" width="563" height="563">
<path d="M0 0 C185.79 0 371.58 0 563 0 C563 185.79 563 371.58 563 563 C377.21 563 191.42 563 0 563 C0 377.21 0 191.42 0 0 Z " fill="#FEFEFE" transform="translate(0,0)"/>
<path d="M0 0 C0.99 0 1.98 0 3 0 C3 0.66 3 1.32 3 2 C3.71542969 2.23976563 4.43085938 2.47953125 5.16796875 2.7265625 C8.43414699 4.19521644 10.61669449 6.01855331 13.3125 8.375 C18.00939255 12.40725891 22.83649934 16.19337302 27.8125 19.875 C33.0453213 23.75389621 38.1895962 27.71124874 43.25 31.8125 C49.0633001 36.5182454 55.00062695 41.034297 61 45.5 C67.68902612 50.48023395 74.28050115 55.55024142 80.76733398 60.79077148 C84.65984143 63.93465845 88.58811159 67.02280215 92.5625 70.0625 C96.9621442 73.42775977 101.33664302 76.82186429 105.6875 80.25 C111.02740313 84.45597001 116.38329817 88.6407753 121.75 92.8125 C122.86894653 93.68261719 122.86894653 93.68261719 124.01049805 94.5703125 C128.03020282 97.69508033 132.05281134 100.81605454 136.078125 103.93359375 C136.9021582 104.57256592 137.72619141 105.21153809 138.57519531 105.86987305 C140.16217728 107.10037527 141.75003433 108.32974992 143.33886719 109.55786133 C144.05204102 110.11111084 144.76521484 110.66436035 145.5 111.234375 C146.1290625 111.72131836 146.758125 112.20826172 147.40625 112.70996094 C150.75810403 115.42307317 151.56670792 117.35235025 152.625 121.5 C152.88539063 122.4796875 153.14578125 123.459375 153.4140625 124.46875 C155.41987434 136.55710937 155.41987434 136.55710937 151.796875 141.9140625 C150.80495382 143.17012936 149.78789675 144.40664786 148.75 145.625 C147.63989991 147.01113837 146.53054567 148.39787433 145.421875 149.78515625 C144.85146484 150.4827002 144.28105469 151.18024414 143.69335938 151.89892578 C141.02485215 155.20993691 138.52325201 158.64044663 136 162.0625 C131.55239348 168.02323982 126.95726211 173.8502934 122.2890625 179.63916016 C117.71572301 185.32132442 113.34341019 191.1404247 109 197 C107.14920705 199.48169746 105.29397566 201.96005149 103.4375 204.4375 C102.93903564 205.10289795 102.44057129 205.7682959 101.92700195 206.45385742 C97.03901689 212.96787209 92.09660553 219.44000792 87.15429688 225.9128418 C81.77391572 232.9665626 76.44089146 240.05476246 71.13549805 247.16503906 C70.56355713 247.93041992 69.99161621 248.69580078 69.40234375 249.484375 C68.57259033 250.59522461 68.57259033 250.59522461 67.72607422 251.72851562 C65.30281958 254.9174776 62.80019078 258.04241452 60.28735352 261.16113281 C58.80883129 262.89894918 58.80883129 262.89894918 59 265 C59.99 265.66 60.98 266.32 62 267 C67.82607424 284.47822272 60.25060316 307.13104093 55 324 C53.35 324.33 51.7 324.66 50 325 C49.55011719 324.39414062 49.10023438 323.78828125 48.63671875 323.1640625 C43.43357438 316.38641953 36.81621722 307.90810861 29 304 C28.65775391 304.77730469 28.65775391 304.77730469 28.30859375 305.5703125 C26.52136246 308.88869417 24.30194932 311.85404993 22.0625 314.875 C21.57450928 315.53701416 21.08651855 316.19902832 20.58374023 316.88110352 C16.87727257 321.88194987 13.06052582 326.78746673 9.19311523 331.66430664 C5.76608067 335.995387 2.42841191 340.38654328 -0.875 344.8125 C-8.86201577 355.50969629 -16.95791153 366.12077585 -25.18505859 376.63452148 C-31.26648975 384.40956938 -37.19631477 392.27776755 -43.02880859 400.24121094 C-47.4758787 406.30847311 -52.02165002 412.28564501 -56.6328125 418.22949219 C-60.04334777 422.64613536 -63.41774988 427.09075965 -66.79907227 431.52978516 C-67.33072998 432.2263623 -67.8623877 432.92293945 -68.41015625 433.640625 C-68.88590088 434.26485352 -69.36164551 434.88908203 -69.85180664 435.53222656 C-71.75844776 437.96954878 -71.75844776 437.96954878 -74.29296875 438.2890625 C-77.76420993 437.91839605 -78.83715381 436.79151712 -81.3125 434.375 C-85.35653848 430.57706255 -89.52385509 427.26551497 -94 424 C-107.024639 414.30080074 -119.96458421 404.4962004 -132.61425781 394.31152344 C-137.08253682 390.71835176 -141.60265533 387.20088397 -146.15722656 383.71801758 C-150.13043545 380.67735848 -154.07078401 377.59725498 -158 374.5 C-165.87067276 368.30267104 -173.76618481 362.13773009 -181.80859375 356.1640625 C-189.34893751 350.56120682 -196.73499069 344.83057187 -203.99047852 338.86279297 C-208.6510228 335.04738963 -213.41193112 331.39927438 -218.25 327.8125 C-220.20655187 326.34754167 -222.16122646 324.88013177 -224.11474609 323.41113281 C-225.36576493 322.47473176 -226.6212865 321.54431465 -227.88134766 320.62011719 C-229.62734644 319.33221544 -231.34654028 318.01503257 -233.0625 316.6875 C-234.04347656 315.94886719 -235.02445312 315.21023438 -236.03515625 314.44921875 C-238 312 -238 312 -238.203125 308.734375 C-236.60865868 303.78531721 -233.98000844 300.52692244 -230.6875 296.5625 C-229.39586941 294.95674669 -228.10552612 293.34995715 -226.81640625 291.7421875 C-226.16945801 290.94264648 -225.52250977 290.14310547 -224.85595703 289.31933594 C-222.19970797 285.99989815 -219.65697698 282.6021043 -217.125 279.1875 C-212.45790685 272.92653412 -207.73890563 266.70677244 -203 260.5 C-198.30751871 254.35235324 -193.6301541 248.19473914 -189 242 C-183.690087 234.89580321 -178.31535728 227.84203341 -172.93286133 220.79272461 C-168.82166455 215.40419588 -164.7404483 209.99493375 -160.6875 204.5625 C-157.08585617 199.73793901 -153.42705146 194.96840172 -149.6875 190.25 C-145.02087568 184.35426664 -140.46272733 178.37986716 -135.9375 172.375 C-135.28160889 171.50907227 -134.62571777 170.64314453 -133.94995117 169.75097656 C-133.33611572 168.93338867 -132.72228027 168.11580078 -132.08984375 167.2734375 C-131.54191162 166.54560059 -130.99397949 165.81776367 -130.42944336 165.06787109 C-129.07336138 163.10612654 -128.00526136 161.15895464 -127 159 C-127.65742188 158.91621094 -128.31484375 158.83242187 -128.9921875 158.74609375 C-133.02104321 157.74672824 -136.44712941 155.95502904 -140.125 154.0625 C-140.84042969 153.70220703 -141.55585938 153.34191406 -142.29296875 152.97070312 C-145.32767091 151.43066268 -148.16116361 149.89255759 -151 148 C-151.484375 145.6796875 -151.484375 145.6796875 -151 143 C-143.55906842 133.88925307 -132.82314595 127.78774844 -122 123.625 C-115.98445114 121.26004807 -111.42085409 117.87164812 -106.3984375 113.890625 C-104 112 -104 112 -102 111 C-100.30617187 111.28230469 -100.30617187 111.28230469 -98.578125 111.5703125 C-93.8736053 112.26848061 -89.53922848 112.66376138 -85 111 C-79.62803911 106.5862455 -76.13827348 100.27744926 -72.52978516 94.42333984 C-70.46727877 91.15611381 -68.15456099 88.1442608 -65.75 85.125 C-64.96238281 84.10792969 -64.17476562 83.09085937 -63.36328125 82.04296875 C-62.19345703 80.53669922 -62.19345703 80.53669922 -61 79 C-59.31005855 76.81437764 -57.62311161 74.62646297 -55.9375 72.4375 C-55.52209961 71.89818848 -55.10669922 71.35887695 -54.67871094 70.80322266 C-51.92557757 67.22198996 -49.2050319 63.6178019 -46.5 60 C-40.61286216 52.12993441 -34.61282781 44.34871031 -28.5703125 36.59765625 C-27.35935323 35.04428781 -26.14841599 33.49090218 -24.9375 31.9375 C-24.33639404 31.16647949 -23.73528809 30.39545898 -23.1159668 29.60107422 C-19.02652309 24.34585643 -15.01649795 19.03970792 -11.0390625 13.69921875 C-2.82248521 2.82248521 -2.82248521 2.82248521 0 0 Z " fill="#121211" transform="translate(321,64)"/>
<path d="M0 0 C3.23727973 1.42597147 5.42985357 3.16172159 7.94140625 5.640625 C8.68438965 6.37394043 9.42737305 7.10725586 10.19287109 7.86279297 C26.8379863 24.63138317 41.14717941 42.81374757 50 65 C50.38800781 65.91523438 50.77601563 66.83046875 51.17578125 67.7734375 C54 74.54768041 54 74.54768041 54 78 C52.94941406 78.24234375 51.89882813 78.4846875 50.81640625 78.734375 C43.21034219 80.53283089 35.96078542 82.33562177 29 86 C27.989375 86.495 26.97875 86.99 25.9375 87.5 C25.298125 87.995 24.65875 88.49 24 89 C24 90.32 24 91.64 24 93 C24.7842334 93.01458252 25.5684668 93.02916504 26.37646484 93.04418945 C56.18644174 93.66186579 83.73835924 97.47506071 110.625 111.25 C111.34300781 111.61351562 112.06101562 111.97703125 112.80078125 112.3515625 C114.53576209 113.23061946 116.26817194 114.11474794 118 115 C116.47587802 118.44515073 114.4355742 121.01320031 112 123.875 C108.5824334 127.98803326 105.38051676 132.18078458 102.3125 136.5625 C96.70213256 144.55102994 90.67930617 152.20393 84.65576172 159.8828125 C82.27344878 162.92902569 79.91578318 165.99383707 77.5625 169.0625 C74.86782396 172.57347856 72.16418064 176.07633297 69.4375 179.5625 C66.02177737 183.94388253 62.70101086 188.39408682 59.375 192.84375 C56.59879038 196.53318647 53.77983157 200.18831305 50.95751953 203.8425293 C45.97697109 210.305682 41.09607114 216.84365103 36.21142578 223.37939453 C34.80973967 225.254524 33.40543294 227.12767748 32 229 C28.72485984 228.39221394 26.76195447 227.28888705 24.1640625 225.2265625 C23.43703125 224.65486328 22.71 224.08316406 21.9609375 223.49414062 C21.19007813 222.87732422 20.41921875 222.26050781 19.625 221.625 C18.820625 220.99013672 18.01625 220.35527344 17.1875 219.70117188 C15.55155807 218.4092971 13.91775209 217.11471275 12.28613281 215.81738281 C9.20115118 213.36494761 6.10070236 210.93249893 3 208.5 C1.87108177 207.6119944 0.74217576 206.72397326 -0.38671875 205.8359375 C-10.4549148 197.92621448 -20.56888223 190.07632621 -30.75 182.3125 C-36.40850768 177.99722565 -42.03205499 173.64219644 -47.61987305 169.23583984 C-57.6095059 161.35953521 -67.65635411 153.55503439 -77.75 145.8125 C-84.54409323 140.59762129 -91.2749207 135.30343585 -98 130 C-96.72333182 127.30477067 -95.32934471 124.94347394 -93.53125 122.56640625 C-92.80591064 121.60311401 -92.80591064 121.60311401 -92.06591797 120.62036133 C-91.54916504 119.94126709 -91.03241211 119.26217285 -90.5 118.5625 C-89.96391113 117.85311279 -89.42782227 117.14372559 -88.87548828 116.4128418 C-83.95521605 109.91245846 -78.98550708 103.45040445 -74 97 C-70.66057304 92.67132499 -67.3270295 88.33820652 -64 84 C-63.41444336 83.23655273 -62.82888672 82.47310547 -62.22558594 81.68652344 C-54.96130496 72.20639671 -47.74360983 62.6988729 -40.6875 53.0625 C-36.33622684 47.1226668 -31.9124489 41.26208407 -27.33178711 35.49755859 C-22.37713222 29.25073838 -17.56490455 22.8961556 -12.74462891 16.54541016 C-8.53397366 11.0005187 -4.28747008 5.48573314 0 0 Z " fill="#FDFDFC" transform="translate(213,239)"/>
<path d="M0 0 C0.99 0.495 0.99 0.495 2 1 C1.67 1.66 1.34 2.32 1 3 C1.66 3 2.32 3 3 3 C3 2.34 3 1.68 3 1 C3.99 0.67 4.98 0.34 6 0 C6 0.66 6 1.32 6 2 C6.66 2 7.32 2 8 2 C6.63482838 6.09551485 4.67663975 6.82125052 1 9 C-1.98958635 10.35377495 -4.996215 11.61334278 -8.05859375 12.79296875 C-14.43525847 15.39592101 -23.81909913 19.63819827 -27 26 C-25.97326172 26.14501953 -25.97326172 26.14501953 -24.92578125 26.29296875 C-9.28662547 30.0722574 5.39044615 43.32543233 16.84375 53.99609375 C18.84701924 55.85782767 20.90573297 57.6173116 23 59.375 C40.40068869 74.69177388 55.27831291 96.11368945 63 118 C62.57592192 114.70646327 62.13320452 111.41567413 61.6875 108.125 C61.51057617 106.74828125 61.51057617 106.74828125 61.33007812 105.34375 C60.55801531 99.72154899 59.383877 94.54524747 57.49926758 89.18701172 C56.9419387 86.74566595 57.20229832 85.34602429 58 83 C58.99 83 59.98 83 61 83 C62.70532323 81.05990478 62.70532323 81.05990478 64 79 C64.10957031 79.82242188 64.21914063 80.64484375 64.33203125 81.4921875 C65.41915683 89.17354346 65.41915683 89.17354346 67.5 96.625 C70.0596853 104.42099583 70.29065306 112.87171864 71 121 C71.40839111 120.44014404 71.81678223 119.88028809 72.23754883 119.3034668 C74.09316691 116.76282713 75.95278431 114.2251416 77.8125 111.6875 C78.45509766 110.80642578 79.09769531 109.92535156 79.75976562 109.01757812 C80.69272461 107.74624023 80.69272461 107.74624023 81.64453125 106.44921875 C82.21534424 105.66893311 82.78615723 104.88864746 83.37426758 104.0847168 C85 102 85 102 86.6472168 100.40942383 C88.26199628 98.92864902 88.26199628 98.92864902 89 96 C88.26177002 95.73268066 87.52354004 95.46536133 86.76293945 95.18994141 C84.06554576 94.02822921 82.10116539 92.75815931 79.79296875 90.9609375 C78.66665039 90.09082031 78.66665039 90.09082031 77.51757812 89.203125 C76.74865234 88.59984375 75.97972656 87.9965625 75.1875 87.375 C74.39923828 86.76398438 73.61097656 86.15296875 72.79882812 85.5234375 C70.86179026 84.0207657 68.92907921 82.51286614 67 81 C67.33 79.68 67.66 78.36 68 77 C69.80175781 76.36889648 69.80175781 76.36889648 72 76 C74.42734502 77.6052762 76.54022084 79.19700231 78.75 81.0625 C79.37616211 81.56894043 80.00232422 82.07538086 80.64746094 82.59716797 C83.25025785 84.70274836 85.8158327 86.8400814 88.34375 89.03515625 C93.31654451 93.18254839 97.55975695 93.97360556 104 94 C102.68 94.33 101.36 94.66 100 95 C100 95.66 100 96.32 100 97 C101.32 97.33 102.64 97.66 104 98 C103.37351562 98.02578125 102.74703125 98.0515625 102.1015625 98.078125 C101.28429687 98.13484375 100.46703125 98.1915625 99.625 98.25 C98.81289063 98.29640625 98.00078125 98.3428125 97.1640625 98.390625 C96.09285156 98.69226563 96.09285156 98.69226563 95 99 C94.30280042 100.31762475 93.64202603 101.65462838 93 103 C91.9304847 104.52849064 90.8269178 106.03344866 89.69921875 107.51953125 C89.05146484 108.37740234 88.40371094 109.23527344 87.73632812 110.11914062 C87.06021484 111.00794922 86.38410156 111.89675781 85.6875 112.8125 C81.38461718 118.49263921 77.10747026 124.17644932 73 130 C75.31 130.33 77.62 130.66 80 131 C80 131.33 80 131.66 80 132 C77.36 132 74.72 132 72 132 C72 132.66 72 133.32 72 134 C73.65 134.33 75.3 134.66 77 135 C77 135.33 77 135.66 77 136 C88.385 136.495 88.385 136.495 100 137 C100 137.33 100 137.66 100 138 C99.32759277 138.01981934 98.65518555 138.03963867 97.96240234 138.06005859 C82.57532741 138.53282392 67.31351312 139.41954724 52 141 C52 141.66 52 142.32 52 143 C53.13308594 142.91298828 53.13308594 142.91298828 54.2890625 142.82421875 C79.85793358 141.7763142 107.27099202 152.24747178 129 165 C129.72477539 165.42216797 130.44955078 165.84433594 131.19628906 166.27929688 C143.86969037 173.73288768 154.80755891 182.35456153 165 193 C167.72247481 184.79395891 169.40589849 176.47926336 171 168 C172.485 169.485 172.485 169.485 174 171 C174.66 170.67 175.32 170.34 176 170 C177.20410845 174.33315217 176.73187239 177.56464756 175.8125 181.9375 C175.67739014 182.58340088 175.54228027 183.22930176 175.40307617 183.89477539 C173.93574066 190.69037813 172.01894022 197.34877054 170 204 C168.35 204.33 166.7 204.66 165 205 C164.32517578 204.09121094 164.32517578 204.09121094 163.63671875 203.1640625 C158.43357438 196.38641953 151.81621722 187.90810861 144 184 C143.65775391 184.77730469 143.65775391 184.77730469 143.30859375 185.5703125 C141.52136246 188.88869417 139.30194932 191.85404993 137.0625 194.875 C136.33051392 195.86802124 136.33051392 195.86802124 135.58374023 196.88110352 C131.87727257 201.88194987 128.06052582 206.78746673 124.19311523 211.66430664 C120.76608067 215.995387 117.42841191 220.38654328 114.125 224.8125 C106.13798423 235.50969629 98.04208847 246.12077585 89.81494141 256.63452148 C83.73351025 264.40956938 77.80368523 272.27776755 71.97119141 280.24121094 C67.5241213 286.30847311 62.97834998 292.28564501 58.3671875 298.22949219 C54.95665223 302.64613536 51.58225012 307.09075965 48.20092773 311.52978516 C47.66927002 312.2263623 47.1376123 312.92293945 46.58984375 313.640625 C46.11409912 314.26485352 45.63835449 314.88908203 45.14819336 315.53222656 C43.24155224 317.96954878 43.24155224 317.96954878 40.70703125 318.2890625 C37.23579007 317.91839605 36.16284619 316.79151712 33.6875 314.375 C29.64346152 310.57706255 25.47614491 307.26551497 21 304 C7.975361 294.30080074 -4.96458421 284.4962004 -17.61425781 274.31152344 C-22.08253682 270.71835176 -26.60265533 267.20088397 -31.15722656 263.71801758 C-35.13043545 260.67735848 -39.07078401 257.59725498 -43 254.5 C-50.87067276 248.30267104 -58.76618481 242.13773009 -66.80859375 236.1640625 C-74.34893751 230.56120682 -81.73499069 224.83057187 -88.99047852 218.86279297 C-93.6510228 215.04738963 -98.41193112 211.39927438 -103.25 207.8125 C-105.20655187 206.34754167 -107.16122646 204.88013177 -109.11474609 203.41113281 C-110.36576493 202.47473176 -111.6212865 201.54431465 -112.88134766 200.62011719 C-114.62734644 199.33221544 -116.34654028 198.01503257 -118.0625 196.6875 C-119.04347656 195.94886719 -120.02445312 195.21023438 -121.03515625 194.44921875 C-123 192 -123 192 -123.203125 188.734375 C-121.60865868 183.78531721 -118.98000844 180.52692244 -115.6875 176.5625 C-114.39586941 174.95674669 -113.10552612 173.34995715 -111.81640625 171.7421875 C-111.16945801 170.94264648 -110.52250977 170.14310547 -109.85595703 169.31933594 C-107.19970797 165.99989815 -104.65697698 162.6021043 -102.125 159.1875 C-97.45790685 152.92653412 -92.73890563 146.70677244 -88 140.5 C-83.30751871 134.35235324 -78.6301541 128.19473914 -74 122 C-68.690087 114.89580321 -63.31535728 107.84203341 -57.93286133 100.79272461 C-53.82166455 95.40419588 -49.7404483 89.99493375 -45.6875 84.5625 C-42.08585617 79.73793901 -38.42705146 74.96840172 -34.6875 70.25 C-30.02087568 64.35426664 -25.46272733 58.37986716 -20.9375 52.375 C-20.28160889 51.50907227 -19.62571777 50.64314453 -18.94995117 49.75097656 C-18.33611572 48.93338867 -17.72228027 48.11580078 -17.08984375 47.2734375 C-16.54191162 46.54560059 -15.99397949 45.81776367 -15.42944336 45.06787109 C-14.07336138 43.10612654 -13.00526136 41.15895464 -12 39 C-12.65742188 38.91621094 -13.31484375 38.83242187 -13.9921875 38.74609375 C-18.02104321 37.74672824 -21.44712941 35.95502904 -25.125 34.0625 C-25.84042969 33.70220703 -26.55585938 33.34191406 -27.29296875 32.97070312 C-30.32767091 31.43066268 -33.16116361 29.89255759 -36 28 C-36.484375 25.6796875 -36.484375 25.6796875 -36 23 C-27.63623209 12.75932355 -15.37076512 6.67311422 -3.30078125 1.9453125 C-1.07512647 1.20356811 -1.07512647 1.20356811 0 0 Z M7 55 C5.12366625 57.12691904 3.36580027 59.26548653 1.625 61.5 C1.09116699 62.17635498 0.55733398 62.85270996 0.00732422 63.54956055 C-4.19990534 68.90707902 -8.29665166 74.34519746 -12.36132812 79.8112793 C-16.12798807 84.86893156 -19.98526767 89.84908722 -23.875 94.8125 C-29.31648158 101.76571264 -34.59463537 108.82394151 -39.80883789 115.94873047 C-44.28017446 122.04994742 -48.84340991 128.07445706 -53.45288086 134.07177734 C-56.54037276 138.08888257 -59.59885338 142.12397096 -62.625 146.1875 C-66.30396737 151.11300393 -70.08712622 155.94759468 -73.89916992 160.77001953 C-77.6922166 165.57931141 -81.37730177 170.45987772 -85.02734375 175.37890625 C-86.97023618 177.96045243 -88.96901546 180.48739496 -91 183 C-89.45981142 187.05216282 -86.93485159 188.83355678 -83.5 191.375 C-82.32227165 192.25695182 -81.14522715 193.13981733 -79.96875 194.0234375 C-79.33195312 194.4987793 -78.69515625 194.97412109 -78.0390625 195.46386719 C-74.32356963 198.26294299 -70.66602405 201.13664471 -67 204 C-61.76316629 208.07984608 -56.51816477 212.14819263 -51.25 216.1875 C-46.89205619 219.53222187 -42.56285456 222.91010994 -38.25 226.3125 C-33.11830184 230.35908768 -27.94700698 234.35017733 -22.75 238.3125 C-10.74945527 247.463513 1.14940097 256.74417639 13.00439453 266.08276367 C18.02503831 270.03238578 23.08766521 273.92586732 28.16015625 277.80859375 C31 280 31 280 33.62109375 282.34765625 C35.7932654 284.23994157 35.7932654 284.23994157 37.98657227 283.79296875 C41.5436163 282.39206187 43.35079861 278.96150726 45.5 275.9375 C46.57005735 274.47116794 47.64037726 273.00502745 48.7109375 271.5390625 C49.52836426 270.40839355 49.52836426 270.40839355 50.36230469 269.25488281 C52.91138877 265.74514212 55.5176089 262.27902013 58.125 258.8125 C58.62596191 258.14452393 59.12692383 257.47654785 59.64306641 256.78833008 C67.2503349 246.65233311 75.04004377 236.65824049 82.82324219 226.65722656 C93.14283168 213.39399804 103.29580592 200.01581562 113.32421875 186.53125 C113.86643066 185.80397705 114.40864258 185.0767041 114.96728516 184.32739258 C116.0067982 182.93294326 117.04433363 181.53701684 118.07958984 180.1394043 C118.54961426 179.50945557 119.01963867 178.87950684 119.50390625 178.23046875 C120.11987671 177.40131958 120.11987671 177.40131958 120.74829102 176.55541992 C122 175 122 175 123.65600586 173.4230957 C125.22887085 172.08389671 125.22887085 172.08389671 125 170 C119.69006811 167.28438762 114.35632545 164.62285005 109 162 C108.04609375 161.52691406 107.0921875 161.05382812 106.109375 160.56640625 C87.19536819 151.9305199 65.26504998 148.87460668 44.6875 148.375 C43.349588 148.33667651 42.01169687 148.2976174 40.67382812 148.2578125 C37.44934726 148.1646867 34.2248557 148.07886614 31 148 C31.34960938 145.59228516 31.34960938 145.59228516 32 143 C34.40625 141.5234375 34.40625 141.5234375 37.5 140.375 C38.58796875 139.96378906 39.6759375 139.55257812 40.796875 139.12890625 C41.85390625 138.75636719 42.9109375 138.38382812 44 138 C44.83015625 137.69964844 45.6603125 137.39929688 46.515625 137.08984375 C51.2791408 135.43260661 56.09344292 134.15973167 61 133 C60.54273387 128.42733874 59.19709894 125.1514708 57.08203125 121.16796875 C56.00013942 119.00027934 55.19155059 116.84187581 54.375 114.5625 C47.21625348 96.34278826 34.43597492 80.93039902 21 67 C20.44747559 66.42556152 19.89495117 65.85112305 19.32568359 65.25927734 C17.68372442 63.56035515 16.03215251 61.87159603 14.375 60.1875 C13.86606201 59.66542969 13.35712402 59.14335937 12.83276367 58.60546875 C11.59385107 57.36381473 10.30122558 56.17618924 9 55 C8.34 55 7.68 55 7 55 Z " fill="#131311" transform="translate(206,184)"/>
<path d="M0 0 C0.99 0.495 0.99 0.495 2 1 C1.67 1.66 1.34 2.32 1 3 C1.66 3 2.32 3 3 3 C3 2.34 3 1.68 3 1 C3.99 0.67 4.98 0.34 6 0 C6 0.66 6 1.32 6 2 C6.66 2 7.32 2 8 2 C6.63482838 6.09551485 4.67663975 6.82125052 1 9 C-1.98958635 10.35377495 -4.996215 11.61334278 -8.05859375 12.79296875 C-14.43525847 15.39592101 -23.81909913 19.63819827 -27 26 C-25.97326172 26.14501953 -25.97326172 26.14501953 -24.92578125 26.29296875 C-9.28662547 30.0722574 5.39044615 43.32543233 16.84375 53.99609375 C18.84701924 55.85782767 20.90573297 57.6173116 23 59.375 C40.40068869 74.69177388 55.27831291 96.11368945 63 118 C62.57592192 114.70646327 62.13320452 111.41567413 61.6875 108.125 C61.51057617 106.74828125 61.51057617 106.74828125 61.33007812 105.34375 C60.55801531 99.72154899 59.383877 94.54524747 57.49926758 89.18701172 C56.9419387 86.74566595 57.20229832 85.34602429 58 83 C58.99 83 59.98 83 61 83 C62.70532323 81.05990478 62.70532323 81.05990478 64 79 C64.10957031 79.82242188 64.21914063 80.64484375 64.33203125 81.4921875 C65.41915683 89.17354346 65.41915683 89.17354346 67.5 96.625 C70.0596853 104.42099583 70.29065306 112.87171864 71 121 C71.40839111 120.44014404 71.81678223 119.88028809 72.23754883 119.3034668 C74.09316691 116.76282713 75.95278431 114.2251416 77.8125 111.6875 C78.45509766 110.80642578 79.09769531 109.92535156 79.75976562 109.01757812 C80.69272461 107.74624023 80.69272461 107.74624023 81.64453125 106.44921875 C82.21534424 105.66893311 82.78615723 104.88864746 83.37426758 104.0847168 C85 102 85 102 86.6472168 100.40942383 C88.26199628 98.92864902 88.26199628 98.92864902 89 96 C88.26177002 95.73268066 87.52354004 95.46536133 86.76293945 95.18994141 C84.06554576 94.02822921 82.10116539 92.75815931 79.79296875 90.9609375 C78.66665039 90.09082031 78.66665039 90.09082031 77.51757812 89.203125 C76.74865234 88.59984375 75.97972656 87.9965625 75.1875 87.375 C74.39923828 86.76398438 73.61097656 86.15296875 72.79882812 85.5234375 C70.86179026 84.0207657 68.92907921 82.51286614 67 81 C67.33 79.68 67.66 78.36 68 77 C69.80175781 76.36889648 69.80175781 76.36889648 72 76 C74.42734502 77.6052762 76.54022084 79.19700231 78.75 81.0625 C79.37616211 81.56894043 80.00232422 82.07538086 80.64746094 82.59716797 C83.25025785 84.70274836 85.8158327 86.8400814 88.34375 89.03515625 C93.31654451 93.18254839 97.55975695 93.97360556 104 94 C102.68 94.33 101.36 94.66 100 95 C100 95.66 100 96.32 100 97 C101.32 97.33 102.64 97.66 104 98 C103.37351562 98.02578125 102.74703125 98.0515625 102.1015625 98.078125 C101.28429687 98.13484375 100.46703125 98.1915625 99.625 98.25 C98.81289063 98.29640625 98.00078125 98.3428125 97.1640625 98.390625 C96.09285156 98.69226563 96.09285156 98.69226563 95 99 C94.30280042 100.31762475 93.64202603 101.65462838 93 103 C91.9304847 104.52849064 90.8269178 106.03344866 89.69921875 107.51953125 C89.05146484 108.37740234 88.40371094 109.23527344 87.73632812 110.11914062 C87.06021484 111.00794922 86.38410156 111.89675781 85.6875 112.8125 C81.38461718 118.49263921 77.10747026 124.17644932 73 130 C75.31 130.33 77.62 130.66 80 131 C80 131.33 80 131.66 80 132 C77.36 132 74.72 132 72 132 C72 132.66 72 133.32 72 134 C73.65 134.33 75.3 134.66 77 135 C77 135.33 77 135.66 77 136 C88.385 136.495 88.385 136.495 100 137 C100 137.33 100 137.66 100 138 C99.32759277 138.01981934 98.65518555 138.03963867 97.96240234 138.06005859 C82.57532741 138.53282392 67.31351312 139.41954724 52 141 C52 141.66 52 142.32 52 143 C53.13308594 142.91298828 53.13308594 142.91298828 54.2890625 142.82421875 C68.26484254 142.25144088 81.68321696 146.08006662 95 150 C95 150.99 95 151.98 95 153 C94.34 153 93.68 153 93 153 C92.67 153.99 92.34 154.98 92 156 C90.77925781 155.73445312 89.55851563 155.46890625 88.30078125 155.1953125 C86.63806309 154.83834476 84.97530022 154.48158529 83.3125 154.125 C82.51521484 153.95097656 81.71792969 153.77695312 80.89648438 153.59765625 C68.81245928 151.01845722 57.04538181 149.67503962 44.6875 149.375 C43.349588 149.33667651 42.01169687 149.2976174 40.67382812 149.2578125 C37.44934726 149.1646867 34.2248557 149.07886614 31 149 C30.67 147.35 30.34 145.7 30 144 C39.85834968 137.28090134 49.1682146 134.40942898 61 133 C50.05779145 102.27764522 32.06479645 78.66328162 9 56 C5.77125465 57.07624845 5.33734218 57.52211051 3.43359375 60.140625 C2.71357178 61.11781494 2.71357178 61.11781494 1.97900391 62.11474609 C1.21595947 63.17169678 1.21595947 63.17169678 0.4375 64.25 C-0.64907695 65.72705019 -1.73632502 67.20360689 -2.82421875 68.6796875 C-3.36353027 69.41541992 -3.9028418 70.15115234 -4.45849609 70.90917969 C-6.56074745 73.76057035 -8.71171557 76.56954656 -10.875 79.375 C-11.27178955 79.8901416 -11.6685791 80.4052832 -12.07739258 80.93603516 C-14.45269375 84.01445534 -16.84388558 87.08009494 -19.2421875 90.140625 C-25.90104142 98.6475433 -32.42801928 107.23002746 -38.80834961 115.94799805 C-43.27977878 122.04951149 -47.84323133 128.0742247 -52.45288086 134.07177734 C-55.54037276 138.08888257 -58.59885338 142.12397096 -61.625 146.1875 C-65.30396737 151.11300393 -69.08712622 155.94759468 -72.89916992 160.77001953 C-76.6922166 165.57931141 -80.37730177 170.45987772 -84.02734375 175.37890625 C-86 178 -86 178 -88.31640625 180.65234375 C-88.87199219 181.42707031 -89.42757812 182.20179688 -90 183 C-88.68864618 186.93406147 -86.8842825 187.84500863 -83.5625 190.3125 C-82.37569148 191.20361444 -81.18953004 192.09559113 -80.00390625 192.98828125 C-79.3608252 193.46990723 -78.71774414 193.9515332 -78.05517578 194.44775391 C-74.33715773 197.25592197 -70.67231432 200.13249672 -67 203 C-61.7631012 207.07977581 -56.51766707 211.14753657 -51.25 215.1875 C-49.1657835 216.79053896 -47.0822522 218.39441539 -45 220 C-44.37480469 220.48162598 -43.74960938 220.96325195 -43.10546875 221.45947266 C-41.15031538 222.96873922 -39.19964983 224.48363327 -37.25 226 C-36.6405957 226.46946045 -36.03119141 226.9389209 -35.40332031 227.42260742 C-31.11448703 230.77102594 -31.11448703 230.77102594 -30 233 C-30.66 233.33 -31.32 233.66 -32 234 C-31.67 234.99 -31.34 235.98 -31 237 C-35.8931905 236.55267475 -38.84805321 234.09266476 -42.5 231.0625 C-43.74686306 230.05532966 -44.99427116 229.04883374 -46.2421875 228.04296875 C-46.86963867 227.5329834 -47.49708984 227.02299805 -48.14355469 226.49755859 C-50.93620765 224.24477936 -53.77675885 222.05679672 -56.625 219.875 C-57.1614917 219.46233887 -57.6979834 219.04967773 -58.25073242 218.62451172 C-61.7449069 215.94238233 -65.27325738 213.3096919 -68.8125 210.6875 C-75.20399572 205.91734499 -81.36444396 200.87578871 -87.53125 195.8203125 C-88.14838867 195.32539307 -88.76552734 194.83047363 -89.40136719 194.32055664 C-91 193 -91 193 -92.859375 191.12890625 C-96.58098486 189.16623244 -100.62481051 189.69367992 -104.75 189.8125 C-105.63816406 189.82603516 -106.52632812 189.83957031 -107.44140625 189.85351562 C-109.62822578 189.88878691 -111.81379966 189.93807248 -114 190 C-114 192.31 -114 194.62 -114 197 C-117.54676259 197 -119.05618975 195.78169439 -121.890625 193.77734375 C-123 192 -123 192 -123.06640625 188.84375 C-121.65010225 183.73883008 -119.03415877 180.59212343 -115.6875 176.5625 C-114.39586941 174.95674669 -113.10552612 173.34995715 -111.81640625 171.7421875 C-111.16945801 170.94264648 -110.52250977 170.14310547 -109.85595703 169.31933594 C-107.19970797 165.99989815 -104.65697698 162.6021043 -102.125 159.1875 C-97.45790685 152.92653412 -92.73890563 146.70677244 -88 140.5 C-83.30751871 134.35235324 -78.6301541 128.19473914 -74 122 C-68.690087 114.89580321 -63.31535728 107.84203341 -57.93286133 100.79272461 C-53.82166455 95.40419588 -49.7404483 89.99493375 -45.6875 84.5625 C-42.08585617 79.73793901 -38.42705146 74.96840172 -34.6875 70.25 C-30.02087568 64.35426664 -25.46272733 58.37986716 -20.9375 52.375 C-20.28160889 51.50907227 -19.62571777 50.64314453 -18.94995117 49.75097656 C-18.33611572 48.93338867 -17.72228027 48.11580078 -17.08984375 47.2734375 C-16.54191162 46.54560059 -15.99397949 45.81776367 -15.42944336 45.06787109 C-14.07336138 43.10612654 -13.00526136 41.15895464 -12 39 C-12.65742188 38.91621094 -13.31484375 38.83242187 -13.9921875 38.74609375 C-18.02104321 37.74672824 -21.44712941 35.95502904 -25.125 34.0625 C-25.84042969 33.70220703 -26.55585938 33.34191406 -27.29296875 32.97070312 C-30.32767091 31.43066268 -33.16116361 29.89255759 -36 28 C-36.484375 25.6796875 -36.484375 25.6796875 -36 23 C-27.63623209 12.75932355 -15.37076512 6.67311422 -3.30078125 1.9453125 C-1.07512647 1.20356811 -1.07512647 1.20356811 0 0 Z " fill="#131311" transform="translate(206,184)"/>
<path d="M0 0 C1.22589844 0.01353516 1.22589844 0.01353516 2.4765625 0.02734375 C3.10304687 0.03894531 3.72953125 0.05054688 4.375 0.0625 C3.694375 0.949375 3.01375 1.83625 2.3125 2.75 C0.12759986 5.75989028 0.12759986 5.75989028 0.5625 8.3828125 C1.52642172 11.56190047 2.89266014 14.31005653 4.4375 17.25 C7.375 22.85544118 7.375 22.85544118 7.375 25.0625 C8.035 25.0625 8.695 25.0625 9.375 25.0625 C17.03489421 39.46032392 24.55597028 53.78974281 30.54882812 68.97949219 C31.36168202 71.02892169 32.19996883 73.06599861 33.046875 75.1015625 C37.67706828 86.2894376 41.24026879 97.23188285 43.1875 109.1875 C43.32373779 110.01797852 43.45997559 110.84845703 43.6003418 111.70410156 C43.71804932 112.48495117 43.83575684 113.26580078 43.95703125 114.0703125 C44.06249268 114.76785645 44.1679541 115.46540039 44.27661133 116.18408203 C44.375 118.0625 44.375 118.0625 43.375 121.0625 C42.97410156 120.15371094 42.57320313 119.24492187 42.16015625 118.30859375 C24.67010942 79.33586508 -6.68651943 44.59230816 -46.625 28.0625 C-43.0201321 19.18599732 -30.78263708 14.80527951 -22.625 11.0625 C-20.7996875 10.3509375 -20.7996875 10.3509375 -18.9375 9.625 C-14.99357652 7.76465874 -11.91003549 5.33290761 -8.54296875 2.5859375 C-5.52491087 0.18870211 -3.78964177 -0.05413774 0 0 Z " fill="#F7F8F7" transform="translate(225.625,181.9375)"/>
<path d="M0 0 C1.94712891 -0.01836914 1.94712891 -0.01836914 3.93359375 -0.03710938 C11.5963244 -0.04870786 18.64038143 0.61175007 26.125 2.1875 C28.49722645 2.5204008 30.8721052 2.83534924 33.25 3.125 C70.93237705 8.09118852 70.93237705 8.09118852 83.125 14.1875 C83.76712121 24.01908918 82.86791115 32.88212951 80.75 42.5 C80.41802612 44.01219116 80.41802612 44.01219116 80.0793457 45.55493164 C78.40948183 52.76077726 78.40948183 52.76077726 76.125 56.1875 C75.42117188 55.43726563 74.71734375 54.68703125 73.9921875 53.9140625 C63.31617294 42.75760895 51.42175712 34.49911416 37.88720703 27.15966797 C36.13420129 26.19257613 34.40859415 25.17635966 32.68359375 24.16015625 C12.51598495 12.46339119 -13.59363868 5.62452214 -36.875 5.1875 C-36.875 4.5275 -36.875 3.8675 -36.875 3.1875 C-34.89623169 2.87248743 -32.91695994 2.5606369 -30.9375 2.25 C-29.83535156 2.07597656 -28.73320312 1.90195312 -27.59765625 1.72265625 C-26.36917969 1.54605469 -25.14070313 1.36945313 -23.875 1.1875 C-23.23916992 1.09412354 -22.60333984 1.00074707 -21.94824219 0.90454102 C-14.65153609 -0.04642314 -7.34782938 0.00362677 0 0 Z " fill="#F7F7F7" transform="translate(294.875,321.8125)"/>
<path d="M0 0 C2.09893097 1.62437188 4.0615861 3.33948851 6.0234375 5.12695312 C7.51560178 6.42165412 9.01045605 7.71326054 10.5078125 9.00195312 C11.25869141 9.65421875 12.00957031 10.30648438 12.78320312 10.97851562 C16.16863107 13.8474223 19.70273941 16.49470218 23.2734375 19.12695312 C24.59902902 20.10993072 25.92455108 21.093002 27.25 22.07617188 C27.88454102 22.54587402 28.51908203 23.01557617 29.17285156 23.49951172 C37.18194805 29.46089989 45.01791028 35.65102093 52.85498047 41.83544922 C56.62232973 44.799938 60.42947398 47.69993742 64.2734375 50.56445312 C68.61371328 53.79972431 72.86143853 57.12276796 77.07421875 60.52148438 C88.26725427 69.46108758 99.65891512 78.15700514 111.0234375 86.87695312 C113.35727647 88.66796233 115.69049499 90.45977643 118.0234375 92.25195312 C119.0546875 93.0434375 120.0859375 93.83492188 121.1484375 94.65039062 C122.0971875 95.38515625 123.0459375 96.11992187 124.0234375 96.87695312 C124.95542969 97.4621875 125.88742188 98.04742187 126.84765625 98.65039062 C129.93923369 101.81412337 129.80253258 104.92535641 129.8359375 109.12695312 C129.86107422 109.87203125 129.88621094 110.61710937 129.91210938 111.38476562 C129.97076852 113.21493105 130.0000183 115.04599766 130.0234375 116.87695312 C125.73336426 115.44692871 122.92463095 113.32963755 119.5234375 110.37695312 C115.2939869 106.75980728 111.0106044 103.25296862 106.5859375 99.87695312 C106.04646484 99.46509766 105.50699219 99.05324219 104.95117188 98.62890625 C103.85612462 97.79427451 102.76058388 96.96028984 101.66455078 96.12695312 C98.94290929 94.05393848 96.23375865 91.96473209 93.5234375 89.87695312 C90.2871238 87.38609884 87.04985764 84.89651991 83.80859375 82.41210938 C77.70711017 77.73248359 71.63773846 73.01500639 65.59692383 68.25732422 C60.83559407 64.50936144 56.05761776 60.78319464 51.2734375 57.06445312 C50.51877197 56.47784912 49.76410645 55.89124512 48.98657227 55.28686523 C46.665733 53.48329632 44.34463503 51.68006092 42.0234375 49.87695312 C38.93976579 47.48155488 35.85639387 45.08577198 32.7734375 42.68945312 C32.02529785 42.10808594 31.2771582 41.52671875 30.50634766 40.92773438 C25.87294282 37.32431398 21.25639791 33.70032149 16.6484375 30.06445312 C11.53367814 26.03088012 6.34675718 22.10615337 1.12109375 18.21679688 C-3.08316475 15.04107072 -7.21849817 11.78085228 -11.34570312 8.50585938 C-13.84138096 6.52999476 -16.32609552 4.64393111 -18.9765625 2.87695312 C-18.9765625 2.21695312 -18.9765625 1.55695313 -18.9765625 0.87695312 C-17.64617801 0.53203863 -16.31199189 0.2017873 -14.9765625 -0.12304688 C-13.8628125 -0.40148437 -13.8628125 -0.40148437 -12.7265625 -0.68554688 C-3.7265625 -2.11736506 -3.7265625 -2.11736506 0 0 Z " fill="#F5F5F5" transform="translate(112.9765625,374.123046875)"/>
<path d="M0 0 C3.87132028 0.57352893 6.08172796 2.48704352 9 5 C8.43358199 9.00206825 6.44354 11.07951012 3.8125 14.0625 C-0.7823703 19.3860122 -4.98481262 24.94243337 -9.125 30.625 C-13.29444352 36.34059137 -17.50794368 41.97415236 -21.9765625 47.4609375 C-24.55341932 50.6944451 -27.02713278 53.99912553 -29.5 57.3125 C-36.92752948 67.26364578 -44.4625402 77.13199012 -52 87 C-52.60054199 87.78648926 -53.20108398 88.57297852 -53.81982422 89.38330078 C-63.55633933 102.13291324 -63.55633933 102.13291324 -67.60546875 107.37890625 C-72.75833372 114.05494515 -77.8504723 120.7720581 -82.89086914 127.53344727 C-83.8323881 128.79437323 -84.77994889 130.05081731 -85.734375 131.30200195 C-86.84405995 132.79078645 -87.87815379 134.33529969 -88.8984375 135.88671875 C-91.82705556 138.8316674 -94.17324197 138.89727464 -98.25 139.3125 C-99.51328125 139.45300781 -100.7765625 139.59351563 -102.078125 139.73828125 C-103.04234375 139.82464844 -104.0065625 139.91101563 -105 140 C-103.45547163 135.10589205 -100.59928841 131.7531547 -97.375 127.875 C-93.84615435 123.55145872 -90.3670258 119.233384 -87.125 114.6875 C-83.66919487 109.85365687 -80.04025887 105.17522799 -76.375 100.5 C-71.39280281 94.13826209 -66.52458299 87.70649139 -61.75 81.1875 C-57.1597663 74.92021048 -52.51648302 68.71103914 -47.7578125 62.5703125 C-44.14259844 57.90260246 -40.57494406 53.19856872 -37 48.5 C-32.67916373 42.82360726 -28.35524339 37.15004547 -24 31.5 C-19.50006893 25.6616279 -15.02969907 19.8009474 -10.5625 13.9375 C-9.86318359 13.0196875 -9.16386719 12.101875 -8.44335938 11.15625 C-5.61773382 7.44572123 -2.79437451 3.73415085 0 0 Z " fill="#F4F4F4" transform="translate(199,229)"/>
<path d="M0 0 C4.21769142 0.59509893 6.76893469 1.14174992 10 4 C8.55537124 8.23345754 6.45581397 11.25222851 3.6875 14.75 C2.78721908 15.89671062 1.88750926 17.04386977 0.98828125 18.19140625 C0.50697754 18.80258301 0.02567383 19.41375977 -0.47021484 20.04345703 C-3.2234051 23.56469334 -5.91864742 27.13023152 -8.625 30.6875 C-12.11939822 35.26868488 -15.63105932 39.8284739 -19.25 44.3125 C-22.69880706 48.58788065 -25.99437333 52.96361482 -29.27734375 57.3671875 C-32.67507408 61.91390251 -36.12056417 66.42421674 -39.5625 70.9375 C-40.58452515 72.27796387 -40.58452515 72.27796387 -41.62719727 73.64550781 C-44.46540988 77.36729935 -47.30450831 81.08841477 -50.14355469 84.80957031 C-58.87641115 96.25717995 -67.59566682 107.71161318 -76.171875 119.27734375 C-77.28124051 120.76823623 -78.39061546 122.25912168 -79.5 123.75 C-80.02948242 124.46712158 -80.55896484 125.18424316 -81.10449219 125.9230957 C-82.37894664 127.63358072 -83.6862908 129.31947589 -85 131 C-85.33 131 -85.66 131 -86 131 C-88.31816627 116.56645384 -88.31816627 116.56645384 -85.37890625 110.84375 C-83.0393881 108.08660556 -80.56015343 105.55238362 -78 103 C-76.6116457 101.23469291 -75.25829279 99.44140943 -73.9375 97.625 C-69.74911784 91.98932348 -65.50794152 86.39581421 -61.25 80.8125 C-60.56010986 79.90773926 -59.87021973 79.00297852 -59.15942383 78.07080078 C-57.10693152 75.38003781 -55.05367406 72.68986111 -53 70 C-52.39510742 69.20770996 -51.79021484 68.41541992 -51.16699219 67.59912109 C-46.17436172 61.06155354 -41.180057 54.52544274 -36.15380859 48.01367188 C-31.53836162 42.03267515 -26.99212385 36.00349894 -22.46948242 29.95214844 C-19.26471349 25.66949152 -16.02409403 21.41733405 -12.75 17.1875 C-8.38525089 11.53733934 -4.1619024 5.80108742 0 0 Z " fill="#F4F4F3" transform="translate(335,359)"/>
<path d="M0 0 C4.85780512 2.65318236 8.9449955 6.10813654 13.1875 9.625 C14.61710478 10.8063653 16.04803177 11.98613293 17.48046875 13.1640625 C18.10848389 13.68436035 18.73649902 14.2046582 19.38354492 14.74072266 C20.98853679 16.07630365 20.98853679 16.07630365 23 17 C21.41231664 22.02604057 18.39784513 25.66832232 15.1875 29.75 C14.01800225 31.25633427 12.84873863 32.76285034 11.6796875 34.26953125 C11.07608398 35.04377441 10.47248047 35.81801758 9.85058594 36.61572266 C7.99348149 39.00839839 6.15392475 41.41350324 4.3203125 43.82421875 C3.7322583 44.59733398 3.1442041 45.37044922 2.53833008 46.16699219 C1.40487761 47.65816604 0.27188761 49.14969155 -0.8605957 50.64160156 C-1.37452881 51.31545898 -1.88846191 51.98931641 -2.41796875 52.68359375 C-2.86938232 53.27712646 -3.3207959 53.87065918 -3.78588867 54.48217773 C-5 56 -5 56 -7 58 C-10.47350289 57.66423718 -12.5832844 56.00935837 -15.2578125 53.875 C-16.04800781 53.25109375 -16.83820313 52.6271875 -17.65234375 51.984375 C-18.46832031 51.32953125 -19.28429687 50.6746875 -20.125 50 C-21.75150098 48.70694445 -23.37905426 47.41521111 -25.0078125 46.125 C-25.72598145 45.55007812 -26.44415039 44.97515625 -27.18408203 44.3828125 C-28.95624598 42.94434414 -28.95624598 42.94434414 -31 42 C-29.51165768 37.39732287 -26.86543951 34.09498689 -23.8125 30.4375 C-17.96017814 23.29023118 -12.4045098 15.94576652 -6.90161133 8.52709961 C-6.29212646 7.70733643 -5.6826416 6.88757324 -5.0546875 6.04296875 C-4.51312012 5.31102295 -3.97155273 4.57907715 -3.41357422 3.82495117 C-2 2 -2 2 0 0 Z " fill="#F9F9F9" transform="translate(325,91)"/>
<path d="M0 0 C3.4790376 0.6113544 5.51354205 1.93498502 8.2578125 4.125 C9.04800781 4.74890625 9.83820313 5.3728125 10.65234375 6.015625 C11.46832031 6.67046875 12.28429687 7.3253125 13.125 8 C14.75150098 9.29305555 16.37905426 10.58478889 18.0078125 11.875 C19.08506592 12.73738281 19.08506592 12.73738281 20.18408203 13.6171875 C21.95624598 15.05565586 21.95624598 15.05565586 24 16 C23.43358199 20.00206825 21.44354 22.07951012 18.8125 25.0625 C13.48836228 31.2262476 8.69065585 37.73332815 3.91137695 44.32446289 C0.74263691 48.68334429 -2.49302116 52.90742807 -6 57 C-10.52490279 56.51060449 -12.5292659 54.95429453 -15.75 51.8125 C-20.204823 47.62523394 -24.80196323 44.20168931 -30 41 C-28.65048769 37.10293895 -26.94239929 34.48239317 -24.25 31.375 C-19.19842383 25.36395239 -14.57567015 19.07723327 -9.96191406 12.72607422 C-6.77483981 8.35263004 -3.5210644 4.11011464 0 0 Z " fill="#F9F9F9" transform="translate(422,168)"/>
<path d="M0 0 C0.66 0 1.32 0 2 0 C3.1541701 1.1541701 4.30437587 2.31255714 5.43505859 3.48974609 C8.46648251 6.41523569 11.92407772 8.8203896 15.3125 11.3125 C16.05306641 11.86228516 16.79363281 12.41207031 17.55664062 12.97851562 C19.36839676 14.32272179 21.182859 15.66308744 23 17 C21.39786665 22.2745559 18.01373764 26.08200572 14.625 30.3125 C13.36080927 31.9131392 12.09781258 33.5147221 10.8359375 35.1171875 C10.1975293 35.92639648 9.55912109 36.73560547 8.90136719 37.56933594 C5.96680153 41.32081715 3.10263253 45.12352942 0.25 48.9375 C-0.25063965 49.60499268 -0.7512793 50.27248535 -1.26708984 50.96020508 C-3.24293121 53.60393164 -5.16878418 56.25317628 -7 59 C-9.95424027 57.62489946 -12.43136983 56.02686977 -15.00390625 54.03125 C-15.74447266 53.46019531 -16.48503906 52.88914063 -17.24804688 52.30078125 C-18.01181641 51.70652344 -18.77558594 51.11226562 -19.5625 50.5 C-21.08402493 49.32212764 -22.60613684 48.14501303 -24.12890625 46.96875 C-24.79994385 46.44732422 -25.47098145 45.92589844 -26.16235352 45.38867188 C-27.73310911 44.20168399 -29.36185094 43.09209938 -31 42 C-29.61023708 39.02443917 -27.98955167 36.48886524 -26.015625 33.8671875 C-25.41645264 33.06893555 -24.81728027 32.27068359 -24.19995117 31.44824219 C-23.55646729 30.59907227 -22.9129834 29.74990234 -22.25 28.875 C-21.58911377 28.00004883 -20.92822754 27.12509766 -20.24731445 26.22363281 C-18.16950219 23.47887761 -16.08522004 20.73913026 -14 18 C-13.32565918 17.11022461 -12.65131836 16.22044922 -11.95654297 15.30371094 C-10.04098568 12.78000295 -8.11613027 10.26372606 -6.1875 7.75 C-5.59549805 6.96995605 -5.00349609 6.18991211 -4.39355469 5.38623047 C-3.84473633 4.67611816 -3.29591797 3.96600586 -2.73046875 3.234375 C-2.24989014 2.60756836 -1.76931152 1.98076172 -1.27416992 1.33496094 C-0.85369385 0.89442383 -0.43321777 0.45388672 0 0 Z " fill="#F9F9F9" transform="translate(374,129)"/>
<path d="M0 0 C3.70494669 0.60057355 5.7671561 2.1840664 8.625 4.5625 C9.49125 5.27535156 10.3575 5.98820313 11.25 6.72265625 C12.61125 7.84994141 12.61125 7.84994141 14 9 C15.87226692 10.50340999 17.74714082 12.00358097 19.625 13.5 C21.08333333 14.66666667 22.54166667 15.83333333 24 17 C22.63014974 19.95130007 21.04146735 22.39301661 19.0234375 24.94140625 C18.43884766 25.68471191 17.85425781 26.42801758 17.25195312 27.19384766 C16.63255859 27.97550293 16.01316406 28.7571582 15.375 29.5625 C10.69684264 35.51749388 6.10099676 41.49817909 1.6875 47.65234375 C-0.8209948 51.14217101 -3.40728328 54.57250706 -6 58 C-10.89715082 55.72299402 -14.93060326 52.40879623 -19.1875 49.125 C-20.01958984 48.49980469 -20.85167969 47.87460938 -21.70898438 47.23046875 C-22.89524414 46.31587891 -22.89524414 46.31587891 -24.10546875 45.3828125 C-24.82887451 44.82996582 -25.55228027 44.27711914 -26.29760742 43.70751953 C-28.22675768 41.77255942 -28.79542573 40.71314095 -29 38 C-27.64355603 35.83273784 -26.31121263 34.01195112 -24.6875 32.0625 C-23.75489707 30.89868686 -22.82261422 29.73461716 -21.890625 28.5703125 C-21.40916016 27.97766602 -20.92769531 27.38501953 -20.43164062 26.77441406 C-18.21903374 24.03204933 -16.07897684 21.2355158 -13.9375 18.4375 C-13.53055908 17.90882324 -13.12361816 17.38014648 -12.7043457 16.83544922 C-8.41734483 11.26277296 -4.20383886 5.63558109 0 0 Z " fill="#F9F9F8" transform="translate(273,159)"/>
<path d="M0 0 C4.00669694 0.57104793 6.22097875 2.60417759 9.25 5.1875 C13.72931074 8.95132352 18.27673803 12.54890601 23 16 C22.37744306 19.61913099 20.87646935 21.83137421 18.6875 24.75 C17.96949219 25.71292969 17.25148438 26.67585938 16.51171875 27.66796875 C15.91302979 28.46146729 15.91302979 28.46146729 15.30224609 29.27099609 C13.88716599 31.14981073 12.48411527 33.03725057 11.08203125 34.92578125 C5.52308933 42.39680063 -0.1060697 49.78860293 -6 57 C-9.86222752 56.47574575 -11.83232938 55.63790177 -14.625 52.9375 C-19.42760788 48.50290805 -24.67057243 44.77174561 -30 41 C-28.44173795 37.56218475 -26.41058599 34.74721533 -24.125 31.75 C-23.31749755 30.68635791 -22.51021801 29.62254656 -21.703125 28.55859375 C-21.26935547 27.98866699 -20.83558594 27.41874023 -20.38867188 26.83154297 C-18.39026765 24.19581362 -16.41213689 21.54506867 -14.43212891 18.89550781 C-9.685716 12.54612009 -4.91023601 6.22424282 0 0 Z " fill="#F9F9F9" transform="translate(322,197)"/>
<path d="M0 0 C3.86689086 1.35066932 6.60786589 3.07418911 9.75 5.6875 C10.60851562 6.39261719 11.46703125 7.09773437 12.3515625 7.82421875 C13.66253906 8.90123047 13.66253906 8.90123047 15 10 C16.7036559 11.33930471 18.41165954 12.673107 20.125 14 C20.87007813 14.5775 21.61515625 15.155 22.3828125 15.75 C22.91648437 16.1625 23.45015625 16.575 24 17 C20.05965309 23.34299747 15.55751407 28.98320851 10.7265625 34.66796875 C7.2073826 38.88970493 4.01767419 43.35259082 0.84301758 47.83642578 C-1.84236257 51.58738495 -4.64698569 54.82757892 -8 58 C-8.4532666 57.62713867 -8.9065332 57.25427734 -9.37353516 56.87011719 C-11.45503404 55.16056088 -13.53998088 53.45526082 -15.625 51.75 C-16.69427734 50.87021484 -16.69427734 50.87021484 -17.78515625 49.97265625 C-21.73530913 46.74730207 -25.69861069 43.74094839 -30 41 C-28.39101966 35.66495994 -24.92007113 31.78027083 -21.5 27.5 C-20.23145055 25.89217973 -18.96322363 24.28410494 -17.6953125 22.67578125 C-17.06915039 21.88510254 -16.44298828 21.09442383 -15.79785156 20.27978516 C-13.29404576 17.10480708 -10.83129575 13.89928702 -8.375 10.6875 C-5.62141008 7.09279644 -2.8397063 3.52714651 0 0 Z " fill="#F9FAF9" transform="translate(371,235)"/>
<path d="M0 0 C1.25928479 2.42170152 2.19145608 4.62223227 3 7.25 C4.89733694 11.6739886 8.26920279 13.99160251 12.05859375 16.8046875 C14.17740796 18.38606012 16.16488319 19.97325615 18.16015625 21.6953125 C24.75239314 27.27487758 29.99880886 30.61330761 39 30 C36 32 36 32 32 32 C33.06645115 33.29633621 33.06645115 33.29633621 35.5625 33.0625 C36.366875 33.041875 37.17125 33.02125 38 33 C35.08235 34.9451 33.37462715 35.45276317 30 36 C30 36.66 30 37.32 30 38 C30.66 38.33 31.32 38.66 32 39 C32 40.33333333 32 41.66666667 32 43 C19.29976873 42.36582288 6.78338218 41.38502995 -5.625 38.4375 C-17.79601053 35.84903589 -30.59832428 36.22607547 -43 36 C-41.68 35.34 -40.36 34.68 -39 34 C-39.99 33.67 -40.98 33.34 -42 33 C-42 32.34 -42 31.68 -42 31 C-39.87528825 30.6648342 -37.75022095 30.33192171 -35.625 30 C-34.44164062 29.814375 -33.25828125 29.62875 -32.0390625 29.4375 C-29 29 -29 29 -27 29 C-27 29.66 -27 30.32 -27 31 C-23.7 31 -20.4 31 -17 31 C-16.7628125 30.30261719 -16.525625 29.60523438 -16.28125 28.88671875 C-14.75879616 25.45655597 -12.77932192 22.79115932 -10.5 19.8125 C-9.7059375 18.76707031 -8.911875 17.72164063 -8.09375 16.64453125 C-6 14 -6 14 -4 12 C-3.61596877 10.05848638 -3.61596877 10.05848638 -3.5 7.9375 C-3.335 6.638125 -3.17 5.33875 -3 4 C-2.34 3.67 -1.68 3.34 -1 3 C-0.67 2.01 -0.34 1.02 0 0 Z " fill="#0F0F0D" transform="translate(320,285)"/>
<path d="M0 0 C0.66 0 1.32 0 2 0 C3.02296892 3.44225308 3.40589798 6.41939994 3 10 C0.90006751 13.53416473 -1.81583793 16.38717961 -4.59375 19.40283203 C-7.15125249 22.307551 -9.39730444 25.4459648 -11.6875 28.5625 C-16.03315877 34.41097421 -20.45304551 40.19479498 -24.9375 45.9375 C-30.03445708 52.46476489 -35.08827206 59.02236617 -40.10742188 65.60961914 C-43.43615436 69.97229136 -46.7970557 74.30791575 -50.1796875 78.62890625 C-56.16832437 86.28105336 -61.99928795 94.02830542 -67.734375 101.87207031 C-73.44710954 109.66128757 -79.37092261 117.27876387 -85.33544922 124.87597656 C-88.23462385 128.57542204 -91.11677188 132.28812118 -94 136 C-96.31 135.67 -98.62 135.34 -101 135 C-100.39409165 131.7486967 -99.31884707 129.80652395 -97.26171875 127.234375 C-96.4119043 126.15929687 -96.4119043 126.15929687 -95.54492188 125.0625 C-94.93197266 124.299375 -94.31902344 123.53625 -93.6875 122.75 C-92.39854313 121.1207375 -91.11080341 119.49051142 -89.82421875 117.859375 C-89.17759277 117.04146484 -88.5309668 116.22355469 -87.86474609 115.38085938 C-85.18693209 111.96189601 -82.58912534 108.48632523 -80 105 C-75.78289018 99.33565637 -71.47991592 93.74649295 -67.125 88.1875 C-62.26071445 81.97590268 -57.52713489 75.68439056 -52.875 69.3125 C-48.269164 63.00723203 -43.54018918 56.84408894 -38.61767578 50.78369141 C-33.67697631 44.67045604 -28.99443539 38.37066758 -24.29858398 32.06860352 C-20.56980229 27.07129212 -16.77696515 22.14748344 -12.84375 17.30859375 C-8.36768614 11.70403074 -3.97879231 5.96818847 0 0 Z " fill="#EFEFEF" transform="translate(465,191)"/>
<path d="M0 0 C3.89583406 1.35387141 6.60510688 3.09842345 9.75 5.75 C14.3094632 9.50163038 19.02444887 12.82718478 24 16 C23.42327468 19.94553354 21.49669903 22.08188912 18.9375 25.0625 C14.88217448 29.87698246 11.1570304 34.83675251 7.53125 39.98046875 C7.0259375 40.64691406 6.520625 41.31335938 6 42 C5.67 42 5.34 42 5 42 C4.85304688 40.07800781 4.85304688 40.07800781 4.703125 38.1171875 C3.91017854 28.66958748 2.84085366 19.96516379 -0.1953125 10.9453125 C-1.23611936 7.13575729 -1.80826393 3.61652785 0 0 Z " fill="#F6F6F6" transform="translate(271,264)"/>
<path d="M0 0 C0.66 0 1.32 0 2 0 C2.94102026 5.31153659 3.04544513 9.37935013 0.0546875 14.015625 C-2.14477446 16.58502704 -4.3886077 19.08287901 -6.69677734 21.55322266 C-8.57988749 23.6437642 -10.19007765 25.89109492 -11.8125 28.1875 C-16.89579338 35.312444 -22.25644405 42.22407552 -27.59301758 49.15991211 C-28.60651722 50.48539308 -29.58386558 51.83879673 -30.53710938 53.20825195 C-32 55 -32 55 -34.26171875 55.390625 C-35.06222656 55.34421875 -35.86273438 55.2978125 -36.6875 55.25 C-37.49574219 55.21390625 -38.30398438 55.1778125 -39.13671875 55.140625 C-39.75160156 55.09421875 -40.36648438 55.0478125 -41 55 C-37.17080246 48.91833331 -32.91819556 43.37245972 -28.328125 37.84765625 C-25.35036524 34.2053964 -22.54919241 30.44931277 -19.74609375 26.671875 C-17.49176008 23.6426964 -15.20365038 20.64025059 -12.91015625 17.640625 C-12.18513916 16.6923584 -11.46012207 15.7440918 -10.71313477 14.76708984 C-9.24996818 12.85504667 -7.78563222 10.94389772 -6.32006836 9.03369141 C-5.6472583 8.15374512 -4.97444824 7.27379883 -4.28125 6.3671875 C-3.67345703 5.57425293 -3.06566406 4.78131836 -2.43945312 3.96435547 C-0.96123572 2.06242628 -0.96123572 2.06242628 0 0 Z " fill="#EAEAE9" transform="translate(417,152)"/>
<path d="M0 0 C0.33 0 0.66 0 1 0 C2.24621701 3.48940763 2.54762795 6.32439544 2 10 C-0.69463784 14.42307088 -3.99096423 18.19203324 -7.38427734 22.09082031 C-10.08023721 25.27643623 -12.52505046 28.64195084 -15 32 C-16.0057282 33.33392346 -17.01223774 34.66725817 -18.01953125 36 C-20.03017544 38.67299717 -21.97419825 41.3810906 -23.88671875 44.125 C-30.61404371 53.55278736 -30.61404371 53.55278736 -34.6875 54.8671875 C-37.1875 54.875 -37.1875 54.875 -41 54 C-40.64228516 53.52546387 -40.28457031 53.05092773 -39.91601562 52.56201172 C-37.2034284 48.95546383 -34.50709328 45.33840923 -31.84375 41.6953125 C-24.29003369 31.3648091 -16.57543575 21.18063526 -8.66064453 11.12402344 C-7.45500009 9.5819613 -6.25934581 8.03207197 -5.06982422 6.47753906 C-4.12067139 5.23955566 -4.12067139 5.23955566 -3.15234375 3.9765625 C-2.57347412 3.21682129 -1.99460449 2.45708008 -1.39819336 1.67431641 C-0.70608765 0.84552979 -0.70608765 0.84552979 0 0 Z " fill="#EDEDED" transform="translate(317,182)"/>
<path d="M0 0 C2 2 2 2 2.625 5.5 C2.45703216 11.7260081 -2.11517139 15.53964123 -6 20 C-7.37215471 21.77792808 -8.72558736 23.5704221 -10.0625 25.375 C-10.79597656 26.35984375 -11.52945312 27.3446875 -12.28515625 28.359375 C-12.69910645 28.91560547 -13.11305664 29.47183594 -13.53955078 30.04492188 C-15.31012549 32.41515963 -17.09047576 34.7779232 -18.87109375 37.140625 C-19.55099365 38.04377441 -20.23089355 38.94692383 -20.93139648 39.87744141 C-22.29832804 41.69302594 -23.66631067 43.50781967 -25.03540039 45.32177734 C-25.66309326 46.15660645 -26.29078613 46.99143555 -26.9375 47.8515625 C-27.50339844 48.60260254 -28.06929688 49.35364258 -28.65234375 50.12744141 C-30.04573502 51.95856556 -30.04573502 51.95856556 -31 54 C-33.97 54 -36.94 54 -40 54 C-37.9781424 49.95628479 -35.53780582 46.57224701 -32.8125 43 C-31.72634607 41.56526799 -30.64041932 40.13036397 -29.5546875 38.6953125 C-28.6898877 37.55497559 -28.6898877 37.55497559 -27.80761719 36.39160156 C-25.94850935 33.93187433 -24.10150869 31.46348436 -22.2578125 28.9921875 C-14.96732762 19.22301242 -7.59377316 9.53563199 0 0 Z " fill="#EFEFEE" transform="translate(368,115)"/>
<path d="M0 0 C0.66 0 1.32 0 2 0 C4.01329305 8.25619335 4.01329305 8.25619335 1.82421875 12.0234375 C0.6300062 13.32471738 -0.60040129 14.59324743 -1.85546875 15.8359375 C-4.23683175 18.23898868 -6.18021629 20.77713982 -8.1875 23.5 C-8.93902344 24.51449219 -9.69054687 25.52898437 -10.46484375 26.57421875 C-10.86687012 27.11868652 -11.26889648 27.6631543 -11.68310547 28.22412109 C-13.1358157 30.18315228 -14.59994605 32.13327263 -16.06640625 34.08203125 C-16.59403564 34.78328125 -17.12166504 35.48453125 -17.6652832 36.20703125 C-18.69349421 37.57312148 -19.72196194 38.93901854 -20.75073242 40.3046875 C-21.23002197 40.94277344 -21.70931152 41.58085937 -22.203125 42.23828125 C-22.67339111 42.85904541 -23.14365723 43.47980957 -23.62817383 44.11938477 C-24.55250785 45.38653995 -25.43770571 46.68306728 -26.28393555 48.00366211 C-29.38907639 52.7939805 -29.38907639 52.7939805 -32.67578125 53.90234375 C-33.98095703 53.91974609 -33.98095703 53.91974609 -35.3125 53.9375 C-36.19550781 53.96714844 -37.07851563 53.99679687 -37.98828125 54.02734375 C-38.65214844 54.01832031 -39.31601562 54.00929688 -40 54 C-36.92463946 49.25452739 -33.58764413 44.78095232 -30.125 40.3125 C-25.22725894 33.95645461 -20.42667151 27.5375495 -15.6875 21.0625 C-11.37100762 15.16608011 -7.00430307 9.35490074 -2.35546875 3.71484375 C-0.9318239 2.03347669 -0.9318239 2.03347669 0 0 Z " fill="#EDEDEC" transform="translate(365,220)"/>
<path d="M0 0 C0.66 0 1.32 0 2 0 C2.81747871 4.65256399 2.96483019 8.44436022 0.41796875 12.55078125 C-1.5416861 14.8776507 -3.5558241 17.14242527 -5.60107422 19.39404297 C-8.18113568 22.35593552 -10.47736405 25.53169463 -12.8125 28.6875 C-13.31595947 29.35547607 -13.81941895 30.02345215 -14.33813477 30.71166992 C-17.01497196 34.2710553 -19.60935831 37.86620667 -22.1171875 41.546875 C-22.63176514 42.28204346 -23.14634277 43.01721191 -23.67651367 43.7746582 C-24.65786507 45.17937497 -25.61786865 46.59933907 -26.55200195 48.03588867 C-28.58727017 50.91000024 -29.89257492 52.6925724 -33.36572266 53.65673828 C-35.60033801 53.91143638 -37.75266979 54.03762653 -40 54 C-38.51160911 49.39717267 -35.86511234 46.09529496 -32.8125 42.4375 C-27.84411263 36.36128619 -23.06465447 30.16871256 -18.375 23.875 C-2.23302469 2.23302469 -2.23302469 2.23302469 0 0 Z " fill="#EFEEEE" transform="translate(319,77)"/>
<path d="M0 0 C0.66 0 1.32 0 2 0 C2.64453266 5.5272256 2.71304191 9.7300459 -0.640625 14.3515625 C-1.82031149 15.7955121 -3.02480365 17.21945933 -4.25 18.625 C-5.53795467 20.18626681 -6.82438376 21.74879325 -8.109375 23.3125 C-8.76099609 24.09109375 -9.41261719 24.8696875 -10.08398438 25.671875 C-13.01341704 29.23138952 -15.75825081 32.92019597 -18.5 36.625 C-19.42677586 37.86741692 -20.35384805 39.10961286 -21.28125 40.3515625 C-21.71824219 40.9384082 -22.15523437 41.52525391 -22.60546875 42.12988281 C-25.06294122 45.42544288 -27.53188325 48.71240818 -30 52 C-33 51 -33 51 -35 48 C-34.78597076 43.94200552 -32.14463529 41.56565329 -29.5625 38.625 C-25.80074895 34.25461065 -22.30951099 29.78445479 -19 25.0625 C-14.19517212 18.21678419 -9.16069707 11.58215223 -4 5 C-3.28585937 4.05253906 -2.57171875 3.10507813 -1.8359375 2.12890625 C-0.92714844 1.07509766 -0.92714844 1.07509766 0 0 Z " fill="#EEEEED" transform="translate(268,144)"/>
<path d="M0 0 C0 2 0 2 -2.09765625 4.1171875 C-2.55672363 4.55901367 -3.01579102 5.00083984 -3.48876953 5.45605469 C-6.41514231 8.44577706 -8.8897398 11.81327109 -11.4375 15.125 C-12.04223145 15.90617187 -12.64696289 16.68734375 -13.27001953 17.4921875 C-18.3288951 24.05787876 -23.24446304 30.72483072 -28.14111328 37.41186523 C-37.11253917 49.64201077 -37.11253917 49.64201077 -41 54 C-41.33 54 -41.66 54 -42 54 C-43.06811369 44.77692308 -43.06811369 44.77692308 -40.72265625 40.875 C-39.53084277 39.57778804 -38.30392037 38.31229007 -37.05078125 37.07421875 C-34.80534211 34.80311745 -33.03323159 32.41757534 -31.1875 29.8125 C-26.99572508 23.9586093 -22.64252139 18.24679743 -18.21826172 12.56787109 C-17.03607234 11.04642416 -15.86357791 9.5174595 -14.69140625 7.98828125 C-13.98886719 7.08464844 -13.28632813 6.18101563 -12.5625 5.25 C-11.94503906 4.45078125 -11.32757813 3.6515625 -10.69140625 2.828125 C-7.59906272 -0.51417701 -4.28677981 -0.09526177 0 0 Z " fill="#EDEDEC" transform="translate(364,110)"/>
<path d="M0 0 C-1.31772317 2.80596158 -2.79272252 5.2017865 -4.6875 7.65234375 C-5.21585449 8.33917236 -5.74420898 9.02600098 -6.28857422 9.73364258 C-6.85334473 10.46091553 -7.41811523 11.18818848 -8 11.9375 C-8.58668457 12.69893311 -9.17336914 13.46036621 -9.77783203 14.24487305 C-11.51538451 16.49905275 -13.25707773 18.74997084 -15 21 C-23.4440776 31.91790454 -31.73595829 42.94539511 -40 54 C-42.49549048 50.25676428 -42.46632696 48.43486452 -42 44 C-40.3046875 41.359375 -40.3046875 41.359375 -37.875 38.75 C-36.95166185 37.71832216 -36.03405438 36.68149742 -35.12109375 35.640625 C-34.37061768 34.78500977 -34.37061768 34.78500977 -33.60498047 33.91210938 C-30.53046577 30.24925584 -27.75166309 26.36400829 -24.9375 22.5 C-24.33929443 21.68515137 -23.74108887 20.87030273 -23.12475586 20.03076172 C-20.48026279 16.42381093 -17.85531167 12.80600856 -15.28125 9.1484375 C-14.87914307 8.58705078 -14.47703613 8.02566406 -14.06274414 7.44726562 C-13.0199913 5.99026231 -11.99177077 4.52288812 -10.96484375 3.0546875 C-7.66578814 -0.39521956 -4.60676475 0 0 0 Z " fill="#ECECEB" transform="translate(412,148)"/>
<path d="M0 0 C1.9453125 -0.29296875 1.9453125 -0.29296875 4.125 -0.1875 C5.40375 -0.125625 6.6825 -0.06375 8 0 C6.37254294 3.67490304 4.09913379 6.59527924 1.625 9.75 C0.71909723 10.91201664 -0.18580673 12.07481247 -1.08984375 13.23828125 C-1.56534668 13.85010254 -2.04084961 14.46192383 -2.53076172 15.09228516 C-5.03680675 18.3462293 -7.48343533 21.64429583 -9.9375 24.9375 C-13.89102974 30.22396685 -17.87780956 35.48200208 -21.9375 40.6875 C-22.37376709 41.25138428 -22.81003418 41.81526855 -23.25952148 42.39624023 C-25.97513413 45.85651539 -28.84118743 48.95420398 -32 52 C-33.4246728 49.15065441 -33.29253785 47.16402784 -33 44 C-31.453125 41.3515625 -31.453125 41.3515625 -29.25 38.625 C-28.41977128 37.57485202 -27.59038893 36.52403451 -26.76171875 35.47265625 C-26.31489746 34.91465332 -25.86807617 34.35665039 -25.40771484 33.78173828 C-22.88965009 30.59463516 -20.48621299 27.32153254 -18.0625 24.0625 C-13.4182687 17.85557775 -8.71116194 11.70031726 -3.9609375 5.57421875 C-2.57968897 3.76098612 -1.2643831 1.89657466 0 0 Z " fill="#EEEEED" transform="translate(352,216)"/>
<path d="M0 0 C2.64 0 5.28 0 8 0 C6.61134768 4.06417094 4.72037655 6.80844859 1.9375 10.0625 C-1.95621313 14.71400857 -5.64257281 19.46239345 -9.2578125 24.33203125 C-13.64381318 30.22497302 -18.12823459 36.04436207 -22.59204102 41.87841797 C-23.26162842 42.7551416 -23.93121582 43.63186523 -24.62109375 44.53515625 C-25.2236499 45.322854 -25.82620605 46.11055176 -26.44702148 46.92211914 C-27.68374349 48.57684968 -28.85408894 50.28113342 -30 52 C-30.66 52 -31.32 52 -32 52 C-32.79758718 47.46064579 -32.98866288 43.61376984 -30.5234375 39.58984375 C-29.03559536 37.83173815 -27.51474802 36.10134487 -25.97265625 34.390625 C-22.13013056 30.12618014 -18.7875353 25.48456721 -15.375 20.875 C-14.13373096 19.20504609 -12.89156221 17.5357605 -11.6484375 15.8671875 C-11.04999023 15.0637793 -10.45154297 14.26037109 -9.83496094 13.43261719 C-7.3907525 10.19231744 -4.8865919 7.00088465 -2.36962891 3.81689453 C-0.94525531 2.0415872 -0.94525531 2.0415872 0 0 Z " fill="#EFEFEE" transform="translate(303,178)"/>
<path d="M0 0 C-4.6311294 7.38635829 -9.97815278 14.15776348 -15.39355469 20.97119141 C-18.32470274 24.67299084 -21.22505741 28.39873599 -24.125 32.125 C-24.71692139 32.88466064 -25.30884277 33.64432129 -25.91870117 34.42700195 C-30.16921852 39.89532766 -34.33105943 45.42203671 -38.42578125 51.0078125 C-38.94527344 51.66523438 -39.46476562 52.32265625 -40 53 C-40.33 53 -40.66 53 -41 53 C-42.75296282 45.64070517 -42.75296282 45.64070517 -41.10253906 42.04443359 C-39.70543773 40.14821911 -38.21930368 38.42113462 -36.625 36.6875 C-35.50361837 35.38287538 -34.38384149 34.07686979 -33.265625 32.76953125 C-32.70810547 32.13225098 -32.15058594 31.4949707 -31.57617188 30.83837891 C-29.37520754 28.27126902 -27.38040061 25.5981609 -25.375 22.875 C-21.72994563 17.963839 -18.02118414 13.10744301 -14.27294922 8.27490234 C-12.42993608 5.89188859 -10.67223629 3.50835444 -9 1 C-5.99925919 -0.13821203 -3.17676818 -0.02625428 0 0 Z " fill="#EDEDEC" transform="translate(461,186)"/>
<path d="M0 0 C1.06605469 0.10699219 2.13210938 0.21398437 3.23046875 0.32421875 C1.74527354 4.84731325 -0.80143076 8.18328765 -3.76953125 11.82421875 C-4.76884959 13.0724202 -5.767534 14.32112942 -6.765625 15.5703125 C-7.2694873 16.1979248 -7.77334961 16.82553711 -8.29248047 17.47216797 C-10.50782569 20.24995455 -12.67233351 23.06558126 -14.83203125 25.88671875 C-15.65102478 26.95444003 -16.47003523 28.02214835 -17.2890625 29.08984375 C-17.69463379 29.61900391 -18.10020508 30.14816406 -18.51806641 30.69335938 C-19.8118511 32.3793683 -21.1086198 34.06304303 -22.40625 35.74609375 C-23.05787109 36.59155762 -23.05787109 36.59155762 -23.72265625 37.45410156 C-24.57531747 38.56037813 -25.42817631 39.6665024 -26.28125 40.77246094 C-29.14227908 44.48858925 -31.9511154 48.23942643 -34.7109375 52.03125 C-35.23494141 52.67126953 -35.23494141 52.67126953 -35.76953125 53.32421875 C-36.09953125 53.32421875 -36.42953125 53.32421875 -36.76953125 53.32421875 C-37.43799806 47.72380674 -37.4478236 43.54780518 -34.05859375 38.8671875 C-32.86109874 37.3956232 -31.63846468 35.94424288 -30.39453125 34.51171875 C-29.10120419 32.94039902 -27.80823746 31.36878263 -26.515625 29.796875 C-25.87608887 29.03648926 -25.23655273 28.27610352 -24.57763672 27.49267578 C-22.11742219 24.54214574 -19.78227756 21.50630426 -17.45703125 18.44921875 C-16.67070312 17.43730469 -15.884375 16.42539062 -15.07421875 15.3828125 C-13.45247402 13.23056483 -11.9099913 11.0872878 -10.40234375 8.859375 C-10.01216064 8.29782715 -9.62197754 7.7362793 -9.2199707 7.15771484 C-8.15292395 5.61426297 -7.11067914 4.05374753 -6.0703125 2.4921875 C-3.76953125 0.32421875 -3.76953125 0.32421875 0 0 Z " fill="#ECECEB" transform="translate(404.76953125,253.67578125)"/>
<path d="M0 0 C4.00669694 0.57104793 6.22097875 2.60417759 9.25 5.1875 C13.27137754 8.57733234 17.33563299 11.78318072 21.63671875 14.80859375 C22.31154297 15.39833984 22.31154297 15.39833984 23 16 C23 16.66 23 17.32 23 18 C16.22598846 18.275242 9.8873484 17.62906717 3.20703125 16.51171875 C-1.17922501 15.81184108 -5.57606379 15.37947986 -10 15 C-9.45230629 10.81761166 -7.10111111 8.40131455 -4.4375 5.25 C-3.19806641 3.77273438 -3.19806641 3.77273438 -1.93359375 2.265625 C-1.29550781 1.51796875 -0.65742188 0.7703125 0 0 Z " fill="#EDEDEC" transform="translate(320,302)"/>
<path d="M0 0 C2.77050284 1.30470691 5.15540487 2.75267214 7.58203125 4.6171875 C8.26015869 5.13643799 8.93828613 5.65568848 9.63696289 6.19067383 C10.71385376 7.02441528 10.71385376 7.02441528 11.8125 7.875 C12.92516235 8.73097778 12.92516235 8.73097778 14.06030273 9.60424805 C21.4494288 15.30792834 28.73919626 21.13428519 36 27 C34 29 34 29 30.26171875 29.3984375 C25.67897604 29.27243015 23.33168944 27.58421493 19.8125 24.625 C18.70183353 23.70024404 17.58981097 22.7771148 16.4765625 21.85546875 C15.91098633 21.38028809 15.34541016 20.90510742 14.76269531 20.41552734 C12.98588432 18.98866444 11.16094647 17.70169789 9.2734375 16.42578125 C0.41632245 10.3470433 0.41632245 10.3470433 -0.8125 6.37109375 C-0.8125 3.875 -0.8125 3.875 0 0 Z " fill="#ECECEB" transform="translate(324,181)"/>
<path d="M0 0 C2 0 2 0 4.2890625 2.24609375 C5.18367188 3.15488281 6.07828125 4.06367187 7 5 C8.76484143 6.3889462 10.55837103 7.74200919 12.375 9.0625 C17.3498696 12.73957753 22.23025212 16.51236923 27.0625 20.375 C27.70558105 20.88683838 28.34866211 21.39867676 29.01123047 21.92602539 C29.61725098 22.41192139 30.22327148 22.89781738 30.84765625 23.3984375 C31.6521521 24.04304932 31.6521521 24.04304932 32.47290039 24.70068359 C34.06903922 26.05874128 35.5380749 27.49945181 37 29 C33.48482459 30.38579031 30.73454412 30.62392023 27 30 C21.8136096 27.24136755 17.36035543 23.28590442 12.87841797 19.52880859 C11.24183047 18.19682121 9.51886667 16.97238502 7.78515625 15.76953125 C1.40418343 11.32939951 1.40418343 11.32939951 0.17578125 7.2890625 C-0.09237385 4.8025334 -0.17359965 2.49166551 0 0 Z " fill="#ECECEB" transform="translate(375,113)"/>
<path d="M0 0 C3.85359971 1.67020423 6.94284274 4.20074437 10.1875 6.8125 C11.42499996 7.79655623 12.66332027 8.77958148 13.90234375 9.76171875 C14.55960449 10.2829834 15.21686523 10.80424805 15.89404297 11.34130859 C19.653754 14.30252778 23.45047631 17.21514852 27.25 20.125 C27.98887451 20.69323486 28.72774902 21.26146973 29.48901367 21.84692383 C30.17842041 22.37439209 30.86782715 22.90186035 31.578125 23.4453125 C32.19075195 23.91469238 32.80337891 24.38407227 33.43457031 24.86767578 C35.0139537 26.07441469 35.0139537 26.07441469 37 27 C37 27.66 37 28.32 37 29 C31.63163248 29.96824264 27.56549089 29.93356713 22.796875 27.08984375 C19.97668117 24.97587185 17.32368514 22.67268926 14.66259766 20.36376953 C13.01496628 19.0122763 11.33007382 17.84251043 9.54296875 16.68359375 C1.46054837 11.32407656 1.46054837 11.32407656 0.03125 7.21484375 C-0.22052108 4.72860435 -0.26927597 2.48044596 0 0 Z " fill="#EFEFEE" transform="translate(273,248)"/>
<path d="M0 0 C6.78793395 4.12932648 12.83892088 9.05167125 18.95703125 14.08935547 C24.4846297 18.62559115 30.14366048 22.89311784 36 27 C32.28550212 29.47633192 29.30629583 29.76794441 25 29 C22.41018299 27.70190119 20.35587508 25.96868799 18.1875 24.0625 C16.9807511 23.04523788 15.7737158 22.02831541 14.56640625 21.01171875 C13.97230957 20.5017334 13.37821289 19.99174805 12.76611328 19.46630859 C11.10705801 18.08888449 9.41285077 16.82575949 7.65234375 15.58203125 C0.32816312 10.24246731 0.32816312 10.24246731 -0.67578125 6.44140625 C-0.6875 3.9375 -0.6875 3.9375 0 0 Z " fill="#F0F0EF" transform="translate(425,152)"/>
<path d="M0 0 C2.93374528 1.36366942 5.36981327 2.93795727 7.90625 4.94140625 C8.64480225 5.52124268 9.38335449 6.1010791 10.14428711 6.69848633 C10.92167236 7.31361084 11.69905762 7.92873535 12.5 8.5625 C14.11535143 9.82880647 15.7312384 11.09443008 17.34765625 12.359375 C18.1380127 12.97876953 18.92836914 13.59816406 19.74267578 14.23632812 C22.79066944 16.6177586 25.85373706 18.97760888 28.9375 21.3125 C29.85402344 22.00988281 30.77054687 22.70726562 31.71484375 23.42578125 C33.99527544 25.15274572 33.99527544 25.15274572 37 26 C37 26.99 37 27.98 37 29 C32.59401496 29.89018881 28.3131134 30.27789189 24.25 28.03320312 C20.48377749 25.41914737 17.04452139 22.41893153 13.60986328 19.38916016 C11.43321055 17.51091417 9.13002857 15.82452095 6.8125 14.125 C3.7396342 11.72039684 1.43567481 9.73275449 0 6 C-0.1875 2.6875 -0.1875 2.6875 0 0 Z " fill="#ECECEB" transform="translate(322,286)"/>
<path d="M0 0 C5.27886366 -0.93523175 9.36407957 -1.04844704 13.98046875 1.91015625 C16.52593068 4.085736 18.99217067 6.30936428 21.43554688 8.59667969 C24.0459225 10.9381964 26.86001957 12.99297976 29.6875 15.0625 C34.93564356 18.93564356 34.93564356 18.93564356 36 20 C36.14115161 22.67058851 36.04247107 25.32432238 36 28 C31.13389119 26.45798829 27.79755363 23.64303791 23.9375 20.4375 C22.60797709 19.35268662 21.27723117 18.26937055 19.9453125 17.1875 C19.2843457 16.64996094 18.62337891 16.11242187 17.94238281 15.55859375 C12.66187675 11.3214456 7.22661737 7.24295847 1.66796875 3.37890625 C1.11753906 2.92386719 0.56710937 2.46882813 0 2 C0 1.34 0 0.68 0 0 Z " fill="#EBEBEA" transform="translate(326,279)"/>
<path d="M0 0 C1.91062351 1.44801645 3.73395126 2.9608557 5.54760742 4.52856445 C6.85909906 5.63262795 8.17159611 6.73549829 9.48510742 7.8371582 C10.11416992 8.36937988 10.74323242 8.90160156 11.39135742 9.44995117 C13.67704985 11.31522156 16.10684802 12.93651121 18.54760742 14.59106445 C21.00595345 16.45442617 22.00325483 17.36511005 22.93432617 20.32543945 C23.20229544 22.56663694 23.30019276 24.652959 23.17260742 26.90356445 C19.14025756 25.5210445 16.40528448 23.66316682 13.17260742 20.90356445 C9.00840281 17.41372496 4.79929384 14.01869182 0.48510742 10.71606445 C-0.06169678 10.29655518 -0.60850098 9.8770459 -1.171875 9.44482422 C-4.92666068 6.57245003 -8.71219857 3.74410772 -12.53442383 0.9621582 C-13.17444336 0.4381543 -13.17444336 0.4381543 -13.82739258 -0.09643555 C-13.82739258 -0.42643555 -13.82739258 -0.75643555 -13.82739258 -1.09643555 C-9.0560247 -2.3977177 -4.38241678 -2.62945007 0 0 Z " fill="#ECECEB" transform="translate(290.827392578125,243.096435546875)"/>
<path d="M0 0 C6.46732963 3.99607359 12.35399082 8.59827458 18.24462891 13.38134766 C23.34519384 17.51405368 28.57389331 21.42469795 33.90234375 25.2578125 C34.59457031 25.83273438 35.28679687 26.40765625 36 27 C36 27.66 36 28.32 36 29 C30.51920053 30.08737304 26.54005525 30.02545143 21.796875 26.8671875 C18.97802407 24.51786076 16.33488165 21.98386081 13.66699219 19.46630859 C12.01767209 18.01554461 10.33710392 16.79525331 8.5078125 15.58203125 C0.33525057 10.14968126 0.33525057 10.14968126 -0.74609375 6.44140625 C-0.74965181 4.16068917 -0.56301208 2.20513065 0 0 Z " fill="#EFEFEE" transform="translate(327,76)"/>
<path d="M0 0 C2.91616587 1.35744869 5.34662063 2.91744175 7.87109375 4.90625 C8.60465088 5.48084961 9.33820801 6.05544922 10.09399414 6.64746094 C11.25402954 7.56446777 11.25402954 7.56446777 12.4375 8.5 C14.04914651 9.76604858 15.66112839 11.03167035 17.2734375 12.296875 C18.06975586 12.92271484 18.86607422 13.54855469 19.68652344 14.19335938 C21.79231207 15.8378123 23.91026995 17.46362136 26.0390625 19.078125 C26.63920166 19.53380859 27.23934082 19.98949219 27.85766602 20.45898438 C29.46730277 21.67791022 31.07928211 22.89374082 32.69140625 24.109375 C35 26 35 26 36 28 C31.64588506 29.04961707 27.7628216 29.8324535 23.60009766 27.86669922 C21.21994873 26.16600723 19.01566983 24.36169083 16.8125 22.4375 C16.05775391 21.81552734 15.30300781 21.19355469 14.52539062 20.55273438 C13.03692763 19.31943646 11.56145253 18.07027087 10.1003418 16.8046875 C8.73299932 15.62981878 7.34176417 14.48202363 5.92504883 13.3671875 C1.21808732 9.61744203 1.21808732 9.61744203 0.09765625 6.4453125 C0.08605469 5.67960938 0.07445312 4.91390625 0.0625 4.125 C0.03285156 3.34382812 0.00320313 2.56265625 -0.02734375 1.7578125 C-0.01832031 1.17773438 -0.00929688 0.59765625 0 0 Z " fill="#F0F0EF" transform="translate(373,219)"/>
<path d="M0 0 C4.41879711 2.79243428 8.6906709 5.5996433 12.5625 9.125 C17.26846848 13.39966791 22.40424103 17.09048289 27.54125977 20.82470703 C28.21600342 21.32083496 28.89074707 21.81696289 29.5859375 22.328125 C30.49931885 22.99183105 30.49931885 22.99183105 31.43115234 23.66894531 C33 25 33 25 35 28 C31.71866465 29.64066767 28.5326006 29.65742799 25 29 C22.01777355 27.35110661 19.59076679 25.20775519 17.0625 22.9375 C15.66919455 21.7316551 14.2746709 20.52721628 12.87890625 19.32421875 C12.2152002 18.74462402 11.55149414 18.1650293 10.86767578 17.56787109 C8.53166152 15.60684056 6.03533177 13.9415605 3.5 12.25 C1.02237524 10.38355403 0.14020332 9.63347338 -0.53515625 6.58203125 C-0.55986081 4.30568229 -0.41062753 2.23563879 0 0 Z " fill="#F0F0EF" transform="translate(276,143)"/>
<path d="M0 0 C6.59633859 -0.66909582 10.78386627 -0.27156285 16.0625 3.86035156 C16.701875 4.40143555 17.34125 4.94251953 18 5.5 C19.0209375 6.32322754 19.0209375 6.32322754 20.0625 7.16308594 C21.42095032 8.25975156 22.7727373 9.3647309 24.1171875 10.47851562 C25.77577544 11.81880609 27.50856291 13.06614783 29.25 14.296875 C35.70252324 18.87963298 35.70252324 18.87963298 36.6015625 22.265625 C36.625 24.5 36.625 24.5 36 28 C30.96969149 26.44850638 27.56974972 23.39892475 23.625 20.0625 C17.43682809 14.91074577 11.11907424 10.04562392 4.52197266 5.42797852 C2.98096741 4.33116501 1.48508158 3.17142211 0 2 C0 1.34 0 0.68 0 0 Z " fill="#EDEDEC" transform="translate(377,212)"/>
<path d="M0 0 C5.07113576 -0.79451063 9.2710514 -1.05794022 13.7578125 1.6875 C15.58930578 3.2253136 17.38532771 4.80611445 19.1484375 6.421875 C23.0306105 9.93178484 27.25938397 12.78768906 31.56640625 15.76171875 C34.43278977 18.39805544 35.1650754 20.23048836 36 24 C36 25.32 36 26.64 36 28 C31.67943524 26.56503929 28.85873858 24.41188293 25.4375 21.4375 C21.29000163 17.88083369 17.08033078 14.50047404 12.6875 11.25 C8.29039993 7.99117682 4.05053331 4.68230301 0 1 C0 0.67 0 0.34 0 0 Z " fill="#EDEDEC" transform="translate(329,175)"/>
<path d="M0 0 C0.95648438 0.71285156 1.91296875 1.42570313 2.8984375 2.16015625 C3.94257813 2.95292969 4.98671875 3.74570313 6.0625 4.5625 C6.6390332 4.99933105 7.21556641 5.43616211 7.80957031 5.88623047 C18.49470339 13.99470339 18.49470339 13.99470339 21.0625 16.5625 C21.33241906 19.25089385 21.14987357 21.85391936 21.0625 24.5625 C18.14979691 23.20835565 15.73778728 21.65417214 13.2265625 19.65625 C12.49808105 19.08165039 11.76959961 18.50705078 11.01904297 17.91503906 C10.24963379 17.30370117 9.48022461 16.69236328 8.6875 16.0625 C2.30356727 11.02658972 -4.14353552 6.15107961 -10.87255859 1.58398438 C-12.26115548 0.62370059 -13.60506986 -0.40068941 -14.9375 -1.4375 C-14.9375 -2.0975 -14.9375 -2.7575 -14.9375 -3.4375 C-8.26752926 -4.8018122 -5.42709872 -4.0560422 0 0 Z " fill="#EDEDED" transform="translate(294.9375,140.4375)"/>
<path d="M0 0 C1.92057292 0.22786458 3.84114583 0.45572917 5.76171875 0.68359375 C4.47838924 3.39660063 3.07136464 5.76338602 1.2578125 8.15234375 C0.76893555 8.80074219 0.28005859 9.44914062 -0.22363281 10.1171875 C-1.29134371 11.51612017 -2.35972279 12.91454309 -3.42871094 14.3125 C-5.95540643 17.62531194 -8.442058 20.9324334 -10.75 24.40234375 C-16.16938325 32.34698936 -16.16938325 32.34698936 -19.5703125 33.41796875 C-21.80078125 33.43359375 -21.80078125 33.43359375 -25.23828125 32.68359375 C-22.13436682 26.86278664 -18.40398953 21.83746547 -14.30078125 16.68359375 C-13.08199452 15.14298528 -11.86452557 13.60133331 -10.6484375 12.05859375 C-10.06553955 11.32455322 -9.4826416 10.5905127 -8.88208008 9.83422852 C-7.34503722 7.82326602 -5.9560216 5.76241826 -4.56640625 3.6484375 C-2.23828125 0.68359375 -2.23828125 0.68359375 0 0 Z " fill="#ECECEB" transform="translate(303.23828125,282.31640625)"/>
<path d="M0 0 C0.33 0 0.66 0 1 0 C2.85977311 8.40279304 2.85977311 8.40279304 1.01171875 11.8359375 C0.0040662 12.94951579 -1.04863052 14.02328409 -2.1328125 15.0625 C-4.44600369 17.46279881 -6.02677216 20.12623368 -7.8125 22.9375 C-11.23725739 27.78647952 -11.23725739 27.78647952 -14.51171875 28.703125 C-16.77761997 28.68889642 -18.79446635 28.50543479 -21 28 C-18.09943941 22.32499014 -14.40518028 17.68053806 -10.32421875 12.796875 C-7.57194501 9.48489517 -4.93659014 6.09343439 -2.3125 2.6796875 C-1 1 -1 1 0 0 Z " fill="#F0F0EF" transform="translate(315,287)"/>
<path d="M0 0 C3.89864034 1.69258044 7.06607958 4.25988548 10.375 6.875 C11.48544601 7.74934651 12.59741718 8.62175964 13.7109375 9.4921875 C14.25314941 9.91886719 14.79536133 10.34554687 15.35400391 10.78515625 C17.23047141 12.21263663 17.23047141 12.21263663 20.359375 13.9921875 C23 16 23 16 23.8046875 18.578125 C23.82789063 19.45984375 23.85109375 20.3415625 23.875 21.25 C23.91367187 22.14203125 23.95234375 23.0340625 23.9921875 23.953125 C23.99605469 24.96632812 23.99605469 24.96632812 24 26 C15.64530987 23.12429144 8.18959996 16.65107556 3.92578125 8.9296875 C2.51281574 5.98451888 1.20268189 3.03835426 0 0 Z " fill="#EBEBEA" transform="translate(241,206)"/>
<path d="M0 0 C0.66 0.33 1.32 0.66 2 1 C1.67 1.66 1.34 2.32 1 3 C1.66 3 2.32 3 3 3 C3 2.34 3 1.68 3 1 C3.99 0.67 4.98 0.34 6 0 C6 0.66 6 1.32 6 2 C6.66 2 7.32 2 8 2 C6.63482838 6.09551485 4.67663975 6.82125052 1 9 C-4.18972381 11.44798293 -9.54374908 13.2554844 -15 15 C-15.268125 14.360625 -15.53625 13.72125 -15.8125 13.0625 C-16.88667752 10.66868314 -16.88667752 10.66868314 -20 10 C-9.6484375 4.82421875 -9.6484375 4.82421875 -7.79980469 3.90771484 C-6.07282867 3.03673046 -4.36775798 2.1227177 -2.6640625 1.20703125 C-1.78492188 0.80871094 -0.90578125 0.41039062 0 0 Z " fill="#171715" transform="translate(206,184)"/>
<path d="M0 0 C2.68416731 0.61643625 5.15904387 0.59134509 7.91015625 0.55859375 C8.895 0.54957031 9.87984375 0.54054688 10.89453125 0.53125 C11.6421875 0.51964844 12.38984375 0.50804687 13.16015625 0.49609375 C13.16015625 1.15609375 13.16015625 1.81609375 13.16015625 2.49609375 C10.85015625 2.49609375 8.54015625 2.49609375 6.16015625 2.49609375 C5.83015625 4.14609375 5.50015625 5.79609375 5.16015625 7.49609375 C1.5756512 7.2178159 -2.00710112 6.92114844 -5.58984375 6.62109375 C-6.605625 6.54246094 -7.62140625 6.46382813 -8.66796875 6.3828125 C-9.64765625 6.29902344 -10.62734375 6.21523438 -11.63671875 6.12890625 C-12.53745117 6.05559082 -13.43818359 5.98227539 -14.36621094 5.90673828 C-16.87664517 5.48998439 -18.64399781 4.75534418 -20.83984375 3.49609375 C-19.51984375 3.16609375 -18.19984375 2.83609375 -16.83984375 2.49609375 C-17.16984375 1.83609375 -17.49984375 1.17609375 -17.83984375 0.49609375 C-4.41361424 -1.20882428 -4.41361424 -1.20882428 0 0 Z " fill="#1F201E" transform="translate(330.83984375,318.50390625)"/>
<path d="M0 0 C1.98 0.99 1.98 0.99 4 2 C4.66 2 5.32 2 6 2 C6.05392397 4.77109307 6.09363455 7.54113818 6.125 10.3125 C6.14175781 11.09818359 6.15851563 11.88386719 6.17578125 12.69335938 C6.18222656 13.45068359 6.18867188 14.20800781 6.1953125 14.98828125 C6.20578613 15.68477783 6.21625977 16.38127441 6.22705078 17.09887695 C6 19 6 19 4 22 C2.68 21.67 1.36 21.34 0 21 C0 14.07 0 7.14 0 0 Z " fill="#080806" transform="translate(378,335)"/>
<path d="M0 0 C1.32 0 2.64 0 4 0 C4.33 0.99 4.66 1.98 5 3 C8.00847418 4.22520264 8.00847418 4.22520264 11 5 C10.41734375 5.22429687 9.8346875 5.44859375 9.234375 5.6796875 C6.3602171 7.37805353 5.0944395 9.35834074 3.25 12.125 C2.63640625 13.03507812 2.0228125 13.94515625 1.390625 14.8828125 C0.93171875 15.58148438 0.4728125 16.28015625 0 17 C-0.66 16.67 -1.32 16.34 -2 16 C-4.11683841 16.89163577 -4.11683841 16.89163577 -6 18 C-6.703125 16.28125 -6.703125 16.28125 -7 14 C-5.671875 11.78125 -5.671875 11.78125 -3.75 9.5 C-3.12609375 8.7471875 -2.5021875 7.994375 -1.859375 7.21875 C-1.24578125 6.4865625 -0.6321875 5.754375 0 5 C1.00870251 3.67323814 2.01175116 2.34206632 3 1 C2.01 0.67 1.02 0.34 0 0 Z " fill="#181816" transform="translate(328,353)"/>
<path d="M0 0 C5.77378925 0.4811491 9.95859836 2.18467181 15 5 C14.690625 5.928125 14.690625 5.928125 14.375 6.875 C14.25125 7.57625 14.1275 8.2775 14 9 C14.66 9.66 15.32 10.32 16 11 C9.82777121 9.75971762 3.93317878 8.10396411 -2 6 C-1.34 4.02 -0.68 2.04 0 0 Z " fill="#0D0D0C" transform="translate(300,335)"/>
<path d="M0 0 C0.33 1.32 0.66 2.64 1 4 C3.97 4.495 3.97 4.495 7 5 C6.34 5.66 5.68 6.32 5 7 C6.98 7.99 8.96 8.98 11 10 C7.44732616 11.19561139 4.66889453 10.8553676 1 10.25 C-0.546875 10.01023437 -0.546875 10.01023437 -2.125 9.765625 C-5.07695571 8.97950636 -6.72143534 7.99374407 -9 6 C-7.02 6 -5.04 6 -3 6 C-2.690625 5.195625 -2.38125 4.39125 -2.0625 3.5625 C-1 1 -1 1 0 0 Z " fill="#0C0C0B" transform="translate(363,322)"/>
<path d="M0 0 C2.91517292 1.07401108 4.77810176 1.77810176 7 4 C6.625 7.125 6.625 7.125 6 10 C1.40182648 8.54794521 1.40182648 8.54794521 -0.375 6.125 C-1.09806909 3.6665651 -0.85178626 2.38500154 0 0 Z " fill="#222320" transform="translate(314,339)"/>
<path d="M0 0 C2.95409701 1.37154504 5.44008376 2.98863724 8 5 C7.67 6.98 7.34 8.96 7 11 C6.34 11 5.68 11 5 11 C4.16426177 9.35538655 3.33147118 7.70927487 2.5 6.0625 C2.0359375 5.14597656 1.571875 4.22945312 1.09375 3.28515625 C0 1 0 1 0 0 Z " fill="#D8D8D8" transform="translate(255,234)"/>
<path d="M0 0 C-2.28051054 2.64480934 -4.04069498 3.56210968 -7.4375 4.3125 C-8.19933594 4.49425781 -8.96117187 4.67601562 -9.74609375 4.86328125 C-12.41887984 5.02540866 -13.74105736 4.37388994 -16 3 C-11.14640505 -1.01676824 -5.95027665 -0.28136159 0 0 Z " fill="#262624" transform="translate(230,175)"/>
<path d="M0 0 C0.66 0 1.32 0 2 0 C2 3.63 2 7.26 2 11 C1.34 11 0.68 11 0 11 C-2.08387097 6.58709677 -2.08387097 6.58709677 -1.6875 3.8125 C-1 2 -1 2 0 0 Z " fill="#CCCDCC" transform="translate(266,248)"/>
<path d="M0 0 C1.32 0 2.64 0 4 0 C4.33 0.99 4.66 1.98 5 3 C8.00847418 4.22520264 8.00847418 4.22520264 11 5 C10.38125 5.28875 9.7625 5.5775 9.125 5.875 C6.86674235 6.93720042 6.86674235 6.93720042 5 9 C3.68 7.35 2.36 5.7 1 4 C1.66 3.01 2.32 2.02 3 1 C2.01 0.67 1.02 0.34 0 0 Z " fill="#3F3F3C" transform="translate(328,353)"/>
<path d="M0 0 C0.66 0 1.32 0 2 0 C2 0.66 2 1.32 2 2 C2.99 1.67 3.98 1.34 5 1 C5 1.66 5 2.32 5 3 C7.31 3 9.62 3 12 3 C12 3.33 12 3.66 12 4 C8.37 4.33 4.74 4.66 1 5 C0.67 3.35 0.34 1.7 0 0 Z " fill="#0A0B09" transform="translate(236,328)"/>
<path d="M0 0 C0.33 0.66 0.66 1.32 1 2 C-0.43359375 4.6015625 -0.43359375 4.6015625 -2.4375 7.625 C-3.09621094 8.62789063 -3.75492188 9.63078125 -4.43359375 10.6640625 C-4.95050781 11.43492187 -5.46742188 12.20578125 -6 13 C-7.32 12.67 -8.64 12.34 -10 12 C-9.278125 11.319375 -8.55625 10.63875 -7.8125 9.9375 C-4.76544307 6.90785482 -2.42792046 3.53782696 0 0 Z " fill="#2D2D2C" transform="translate(253,456)"/>
<path d="M0 0 C0.66 0.99 1.32 1.98 2 3 C0.63016497 6.16115776 0.0109362 6.9927092 -3 9 C-3.99 8.67 -4.98 8.34 -6 8 C-4.02 5.36 -2.04 2.72 0 0 Z " fill="#1D1D1C" transform="translate(166,261)"/>
<path d="M0 0 C0.66 0.33 1.32 0.66 2 1 C2 3.97 2 6.94 2 10 C1.34 9.34 0.68 8.68 0 8 C-0.66 8.99 -1.32 9.98 -2 11 C-2 8.69 -2 6.38 -2 4 C-1.34 4 -0.68 4 0 4 C0 2.68 0 1.36 0 0 Z " fill="#060604" transform="translate(324,75)"/>
<path d="M0 0 C-3.96 0 -7.92 0 -12 0 C-12 -0.66 -12 -1.32 -12 -2 C-7.26382227 -3.57872591 -4.10216206 -2.73477471 0 0 Z " fill="#B5B5B4" transform="translate(270,327)"/>
<path d="M0 0 C3 1 3 1 4.203125 2.77734375 C4.54859375 3.49019531 4.8940625 4.20304687 5.25 4.9375 C5.78367187 6.00291016 5.78367187 6.00291016 6.328125 7.08984375 C6.54984375 7.72019531 6.7715625 8.35054688 7 9 C6.67 9.66 6.34 10.32 6 11 C3.02753198 8.45217026 1.58464712 5.54659117 0 2 C0 1.34 0 0.68 0 0 Z " fill="#2E2E2D" transform="translate(260,287)"/>
<path d="M0 0 C1.65 0 3.3 0 5 0 C4.34 1.65 3.68 3.3 3 5 C-1.455 5.495 -1.455 5.495 -6 6 C-5.67 5.34 -5.34 4.68 -5 4 C-2.67843403 3.59270772 -0.3431213 3.25561323 2 3 C2 2.34 2 1.68 2 1 C1.34 0.67 0.68 0.34 0 0 Z " fill="#090907" transform="translate(308,172)"/>
<path d="M0 0 C0.66 0 1.32 0 2 0 C2 3.3 2 6.6 2 10 C1.67 10 1.34 10 1 10 C0.67 8.02 0.34 6.04 0 4 C-0.99 4.99 -1.98 5.98 -3 7 C-3.66 6.67 -4.32 6.34 -5 6 C-3.38405168 3.95880212 -1.7143618 1.95927063 0 0 Z " fill="#C2C2C1" transform="translate(319,77)"/>
<path d="M0 0 C2.97 0.495 2.97 0.495 6 1 C5.34 2.32 4.68 3.64 4 5 C1.5625 4.625 1.5625 4.625 -1 4 C-1.33 3.34 -1.66 2.68 -2 2 C-1.34 2 -0.68 2 0 2 C0 1.34 0 0.68 0 0 Z " fill="#323231" transform="translate(371,384)"/>
<path d="M0 0 C0.33 0.66 0.66 1.32 1 2 C1.99 2.33 2.98 2.66 4 3 C3.67 4.32 3.34 5.64 3 7 C2.01 7 1.02 7 0 7 C0 5.68 0 4.36 0 3 C-0.66 2.67 -1.32 2.34 -2 2 C-1.34 1.34 -0.68 0.68 0 0 Z " fill="#1A1916" transform="translate(207,237)"/>
<path d="M0 0 C4.2742558 1.5830577 6.26531794 4.50568404 9 8 C4.75153925 7.52794881 2.73180712 5.11122478 0 2 C0 1.34 0 0.68 0 0 Z " fill="#282826" transform="translate(225,241)"/>
<path d="M0 0 C0.66 0.66 1.32 1.32 2 2 C-0.64 4.97 -3.28 7.94 -6 11 C-6 7.39426104 -5.18292538 6.58663434 -3 3.8125 C-2.443125 3.09707031 -1.88625 2.38164062 -1.3125 1.64453125 C-0.879375 1.10183594 -0.44625 0.55914062 0 0 Z " fill="#292929" transform="translate(253,152)"/>
<path d="M0 0 C-0.33 0.99 -0.66 1.98 -1 3 C-3.31 3 -5.62 3 -8 3 C-8 2.34 -8 1.68 -8 1 C-5.07175348 0.02391783 -3.04386724 -0.08226668 0 0 Z " fill="#CBCBCA" transform="translate(358,320)"/>
<path d="M0 0 C1.9955516 3.99110319 2.19546065 5.69986566 2 10 C0.68 10 -0.64 10 -2 10 C-1.34 6.7 -0.68 3.4 0 0 Z " fill="#080804" transform="translate(271,248)"/>
<path d="M0 0 C0.33 0.66 0.66 1.32 1 2 C0.04663979 3.31611677 -0.91285774 4.62778961 -1.875 5.9375 C-2.40867187 6.66839844 -2.94234375 7.39929688 -3.4921875 8.15234375 C-5 10 -5 10 -7 11 C-5.5140084 6.40693504 -3.14985318 3.56430755 0 0 Z " fill="#2B2B2B" transform="translate(315,71)"/>
<path d="M0 0 C0.33 0 0.66 0 1 0 C1.24042276 4.08718695 0.42258812 7.17679443 -1 11 C-3 8 -3 8 -3 4 C-2.34 3.67 -1.68 3.34 -1 3 C-0.67 2.01 -0.34 1.02 0 0 Z " fill="#030303" transform="translate(320,285)"/>
<path d="M0 0 C0.66 0.33 1.32 0.66 2 1 C1.67 1.99 1.34 2.98 1 4 C2.32 4.33 3.64 4.66 5 5 C4.67 5.66 4.34 6.32 4 7 C2.68 6.34 1.36 5.68 0 5 C0 4.34 0 3.68 0 3 C-0.99 2.67 -1.98 2.34 -3 2 C-2.01 1.34 -1.02 0.68 0 0 Z " fill="#2B2C28" transform="translate(189,192)"/>
<path d="M0 0 C0.66 0.66 1.32 1.32 2 2 C-0.31 4.64 -2.62 7.28 -5 10 C-5 6.60406522 -4.47834052 5.93380119 -2.5 3.3125 C-2.0359375 2.68988281 -1.571875 2.06726563 -1.09375 1.42578125 C-0.7328125 0.95527344 -0.371875 0.48476562 0 0 Z " fill="#DCDCDB" transform="translate(403,149)"/>
<path d="M0 0 C0.66 0.66 1.32 1.32 2 2 C0.02 4.31 -1.96 6.62 -4 9 C-4.66 8.67 -5.32 8.34 -6 8 C-4.02 5.36 -2.04 2.72 0 0 Z " fill="#2F2F2F" transform="translate(136,300)"/>
<path d="M0 0 C0 1.32 0 2.64 0 4 C-1.32 4.33 -2.64 4.66 -4 5 C-4.33 4.01 -4.66 3.02 -5 2 C-2 0 -2 0 0 0 Z " fill="#22231F" transform="translate(242,325)"/>
<path d="M0 0 C0.33 0.66 0.66 1.32 1 2 C-0.65 3.98 -2.3 5.96 -4 8 C-4.99 7.67 -5.98 7.34 -7 7 C-4.66666667 4.66666667 -2.33333333 2.33333333 0 0 Z " fill="#2F2F2E" transform="translate(321,247)"/>
<path d="M0 0 C0.66 0 1.32 0 2 0 C1.67 1.98 1.34 3.96 1 6 C0.34 6 -0.32 6 -1 6 C-1.66 4.35 -2.32 2.7 -3 1 C-2.01 1.33 -1.02 1.66 0 2 C0 1.34 0 0.68 0 0 Z " fill="#C6C6C5" transform="translate(261,239)"/>
<path d="M0 0 C1.32 0.66 2.64 1.32 4 2 C3.34 3.32 2.68 4.64 2 6 C1.01 6 0.02 6 -1 6 C-0.835 5.38125 -0.67 4.7625 -0.5 4.125 C0.07634644 2.03936614 0.07634644 2.03936614 0 0 Z " fill="#242422" transform="translate(344,211)"/>
<path d="M0 0 C2 2 2 2 2.125 4.625 C2.08375 5.40875 2.0425 6.1925 2 7 C1.67 6.01 1.34 5.02 1 4 C-0.65 4.66 -2.3 5.32 -4 6 C-2.68 4.02 -1.36 2.04 0 0 Z " fill="#CCCCCA" transform="translate(368,115)"/>
</svg>
