<?xml version="1.0" encoding="UTF-8"?>
<svg version="1.1" xmlns="http://www.w3.org/2000/svg" width="668" height="705">
<path d="M0 0 C1.69919884 -0.00417505 3.3983949 -0.0096535 5.0975858 -0.01631981 C9.75770898 -0.03077077 14.41765526 -0.02653077 19.07778811 -0.019153 C24.10721417 -0.01442277 29.13660186 -0.02692992 34.16601562 -0.03717041 C44.01559816 -0.05436669 53.86511693 -0.05519668 63.71471058 -0.04995751 C71.7207341 -0.04591604 79.72673877 -0.04735909 87.73276138 -0.05270576 C88.87223907 -0.05345419 90.01171675 -0.05420261 91.18572406 -0.05497371 C93.50057848 -0.05650519 95.81543289 -0.05804354 98.1302873 -0.05958868 C119.83880749 -0.07331677 141.54729163 -0.0678739 163.25581099 -0.05640347 C183.11375186 -0.04647123 202.97159955 -0.05941106 222.82952605 -0.08333766 C243.22204109 -0.10772316 263.61451272 -0.11733784 284.00704205 -0.11068493 C295.45493665 -0.10719144 306.90275958 -0.1094334 318.35064316 -0.12693596 C328.09619949 -0.14165106 337.84163371 -0.14230239 347.58718763 -0.12486505 C352.55856273 -0.11634695 357.5297196 -0.11422537 362.50108337 -0.1295166 C367.05470443 -0.14334941 371.60792 -0.13861857 376.16151752 -0.11927737 C377.80612795 -0.11551274 379.45077076 -0.11845268 381.0953524 -0.12888902 C393.25089331 -0.20052305 402.79581968 1.36569579 412.42507935 9.3447113 C421.76373726 18.70125937 423.7431147 30.31304708 424.05789185 42.9697113 C423.29916931 47.33735746 422.01603565 48.7911232 418.46414185 51.38768005 C415.5696106 51.8759613 415.5696106 51.8759613 412.65164185 51.70018005 C411.67582153 51.65506287 410.70000122 51.60994568 409.6946106 51.5634613 C408.95855591 51.50545349 408.22250122 51.44744568 407.46414185 51.38768005 C407.42675903 52.46920349 407.38937622 53.55072693 407.3508606 54.6650238 C405.36296673 104.00192818 392.3653294 151.82950086 374.71414185 197.70018005 C374.27868042 198.84454529 373.84321899 199.98891052 373.39456177 201.16795349 C369.62972442 210.71437808 366.34635751 218.43676128 357.00476074 223.36917114 C352.69108001 225.09848296 348.55940426 225.11445695 343.9602356 225.0947113 C342.51439842 225.11739326 342.51439842 225.11739326 341.03935242 225.14053345 C337.99320609 225.1831517 334.94805563 225.19222345 331.90164185 225.20018005 C329.8228398 225.22334445 327.7440611 225.2487138 325.66531372 225.27635193 C320.59816939 225.33894875 315.53163829 225.37148591 310.46414185 225.38768005 C310.08648682 226.30347839 310.08648682 226.30347839 309.70120239 227.23777771 C309.3587146 228.04263611 309.01622681 228.84749451 308.6633606 229.67674255 C308.32909058 230.47289978 307.99482056 231.26905701 307.65042114 232.08934021 C305.04328107 237.14050642 300.80015957 240.11898479 295.5305481 242.0243988 C289.60053388 243.90002824 283.76102361 243.86442323 277.58914185 243.82518005 C276.48183716 243.84516052 275.37453247 243.86514099 274.2336731 243.88572693 C266.26178198 243.88104309 257.78655276 243.08795003 251.48806763 237.69602966 C248.04202717 234.03081617 246.41545855 230.00666618 244.46414185 225.38768005 C243.18361938 225.38880798 241.90309692 225.38993591 240.58377075 225.39109802 C235.79361617 225.3874031 231.0044553 225.34439357 226.21463013 225.2900238 C224.1489404 225.27195184 222.08313067 225.26427918 220.0173645 225.26756287 C199.3328278 225.28753828 199.3328278 225.28753828 192.18582153 220.13328552 C186.11168912 213.97474231 183.64442346 206.33838408 180.46414185 198.38768005 C164.29414185 198.38768005 148.12414185 198.38768005 131.46414185 198.38768005 C130.61737161 203.42880561 130.61737161 203.42880561 130.11610413 208.45384216 C130.06424454 209.2043988 130.01238495 209.95495544 129.95895386 210.72825623 C129.88019012 211.93445618 129.88019012 211.93445618 129.79983521 213.1650238 C129.71183403 214.45932312 129.71183403 214.45932312 129.62205505 215.7797699 C129.42942134 218.62803084 129.24138644 221.47657031 129.0539856 224.32518005 C128.9209483 226.32656717 128.7878551 228.32795057 128.65470886 230.32933044 C128.37598133 234.5322301 128.09987209 238.7352931 127.82522583 242.9384613 C127.47693691 248.26137128 127.11932767 253.58360831 126.75923824 258.9057312 C126.48058615 263.04791915 126.20859909 267.19052689 125.93829536 271.33326721 C125.80949277 273.29133121 125.67840196 275.24924636 125.54475212 277.20698547 C124.23745578 296.42885056 123.84882898 315.4471726 125.7492981 334.63768005 C125.88806095 336.12019873 126.0258655 337.60280736 126.16281128 339.085495 C126.53000966 343.03574978 126.9091468 346.98476864 127.29074478 350.93365479 C127.69195546 355.10742929 128.08208509 359.28223747 128.47268677 363.45701599 C128.63405506 365.18059001 128.79544746 366.90416177 128.9568634 368.62773132 C129.03764318 369.49034828 129.11842297 370.35296524 129.20165062 371.24172211 C129.44980244 373.88575295 129.69939688 376.52964426 129.94932556 379.17350769 C131.06760229 391.02162102 132.13907969 402.87326521 133.17749214 414.7286377 C133.41539415 417.44442709 133.65411559 420.16014327 133.89308167 422.87583923 C135.15520509 437.22611347 135.15520509 437.22611347 135.72052002 443.76707458 C136.07015419 447.81087843 136.42544044 451.85414868 136.78476715 455.89710236 C136.91515721 457.37612506 137.04345208 458.8553343 137.16942596 460.33473969 C137.93465515 475.3469936 137.93465515 475.3469936 144.46414185 488.38768005 C149.2287621 491.63628477 152.89841055 491.67556271 158.46414185 491.38768005 C157.98203247 490.67482849 157.4999231 489.96197693 157.00320435 489.2275238 C149.8506475 478.3819121 148.33875661 468.6609426 148.26101685 455.92674255 C148.25395721 455.14711151 148.24689758 454.36748047 148.23962402 453.56422424 C147.86439779 399.78157496 159.5546758 348.78321132 185.18289185 301.1962738 C186.90785935 297.41501882 186.61696613 295.35051353 185.46414185 291.38768005 C181.85224187 286.69221008 176.74554946 283.67064466 171.8899231 280.3525238 C169.50312361 278.41925466 168.44872563 277.25938276 167.46414185 274.38768005 C167.66649565 271.62217812 168.01669627 269.9693593 169.71414185 267.76268005 C171.46414185 266.38768005 171.46414185 266.38768005 173.7414856 265.1103363 C176.79608516 263.17765566 179.17370352 260.95517859 181.77664185 258.45018005 C186.06114929 254.49923158 189.94538038 251.32556576 195.46414185 249.38768005 C196.82516525 248.87845001 196.82516525 248.87845001 198.21368408 248.3589325 C204.16371372 246.68811264 210.39116992 247.10929198 216.51834106 247.12889099 C217.94317808 247.12617788 219.3680137 247.12261514 220.79284668 247.11827087 C224.64832062 247.10918106 228.50368708 247.11267746 232.35916281 247.11902905 C236.40417861 247.12410869 240.44918548 247.11939196 244.49420166 247.11625671 C251.28807214 247.11262195 258.08189908 247.11740243 264.87576294 247.12693787 C272.71411124 247.13781271 280.55235541 247.13430193 288.39070117 247.12328506 C295.13488523 247.11418773 301.87903807 247.1129391 308.62322628 247.11816239 C312.64480934 247.1212698 316.66634357 247.12172558 320.68792343 247.11508942 C324.47186999 247.10928124 328.25568335 247.11337591 332.03961563 247.12487793 C333.42263824 247.12750642 334.8056722 247.12679066 336.18869019 247.1223526 C344.68041132 247.09763062 351.9573984 247.84778665 360.13308716 250.13401794 C363.40311223 250.4898575 365.68055674 249.56306587 368.76101685 248.4462738 C369.96757935 248.02797302 371.17414185 247.60967224 372.41726685 247.17869568 C374.93793473 246.28547139 377.45112586 245.37484056 379.96414185 244.45994568 C392.59930851 240.11156651 392.59930851 240.11156651 399.46414185 243.38768005 C405.37322552 248.5088859 407.48685223 256.14932931 409.20632935 263.60643005 C410.20531867 266.6160696 410.20531867 266.6160696 413.1164856 267.63768005 C414.74263794 268.00893005 414.74263794 268.00893005 416.40164185 268.38768005 C430.19343444 272.10903378 441.82517199 280.0480355 449.64871216 292.18138123 C451.80908445 295.99689619 453.54465388 299.89026868 455.23757935 303.9306488 C455.58514282 304.75972244 455.9327063 305.58879608 456.290802 306.44299316 C460.18531402 315.90591099 463.35644877 325.58138111 466.46414185 335.32518005 C467.07248017 337.21533612 467.68087935 339.1054726 468.28933716 340.99559021 C471.72513033 351.71305939 475.0775366 362.45355981 478.21414185 373.26268005 C478.52480591 374.32220886 478.83546997 375.38173767 479.1555481 376.47337341 C484.49863185 395.407469 485.32453484 413.19776789 476.46414185 431.20018005 C463.80464763 452.46707096 440.37207711 460.46805191 418.46414185 469.38768005 C417.55196899 469.76424744 416.63979614 470.14081482 415.69998169 470.52879333 C414.80102173 470.89601501 413.90206177 471.26323669 412.9758606 471.6415863 C412.1594812 471.97617859 411.34310181 472.31077087 410.50198364 472.65550232 C408.46414185 473.38768005 408.46414185 473.38768005 406.46414185 473.38768005 C406.22630981 474.34867615 406.22630981 474.34867615 405.9836731 475.3290863 C404.35193073 481.37825274 402.29205452 485.4516874 398.46414185 490.38768005 C398.13414185 491.37768005 397.80414185 492.36768005 397.46414185 493.38768005 C398.41289185 493.30518005 399.36164185 493.22268005 400.33914185 493.13768005 C406.39581131 493.18672191 412.00491909 495.26298393 416.58914185 499.22361755 C425.16345729 508.5481856 424.75576485 520.21428628 424.61257935 532.3134613 C424.2081145 540.69014113 422.09944671 548.02894469 415.8274231 553.92674255 C409.53888866 558.75972857 403.20164387 559.65917135 395.46414185 559.38768005 C395.46027466 560.22299255 395.46027466 560.22299255 395.45632935 561.07518005 C395.12664115 567.58102708 393.13754246 571.81767326 388.46414185 576.38768005 C383.91649354 579.90110599 379.9483222 579.84076002 374.4367981 579.8212738 C373.57026108 579.82651566 372.70372406 579.83175751 371.81092834 579.8371582 C369.98285999 579.84356598 368.15475034 579.84225753 366.32669067 579.83372498 C363.5390738 579.82521799 360.75350946 579.85398746 357.96609497 579.88572693 C356.18549662 579.88733927 354.40489467 579.88676077 352.6242981 579.8837738 C351.79599991 579.89500778 350.96770172 579.90624176 350.11430359 579.91781616 C343.97462915 579.84437423 340.29774488 578.21440541 335.85476685 573.7822113 C332.20224259 568.7162102 331.95857586 566.11263314 330.46414185 559.38768005 C241.36414185 559.38768005 152.26414185 559.38768005 60.46414185 559.38768005 C60.13414185 562.35768005 59.80414185 565.32768005 59.46414185 568.38768005 C56.81095321 573.236611 53.8263444 577.6002792 48.46414185 579.38768005 C47.09994897 579.49252766 45.73140046 579.54601223 44.36331177 579.56468201 C43.54203293 579.57751724 42.72075409 579.59035248 41.87458801 579.60357666 C40.99019547 579.61096359 40.10580292 579.61835052 39.1946106 579.6259613 C38.28085159 579.63403305 37.36709259 579.6421048 36.42564392 579.65042114 C34.49147432 579.66425012 32.55728043 579.67497758 30.62307739 579.68284607 C27.67314141 579.70005464 24.72432763 579.74395057 21.77468872 579.78807068 C19.89383757 579.79819845 18.01297691 579.80671429 16.1321106 579.8134613 C15.25379074 579.83096939 14.37547089 579.84847748 13.47053528 579.86651611 C6.75187739 579.84285528 3.09551539 578.0190536 -1.72335815 573.20018005 C-4.31486769 569.17887215 -6.53585815 564.25690229 -6.53585815 559.38768005 C-7.6960144 559.34900818 -7.6960144 559.34900818 -8.87960815 559.30955505 C-17.59162412 558.83513834 -23.85889541 557.63184181 -29.84835815 551.01268005 C-34.83184201 544.9868056 -35.99618019 539.76105424 -35.81954956 532.16111755 C-35.80846979 531.28047638 -35.79739002 530.39983521 -35.7859745 529.49250793 C-35.62141836 520.62304026 -34.87823695 511.83482992 -33.99679565 503.01268005 C-33.83298712 501.29941051 -33.67008551 499.58605406 -33.50801086 497.87261963 C-33.16386564 494.25151205 -32.81421376 490.63100018 -32.45983887 487.01087952 C-31.89979398 481.28800699 -31.35252406 475.5639593 -30.80807495 469.83958435 C-30.71650714 468.8770169 -30.62493933 467.91444944 -30.53059673 466.92271328 C-30.34523957 464.97391928 -30.15992638 463.02512109 -29.97465706 461.07631874 C-29.6958284 458.147445 -29.4158123 455.21868671 -29.13557434 452.28994751 C-27.99321897 440.33287444 -26.89077512 428.3730716 -25.8444519 416.4072113 C-25.78027447 415.67335457 -25.71609703 414.93949783 -25.64997482 414.18340302 C-25.21384233 409.1891909 -24.7807545 404.19471683 -24.34835815 399.20018005 C-22.99923017 383.62027084 -21.63090436 368.04438614 -20.0553894 352.4853363 C-19.93667984 351.30786331 -19.81797028 350.13039032 -19.69566345 348.91723633 C-19.14653691 343.48895038 -18.58701129 338.06210336 -18.00778198 332.63694763 C-17.81118675 330.72836075 -17.6148037 328.81975199 -17.41867065 326.91111755 C-17.32838089 326.10469315 -17.23809113 325.29826874 -17.14506531 324.46740723 C-15.80734593 311.20273652 -16.35683562 297.82330904 -17.52783012 284.57017326 C-17.72734843 282.30857996 -17.91682549 280.04629923 -18.10447693 277.78369141 C-18.38561327 274.40173298 -18.67012623 271.02008443 -18.95721436 267.6386261 C-19.76938821 258.04545232 -20.54454945 248.44927062 -21.3132019 238.8525238 C-21.39815226 237.79236368 -21.48310261 236.73220356 -21.57062721 235.63991737 C-24.08259535 204.16820539 -26.269303 172.67232652 -28.46087337 141.17699504 C-28.85831933 135.46781426 -29.25876861 129.7588495 -29.66055298 124.04997253 C-30.15648646 117.00121844 -30.64826168 109.95218828 -31.13483542 102.90278167 C-31.38658059 99.25569387 -31.63974373 95.6087217 -31.89706612 91.96202278 C-33.90518853 63.46064673 -33.90518853 63.46064673 -33.53585815 51.38768005 C-34.93300049 51.43299866 -34.93300049 51.43299866 -36.35836792 51.47923279 C-39.53585815 51.38768005 -39.53585815 51.38768005 -42.3757019 49.9228363 C-45.37916067 46.39798144 -45.25099471 43.24617268 -45.09835815 38.82518005 C-45.08103638 38.01959656 -45.0637146 37.21401306 -45.04586792 36.38401794 C-44.62248318 25.64426617 -41.15955575 17.08641404 -33.53585815 9.38768005 C-23.02790495 0.7507473 -13.12226117 -0.05233689 0 0 Z M-28.53585815 21.38768005 C-32.1605097 26.53133297 -33.60460779 32.10396362 -33.53585815 38.38768005 C-31.87082609 40.05271211 -29.8532335 39.51086337 -27.629311 39.51868853 C-26.56475745 39.51474801 -26.56475745 39.51474801 -25.47869778 39.51072788 C-24.72790602 39.51188173 -23.97711426 39.51303557 -23.20357123 39.51422438 C-20.65557479 39.51689813 -18.10763993 39.5123627 -15.55964661 39.50793457 C-13.72737204 39.50837012 -11.89509753 39.50924472 -10.06282336 39.51052374 C-5.00277606 39.51277194 0.05725028 39.50874299 5.11729491 39.50374568 C10.56449932 39.499446 16.01170245 39.50088725 21.45890808 39.50164795 C30.90489547 39.50217349 40.35087599 39.49902354 49.79686165 39.49341011 C63.45434195 39.4852992 77.1118189 39.48268031 90.76930135 39.48142212 C112.92515167 39.47923095 135.08099865 39.47257769 157.23684692 39.46311951 C178.76516704 39.4539398 200.29348618 39.44685387 221.82180786 39.44261169 C222.48503716 39.44248017 223.14826646 39.44234864 223.83159362 39.44221313 C231.15267891 39.44076382 238.47376421 39.43937197 245.79484951 39.43800366 C301.0179495 39.42762904 356.2410455 39.41000898 411.46414185 39.38768005 C411.48711683 37.94724396 411.50350968 36.50670186 411.51712036 35.06614685 C411.5269545 34.26396225 411.53678864 33.46177765 411.54692078 32.63528442 C411.34831695 27.24281516 408.31249207 22.52315264 404.85476685 18.52830505 C396.23567174 10.54180408 386.34169138 10.95665807 375.26322937 11.00672913 C373.60044149 11.00327044 371.93765591 10.99850447 370.2748751 10.99254739 C365.71542854 10.98003654 361.15617063 10.9862082 356.59672344 10.99550605 C351.67570593 11.00229588 346.75472079 10.99181559 341.83370972 10.98356628 C332.19701849 10.97022578 322.56039736 10.97310821 312.92370338 10.98180421 C305.09120368 10.98857948 297.25872363 10.98949815 289.42622185 10.98623276 C288.31143369 10.98577306 287.19664554 10.98531336 286.04807593 10.98483973 C283.78338877 10.98388055 281.51870163 10.98290791 279.25401448 10.98192196 C258.017169 10.97336703 236.78036236 10.98320361 215.54352324 10.99932306 C197.32360256 11.01272448 179.10373923 11.01039978 160.88381958 10.99656677 C139.72448896 10.98050961 118.56519241 10.97419295 97.40585655 10.98340356 C95.14919691 10.98435921 92.89253726 10.98530232 90.63587761 10.98623276 C89.52556748 10.98669558 88.41525736 10.98715841 87.27130147 10.98763526 C79.44924172 10.99022488 71.62720358 10.98585472 63.80514717 10.9787941 C54.27111152 10.97037732 44.73714997 10.97266294 35.2031228 10.98863633 C30.33924577 10.99651689 25.47549224 10.99961427 20.61161613 10.98968887 C16.15741002 10.980737 11.70344168 10.98568301 7.24925708 11.00162153 C5.63965867 11.00496725 4.03004009 11.00327995 2.42045469 10.99599417 C-9.9244498 10.9444101 -19.90847672 11.64771776 -28.53585815 21.38768005 Z M-21.53585815 50.38768005 C-22.72536881 53.95621203 -22.46895305 56.37981351 -22.19381714 60.13450623 C-22.14494354 60.82461257 -22.09606995 61.51471891 -22.04571533 62.22573757 C-21.88010534 64.54448608 -21.7059398 66.86251503 -21.5319519 69.1806488 C-21.41200338 70.83941107 -21.29263784 72.49821558 -21.17381287 74.15705872 C-20.91610412 77.73997429 -20.65476457 81.32259962 -20.39059448 84.90504456 C-19.74916308 93.60564605 -19.12495588 102.30749306 -18.49882889 111.00920677 C-18.27994846 114.04830997 -18.06031521 117.08735817 -17.84063721 120.12640381 C-16.85922269 133.72929615 -15.91809381 147.3344917 -15.0085144 160.94236755 C-14.94737143 161.85647903 -14.88622845 162.77059052 -14.82323265 163.71240234 C-14.57739181 167.38832486 -14.33164116 171.0642534 -14.08598995 174.7401886 C-12.07928691 204.74424321 -9.99024392 234.74187724 -7.677948 264.72407532 C-7.41711807 268.10621201 -7.16043123 271.48862124 -6.90744019 274.87135315 C-6.6145709 278.78111125 -6.31227553 282.69001981 -6.00205231 286.59843826 C-5.89009506 288.02689576 -5.78133184 289.45560757 -5.67592621 290.88456345 C-5.5323466 292.82174834 -5.37580554 294.75795991 -5.21847534 296.69407654 C-5.13442444 297.77656174 -5.05037354 298.85904694 -4.96377563 299.97433472 C-4.82256287 300.77073868 -4.6813501 301.56714264 -4.53585815 302.38768005 C-2.13627205 303.58747311 -0.65369421 303.51345749 2.02580261 303.5146637 C3.46657921 303.51889343 3.46657921 303.51889343 4.9364624 303.52320862 C5.993685 303.52118439 7.05090759 303.51916016 8.14016724 303.51707458 C9.80605644 303.51970306 9.80605644 303.51970306 11.50559998 303.52238464 C15.19101506 303.5268001 18.87638249 303.52386642 22.5617981 303.52049255 C25.11245228 303.52116563 27.66310641 303.52213569 30.21376038 303.52339172 C35.56456165 303.52486824 40.9153457 303.52281019 46.2661438 303.51805115 C52.46005484 303.51260599 58.65393298 303.51437353 64.84784323 303.51987755 C70.79802924 303.52495414 76.74820499 303.52442735 82.69839287 303.52149582 C85.23466433 303.52082636 87.77093662 303.52165563 90.30720711 303.52397537 C93.84399807 303.5265002 97.38072483 303.52266383 100.91751099 303.51707458 C101.97675781 303.51909882 103.03600464 303.52112305 104.12734985 303.52320862 C105.08504776 303.52038879 106.04274567 303.51756897 107.02946472 303.5146637 C107.86662049 303.51428667 108.70377626 303.51390965 109.56630039 303.51352119 C111.47517375 303.59623938 111.47517375 303.59623938 112.46414185 302.38768005 C112.67083946 300.37858495 112.81075497 298.3626099 112.92556763 296.34617615 C112.96339607 295.70645308 113.00122452 295.06673 113.04019928 294.40762138 C113.12313028 292.99581187 113.2039033 291.58387443 113.28285599 290.17183685 C113.41201015 287.86547742 113.54698107 285.5595221 113.68347168 283.25358582 C113.88283097 279.87946581 114.08012885 276.50523469 114.27590942 273.13090515 C116.15089695 240.90190996 118.32295902 208.70139873 120.73931122 176.50866699 C121.4106826 167.56228853 122.07851647 158.61564466 122.74539185 149.66893005 C122.81782986 148.69748299 122.89026787 147.72603592 122.96490097 146.72515106 C124.4845273 126.32110588 125.92004006 105.91178722 127.29589844 85.49756622 C127.46336487 83.02415564 127.63298283 80.55090151 127.80325317 78.0776825 C128.06526609 74.26839233 128.32202285 70.45878765 128.57420349 66.64883423 C128.66666061 65.26328807 128.76085659 63.87785673 128.85688782 62.49255371 C128.98615948 60.62150737 129.10819109 58.74996487 129.22976685 56.87840271 C129.29969849 55.83479584 129.36963013 54.79118896 129.44168091 53.71595764 C129.44909302 52.94762604 129.45650513 52.17929443 129.46414185 51.38768005 C128.40860949 50.10848644 128.40860949 50.10848644 125.99848843 50.26463223 C124.34064374 50.26601491 124.34064374 50.26601491 122.64930725 50.26742554 C121.38580948 50.26605087 120.12231171 50.26467621 118.82052612 50.26325989 C117.40737892 50.2667995 115.99423195 50.27043432 114.58108521 50.27415466 C113.103124 50.27443653 111.62516266 50.27427882 110.14720154 50.27371216 C106.12258356 50.27342415 102.09799513 50.27932135 98.07338405 50.28628612 C93.8719782 50.29251917 89.67057174 50.29312341 85.46916199 50.29431152 C77.50767928 50.29742498 69.54621023 50.30563857 61.58473355 50.31566101 C52.52321595 50.3268217 43.46169772 50.33233249 34.40017498 50.33735645 C15.75482284 50.34782117 -2.89051656 50.36542089 -21.53585815 50.38768005 Z M140.46414185 51.38768005 C140.279571 52.73749901 140.15806154 54.09601981 140.06277466 55.45506287 C139.99872437 56.33597595 139.93467407 57.21688904 139.86868286 58.12449646 C139.80221558 59.1033783 139.73574829 60.08226013 139.66726685 61.09080505 C139.59338745 62.12350525 139.51950806 63.15620544 139.44338989 64.22019958 C139.19596044 67.69239991 138.95502612 71.16501997 138.71414185 74.63768005 C138.54238436 77.0709796 138.37017488 79.50424727 138.19754028 81.93748474 C137.92046638 85.84345455 137.64362311 89.74943854 137.3687439 93.65556335 C136.6876116 103.32173265 135.98162709 112.98591475 135.26438141 122.64946747 C134.9165683 127.33993983 134.5710175 132.03057957 134.22524643 136.72120285 C133.94296058 140.54803217 133.65937374 144.3747563 133.37295532 148.20127869 C133.10094844 151.83676644 132.83287226 155.47252482 132.5675354 159.10850525 C132.42255645 161.08132609 132.27350427 163.05384629 132.1242981 165.02635193 C132.03696411 166.2313031 131.94963013 167.43625427 131.85964966 168.67771912 C131.78289001 169.71317871 131.70613037 170.74863831 131.62704468 171.81547546 C131.4057493 176.66813727 131.46414185 181.52997502 131.46414185 186.38768005 C146.31414185 186.38768005 161.16414185 186.38768005 176.46414185 186.38768005 C173.96279665 178.0496112 173.96279665 178.0496112 171.2649231 169.7900238 C159.48485245 134.61089065 151.27122276 98.83187423 148.36331177 61.78416443 C148.30864243 61.0973912 148.25397308 60.41061798 148.19764709 59.70303345 C148.05099772 57.83115495 147.91210881 55.95867313 147.77371216 54.08616638 C147.75738378 51.47361915 147.75738378 51.47361915 146.46414185 50.38768005 C143.17519292 49.98139039 143.17519292 49.98139039 140.46414185 51.38768005 Z M159.46414185 51.38768005 C157.05023499 90.88528383 170.21085113 132.11656802 182.52664185 169.13768005 C182.81787933 170.01465546 183.10911682 170.89163086 183.40917969 171.79518127 C185.37144128 177.67948017 187.38758661 183.54273297 189.46414185 189.38768005 C189.76245911 190.22903503 190.06077637 191.07039001 190.36813354 191.9372406 C191.25589918 194.41212276 192.16604112 196.87744398 193.0852356 199.34080505 C193.35038467 200.07941772 193.61553375 200.8180304 193.88871765 201.57902527 C195.85093059 206.71840218 198.34158107 210.82639966 203.46414185 213.38768005 C205.40390105 213.49004159 207.34721456 213.52718672 209.28965759 213.53485107 C211.15088509 213.54558403 211.15088509 213.54558403 213.04971313 213.55653381 C214.43240331 213.5593742 215.81509376 213.56208591 217.19778442 213.56468201 C218.64807804 213.57094569 220.09837004 213.5775924 221.54866028 213.58459473 C225.49502711 213.60201289 229.44138182 213.61255864 233.38777757 213.62080026 C235.85256744 213.62594855 238.31735353 213.63202435 240.78214073 213.63831139 C248.49164261 213.65736551 256.20113489 213.67159633 263.9106558 213.67992336 C272.81422766 213.68969846 281.71755109 213.71602404 290.6210354 213.75642425 C297.50007999 213.78656881 304.37905331 213.80139063 311.25816268 213.80470437 C315.36809565 213.80705671 319.47776329 213.81604072 323.5876255 213.84116554 C327.45447209 213.86442258 331.3208782 213.86868931 335.18777657 213.85840416 C336.60635593 213.85790811 338.02495681 213.86424907 339.44347 213.87796021 C341.3814579 213.89564312 343.31963653 213.88619938 345.25767517 213.87542725 C346.34187146 213.8778156 347.42606775 213.88020395 348.54311848 213.88266468 C352.16994041 213.26807833 353.82986707 211.90077527 356.46414185 209.38768005 C357.73366546 207.5378157 357.73366546 207.5378157 358.53445435 205.4931488 C358.86775757 204.71914734 359.20106079 203.94514587 359.54446411 203.14768982 C359.88920776 202.2987616 360.23395142 201.44983337 360.58914185 200.57518005 C360.96675659 199.66502136 361.34437134 198.75486267 361.73342896 197.81712341 C371.10694946 174.81596079 378.60156069 151.52540951 384.46414185 127.38768005 C384.7462854 126.23815857 385.02842896 125.08863708 385.31912231 123.90428162 C391.06516544 100.22259296 395.59299482 75.8439751 395.46414185 51.38768005 C393.55999513 49.48353334 390.74935095 50.26203032 388.21521378 50.25393665 C387.30832684 50.25616737 386.4014399 50.25839809 385.46707153 50.26069641 C384.51137142 50.25913642 383.55567131 50.25757643 382.57101059 50.25596917 C379.34266403 50.25195474 376.11436382 50.25515052 372.88601685 50.25828552 C370.58210218 50.25693168 368.27818772 50.25515184 365.97427368 50.25297546 C359.69760105 50.24839913 353.42094478 50.25019151 347.14427185 50.25335455 C340.59171503 50.25587712 334.03915966 50.2535409 327.48660278 50.25196838 C315.77437878 50.24982915 304.06216168 50.25314737 292.34993887 50.25822772 C281.72003407 50.26269577 271.0901402 50.26191984 260.4602356 50.25730896 C248.13057891 50.25196333 235.8009292 50.24996229 223.47127151 50.25292122 C216.9392292 50.25448447 210.40719442 50.25467647 203.87515259 50.25138474 C197.73572537 50.24850726 191.59631888 50.25047942 185.45689392 50.25627899 C183.19650812 50.25760726 180.9361206 50.25721136 178.67573547 50.25501633 C175.60420372 50.25230742 172.53273953 50.25568275 169.46121216 50.26069641 C168.55432522 50.25846569 167.64743828 50.25623497 166.71306992 50.25393665 C162.77361065 49.87278183 162.77361065 49.87278183 159.46414185 51.38768005 Z M257.46414185 224.38768005 C259.58024072 228.6198778 260.33743894 229.46343301 264.46414185 231.38768005 C267.25739017 231.84322581 267.25739017 231.84322581 270.2102356 231.78611755 C271.29498169 231.78998474 272.37972778 231.79385193 273.49734497 231.7978363 C274.62076294 231.78623474 275.74418091 231.77463318 276.90164185 231.76268005 C278.58096802 231.7800824 278.58096802 231.7800824 280.29421997 231.7978363 C288.34414859 231.83219625 288.34414859 231.83219625 295.46414185 228.38768005 C296.12414185 227.06768005 296.78414185 225.74768005 297.46414185 224.38768005 C284.26414185 224.38768005 271.06414185 224.38768005 257.46414185 224.38768005 Z M379.83255005 257.01316833 C378.54573489 257.42936168 377.25663566 257.83855829 375.96536255 258.2407074 C374.10442561 258.82057316 372.25091772 259.42411419 370.3977356 260.02830505 C369.28454956 260.38440857 368.17136353 260.74051208 367.02444458 261.10740662 C366.17954468 261.52989685 365.33464478 261.95238708 364.46414185 262.38768005 C364.13414185 263.70768005 363.80414185 265.02768005 363.46414185 266.38768005 C374.35414185 266.38768005 385.24414185 266.38768005 396.46414185 266.38768005 C395.69771082 259.44996032 395.69771082 259.44996032 393.46414185 253.38768005 C388.84526707 253.38768005 384.18939726 255.59305145 379.83255005 257.01316833 Z M192.46414185 264.38768005 C192.79414185 265.04768005 193.12414185 265.70768005 193.46414185 266.38768005 C245.60414185 266.05768005 297.74414185 265.72768005 351.46414185 265.38768005 C351.79414185 263.73768005 352.12414185 262.08768005 352.46414185 260.38768005 C350.69578345 258.61932166 348.15153152 259.24609167 345.75456238 259.23377991 C344.51393036 259.22517944 343.27329834 259.21657898 341.99507141 259.2077179 C340.60723919 259.20328212 339.21940652 259.19898381 337.83157349 259.19480896 C336.37968752 259.18691086 334.92780353 259.17864209 333.47592163 259.17002869 C328.69206632 259.14375662 323.90820207 259.12848768 319.1242981 259.11424255 C317.47737561 259.10888344 315.83045318 259.10350593 314.18353081 259.0981102 C307.32855138 259.07646652 300.47357435 259.05773331 293.61856937 259.04648781 C283.80019731 259.03027564 273.98222277 258.99718184 264.16400057 258.94008696 C257.25942266 258.90130986 250.35495068 258.88184547 243.45026678 258.87656724 C239.32835385 258.872922 235.2068644 258.86099119 231.08506966 258.82846451 C227.20009857 258.79824968 223.31580407 258.79211917 219.43074036 258.80384827 C218.01102608 258.80406795 216.59127923 258.79585096 215.17167473 258.77819443 C206.36719278 258.67472513 199.94785284 259.57040327 192.46414185 264.38768005 Z M189.46414185 277.38768005 C191.44414185 280.02768005 193.42414185 282.66768005 195.46414185 285.38768005 C198.66010389 290.39468726 199.39641637 294.58785683 198.46414185 300.38768005 C196.55950509 306.44548306 193.65846539 312.03614767 190.75759888 317.66697693 C186.76485547 325.43384662 183.33086102 333.33911259 180.08914185 341.45018005 C179.66028687 342.52098816 179.23143188 343.59179626 178.7895813 344.6950531 C176.72800787 349.92157149 175.01590076 354.95652385 173.46414185 360.38768005 C242.10414185 360.38768005 310.74414185 360.38768005 381.46414185 360.38768005 C380.674992 354.41821397 380.674992 354.41821397 378.93289185 349.0322113 C378.46665405 347.86842957 378.46665405 347.86842957 377.99099731 346.68113708 C377.65213501 345.86242126 377.31327271 345.04370544 376.96414185 344.20018005 C376.6059436 343.32216736 376.24774536 342.44415466 375.87869263 341.53953552 C370.8899266 329.42148737 365.41271893 317.53217013 359.8508606 305.66893005 C359.53610779 304.99695587 359.22135498 304.32498169 358.89706421 303.63264465 C357.32365652 300.27452762 355.74623664 296.91841461 354.16091919 293.56590271 C353.57571008 292.32163949 352.99058275 291.07733781 352.4055481 289.83299255 C351.62739746 288.18581238 351.62739746 288.18581238 350.83352661 286.50535583 C349.53051716 283.53879661 348.48875432 280.46151748 347.46414185 277.38768005 C295.32414185 277.38768005 243.18414185 277.38768005 189.46414185 277.38768005 Z M359.46414185 277.38768005 C361.79501992 283.40783886 364.26120342 289.27155942 367.21414185 295.01268005 C367.52996216 295.63529724 367.84578247 296.25791443 368.1711731 296.8993988 C368.93170785 298.39742181 369.69734328 299.89285364 370.46414185 301.38768005 C371.19375122 301.18271912 371.9233606 300.97775818 372.67507935 300.7665863 C387.44138858 296.95651392 402.70381293 295.20678095 416.83914185 302.01268005 C425.71525577 310.0434498 428.58364002 321.37947807 432.21414185 332.38768005 C432.82588627 334.21200539 433.43819755 336.03614074 434.05105591 337.86009216 C454.9869353 400.501162 454.9869353 400.501162 448.6321106 415.3290863 C447.4588565 417.39699569 446.14173674 418.72931261 444.46414185 420.38768005 C444.46414185 421.04768005 444.46414185 421.70768005 444.46414185 422.38768005 C441.23437809 424.02952478 437.96018109 425.55650715 434.66726685 427.06736755 C433.54320435 427.58428162 432.41914185 428.10119568 431.26101685 428.6337738 C428.91229993 429.71242463 426.56334476 430.79055684 424.21414185 431.8681488 C423.0849231 432.38764099 421.95570435 432.90713318 420.79226685 433.44236755 C419.77036255 433.91142517 418.74845825 434.38048279 417.69558716 434.86375427 C413.92203823 436.64333212 410.19579766 438.52185215 406.46414185 440.38768005 C406.46414185 447.31768005 406.46414185 454.24768005 406.46414185 461.38768005 C443.37167506 448.07636299 443.37167506 448.07636299 468.5930481 420.0478363 C472.71083958 409.68373311 472.4791098 398.54356008 469.7258606 387.89549255 C469.54700317 387.20256104 469.36814575 386.50962952 469.18386841 385.79570007 C467.28337693 378.52580484 465.16252946 371.32252286 462.96414185 364.13768005 C462.75437714 363.44967316 462.54461243 362.76166626 462.32849121 362.05281067 C459.00656924 351.1786305 455.58264138 340.33634679 452.03982544 329.53208923 C451.53977005 328.00416889 451.04306186 326.47514808 450.55007935 324.94493103 C444.70505623 306.85085105 438.50576739 291.91126786 421.23757935 282.1259613 C408.52917895 275.9103982 393.96808377 277.14296271 380.21414185 277.26268005 C378.19721921 277.27273062 376.18029172 277.2818528 374.1633606 277.2900238 C369.26349947 277.3118711 364.36387523 277.34628641 359.46414185 277.38768005 Z M376.46414185 311.38768005 C377.07067611 314.93877023 378.02162407 317.98688283 379.4680481 321.2822113 C379.87506958 322.22516052 380.28209106 323.16810974 380.70144653 324.13963318 C381.13876099 325.14961365 381.57607544 326.15959412 382.02664185 327.20018005 C395.69292381 359.47732841 403.59739453 392.4555079 406.46414185 427.38768005 C417.99813246 425.37819921 432.04620895 418.54613352 439.46414185 409.38768005 C442.96867237 398.87408849 438.41954048 388.21080908 435.27664185 378.13768005 C434.73787941 376.38013787 434.19947364 374.62248631 433.66140747 372.86473083 C429.78012411 360.27055441 425.68518055 347.74673291 421.46414185 335.26268005 C421.19155548 334.44940247 420.91896912 333.63612488 420.63812256 332.79820251 C419.86092324 330.48854506 419.07112437 328.18362908 418.27664185 325.87986755 C418.05099045 325.20658417 417.82533905 324.53330078 417.59284973 323.83961487 C415.66233619 318.32906201 413.55955675 313.65365989 408.46414185 310.57518005 C397.95163297 306.41397863 387.11056305 308.63941784 376.46414185 311.38768005 Z M-4.53585815 314.38768005 C-6.02053588 328.08029196 -7.33247337 341.78303339 -8.55929565 355.5009613 C-8.74853017 357.60564111 -8.93787411 359.71031108 -9.12731934 361.81497192 C-9.52317885 366.21616302 -9.91808678 370.61743803 -10.31222534 375.01878357 C-10.80374597 380.50734722 -11.29706252 385.99574739 -11.79104614 391.48408985 C-13.42889174 409.68526059 -15.06582774 427.88646014 -16.63742065 446.0934906 C-16.72635401 447.12266004 -16.81528736 448.15182947 -16.90691566 449.21218586 C-17.32420443 454.04503304 -17.73954164 458.87803338 -18.15118408 463.71136475 C-19.44613066 478.8259631 -20.96007347 493.91545053 -22.57754707 508.99876881 C-23.318167 516.2148628 -23.78640345 523.43636608 -23.95773315 530.6884613 C-23.99304138 531.47190414 -24.02834961 532.25534698 -24.06472778 533.06253052 C-24.10203995 537.06257407 -23.77826978 539.61229602 -21.25949097 542.80638123 C-16.69184615 547.13532606 -13.82357329 547.63794242 -7.5323658 547.64494896 C-6.4695288 547.65020807 -6.4695288 547.65020807 -5.38522035 547.65557343 C-2.99884228 547.66491501 -0.61270677 547.65995707 1.77368164 547.65510559 C3.49702629 547.65884046 5.22036924 547.66344133 6.94370949 547.66883624 C11.6889656 547.68110177 16.4341514 547.6808016 21.17941976 547.67844748 C26.29336087 547.67804022 31.40727917 547.68906982 36.52120972 547.69856262 C46.54377604 547.71519283 56.56631884 547.72067307 66.58889781 547.72178738 C74.73330147 547.72273685 82.87769734 547.7268421 91.02209854 547.73318863 C114.09916279 547.7508062 137.17620841 547.76002664 160.25327943 547.75852768 C161.49800563 547.75844777 162.74273183 547.75836786 164.025177 547.75828552 C165.27141811 547.75820376 166.51765921 547.758122 167.8016652 547.75803776 C188.00528471 547.75722461 208.2088297 547.77636821 228.41242765 547.80456226 C249.14379608 547.83326517 269.87512814 547.847104 290.60651696 547.8453747 C302.25108556 547.84470993 313.89557606 547.85024061 325.5401268 547.8717308 C335.4535056 547.88990846 345.36677088 547.89431806 355.2801591 547.88071196 C360.34012551 547.87416515 365.3998739 547.87412672 370.45981979 547.89141846 C375.0898663 547.90707865 379.71952065 547.90435813 384.34955718 547.88685019 C386.02652018 547.88376469 387.70351195 547.88747066 389.38044105 547.89857034 C391.65709385 547.91264425 393.93236208 547.90214401 396.20896721 547.88545799 C397.47430538 547.88589273 398.73964355 547.88632746 400.0433253 547.88677537 C404.13140749 547.29032635 406.27803261 545.97718485 409.46414185 543.38768005 C412.79802453 537.77973845 412.89573485 532.74191118 412.77664185 526.32518005 C412.7798645 525.45312927 412.78308716 524.58107849 412.78640747 523.68260193 C412.73753462 517.81341737 412.44201521 512.74836762 408.52664185 508.07518005 C405.50303017 505.60131596 403.00594095 505.26251837 399.23141289 505.25460148 C398.36362453 505.25036043 397.49583618 505.24611939 396.60175121 505.24174982 C395.64778268 505.24213596 394.69381416 505.24252209 393.7109375 505.24291992 C392.69791978 505.23939308 391.68490206 505.23586623 390.64118683 505.23223251 C387.23044202 505.22151728 383.81972511 505.21785959 380.40896606 505.21409607 C377.96995424 505.20779286 375.53094356 505.20102733 373.0919342 505.1938324 C367.83070952 505.17914478 362.56949004 505.16734624 357.30825424 505.1578846 C349.69155599 505.14400914 342.07489088 505.12282009 334.45821644 505.09945606 C322.0881291 505.06152669 309.71803575 505.02656724 297.34793091 504.99485779 C296.60732513 504.9929573 295.86671935 504.9910568 295.10367097 504.98909872 C284.6028943 504.96228999 274.10211298 504.93841057 263.60132672 504.91571372 C262.86254009 504.91411642 262.12375345 504.91251912 261.36257935 504.91087341 C260.62469425 504.90927995 259.88680915 504.90768648 259.12656389 504.90604473 C246.81039595 504.87925 234.49426318 504.84483767 222.17813313 504.80421966 C214.58427571 504.77948074 206.99045609 504.7611339 199.3965648 504.75106405 C193.57140479 504.74277929 187.74631198 504.72426402 181.92119026 504.70200348 C179.53516649 504.69453715 177.14912936 504.69044747 174.76309395 504.69000816 C171.50170906 504.68892295 168.24058776 504.67565061 164.97924805 504.65942383 C164.03866385 504.66204068 163.09807966 504.66465754 162.12899292 504.66735369 C151.6756546 504.5863146 141.79766618 502.72120439 134.15164185 495.07518005 C129.45857158 487.60103111 127.72432379 481.72523794 126.9079895 472.99925232 C126.79056711 471.87274293 126.67314472 470.74623354 126.55216408 469.5855875 C126.17027347 465.85457954 125.81461919 462.1217632 125.46414185 458.38768005 C125.34133598 457.10753399 125.21853012 455.82738792 125.09200287 454.50844955 C124.21324116 445.31173235 123.38455623 436.11091244 122.5678134 426.90850902 C122.21755468 422.97304404 121.86274012 419.03799004 121.50823975 415.10290527 C120.46187634 403.47912348 119.42199325 391.8547634 118.38424683 380.23020935 C117.57077434 371.11851616 116.75534575 362.00700799 115.93364775 352.89605242 C115.51276465 348.22681319 115.09607489 343.5572246 114.6825521 338.88732803 C114.42639127 336.00481678 114.16652247 333.12264894 113.90558815 330.24056625 C113.7274228 328.26006536 113.55377618 326.27915962 113.38023376 324.29824829 C113.27381058 323.13122375 113.16738739 321.96419922 113.05773926 320.7618103 C112.96669104 319.74197021 112.87564281 318.72213011 112.78183556 317.67138577 C112.70339434 315.42595499 112.70339434 315.42595499 111.46414185 314.38768005 C109.95863011 314.29192696 108.44863155 314.26579819 106.94007874 314.26742554 C105.47395393 314.26536354 105.47395393 314.26536354 103.97821045 314.26325989 C102.89712006 314.26685516 101.81602966 314.27045044 100.70217896 314.27415466 C99.57061874 314.27400864 98.43905853 314.27386261 97.27320862 314.27371216 C93.51261514 314.27441186 89.75207048 314.28220695 85.9914856 314.2900238 C83.39216641 314.29188778 80.79284688 314.29331178 78.19352722 314.29431152 C72.03825608 314.29774665 65.88300525 314.30563749 59.72774178 314.31566101 C52.72180839 314.32682311 45.71587418 314.33233284 38.70993412 314.33735645 C24.29466052 314.34782013 9.87940181 314.36541898 -4.53585815 314.38768005 Z M170.46414185 371.38768005 C169.97862347 372.8224406 169.494982 374.25783637 169.01213074 375.6934967 C168.60783639 376.89239753 168.60783639 376.89239753 168.19537449 378.11551857 C167.32696765 380.81392188 166.69423569 383.50521763 166.1477356 386.28611755 C165.94172729 387.333078 165.73571899 388.38003845 165.52346802 389.45872498 C165.31826538 390.54903015 165.11306274 391.63933533 164.90164185 392.76268005 C164.57740234 394.47644836 164.57740234 394.47644836 164.24661255 396.22483826 C163.00198643 402.98672294 161.89605148 409.73929447 161.15164185 416.57518005 C161.03743896 417.59394226 161.03743896 417.59394226 160.92092896 418.63328552 C160.22628236 425.92403188 160.46414185 432.98420871 160.46414185 440.38768005 C238.01414185 440.38768005 315.56414185 440.38768005 395.46414185 440.38768005 C395.46414185 431.29179098 395.34881066 422.67305105 394.33914185 413.70018005 C394.21297485 412.56403259 394.08680786 411.42788513 393.95681763 410.25730896 C392.59118241 389.56809183 392.59118241 389.56809183 385.46414185 371.38768005 C382.69514013 371.28979412 379.95108519 371.25774882 377.18165588 371.26742554 C376.3028377 371.26657111 375.42401952 371.26571669 374.51857048 371.26483637 C371.55045621 371.26317887 368.58239747 371.26870734 365.61428833 371.27415466 C363.49594118 371.2744365 361.37759392 371.27427886 359.25924683 371.27371216 C353.48882043 371.27342406 347.71841463 371.2793228 341.94799304 371.28628612 C335.92481766 371.29251757 329.90164185 371.29312329 323.87846375 371.29431152 C312.46392621 371.29742546 301.0493982 371.30563967 289.63486487 371.31566101 C276.64355444 371.32682024 263.65224358 371.33233212 250.66092956 371.33735645 C223.9286617 371.34782224 197.1964023 371.36542287 170.46414185 371.38768005 Z M160.46414185 451.38768005 C160.46414185 456.33768005 160.46414185 461.28768005 160.46414185 466.38768005 C237.68414185 466.38768005 314.90414185 466.38768005 394.46414185 466.38768005 C394.79414185 461.76768005 395.12414185 457.14768005 395.46414185 452.38768005 C393.55905588 450.48259409 390.74564338 451.26477603 388.21055168 451.25859874 C386.84919809 451.26296801 386.84919809 451.26296801 385.46034241 451.26742554 C384.50393673 451.26657111 383.54753105 451.26571669 382.56214339 451.26483637 C379.33145958 451.26317865 376.10082679 451.26870769 372.87014771 451.27415466 C370.56461081 451.2744365 368.25907383 451.27427887 365.95353699 451.27371216 C359.67279698 451.27342404 353.39207588 451.27932308 347.11134028 451.28628612 C340.5556477 451.29251728 333.99995473 451.29312326 327.44425964 451.29431152 C316.43387523 451.29690463 305.42349747 451.30332683 294.41311646 451.3122406 C283.07034337 451.32141395 271.72757218 451.32849516 260.38479614 451.33274841 C259.33675478 451.3331425 259.33675478 451.3331425 258.26754086 451.33354454 C254.76253884 451.33484954 251.2575368 451.33611326 247.75253475 451.33735645 C218.65639924 451.34772999 189.56027064 451.36542324 160.46414185 451.38768005 Z M164.46414185 478.38768005 C166.97728408 483.41396451 168.00130622 485.29874614 171.96414185 488.70018005 C172.73757935 489.37693787 173.51101685 490.05369568 174.30789185 490.7509613 C178.37074732 493.83490414 182.3835287 493.5360442 187.25668335 493.53485107 C188.45980954 493.54036611 188.45980954 493.54036611 189.68724132 493.54599255 C192.38404011 493.55703551 195.08080038 493.56087426 197.77761841 493.56468201 C199.70756656 493.57094617 201.63751349 493.57759293 203.56745911 493.58459473 C208.81757983 493.60200813 214.06769145 493.61255733 219.3178339 493.62080026 C222.59724397 493.62594949 225.8766512 493.63202525 229.15605927 493.63831139 C239.41457298 493.65736407 249.67307948 493.67159528 259.93160748 493.67992336 C271.77711791 493.68969831 283.6224416 493.71602433 295.46788621 493.75642425 C304.62127284 493.78657247 313.7746059 493.80139099 322.92804122 493.80470437 C328.39615519 493.80705623 333.86406968 493.81603453 339.33213043 493.84116554 C344.47691228 493.86442869 349.62136306 493.86868649 354.76618385 493.85840416 C356.65317447 493.85790827 358.54018128 493.8642443 360.42712212 493.87796021 C363.00636665 493.89565753 365.58442023 493.88858399 368.16366577 493.87542725 C368.90774634 493.88639649 369.6518269 493.89736574 370.41845536 493.90866739 C376.84754101 493.82966693 380.97213928 491.71444231 385.64382935 487.3525238 C386.48300903 486.34898865 386.48300903 486.34898865 387.33914185 485.32518005 C388.20152466 484.31777771 388.20152466 484.31777771 389.08132935 483.2900238 C390.65007936 481.33321924 390.65007936 481.33321924 391.46414185 478.38768005 C316.55414185 478.38768005 241.64414185 478.38768005 164.46414185 478.38768005 Z M6.46414185 559.38768005 C6.86795633 565.02187399 6.86795633 565.02187399 9.05984497 567.23338318 C12.3322902 568.80447589 15.3740316 568.85538915 18.93289185 568.85643005 C19.65021484 568.86404358 20.36753784 568.8716571 21.1065979 568.87950134 C22.61946134 568.89028106 24.13239906 568.89316407 25.64529419 568.88865662 C27.95726551 568.88768295 30.26592973 568.9293455 32.5774231 568.97361755 C34.05007244 568.97882409 35.5227333 568.98151275 36.99539185 568.98143005 C37.6840332 568.99782532 38.37267456 569.01422058 39.08218384 569.03111267 C42.7331459 568.97864131 44.21803009 568.61586443 46.93093872 566.10057068 C48.79215248 563.32665018 48.79215248 563.32665018 48.46414185 559.38768005 C34.60414185 559.38768005 20.74414185 559.38768005 6.46414185 559.38768005 Z M342.46414185 559.38768005 C343.12414185 561.69768005 343.78414185 564.00768005 344.46414185 566.38768005 C350.57017824 569.47471517 357.88904519 568.71881214 364.58914185 568.70018005 C365.75574341 568.71629333 366.92234497 568.73240662 368.1242981 568.74900818 C369.24964966 568.74965271 370.37500122 568.75029724 371.53445435 568.7509613 C372.55297485 568.75394226 373.57149536 568.75692322 374.62088013 568.75999451 C378.20047921 568.29125944 380.89333234 566.95848956 383.46414185 564.38768005 C383.46414185 562.73768005 383.46414185 561.08768005 383.46414185 559.38768005 C369.93414185 559.38768005 356.40414185 559.38768005 342.46414185 559.38768005 Z " fill="#000000" transform="translate(120.53585815429688,75.61231994628906)"/>
<path d="M0 0 C1.1240625 -0.020625 2.248125 -0.04125 3.40625 -0.0625 C13.78720936 -0.11158255 13.78720936 -0.11158255 18.625 3.25 C23.55540381 8.44691212 23.77401707 12.66708391 23.77217102 19.58660889 C23.77584771 20.32758859 23.7795244 21.06856829 23.7833125 21.83200192 C23.79432964 24.31606821 23.79818981 26.80009264 23.80200195 29.28417969 C23.80826805 31.06487154 23.81491498 32.8455621 23.82191467 34.62625122 C23.84293854 40.47478325 23.85331489 46.32331549 23.86328125 52.171875 C23.86732931 54.18629215 23.87144624 56.20070917 23.87563133 58.21512604 C23.89467862 67.67860752 23.90891113 77.14208122 23.9172433 86.60557818 C23.92701706 97.5256874 23.95334218 108.445594 23.99374419 119.36563182 C24.02391034 127.80908147 24.03871262 136.25247305 24.04202431 144.69597554 C24.04437405 149.73766272 24.05332479 154.77913331 24.07848549 159.82076263 C24.10178015 164.56503041 24.10599381 169.30893919 24.09572411 174.05324936 C24.09522899 175.79146647 24.10154228 177.52970134 24.11528015 179.26786423 C24.23750359 195.65278262 24.23750359 195.65278262 19.625 202.25 C14.45700095 206.63516644 8.2141756 205.7724521 1.76000977 205.75097656 C-0.30399082 205.75000401 -2.36426971 205.79166242 -4.42773438 205.8359375 C-15.54194377 205.85778361 -15.54194377 205.85778361 -19.19140625 203.03125 C-23.07780786 198.08112846 -23.66966284 193.83197402 -23.64242554 187.66578674 C-23.64695665 186.91029083 -23.65148776 186.15479491 -23.65615618 185.37640518 C-23.66879895 182.84926297 -23.66717992 180.32233631 -23.66552734 177.79516602 C-23.6715126 175.98152388 -23.67831814 174.16788429 -23.68588257 172.35424805 C-23.70354819 167.43073094 -23.70823813 162.50728335 -23.70951414 157.58373761 C-23.71141379 153.47331188 -23.71877193 149.36290233 -23.72585833 145.25248283 C-23.74214134 135.55560195 -23.74702729 125.85875821 -23.74560547 116.16186523 C-23.74440343 106.15808657 -23.76551797 96.15452344 -23.7970928 86.15079933 C-23.82323809 77.56128123 -23.83397353 68.9718336 -23.83269465 60.382276 C-23.83218459 55.2523735 -23.8378926 50.12266263 -23.85905075 44.99279976 C-23.87840417 40.16889463 -23.87857746 35.34536453 -23.86401749 30.52144623 C-23.86192482 28.75175619 -23.86665748 26.98204285 -23.8787384 25.21239281 C-23.89417243 22.79488611 -23.88489605 20.37867563 -23.86947632 17.9611969 C-23.87976344 17.26225911 -23.89005057 16.56332132 -23.90064943 15.8432036 C-23.81858922 10.01459146 -21.47722939 6.79019385 -17.875 2.4375 C-13.20553343 -1.25916104 -5.58841012 0.02545973 0 0 Z M-14.007617 10.8282547 C-15.88924267 14.16076515 -15.74971058 16.67918894 -15.7492218 20.49963379 C-15.75319621 21.2311851 -15.75717061 21.96273641 -15.76126546 22.71645594 C-15.77089255 25.16859 -15.75906817 27.62014771 -15.74731445 30.07226562 C-15.74974229 31.82989212 -15.75346152 33.58751725 -15.75837708 35.34513855 C-15.76779086 40.11988497 -15.75835653 44.89442659 -15.74504495 49.66915703 C-15.73373785 54.66277985 -15.73783738 59.65639247 -15.73979187 64.65002441 C-15.74067508 73.03641104 -15.72958881 81.42271687 -15.71118164 89.80908203 C-15.69001362 99.508923 -15.68650399 109.20864558 -15.6927436 118.90850496 C-15.69843573 128.23424119 -15.69279337 137.55993568 -15.68157005 146.88566589 C-15.67692207 150.85687531 -15.67605108 154.82805922 -15.6781559 158.79927063 C-15.68003776 163.47452463 -15.67194276 168.14965793 -15.6560955 172.82488441 C-15.65184831 174.54218865 -15.65100502 176.25950513 -15.65378571 177.97681236 C-15.65700199 180.31813001 -15.64793982 182.65908577 -15.63569641 185.00036621 C-15.63364354 186.31149132 -15.63159067 187.62261642 -15.62947559 188.9734726 C-15.39168705 192.03514414 -15.09953498 193.74666569 -13.375 196.25 C-9.37942575 198.24778712 -4.33048005 197.47876505 0.0625 197.5 C1.12533203 197.520625 2.18816406 197.54125 3.28320312 197.5625 C4.81170898 197.57023437 4.81170898 197.57023437 6.37109375 197.578125 C7.30622803 197.5874707 8.2413623 197.59681641 9.20483398 197.60644531 C11.60531611 197.42657236 11.60531611 197.42657236 13.25245094 196.18084717 C15.30506345 193.29331392 15.03870925 190.41363321 15.00595093 187 C15.0106309 186.25634689 15.01531087 185.51269379 15.02013266 184.74650574 C15.03212617 182.24749061 15.0226087 179.74901947 15.01318359 177.25 C15.01724737 175.46134114 15.02258815 173.67268478 15.02911377 171.8840332 C15.04281628 167.02046582 15.03747663 162.15708887 15.02797651 157.29351807 C15.0203951 152.2099963 15.02742129 147.12649113 15.03213501 142.04296875 C15.037597 133.50517847 15.03038933 124.96746598 15.01611328 116.4296875 C14.99978593 106.55088569 15.00507412 96.6722696 15.0215925 86.79347229 C15.03519475 78.32038276 15.0371332 69.84734923 15.02927649 61.37425232 C15.02459303 56.30985468 15.02399357 51.24554441 15.03388596 46.18115234 C15.04253502 41.42051474 15.03657153 36.66011721 15.01920319 31.89950562 C15.0152273 30.14953002 15.01639114 28.39953431 15.02299118 26.64956665 C15.03115348 24.26610252 15.02095028 21.8834143 15.00595093 19.5 C15.01264309 18.80263229 15.01933526 18.10526459 15.02623022 17.38676453 C14.9913416 14.54108207 14.93040013 12.68045089 13.25719643 10.3221283 C9.45361122 7.82369658 4.01065691 8.78438681 -0.375 8.8125 C-2.03402344 8.7825293 -2.03402344 8.7825293 -3.7265625 8.75195312 C-4.78617188 8.75259766 -5.84578125 8.75324219 -6.9375 8.75390625 C-7.90816406 8.75205322 -8.87882813 8.7502002 -9.87890625 8.74829102 C-12.44095114 9.02964934 -12.44095114 9.02964934 -14.007617 10.8282547 Z " fill="#000000" transform="translate(174.375,147.75)"/>
<path d="M0 0 C1.04027344 -0.01417969 2.08054688 -0.02835938 3.15234375 -0.04296875 C6.01296613 0.18357718 7.63920151 0.71016381 10.0625 2.1875 C10.105221 3.85361905 10.10313832 5.52132885 10.0625 7.1875 C9.0625 8.1875 9.0625 8.1875 7.29663086 8.30102539 C6.54776611 8.29578857 5.79890137 8.29055176 5.02734375 8.28515625 C4.21845703 8.28193359 3.40957031 8.27871094 2.57617188 8.27539062 C1.72603516 8.26701172 0.87589844 8.25863281 0 8.25 C-0.85400391 8.24548828 -1.70800781 8.24097656 -2.58789062 8.23632812 C-4.70445663 8.22450373 -6.82098685 8.20656769 -8.9375 8.1875 C-9.5975 6.8675 -10.2575 5.5475 -10.9375 4.1875 C-7.93683969 -0.31349047 -5.08844794 0.031449 0 0 Z " fill="#000000" transform="translate(173.9375,177.8125)"/>
<path d="M0 0 C1.1127832 -0.01836914 1.1127832 -0.01836914 2.24804688 -0.03710938 C4.18763629 -0.04238478 6.1267371 0.06561098 8.0625 0.1875 C8.7225 0.8475 9.3825 1.5075 10.0625 2.1875 C9.50694444 6.74305556 9.50694444 6.74305556 8.0625 8.1875 C5.40427343 8.31408222 2.78362576 8.37270214 0.125 8.375 C-0.61685547 8.38724609 -1.35871094 8.39949219 -2.12304688 8.41210938 C-4.06263629 8.41738478 -6.0017371 8.30938902 -7.9375 8.1875 C-8.5975 7.5275 -9.2575 6.8675 -9.9375 6.1875 C-9.07839571 -0.85715515 -6.35769477 0.00549498 0 0 Z " fill="#000000" transform="translate(173.9375,211.8125)"/>
<path d="M0 0 C1.85625 -0.00773438 1.85625 -0.00773438 3.75 -0.015625 C7 0.25 7 0.25 10 2.25 C9.125 7.125 9.125 7.125 8 8.25 C5.15664952 8.34986975 2.34302837 8.38877881 -0.5 8.375 C-1.29792969 8.37886719 -2.09585938 8.38273438 -2.91796875 8.38671875 C-8.87339233 8.37660767 -8.87339233 8.37660767 -10 7.25 C-10.25 4.8125 -10.25 4.8125 -10 2.25 C-6.32077133 -0.20281911 -4.37740649 -0.01823919 0 0 Z " fill="#000000" transform="translate(174,245.75)"/>
<path d="M0 0 C1.24265625 0.09925781 2.4853125 0.19851563 3.765625 0.30078125 C6.75 0.6875 6.75 0.6875 7.75 1.6875 C8 4.125 8 4.125 7.75 6.6875 C4.31060073 8.98043284 2.92437319 8.95769638 -1.125 8.9375 C-2.66800781 8.94523437 -2.66800781 8.94523437 -4.2421875 8.953125 C-7.286282 8.68429588 -9.4934535 7.96914154 -12.25 6.6875 C-12.25 5.0375 -12.25 3.3875 -12.25 1.6875 C-7.96271748 -0.44795942 -4.73036143 -0.41069038 0 0 Z " fill="#000000" transform="translate(176.25,280.3125)"/>
<path d="M0 0 C5.94 0 11.88 0 18 0 C18.33 1.98 18.66 3.96 19 6 C16.44051001 8.55948999 14.72792805 8.26068731 11.234375 8.2734375 C10.49703125 8.26570313 9.7596875 8.25796875 9 8.25 C7.89398438 8.26160156 7.89398438 8.26160156 6.765625 8.2734375 C1.2533196 8.2533196 1.2533196 8.2533196 -1 6 C-0.67 4.02 -0.34 2.04 0 0 Z " fill="#000000" transform="translate(165,315)"/>
<path d="M0 0 C0.89483093 -0.00960754 1.78966187 -0.01921509 2.71160889 -0.02911377 C4.15228729 -0.03548859 4.15228729 -0.03548859 5.62207031 -0.04199219 C6.6184552 -0.04769226 7.61484009 -0.05339233 8.64141846 -0.05926514 C10.74954164 -0.06870529 12.85767952 -0.07524521 14.96582031 -0.07910156 C18.17441908 -0.08878936 21.38237227 -0.11981515 24.59082031 -0.15136719 C26.64289986 -0.15789954 28.69498397 -0.1631491 30.74707031 -0.16699219 C31.69942566 -0.17933899 32.65178101 -0.19168579 33.63299561 -0.20440674 C39.6008342 -0.18466981 44.0260263 0.61403915 49.45019531 3.16113281 C53.39608791 7.20820214 54.56735578 10.43548964 54.61132812 15.99633789 C54.62093567 16.97778275 54.63054321 17.9592276 54.64044189 18.97041321 C54.64469177 20.02979599 54.64894165 21.08917877 54.65332031 22.18066406 C54.65902039 23.27199142 54.66472046 24.36331879 54.67059326 25.48771667 C54.68004395 27.79852326 54.68657751 30.10934332 54.69042969 32.42016602 C54.70012843 35.94929629 54.73114903 39.47784254 54.76269531 43.00683594 C54.76922616 45.25227519 54.77447631 47.4977186 54.77832031 49.74316406 C54.79066711 50.79647415 54.80301392 51.84978424 54.81573486 52.93501282 C54.7991029 58.42654654 54.61211705 62.45089123 51.45019531 67.16113281 C47.02382578 71.36050904 43.64383882 72.27299248 37.68505859 72.32226562 C36.27306686 72.33667694 36.27306686 72.33667694 34.83255005 72.35137939 C33.82207611 72.35562927 32.81160217 72.35987915 31.77050781 72.36425781 C30.72498749 72.36995789 29.67946716 72.37565796 28.6022644 72.38153076 C26.39159148 72.39097077 24.18090456 72.39751077 21.97021484 72.40136719 C18.59480181 72.41107642 15.21999685 72.44211125 11.84472656 72.47363281 C9.69499059 72.48016289 7.54525027 72.48541334 5.39550781 72.48925781 C4.38908234 72.50160461 3.38265686 72.51395142 2.34573364 72.52667236 C-3.80428191 72.5071956 -8.44810519 71.99023639 -13.19433594 67.66113281 C-16.45667495 63.47137301 -17.66853329 60.66993653 -17.7109375 55.41772461 C-17.72054504 54.45630051 -17.73015259 53.4948764 -17.74005127 52.50431824 C-17.74430115 51.46680923 -17.74855103 50.42930023 -17.75292969 49.36035156 C-17.7614798 47.75665459 -17.7614798 47.75665459 -17.77020264 46.12055969 C-17.77965285 43.85683176 -17.7861867 41.59309008 -17.79003906 39.3293457 C-17.79973734 35.87263873 -17.83075812 32.41652816 -17.86230469 28.95996094 C-17.8688356 26.76009467 -17.87408573 24.56022416 -17.87792969 22.36035156 C-17.89027649 21.32891525 -17.90262329 20.29747894 -17.91534424 19.23478699 C-17.89856509 13.8065912 -17.70619628 9.80073191 -14.54980469 5.16113281 C-9.72911033 1.3661181 -6.02724552 0.05248083 0 0 Z M-7.48730469 10.53613281 C-9.36813139 13.41269129 -9.67758062 15.9565455 -9.69506836 19.29370117 C-9.70144821 20.12143539 -9.70782806 20.94916962 -9.71440125 21.80198669 C-9.71551407 22.69265335 -9.71662689 23.58332001 -9.71777344 24.50097656 C-9.72110184 25.41947891 -9.72443024 26.33798126 -9.7278595 27.28431702 C-9.73292197 29.2268931 -9.73526803 31.16947787 -9.73510742 33.11206055 C-9.73729366 36.08364179 -9.75545585 39.05485165 -9.77441406 42.02636719 C-9.77734816 43.91373571 -9.77933285 45.80110599 -9.78027344 47.68847656 C-9.78745895 48.57711899 -9.79464447 49.46576141 -9.80204773 50.3813324 C-9.7989711 51.21221878 -9.79589447 52.04310516 -9.79272461 52.89916992 C-9.79414963 53.62736435 -9.79557465 54.35555878 -9.79704285 55.1058197 C-9.50413298 57.54080581 -8.85665138 59.08921888 -7.54980469 61.16113281 C-4.38532901 63.27078327 -3.58215857 63.41781255 0.04174805 63.45166016 C0.96958603 63.46441986 1.89742401 63.47717957 2.8533783 63.49032593 C3.85341385 63.49255157 4.8534494 63.49477722 5.88378906 63.49707031 C6.91327164 63.50372711 7.94275421 63.51038391 9.00343323 63.51724243 C11.18138847 63.52737068 13.35937475 63.5320594 15.53735352 63.53173828 C18.87145024 63.5361115 22.2042235 63.57243039 25.53808594 63.61035156 C27.65331578 63.61621961 29.76855192 63.62018908 31.88378906 63.62207031 C33.38080605 63.64362686 33.38080605 63.64362686 34.9080658 63.6656189 C38.8013339 63.63988684 41.61255627 63.60717366 45.07958984 61.76098633 C47.24967345 57.64463072 47.00061294 53.68670972 46.94628906 49.10253906 C46.94847191 47.63058327 46.94847191 47.63058327 46.95069885 46.12889099 C46.94904015 44.05521677 46.93748215 41.98153021 46.91674805 39.90795898 C46.88783151 36.73856104 46.89613254 33.5708399 46.90917969 30.40136719 C46.90294092 28.38508303 46.8945489 26.36880416 46.88378906 24.35253906 C46.8867247 23.40657364 46.88966034 22.46060822 46.89268494 21.48597717 C46.83941119 17.75785137 46.6003882 14.64174245 45.484375 11.07055664 C42.21379286 8.00055869 38.80265827 8.4149193 34.46972656 8.41894531 C33.58290695 8.40145233 32.69608734 8.38395935 31.78239441 8.36593628 C28.94230717 8.31632382 26.10315207 8.30152433 23.26269531 8.28613281 C21.36877823 8.25440837 19.47489518 8.220578 17.58105469 8.18457031 C15.75230635 8.1566508 13.92352914 8.13055158 12.09472656 8.10644531 C11.24860306 8.09509552 10.40247955 8.08374573 9.53071594 8.072052 C0.58884107 7.6940163 0.58884107 7.6940163 -7.48730469 10.53613281 Z " fill="#000000" transform="translate(156.5498046875,499.8388671875)"/>
<path d="M0 0 C6.74527467 4.06993366 10.22866931 10.59522123 12.16015625 18.046875 C13.15602441 24.1187702 11.81682307 29.26983792 8.5625 34.5 C4.08038874 39.58780197 -1.10675957 44.10862938 -8.07421875 44.73828125 C-16.08020603 44.93304919 -21.45490304 44.20657539 -27.41015625 38.6640625 C-33.53540879 32.09859673 -34.98894113 26.3790269 -34.8125 17.46875 C-33.930034 10.48256085 -29.47190144 6.10923518 -24.28125 1.7265625 C-17.40144102 -2.85025957 -7.55682605 -3.2969936 0 0 Z M-24.3125 13.6875 C-26.15422371 18.29180929 -26.39677081 22.81816762 -24.7109375 27.53125 C-22.64921189 31.48708124 -20.62301695 33.98608962 -16.4375 35.5 C-12.00490719 36.10321217 -7.56212254 36.55811241 -3.4609375 34.515625 C0.11212703 31.6642139 2.25811532 28.64485021 2.8984375 24.1328125 C2.98798332 18.38397057 2.5109305 14.99682363 -1.4375 10.5 C-5.40300706 6.91216028 -8.56821416 6.99666762 -13.7421875 7.1484375 C-18.61182247 7.78360728 -21.20947463 10.06730373 -24.3125 13.6875 Z " fill="#000000" transform="translate(186.4375,514.5)"/>
</svg>
