<?xml version="1.0" encoding="UTF-8"?>
<svg version="1.1" xmlns="http://www.w3.org/2000/svg" width="668" height="705">
<path d="M0 0 C0.64995491 -0.00205263 1.29990981 -0.00410527 1.96956033 -0.0062201 C4.15656693 -0.01189331 6.34351062 -0.01043246 8.5305233 -0.00901413 C10.11077267 -0.01159759 11.69102139 -0.0146107 13.2712692 -0.01801753 C17.62113329 -0.02609318 21.97098087 -0.02787742 26.32085156 -0.028615 C31.00950072 -0.03046459 35.6981413 -0.03801151 40.38678551 -0.04475021 C50.64309016 -0.05833855 60.89939091 -0.06435917 71.15570307 -0.06876087 C77.55936485 -0.07152271 83.96302511 -0.07575998 90.36668587 -0.08026505 C108.0948642 -0.09245886 125.82304132 -0.10275763 143.55122375 -0.10614014 C145.25358368 -0.10646949 145.25358368 -0.10646949 146.99033471 -0.10680549 C148.12796775 -0.10702377 149.26560078 -0.10724204 150.43770754 -0.10746694 C152.74300933 -0.1079104 155.04831111 -0.10835697 157.3536129 -0.10880661 C159.06887934 -0.10913875 159.06887934 -0.10913875 160.81879763 -0.10947761 C179.34487068 -0.11342502 197.87090439 -0.13087681 216.39696224 -0.15416613 C235.41524743 -0.17788131 254.43351288 -0.19034208 273.4518131 -0.19150805 C284.13069639 -0.19242477 294.80952843 -0.19817624 305.4883976 -0.21632767 C314.58258735 -0.23173095 323.67671002 -0.23684779 332.77091034 -0.22858956 C337.41008798 -0.22468375 342.04913054 -0.22560932 346.68829155 -0.23964691 C350.9385388 -0.25238993 355.1885495 -0.25118479 359.43879645 -0.2390562 C360.97316723 -0.23709989 362.5075548 -0.24017461 364.04190202 -0.24890056 C377.52851095 -0.32071961 387.34581348 1.21723839 397.26132774 10.79549026 C403.71316029 17.73874003 405.00121998 25.47974626 405.72617149 34.63142776 C405.80802696 35.54924026 405.88988243 36.46705276 405.97421837 37.41267776 C406.17245557 39.651592 406.36038567 41.89085185 406.53867149 44.13142776 C407.55187462 44.20619339 408.56507774 44.28095901 409.60898399 44.35799026 C421.81065611 45.47483074 421.81065611 45.47483074 425.41367149 49.06892776 C428.20309484 53.08897905 428.667228 55.74346796 428.71567345 60.51741409 C428.72850868 61.61898346 428.74134392 62.72055283 428.7545681 63.85550308 C428.7656485 65.64144127 428.7656485 65.64144127 428.77695274 67.46345901 C428.78502449 68.68796265 428.79309624 69.91246628 428.80141258 71.17407608 C428.81525176 73.76734883 428.82597465 76.36063978 428.83383751 78.95393753 C428.85105776 82.91774888 428.89494829 86.88072791 428.93906212 90.84431839 C428.94918838 93.36319246 428.95770469 95.88207363 428.96445274 98.40095901 C428.98196083 99.58551178 428.99946892 100.77006454 429.01750755 101.99051285 C429.00089318 108.30005563 428.95631478 112.42788169 424.53867149 117.13142776 C419.73988984 119.84771926 416.01284107 120.466581 410.53867149 120.13142776 C410.58507774 120.77466995 410.63148399 121.41791214 410.67929649 122.08064651 C411.09611073 132.51588861 409.1927058 141.65412576 402.16367149 149.63142776 C400.64764975 151.15734198 399.10832358 152.66073798 397.53867149 154.13142776 C396.99855431 154.6663887 396.45843712 155.20134964 395.90195274 155.75252151 C390.96955302 160.30654537 385.32762324 162.05750446 378.77695274 162.70955276 C377.97942589 162.79108597 377.18189903 162.87261917 376.3602047 162.95662308 C375.75909874 163.01430862 375.15799278 163.07199417 374.53867149 163.13142776 C374.57668619 172.33712746 374.63598532 181.54237073 374.72257423 190.74774265 C374.7621086 195.02205647 374.79426757 199.29616244 374.80966759 203.57063675 C374.82479532 207.69465737 374.85917055 211.81810681 374.90698051 215.94187355 C374.92183466 217.5163076 374.92971482 219.09082318 374.93055534 220.66532707 C374.93291483 222.86859763 374.95990756 225.07027646 374.99277306 227.27327347 C375.0016555 228.52791901 375.01053795 229.78256454 375.01968956 231.07522964 C375.24748864 234.18651318 375.24748864 234.18651318 377.34622765 235.96240616 C379.23656621 236.97034378 381.19637391 237.84595467 383.16367149 238.69392776 C392.77508196 243.42790605 399.51749624 252.42486225 403.53867149 262.13142776 C404.18832204 264.40890077 404.78096637 266.70301999 405.33164024 269.00642776 C405.67743245 270.43242913 406.02347722 271.85836927 406.36972618 273.2842598 C406.55587486 274.05868423 406.74202354 274.83310867 406.9338131 275.63100052 C408.05846235 280.28019385 409.22152251 284.91988624 410.37851524 289.56111526 C410.88963941 291.61448663 411.4007063 293.66787225 411.91171837 295.72127151 C412.1694503 296.75622757 412.42718224 297.79118362 412.69272423 298.85750198 C413.21407914 300.95299453 413.7345901 303.04869724 414.25424767 305.14461136 C419.67771418 329.63528339 419.67771418 329.63528339 428.28867149 353.06892776 C428.88846233 354.36932535 429.48745547 355.67009126 430.08554649 356.97127151 C430.56507774 358.01412308 431.04460899 359.05697464 431.53867149 360.13142776 C433.54322582 366.14509074 433.55930544 372.84520772 430.97617149 378.63142776 C426.76995056 382.94550052 423.11205306 385.3205201 417.10117149 385.63142776 C411.53166737 385.33729722 406.96699446 383.56591398 402.99960899 379.58845901 C398.07521098 373.29617267 397.54781034 366.89289025 397.31210899 359.15486526 C396.79626939 348.83379833 394.08836718 339.13057073 391.41367149 329.19392776 C390.91133804 327.28697259 390.41004403 325.37974331 389.90976524 323.47224808 C388.69218828 318.84809029 387.45590754 314.2292514 386.20895958 309.61293411 C385.59790686 307.35072592 384.99007057 305.08768478 384.38339806 302.82429886 C383.44569915 299.34033176 382.49745715 295.85964432 381.53867149 292.38142776 C381.27296349 291.41471146 381.00725548 290.44799515 380.73349571 289.45198441 C380.48357872 288.56760696 380.23366173 287.68322952 379.97617149 286.77205276 C379.76863243 286.03503128 379.56109337 285.2980098 379.34726524 284.53865433 C378.26590984 281.31940183 376.88684129 278.24689898 375.53867149 275.13142776 C375.44516031 294.81155732 375.37465905 314.49164169 375.33142281 334.17194748 C375.31081235 343.31020924 375.28272081 352.44833283 375.23691368 361.58650589 C375.19699941 369.55290843 375.17122765 377.51921087 375.16231751 385.48571062 C375.15711052 389.7025355 375.14490401 393.91907407 375.11575127 398.13580704 C375.08850947 402.10849315 375.08024406 406.08077625 375.08624077 410.05354691 C375.08514443 411.5079607 375.07724259 412.9623886 375.06184959 414.41672134 C374.9521502 425.32013509 376.14300786 432.02621841 383.85117149 440.13142776 C384.64007774 440.97705276 385.42898399 441.82267776 386.24179649 442.69392776 C386.99976524 443.49830276 387.75773399 444.30267776 388.53867149 445.13142776 C390.91243284 447.76450757 393.23204254 450.43950444 395.53867149 453.13142776 C396.21027306 453.88939651 396.88187462 454.64736526 397.57382774 455.42830276 C404.92312631 464.05514295 409.56123934 473.7706778 409.73154259 485.22200394 C409.74760551 486.21040771 409.76366844 487.19881149 409.78021812 488.2171669 C409.82506851 492.72772094 409.86573142 497.2381341 409.88876915 501.74885941 C409.90530897 504.12005313 409.93257255 506.49119741 409.9708004 508.86214066 C410.02586455 512.29981957 410.04748913 515.73633463 410.06210899 519.17439651 C410.08477837 520.22266113 410.10744774 521.27092575 410.13080406 522.35095596 C410.11012441 529.63709994 408.5494681 535.0076736 404.53867149 541.13142776 C402.22226524 543.38533401 402.22226524 543.38533401 399.97617149 544.69392776 C399.23238243 545.14896683 398.48859337 545.60400589 397.72226524 546.07283401 C393.26647909 548.23297363 389.02791292 548.28468178 384.14316368 548.29256058 C383.40440498 548.29752548 382.66564629 548.30249039 381.90450096 548.30760574 C379.46483992 548.32218826 377.02524393 548.32902346 374.58554649 548.33455276 C372.88406944 548.34030822 371.18259238 548.3460659 369.48111534 548.35182571 C365.91354636 548.36232513 362.34599984 548.36817446 358.77841759 548.37166214 C354.22119175 548.37713921 349.66426583 548.40115478 345.10713387 548.42963409 C341.59139724 548.44831851 338.07573195 548.45346919 334.55994987 548.45499802 C332.88072892 548.45801288 331.20150888 548.46600179 329.52233696 548.4791832 C327.16524957 548.49636282 324.80888313 548.49433466 322.45175743 548.48787308 C321.42431671 548.50169525 321.42431671 548.50169525 320.37611961 548.51579666 C314.27376855 548.46376085 308.82373434 547.06494248 304.10117149 543.06892776 C303.25554649 542.09955276 302.40992149 541.13017776 301.53867149 540.13142776 C299.97937029 538.37857694 298.41659192 536.62881585 296.85117149 534.88142776 C296.08417931 534.01002151 295.31718712 533.13861526 294.52695274 532.24080276 C291.81841796 529.3673081 291.08533829 529.15387926 287.06650925 528.98882675 C285.52954611 528.97542827 283.99252845 528.96765558 282.45551109 528.96406937 C281.61006788 528.95827598 280.76462466 528.9524826 279.89356196 528.94651365 C277.04398819 528.92839181 274.19443432 528.91756425 271.34482384 528.90681839 C269.30827209 528.89564732 267.2717222 528.88413413 265.23517418 528.87230301 C258.53167861 528.83569285 251.828164 528.81051864 245.12460899 528.78767776 C243.98477704 528.7837319 242.84494508 528.77978603 241.67057276 528.7757206 C230.92353411 528.73929821 220.17648897 528.7078479 209.42940903 528.68661118 C195.67532114 528.65903287 181.92174881 528.60826671 168.16787565 528.52613688 C158.50155334 528.47036728 148.83537099 528.44137817 139.16889346 528.43213797 C133.39371357 528.42587668 127.61913773 528.40772062 121.84413338 528.36075211 C116.4086414 528.31709367 110.97408392 528.30659514 105.53844643 528.32138062 C103.54541921 528.32105187 101.55235194 528.30876783 99.55948448 528.28353119 C87.73652602 527.66704718 87.73652602 527.66704718 77.453619 532.50703812 C75.84181145 534.30221256 75.84181145 534.30221256 74.53867149 536.13142776 C73.67757774 537.05568558 72.81648399 537.97994339 71.92929649 538.93220901 C70.49140232 540.61937316 69.05390813 542.30687826 67.61679649 543.99470901 C64.55623951 547.14155989 62.62465875 548.04894207 58.19499779 548.38539505 C56.84972734 548.39724243 55.50433238 548.39809319 54.15903282 548.39021683 C53.42188042 548.39372147 52.68472801 548.3972261 51.92523766 548.40083694 C49.49029657 548.40963209 47.05564676 548.40380998 44.62070274 548.39705276 C42.92162076 548.39840077 41.22253915 548.40034244 39.52345848 548.4028511 C35.96005142 548.40579997 32.39674463 548.40151505 28.83334923 548.39216995 C24.28523922 548.38081893 19.73736641 548.38730866 15.18926525 548.39931488 C11.67776804 548.40657704 8.16632608 548.4042249 4.65482712 548.3990593 C2.97924013 548.39773256 1.30364799 548.39933601 -0.37193298 548.4040184 C-23.17686688 548.45373005 -23.17686688 548.45373005 -29.90407753 542.01001358 C-35.55986889 535.18716384 -37.2106216 528.21867876 -37.05507851 519.54939651 C-37.05511879 518.57335968 -37.05515907 517.59732285 -37.05520058 516.59170914 C-37.04987442 514.5403482 -37.03241748 512.48898574 -37.00332069 510.43782425 C-36.96157174 507.33699368 -36.96225576 504.23835101 -36.96914101 501.13728714 C-36.89798038 478.72112659 -32.24266157 463.32684828 -16.46132851 447.13142776 C-7.72896889 437.56899594 -2.28283021 431.49110516 -2.34780312 418.12825394 C-2.34765709 417.33748459 -2.34751106 416.54671524 -2.34736061 415.73198318 C-2.34805488 413.12942597 -2.35582451 410.52694116 -2.36367226 407.92439651 C-2.36553816 406.11550307 -2.36696125 404.30660912 -2.36795998 402.497715 C-2.37177157 397.74498974 -2.38159025 392.99229521 -2.39266396 388.23958206 C-2.40290728 383.38647757 -2.40746385 378.53336809 -2.41250038 373.68025589 C-2.42321375 364.16396637 -2.44027386 354.64769963 -2.46132851 345.13142776 C-3.60055511 345.04279213 -3.60055511 345.04279213 -4.7627964 344.95236588 C-5.75683983 344.86973999 -6.75088326 344.78711411 -7.77504921 344.70198441 C-9.25458832 344.58241127 -9.25458832 344.58241127 -10.76401711 344.46042252 C-18.23204647 343.54953679 -24.62834607 337.77663585 -29.64101601 332.45955276 C-36.46495235 323.7319432 -39.89367682 313.65726672 -39.39882851 302.63142776 C-38.29886704 293.86881335 -34.38038606 286.70660066 -27.60976601 281.02205276 C-21.06997388 277.09493193 -13.64015034 274.99535419 -6.38149452 272.76057816 C-4.40839123 272.16599577 -4.40839123 272.16599577 -2.46132851 271.13142776 C-2.46132851 257.27142776 -2.46132851 243.41142776 -2.46132851 229.13142776 C-5.76132851 227.81142776 -9.06132851 226.49142776 -12.46132851 225.13142776 C-15.58858643 222.88282539 -16.29562152 221.94489841 -17.06289101 218.17830276 C-17.11058647 211.46914024 -16.80122982 206.96258448 -12.25820351 201.84627151 C-9.87923787 199.57591083 -7.45991278 197.3974171 -4.87929726 195.35799026 C-3.319213 194.16710299 -3.319213 194.16710299 -2.46132851 192.13142776 C-2.30663483 189.95467993 -2.21130745 187.77359296 -2.14492226 185.59236526 C-2.08208046 183.63943558 -2.08208046 183.63943558 -2.01796913 181.64705276 C-1.97815551 180.26684731 -1.93844328 178.88663894 -1.89882851 177.50642776 C-1.85563444 176.11839362 -1.81201986 174.73037249 -1.76796913 173.34236526 C-1.6616085 169.9388252 -1.55958136 166.53520998 -1.46132851 163.13142776 C-2.34884804 163.04925003 -2.34884804 163.04925003 -3.25429726 162.96541214 C-13.3219031 161.95536686 -20.38317375 159.31848961 -27.41835976 151.76033401 C-40.66274702 134.71736532 -37.55309489 115.40406985 -36.25429726 95.27205276 C-36.12694497 93.27195217 -35.9996107 91.27185042 -35.87229347 89.27174759 C-35.6056292 85.10285226 -35.33516447 80.93422163 -35.06264687 76.76570511 C-34.71541239 71.44174905 -34.38327486 66.1169634 -34.05463123 60.79183197 C-33.79761512 56.66990514 -33.52979734 52.54873049 -33.25905228 48.42768478 C-33.13191489 46.46487227 -33.00872922 44.50179939 -32.88969421 42.53847885 C-32.72208597 39.79156564 -32.53918702 37.04605971 -32.35268593 34.30037308 C-32.30736732 33.50223694 -32.26204872 32.7041008 -32.21535683 31.88177872 C-31.42342676 20.87092038 -27.68803997 13.55490126 -19.46132851 6.13142776 C-13.04549554 1.6597866 -7.79598408 0.00838048 0 0 Z M-18.21620607 18.33160287 C-20.70025812 21.94430657 -20.70025812 21.94430657 -21.46132851 26.13142776 C115.48867149 26.13142776 252.43867149 26.13142776 393.53867149 26.13142776 C392.43758032 20.6259719 391.32600933 17.14968964 386.6546855 13.76726693 C378.89746501 9.42363689 371.42907565 9.42528872 362.78732872 9.48978043 C361.19776696 9.48329526 359.60821286 9.47463693 358.01867342 9.46400613 C353.67079388 9.4412718 349.3234519 9.44954755 344.9755547 9.46314538 C340.27879063 9.47241976 335.58213166 9.45289604 330.88539696 9.43716812 C321.69244643 9.41110608 312.49969163 9.41216159 303.30671823 9.42320631 C295.83419742 9.43177093 288.36173316 9.43092905 280.88921165 9.42341042 C279.29280373 9.42182808 279.29280373 9.42182808 277.66414514 9.42021379 C275.50197278 9.41804282 273.33980043 9.41585605 271.1776281 9.41365363 C250.91167313 9.39423219 230.64582791 9.40621395 210.37988192 9.42843958 C192.99767504 9.44669153 175.61568056 9.43578362 158.23349571 9.40413284 C138.03914439 9.36736346 117.8449257 9.35035069 97.65054083 9.36354512 C95.49640435 9.3648862 93.34226785 9.36619518 91.18813133 9.36747169 C89.59839315 9.36841769 89.59839315 9.36841769 87.97653905 9.3693828 C80.51456884 9.37240868 73.05269879 9.36115588 65.59074974 9.34422112 C56.49478926 9.32388862 47.39912853 9.32477753 38.30318367 9.35285351 C33.66383398 9.36661835 29.02500745 9.37082709 24.38567734 9.34890366 C20.13539824 9.32908419 15.8861021 9.33715548 11.63589066 9.367098 C10.1017067 9.37308662 8.56744237 9.36904425 7.03332311 9.35373477 C-2.86210501 9.26221301 -11.63857857 10.0849123 -18.21620607 18.33160287 Z M-22.46132851 34.13142776 C-22.65686035 35.81889433 -22.78656602 37.5140097 -22.89101601 39.20955276 C-22.96272011 40.32845901 -23.03442421 41.44736526 -23.10830116 42.60017776 C-23.18355019 43.84799026 -23.25879921 45.09580276 -23.33632851 46.38142776 C-23.46238455 48.39434642 -23.58847379 50.40726313 -23.71544838 52.42012405 C-23.80819476 53.89071295 -23.90039962 55.36133609 -23.99212074 56.83198929 C-24.38079869 63.01241265 -24.81594697 69.18901152 -25.25820351 75.36580276 C-25.46609955 78.31542168 -25.67315655 81.26509813 -25.87984657 84.21480179 C-26.01514031 86.1258708 -26.15286831 88.03676939 -26.29329872 89.9474678 C-27.04805494 100.2504242 -27.62642736 110.55079206 -27.79726601 120.88142776 C-27.82559517 121.76193802 -27.85392433 122.64244827 -27.88311195 123.54964066 C-27.94136319 132.24987099 -25.22939189 140.17252698 -19.23085976 146.59627151 C-12.37270012 152.54606564 -5.40535167 154.2426595 3.53720665 154.27327347 C4.69926628 154.28030792 5.86132591 154.28734238 7.05859947 154.29459 C8.92432106 154.30083641 8.92432106 154.30083641 10.82773399 154.30720901 C12.80686604 154.3244726 14.78599819 154.34176044 16.76511765 154.36041164 C21.61945719 154.40570504 26.47368299 154.44366387 31.32822227 154.4573555 C34.05623697 154.46554943 36.78380132 154.48428037 39.51166344 154.51428604 C42.069342 154.54214222 44.62723713 154.55538917 47.18506432 154.55142593 C62.61937286 154.76694846 74.63618006 160.8436289 86.97617149 169.69392776 C99.59873906 178.70844173 111.93762766 181.43885608 127.16806602 181.39021683 C128.53567757 181.39293117 129.90328766 181.39649459 131.270895 181.40083694 C134.96756119 181.40991566 138.66411508 181.40643405 142.3607831 181.40007877 C146.24730179 181.39498913 150.13381133 181.399719 154.02033043 181.4028511 C160.55185214 181.40648475 167.08332855 181.40171019 173.61484337 181.39216995 C181.13330967 181.38131393 188.65166724 181.3847926 196.17013085 181.39582276 C202.65114612 181.40494564 209.13212894 181.40615582 215.61314857 181.40094543 C219.472233 181.39784952 223.33126664 181.39734951 227.19034767 181.4040184 C230.82658504 181.40986343 234.46268473 181.40566649 238.09890747 181.39422989 C240.04514065 181.39038999 241.99138568 181.39620939 243.93761253 181.40248489 C255.04820115 181.35000949 266.33390376 181.01419808 276.28867149 175.69392776 C277.26791588 175.18092117 277.26791588 175.18092117 278.26694298 174.65755081 C281.94477207 172.6905624 285.49830452 170.55677276 289.02695274 168.33455276 C289.78975548 167.85558548 290.55255821 167.37661819 291.33847618 166.88313675 C292.78144415 165.96532318 294.21440519 165.03144633 295.63339806 164.07698441 C311.6550333 153.74246153 327.94298859 154.4102645 346.41367149 154.44392776 C350.28618858 154.43499713 354.15845224 154.4189469 358.03088951 154.39245987 C360.42495037 154.37768905 362.81911047 154.37365472 365.21320152 154.38223648 C375.96246421 154.3455105 385.30526655 153.17133455 393.30039024 145.42439651 C399.79327212 138.20833652 400.72509773 130.82978125 400.65366173 121.31331253 C400.65051932 120.57159837 400.64737692 119.8298842 400.64413929 119.06569386 C400.57929379 111.10337372 400.16530798 103.16844431 399.69882774 95.22127151 C399.6112026 93.67291526 399.52392487 92.12453931 399.43697166 90.57614517 C399.25583683 87.36856383 399.07152185 84.16118782 398.88461876 80.95393753 C398.64632814 76.86271827 398.41478201 72.77115117 398.18540859 68.67942333 C398.0065328 65.49729487 397.8248583 62.31533112 397.64227676 59.13341331 C397.55588506 57.62450491 397.47017312 56.11555741 397.38518524 54.60656929 C397.26597376 52.50002303 397.14316443 50.39371577 397.01938438 48.28743362 C396.91612595 46.49903313 396.91612595 46.49903313 396.81078148 44.67450333 C396.61030325 42.06412687 396.35321163 39.5037482 396.02166462 36.90998554 C395.86227689 35.66306148 395.70288916 34.41613741 395.53867149 33.13142776 C342.43235885 33.10856381 289.3260467 33.09093077 236.21973011 33.08036244 C229.95714741 33.07911165 223.69456472 33.07781734 217.43198204 33.07649612 C216.18515799 33.07623381 214.93833394 33.0759715 213.65372735 33.07570124 C193.43680644 33.07134401 173.21988837 33.06345618 153.00296915 33.05427497 C132.27514704 33.0449399 111.54732642 33.03937247 90.81950229 33.03733927 C78.01826108 33.03596374 65.21702787 33.03161151 52.41578912 33.0235113 C43.65031516 33.01824565 34.88484536 33.01662305 26.11936993 33.01792639 C21.05404905 33.01857005 15.98874219 33.01754906 10.92342377 33.01222229 C6.29422267 33.00738939 1.66504514 33.00708839 -2.96415699 33.01052887 C-4.64653291 33.01095467 -6.32891024 33.00965802 -8.01128333 33.00654458 C-10.28283087 33.00258233 -12.55429119 33.00466328 -14.82583714 33.00837994 C-16.09220444 33.00800022 -17.35857174 33.0076205 -18.66331381 33.00722927 C-21.36672502 32.81180596 -21.36672502 32.81180596 -22.46132851 34.13142776 Z M407.53867149 54.13142776 C406.30434336 55.13630988 406.30434336 55.13630988 406.4852047 57.17146683 C406.51960655 58.07091019 406.55400841 58.97035355 406.58945274 59.89705276 C406.62756065 60.91944046 406.66566856 61.94182816 406.70493126 62.9951973 C406.75319054 64.11265335 406.80144981 65.23010941 406.85117149 66.38142776 C406.89749718 67.52337601 406.94382286 68.66532425 406.99155235 69.84187698 C407.57451945 83.28922715 408.53793032 96.70955126 409.53867149 110.13142776 C413.43922484 111.09393713 413.43922484 111.09393713 417.29648399 110.10408401 C419.77628977 108.29209184 419.77628977 108.29209184 420.28085899 105.31502151 C420.32468712 104.07881058 420.36851524 102.84259964 420.41367149 101.56892776 C420.43921104 100.87017532 420.4647506 100.17142288 420.49106407 99.45149612 C420.70814041 90.70501717 420.43677405 81.93871501 420.22617149 73.19392776 C420.20947411 72.41911057 420.19277672 71.64429337 420.17557335 70.84599686 C420.12405571 68.6190514 420.05836697 66.39300128 419.98789024 64.16658401 C419.9501046 62.86084427 419.91231895 61.55510452 419.87338829 60.20979691 C419.85264268 57.02771293 419.85264268 57.02771293 417.53867149 55.13142776 C415.14174458 54.63167636 415.14174458 54.63167636 412.47617149 54.44392776 C411.57769493 54.35756058 410.67921837 54.27119339 409.75351524 54.18220901 C409.02261681 54.1654512 408.29171837 54.14869339 407.53867149 54.13142776 Z M7.53867149 163.13142776 C7.53867149 169.73142776 7.53867149 176.33142776 7.53867149 183.13142776 C8.19867149 183.13142776 8.85867149 183.13142776 9.53867149 183.13142776 C12.97307471 177.17846219 12.67193586 170.79464621 12.53867149 164.13142776 C10.88867149 163.80142776 9.23867149 163.47142776 7.53867149 163.13142776 Z M21.53867149 163.13142776 C21.60054649 164.90517776 21.66242149 166.67892776 21.72617149 168.50642776 C21.66647557 178.66667326 19.48162339 184.88890303 12.47617149 192.31892776 C10.53867149 194.13142776 10.53867149 194.13142776 7.53867149 196.13142776 C7.53867149 196.79142776 7.53867149 197.45142776 7.53867149 198.13142776 C6.91992149 198.37892776 6.30117149 198.62642776 5.66367149 198.88142776 C3.16386946 200.35189955 2.70551127 201.54545853 1.53867149 204.13142776 C15.59104873 205.11644899 29.58091965 205.25244947 43.66367149 205.19392776 C45.79778501 205.18889677 47.9318997 205.18433673 50.06601524 205.18025589 C55.22359682 205.16939067 60.38112076 205.1522166 65.53867149 205.13142776 C64.58528229 204.0051464 63.62990101 202.88055111 62.67368126 201.75667191 C62.14186745 201.13023285 61.61005363 200.50379379 61.06212425 199.85837173 C59.33510786 197.90067365 57.49453001 196.22257263 55.47617149 194.56892776 C45.96506863 186.46080368 45.96506863 186.46080368 45.33334923 180.04671097 C45.29669151 179.26642532 45.2600338 178.48613968 45.22226524 177.68220901 C45.16510338 176.53619217 45.16510338 176.53619217 45.10678673 175.36702347 C45.0636837 174.40240189 45.02058067 173.4377803 44.97617149 172.44392776 C44.83179649 169.37080276 44.68742149 166.29767776 44.53867149 163.13142776 C36.94867149 163.13142776 29.35867149 163.13142776 21.53867149 163.13142776 Z M311.53867149 166.13142776 C311.20867149 167.12142776 310.87867149 168.11142776 310.53867149 169.13142776 C312.87841428 172.06492437 314.11770532 173.0497108 317.85898399 173.77595901 C330.77655203 175.20006073 330.77655203 175.20006073 342.16367149 170.88142776 C343.63445383 167.9398631 343.65747463 166.34991261 343.53867149 163.13142776 C339.89299436 163.04325872 336.24759675 162.99064828 332.60117149 162.94392776 C331.57958946 162.91879105 330.55800743 162.89365433 329.50546837 162.86775589 C323.28988266 162.80818159 317.07124022 162.9559784 311.53867149 166.13142776 Z M352.53867149 163.13142776 C352.47808556 163.83009964 352.41749962 164.52877151 352.35507774 165.24861526 C352.27128868 166.15869339 352.18749962 167.06877151 352.10117149 168.00642776 C352.01996056 168.91134964 351.93874962 169.81627151 351.85507774 170.74861526 C351.53867149 173.13142776 351.53867149 173.13142776 350.53867149 175.13142776 C350.42842204 176.71845975 350.3795714 178.30995877 350.36166954 179.90071487 C350.3488343 180.89191833 350.33599907 181.8831218 350.32277489 182.90436172 C350.31538795 183.97831696 350.30800102 185.05227219 350.30039024 186.15877151 C350.2923185 187.25862885 350.28424675 188.35848618 350.2759304 189.49167252 C350.26208474 191.82103775 350.25136475 194.15042331 350.24350548 196.47981644 C350.22625845 200.05092315 350.18237167 203.62111247 350.13828087 207.19197464 C350.1281573 209.45173344 350.11964015 211.71150012 350.11289024 213.97127151 C350.09538216 215.04320251 350.07787407 216.11513351 350.05983543 217.21954727 C350.062761 218.21390289 350.06568657 219.20825851 350.06870079 220.23274612 C350.06283455 221.10829651 350.05696831 221.98384689 350.0509243 222.88592911 C350.34795742 225.29300684 350.34795742 225.29300684 352.4408474 226.8782692 C354.46877235 228.08967273 356.38371597 229.01141506 358.60117149 229.81892776 C359.27277306 230.07029495 359.94437462 230.32166214 360.63632774 230.58064651 C362.68886793 231.27048075 362.68886793 231.27048075 365.53867149 231.13142776 C365.56179761 222.41298774 365.57958795 213.6945582 365.59048367 204.97609425 C365.59571191 200.92817034 365.60280848 196.88026736 365.61411095 192.8323555 C365.62494193 188.92906805 365.63094877 185.02580078 365.63354874 181.12249947 C365.63540261 179.6300913 365.6390225 178.13768428 365.64440155 176.64528465 C365.6516148 174.56194637 365.65266232 172.47869245 365.65219688 170.39534378 C365.6555278 168.61330299 365.6555278 168.61330299 365.65892601 166.79526138 C365.84229745 164.21022084 365.84229745 164.21022084 364.53867149 163.13142776 C362.51902951 163.05898723 360.49700026 163.04765588 358.47617149 163.06892776 C357.37144493 163.0779512 356.26671837 163.08697464 355.12851524 163.09627151 C354.27386681 163.10787308 353.41921837 163.11947464 352.53867149 163.13142776 Z M53.53867149 164.13142776 C52.89642119 176.3694007 52.89642119 176.3694007 58.78867149 186.63142776 C59.69617149 187.45642776 60.60367149 188.28142776 61.53867149 189.13142776 C62.62388023 190.25461881 63.70707154 191.37976115 64.78867149 192.50642776 C68.17650386 195.91664669 71.85962078 198.79287665 75.71835899 201.65095901 C77.53867149 203.13142776 77.53867149 203.13142776 78.53867149 205.13142776 C78.74241139 207.75385133 78.86223875 210.3185198 78.91367149 212.94392776 C78.96974571 214.01223831 78.96974571 214.01223831 79.02695274 215.10213089 C79.08788079 218.76119827 78.67377964 220.91899177 76.70273399 224.01814651 C67.87954916 229.91116256 55.1165811 228.5480482 44.85117149 228.75642776 C39.46804649 228.88017776 34.08492149 229.00392776 28.53867149 229.13142776 C28.53867149 240.35142776 28.53867149 251.57142776 28.53867149 263.13142776 C38.87374191 261.41845279 38.87374191 261.41845279 48.99570274 259.02986526 C49.7384948 258.8323819 50.48128685 258.63489853 51.24658775 258.43143082 C53.61695794 257.79752266 55.98434357 257.15342822 58.35117149 256.50642776 C59.56765877 256.17561707 59.56765877 256.17561707 60.80872154 255.83812332 C70.94401526 253.07274961 81.02762289 250.20393864 90.97617149 246.81892776 C91.87891808 246.51841507 92.78166466 246.21790237 93.7117672 245.90828323 C98.95683716 244.04856087 102.41185566 241.84742935 106.53867149 238.13142776 C109.13124819 237.26723553 110.87904857 236.95561845 113.55039024 236.81502151 C114.30771446 236.77312698 115.06503868 236.73123245 115.84531212 236.68806839 C116.63099571 236.64875198 117.41667931 236.60943558 118.22617149 236.56892776 C119.02345665 236.52574417 119.82074181 236.48256058 120.64218712 236.43806839 C122.60748596 236.33215408 124.57305646 236.23130226 126.53867149 236.13142776 C126.53867149 234.15142776 126.53867149 232.17142776 126.53867149 230.13142776 C125.64664024 229.96127151 124.75460899 229.79111526 123.83554649 229.61580276 C122.07984337 229.25228714 122.07984337 229.25228714 120.28867149 228.88142776 C119.12851524 228.64939651 117.96835899 228.41736526 116.77304649 228.17830276 C113.28570813 227.04955073 111.82648488 225.94216992 109.53867149 223.13142776 C108.06780005 220.18968487 108.41054146 217.54088751 108.39804649 214.26033401 C108.37972302 212.86773947 108.36015313 211.47516088 108.33945274 210.08259964 C108.31044497 207.88562931 108.28867055 205.68968626 108.28818321 203.49251175 C108.28485252 201.37252402 108.2503407 199.25491011 108.21054649 197.13533401 C108.20120079 195.86504349 108.19185509 194.59475296 108.18222618 193.28596878 C107.86114658 189.9868798 107.86114658 189.9868798 105.24521446 188.30867386 C104.35205528 187.92018265 103.4588961 187.53169144 102.53867149 187.13142776 C101.8752877 186.80924271 101.21190392 186.48705765 100.52841759 186.15510941 C99.87953575 185.87014603 99.23065392 185.58518265 98.56210899 185.29158401 C88.80140624 180.89726027 79.7168578 176.009457 70.77060509 170.11800003 C64.90518738 166.26211329 60.77167268 163.7950091 53.53867149 164.13142776 Z M293.22617149 176.25642776 C286.30683936 180.87780323 279.2823131 184.06371861 271.53867149 187.13142776 C269.19944578 188.11826137 266.86907997 189.12384281 264.53867149 190.13142776 C264.56223717 191.45533524 264.56223717 191.45533524 264.58627892 192.80598831 C264.63755147 196.09543662 264.67509067 199.38445737 264.70346642 202.67415237 C264.71850909 204.09511918 264.73894853 205.51603989 264.76498985 206.93684769 C264.80157497 208.98489662 264.81844246 211.03232927 264.83164024 213.08064651 C264.85520592 214.9266243 264.85520592 214.9266243 264.87924767 216.80989456 C264.41709994 221.31707718 262.96813924 223.96186324 259.47617149 226.81892776 C255.30502423 228.68263186 251.0286159 229.39036898 246.53867149 230.13142776 C245.48607614 233.41863127 245.37500446 236.64094497 245.24863243 240.07210159 C244.62035333 256.68719512 244.62035333 256.68719512 239.41367149 262.50642776 C231.82394927 266.79627076 224.06341132 267.72838572 215.47617149 268.31892776 C214.41978477 268.40078323 213.36339806 268.4826387 212.27499962 268.56697464 C209.69680868 268.76529702 207.11831758 268.95322327 204.53867149 269.13142776 C205.82349239 273.02371542 205.82349239 273.02371542 208.85898399 275.61580276 C209.78453087 276.03345901 210.71007774 276.45111526 211.66367149 276.88142776 C218.73059651 280.49835789 224.20340462 285.56236989 227.53867149 292.88142776 C229.30512652 298.41707026 228.77467341 304.39745537 228.53867149 310.13142776 C222.70979923 312.80661914 216.83707721 313.35386898 210.53867149 312.13142776 C208.49653999 310.27455291 207.57569853 308.68650149 206.46835899 306.17439651 C205.11548857 303.20149217 203.44276762 301.58347583 200.53867149 300.13142776 C196.29419858 299.85987366 192.04084087 299.89975608 187.78867149 299.88142776 C186.60789024 299.86080276 185.42710899 299.84017776 184.21054649 299.81892776 C175.89399969 299.64627744 175.89399969 299.64627744 168.53867149 303.13142776 C166.95077526 305.07881704 166.95077526 305.07881704 165.91367149 307.25642776 C164.02486479 310.91347905 164.02486479 310.91347905 161.83945274 311.89314651 C158.63150515 312.22537878 155.567274 312.04222193 152.35117149 311.81892776 C151.09949181 311.74029495 149.84781212 311.66166214 148.55820274 311.58064651 C147.56175743 311.43240433 146.56531212 311.28416214 145.53867149 311.13142776 C143.12385291 306.30179061 143.98828455 299.55383143 145.15195274 294.43220901 C147.84586823 286.87263121 152.34729867 280.16738581 159.69101524 276.60017776 C161.80489407 275.77573989 163.94046036 275.00393478 166.09726524 274.29939651 C168.71794557 273.38536918 168.71794557 273.38536918 169.38632774 270.99470901 C169.43660118 270.3798262 169.48687462 269.76494339 169.53867149 269.13142776 C162.47558748 266.77706643 155.20782346 268.11443044 148.53867149 271.13142776 C144.61983454 273.85845348 141.43408734 276.91828372 138.60117149 280.75642776 C134.10422152 285.93473379 127.98385327 288.10383927 121.51914024 289.94002151 C114.68328386 292.0001492 108.28026905 294.67705195 101.78867149 297.63142776 C100.05363365 298.41211624 100.05363365 298.41211624 98.28354454 299.2085762 C82.65516244 306.28197238 67.20813034 313.7379623 51.89218712 321.46297073 C44.23934221 325.31190155 36.50299509 328.97110127 28.53867149 332.13142776 C28.51555017 344.76138261 28.49775749 357.39133247 28.48685932 370.02130413 C28.48163003 375.8852494 28.47453155 381.74918025 28.46323204 387.61311722 C28.4524048 393.26704488 28.44639501 398.92095863 28.44379425 404.57489586 C28.44193971 406.73716387 28.43831854 408.89943107 28.43294144 411.06169319 C28.42573317 414.07901434 28.42468046 417.0962772 28.4251461 420.1136055 C28.42155083 421.01703186 28.41795555 421.92045822 28.41425133 422.85126114 C28.02327694 426.8069668 28.02327694 426.8069668 29.53867149 430.13142776 C31.21102369 430.22954867 32.88755219 430.2569835 34.56278038 430.25726891 C35.65794094 430.25987665 36.7531015 430.2624844 37.88144875 430.26517117 C39.09961155 430.26294045 40.31777435 430.26070973 41.57285118 430.25841141 C42.85523548 430.2599714 44.13761978 430.26153139 45.45886421 430.26313865 C49.03477721 430.26733644 52.61066372 430.26523927 56.18657684 430.26215243 C60.03665031 430.25990037 63.88671906 430.26337698 67.73679161 430.26613235 C75.2855695 430.27059113 82.83433748 430.26961311 90.38311577 430.26671971 C96.51533146 430.2644661 102.64754437 430.26415298 108.77976036 430.26524353 C109.65079958 430.26539676 110.52183879 430.26555 111.41927314 430.26570787 C113.18848387 430.26602758 114.95769461 430.26635179 116.72690535 430.26668046 C133.33712553 430.26953557 149.94734021 430.26624775 166.55755949 430.2608801 C180.82600583 430.25641203 195.09444405 430.25718796 209.36289024 430.26179886 C225.91156333 430.26714408 242.46023158 430.26926088 259.00890541 430.26618659 C260.77179782 430.26586803 262.53469022 430.26555366 264.29758263 430.26524353 C265.16507755 430.26508925 266.03257247 430.26493498 266.92635512 430.26477603 C273.05490023 430.26391072 279.18344229 430.26537405 285.31198692 430.26772308 C292.77532778 430.27052071 300.23865811 430.26978362 307.70199776 430.26444234 C311.51368604 430.26180481 315.32535674 430.26080112 319.13704491 430.26409149 C323.25954267 430.26759648 327.38199562 430.26342633 331.50449181 430.25841141 C332.72265461 430.26064213 333.94081741 430.26287285 335.19589424 430.26517117 C336.83863508 430.26125955 336.83863508 430.26125955 338.51456261 430.25726891 C339.46749828 430.25710655 340.42043396 430.2569442 341.40224648 430.25677693 C343.521756 430.36983539 343.521756 430.36983539 344.53867149 429.13142776 C344.64231358 426.89808113 344.67391078 424.66139186 344.67911339 422.42564774 C344.68208451 421.7163719 344.68505563 421.00709606 344.68811679 420.27632701 C344.69684034 417.88182415 344.6983151 415.48737107 344.69980431 413.09285355 C344.70442989 411.38330858 344.7094542 409.67376466 344.71484947 407.96422195 C344.72800037 403.30720387 344.73442364 398.65020021 344.73886013 393.99316645 C344.74178649 391.0866746 344.74589045 388.18018675 344.7503643 385.2736969 C344.76404624 376.18877369 344.77370952 367.10385954 344.77756619 358.01892674 C344.78204901 347.51533591 344.79960433 337.01187508 344.82856679 326.50832379 C344.85015085 318.40046549 344.86026872 310.29264385 344.86160731 302.18475711 C344.86265769 297.33716842 344.86861461 292.48970181 344.88642693 287.64214325 C344.90285114 283.08346649 344.90509077 278.52500431 344.89628792 273.96630859 C344.8955145 272.29050244 344.8999001 270.61468503 344.90974617 268.93890762 C344.92237528 266.65607116 344.91663897 264.37400514 344.90616417 262.09117508 C344.90836401 260.17256763 344.90836401 260.17256763 344.91060829 258.21520042 C344.79716835 255.17592197 344.79716835 255.17592197 343.21003914 253.29727364 C340.57494989 251.45919335 337.6916592 250.16827875 334.78867149 248.81892776 C324.07988352 243.59676641 318.88001141 238.47987606 314.82382774 227.13142776 C311.87682114 216.80614914 312.40120345 205.50382254 312.47617149 194.88142776 C312.48068321 193.64779495 312.48519493 192.41416214 312.48984337 191.14314651 C312.50148662 188.13918707 312.51783774 185.1353351 312.53867149 182.13142776 C311.97857384 181.95764603 311.41847618 181.78386429 310.84140587 181.60481644 C310.11244102 181.35965286 309.38347618 181.11448929 308.63242149 180.86189651 C307.90732384 180.62623978 307.18222618 180.39058304 306.43515587 180.14778519 C304.53867149 179.13142776 304.53867149 179.13142776 303.03867149 175.44392776 C302.87367149 174.35080276 302.70867149 173.25767776 302.53867149 172.13142776 C298.54417712 172.13142776 296.39370737 174.07123171 293.22617149 176.25642776 Z M338.53867149 183.13142776 C338.46404422 187.41809513 338.40984641 191.70440983 338.37387657 195.99153519 C338.35886836 197.44733144 338.33845516 198.90308308 338.31235313 200.35872269 C338.27561474 202.46145566 338.2588659 204.56358661 338.24570274 206.66658401 C338.22999229 207.92865677 338.21428185 209.19072952 338.19809532 210.49104691 C338.59617121 214.74603589 339.57900378 217.35532287 341.53867149 221.13142776 C342.19867149 221.46142776 342.85867149 221.79142776 343.53867149 222.13142776 C343.53867149 208.60142776 343.53867149 195.07142776 343.53867149 181.13142776 C341.69820762 181.13142776 340.14237556 182.30370954 338.53867149 183.13142776 Z M320.53867149 183.13142776 C320.50925503 187.40224625 320.49173434 191.67303811 320.47617149 195.94392776 C320.46779259 197.13953323 320.45941368 198.3351387 320.45078087 199.56697464 C320.05048587 218.45432039 320.05048587 218.45432039 328.58164024 234.61970901 C332.65365762 238.53860333 337.10596976 240.77705521 342.22617149 243.06892776 C343.13302696 243.48932327 344.03988243 243.90971878 344.97421837 244.34285355 C352.22008381 247.65657259 359.58755013 250.66087432 367.05307579 253.44368362 C374.62348384 256.32574713 378.7491105 259.79817254 382.85117149 266.88142776 C383.2101754 267.48341995 383.56917931 268.08541214 383.93906212 268.70564651 C384.81417479 270.1758358 385.6776468 271.65294367 386.53867149 273.13142776 C391.18454042 272.64658501 391.18454042 272.64658501 395.53867149 271.13142776 C395.36594355 263.18594216 390.92551407 257.6801911 385.57773399 252.07674026 C378.06530632 245.15818039 369.23406439 242.18952763 359.79648399 238.71736526 C353.32287237 236.32578318 346.93611233 233.71845621 340.53867149 231.13142776 C339.59765587 230.77822464 338.65664024 230.42502151 337.68710899 230.06111526 C335.53867149 229.13142776 335.53867149 229.13142776 334.35117149 227.50642776 C332.18235934 221.166823 331.23076363 215.35011025 331.12460899 208.69392776 C331.10524284 207.92838577 331.08587669 207.16284378 331.06592369 206.37410355 C331.00676203 203.95998701 330.96000005 201.54582112 330.91367149 199.13142776 C330.87543312 197.48166887 330.83637811 195.8319287 330.79648399 194.18220901 C330.70111398 190.16543627 330.61685322 186.14857032 330.53867149 182.13142776 C329.25992149 182.11080276 327.98117149 182.09017776 326.66367149 182.06892776 C325.94437462 182.0573262 325.22507774 182.04572464 324.48398399 182.03377151 C322.45681745 182.00493535 322.45681745 182.00493535 320.53867149 183.13142776 Z M116.53867149 191.13142776 C116.43951523 192.61053991 116.40787356 194.09430961 116.40585899 195.57674026 C116.40456993 196.48939651 116.40328087 197.40205276 116.40195274 198.34236526 C116.40581993 199.30400589 116.40968712 200.26564651 116.41367149 201.25642776 C116.40980431 202.19486526 116.40593712 203.13330276 116.40195274 204.10017776 C116.40912184 209.21891435 116.65842773 214.08749126 117.53867149 219.13142776 C124.19497218 220.65923345 130.52507003 221.45197193 137.34726524 221.54549026 C138.71436134 221.57467545 138.71436134 221.57467545 140.10907555 221.60445023 C143.06468242 221.66462512 146.02030087 221.71120445 148.97617149 221.75642776 C151.05194199 221.79371914 153.12770695 221.83132043 155.20346642 221.86922073 C179.503899 222.29214496 203.78011912 222.30663912 228.07953453 221.81203079 C229.90958014 221.77531744 231.73968179 221.74128763 233.56982994 221.71010208 C236.11835308 221.66489246 238.66627801 221.60703176 241.21445274 221.54549026 C241.96907799 221.53392899 242.72370323 221.52236771 243.50119591 221.51045609 C247.86077627 221.38831748 251.4786493 220.72633655 255.53867149 219.13142776 C256.66543339 205.13823599 256.66543339 205.13823599 256.53867149 191.13142776 C254.81716345 189.40991972 252.53456985 190.00531608 250.18613243 190.00444412 C249.02504967 190.0016243 247.8639669 189.99880447 246.66769981 189.9958992 C245.38246422 189.99792343 244.09722862 189.99994766 242.77304649 190.00203323 C241.41493241 190.00067921 240.05681869 189.99889927 238.69870567 189.99672318 C235.00045948 189.992149 231.30224107 189.99393834 227.60399437 189.99710226 C223.74205002 189.99962594 219.88010812 189.9972883 216.01816368 189.99571609 C209.53150567 189.99389442 203.04485903 189.99630065 196.55820274 190.00105667 C189.04817227 190.00649929 181.53816893 190.00473663 174.02813911 189.99923027 C167.59163619 189.99469907 161.15514147 189.99404862 154.71863747 189.99666893 C150.86937833 189.99823167 147.02013197 189.99842557 143.17087364 189.99513245 C139.55286444 189.99225363 135.93489038 189.9942296 132.31688499 190.0000267 C130.34780489 190.00198986 128.37872182 189.99900048 126.40964317 189.9958992 C124.66801903 190.00012894 124.66801903 190.00012894 122.89121056 190.00444412 C121.36805229 190.00500966 121.36805229 190.00500966 119.81412315 190.00558662 C117.57190319 189.87586878 117.57190319 189.87586878 116.53867149 191.13142776 Z M-8.46132851 211.13142776 C-8.71163828 213.54762599 -8.71163828 213.54762599 -8.46132851 216.13142776 C-3.12825218 219.68681198 3.22920268 219.39368777 9.47617149 219.69392776 C10.34371056 219.73566116 11.21124962 219.77739456 12.10507774 219.82039261 C26.24583492 220.43728818 40.39878023 220.36626998 54.53867149 219.75642776 C55.34498009 219.7256514 56.15128868 219.69487503 56.98203087 219.66316605 C61.79267945 219.41774557 65.95750719 218.63005332 70.53867149 217.13142776 C70.86867149 215.48142776 71.19867149 213.83142776 71.53867149 212.13142776 C65.75694487 210.09264933 61.04698922 210.05175742 54.97617149 210.50642776 C37.46856953 211.56004781 20.06791281 211.19374276 2.55209923 210.39949417 C1.40813683 210.35099319 0.26417442 210.30249222 -0.91445351 210.25252151 C-1.93700233 210.20539017 -2.95955116 210.15825882 -4.01308632 210.10969925 C-6.46901506 209.95224682 -6.46901506 209.95224682 -8.46132851 211.13142776 Z M7.53867149 229.13142776 C7.53867149 242.33142776 7.53867149 255.53142776 7.53867149 269.13142776 C15.98813751 267.5074022 15.98813751 267.5074022 21.53867149 265.13142776 C21.53867149 253.25142776 21.53867149 241.37142776 21.53867149 229.13142776 C16.91867149 229.13142776 12.29867149 229.13142776 7.53867149 229.13142776 Z M135.53867149 230.13142776 C134.14096565 233.87834223 134.14096565 233.87834223 135.53867149 236.13142776 C136.52867149 236.02443558 137.51867149 235.91744339 138.53867149 235.80720901 C152.12862038 234.50309694 152.12862038 234.50309694 158.53867149 238.13142776 C163.14575905 242.73851532 164.70116129 247.54586998 165.16367149 253.94392776 C165.23843712 254.91974808 165.31320274 255.89556839 165.39023399 256.90095901 C165.46371056 258.00504105 165.46371056 258.00504105 165.53867149 259.13142776 C172.4146833 260.18413431 179.15227965 260.28564976 186.10117149 260.25642776 C187.28050255 260.25231888 188.4598336 260.24820999 189.67490196 260.24397659 C197.5069741 260.19513774 205.33572559 260.08130257 213.16367149 259.81892776 C214.5376107 259.78533157 214.5376107 259.78533157 215.93930626 259.75105667 C222.3951577 259.48701611 229.63791723 258.85088489 234.53867149 254.25642776 C237.95465361 246.99746578 236.53867149 238.98951639 236.53867149 231.13142776 C203.20867149 230.80142776 169.87867149 230.47142776 135.53867149 230.13142776 Z M134.53867149 245.13142776 C135.65820941 247.39463157 136.8074656 249.6130172 138.03867149 251.81892776 C139.86089281 255.84299983 140.72210064 259.80840559 141.53867149 264.13142776 C147.19291052 262.43515606 153.29983338 260.37026588 157.53867149 256.13142776 C157.39209708 252.24720587 156.83163057 249.64973997 154.91367149 246.25642776 C149.08575142 241.04197296 141.48493403 243.6115403 134.53867149 245.13142776 Z M115.53867149 245.13142776 C115.53867149 245.79142776 115.53867149 246.45142776 115.53867149 247.13142776 C116.44617149 247.79142776 117.35367149 248.45142776 118.28867149 249.13142776 C125.61569839 255.14511965 126.11336892 264.76647172 127.03183556 273.59334183 C127.21028978 275.43847553 127.37586397 277.28484769 127.53867149 279.13142776 C130.61091077 278.49021847 130.61091077 278.49021847 131.48789024 276.34627151 C133.93020298 268.81257668 134.76620173 263.25460659 131.41367149 255.94392776 C128.98357229 251.50694888 126.84884438 248.80373495 122.53867149 246.13142776 C118.81169932 245.25137439 118.81169932 245.25137439 115.53867149 245.13142776 Z M96.72617149 253.56892776 C95.80239708 253.83479691 94.87862267 254.10066605 93.92685509 254.37459183 C88.55236781 255.93080507 83.19502772 257.53656609 77.84726524 259.18220901 C62.67943038 263.83495128 47.46689303 268.02001326 32.08142662 271.89027786 C18.76462119 275.24321358 5.61346172 278.9173545 -7.46132851 283.13142776 C-5.2279321 285.42246021 -3.0997694 287.40067391 -0.52382851 289.31892776 C6.23731253 294.93613837 8.99305955 303.74617869 10.53867149 312.13142776 C10.97831536 316.93553619 10.51393777 321.62258154 10.02304649 326.40877151 C9.93248985 327.29685501 9.84193321 328.18493851 9.74863243 329.09993362 C9.64470177 330.10552322 9.64470177 330.10552322 9.53867149 331.13142776 C29.49513363 323.43788219 48.52563206 313.93949529 67.68320274 304.47127151 C81.60433319 297.59113525 95.55934898 290.7866861 109.89218712 284.79939651 C114.40307972 282.85713496 114.40307972 282.85713496 117.53867149 279.13142776 C118.26304239 271.20097758 118.47625548 263.21907894 114.53867149 256.13142776 C112.63670179 254.02159252 110.94500777 252.73565195 108.53867149 251.13142776 C104.38509379 251.13142776 100.68119166 252.41399385 96.72617149 253.56892776 Z M351.53867149 256.13142776 C351.53867149 313.55142776 351.53867149 370.97142776 351.53867149 430.13142776 C359.40462867 433.5360711 359.40462867 433.5360711 367.53867149 436.13142776 C367.38015205 435.58648383 367.22163261 435.0415399 367.05830956 434.48008251 C366.46579479 431.80204037 366.32542225 429.29476461 366.22446251 426.55295181 C366.18280464 425.42767547 366.14114677 424.30239912 366.09822655 423.14302349 C366.05923744 421.91982434 366.02024834 420.69662519 365.98007774 419.43635941 C365.9378257 418.14971169 365.89557365 416.86306398 365.85204124 415.53742695 C365.40842485 401.17891005 365.42592545 386.8201461 365.47020912 372.45651507 C365.48042857 368.67889259 365.48374218 364.9012639 365.4876461 361.12363052 C365.49857026 351.60538227 365.51821824 342.08715955 365.53867149 332.56892776 C365.56081146 322.19758511 365.58126015 311.82625137 365.59208965 301.45488983 C365.5970529 296.98098143 365.6068774 292.50711876 365.62051964 288.03322875 C365.6261779 285.93304071 365.62955658 283.83286399 365.63190269 281.73266983 C365.63477384 279.17664766 365.64125141 276.62062604 365.65198326 274.06462479 C365.65205376 272.93988251 365.65212425 271.81514023 365.65219688 270.65631485 C365.6544175 269.68000831 365.65663811 268.70370176 365.65892601 267.69781017 C365.61036067 264.8604114 365.61036067 264.8604114 364.53867149 261.13142776 C360.24867149 259.48142776 355.95867149 257.83142776 351.53867149 256.13142776 Z M177.53867149 270.13142776 C177.45181546 271.69315521 177.4316493 273.25872121 177.44101524 274.82283401 C177.4442379 275.7670723 177.44746056 276.71131058 177.45078087 277.68416214 C177.45915977 278.6773848 177.46753868 279.67060745 177.47617149 280.69392776 C177.48068321 281.69101761 177.48519493 282.68810745 177.48984337 283.71541214 C177.50167127 286.18744263 177.51960734 288.65944249 177.53867149 291.13142776 C183.47867149 291.13142776 189.41867149 291.13142776 195.53867149 291.13142776 C195.5655035 287.65221041 195.58542819 284.17319738 195.60117149 280.69392776 C195.6095504 279.70070511 195.61792931 278.70748245 195.62656212 277.68416214 C195.62978477 276.73992386 195.63300743 275.79568558 195.63632774 274.82283401 C195.64156456 273.94828568 195.64680138 273.07373734 195.65219688 272.17268753 C195.76651958 270.13702571 195.76651958 270.13702571 194.53867149 269.13142776 C191.8613577 269.03161563 189.21562975 268.99262901 186.53867149 269.00642776 C185.78843712 269.00256058 185.03820274 268.99869339 184.26523399 268.99470901 C180.60261033 268.65467235 180.60261033 268.65467235 177.53867149 270.13142776 Z M389.53867149 281.13142776 C390.0333826 287.88183344 391.11542573 294.17570079 392.90195274 300.69783401 C393.1352076 301.57559998 393.36846245 302.45336594 393.60878563 303.35773087 C394.34899746 306.13846248 395.09949189 308.91627649 395.85117149 311.69392776 C405.86855144 349.00743032 405.86855144 349.00743032 406.66367149 360.94392776 C406.78386266 362.61765369 406.9111926 364.29088596 407.04648399 365.96345901 C407.09434044 366.67220169 407.14219688 367.38094437 407.19150352 368.11116409 C407.59638556 370.4672814 408.27870628 372.10053829 409.53867149 374.13142776 C413.2592551 376.61181683 415.1366372 376.5947998 419.53867149 376.13142776 C422.14182143 374.77841496 422.14182143 374.77841496 423.53867149 372.13142776 C424.152754 365.52474695 422.7215411 361.86856158 419.66367149 356.13142776 C412.74195832 342.05496578 409.91259794 326.53818485 406.3057003 311.37190628 C403.78313779 300.84370958 400.7299936 290.47504694 397.53867149 280.13142776 C394.69899918 280.13142776 392.30131438 280.53409957 389.53867149 281.13142776 Z M159.53867149 288.13142776 C155.03533089 292.74084277 152.80745213 296.68069244 152.53867149 303.13142776 C159.04594352 300.82551133 164.69813602 297.04013979 169.53867149 292.13142776 C170.50910453 288.89339996 170.36985865 286.3869108 169.53867149 283.13142776 C165.66612773 283.13142776 162.51722028 285.84363705 159.53867149 288.13142776 Z M204.53867149 283.13142776 C203.18744512 284.27666308 203.18744512 284.27666308 203.15585899 287.32674026 C203.62470814 291.98652664 205.3754132 293.95669598 208.66367149 297.00642776 C209.13804649 297.49111526 209.61242149 297.97580276 210.10117149 298.47517776 C213.4178808 301.68431812 215.95547634 302.8186281 220.53867149 303.13142776 C219.25654191 295.95150211 216.68877205 290.14660286 210.62460899 285.74080276 C207.76485231 283.88185945 207.76485231 283.88185945 204.53867149 283.13142776 Z M-23.21132851 289.56892776 C-28.61846482 295.72705524 -30.09712067 301.03340024 -29.77773476 309.24470901 C-28.86436978 317.57775487 -24.59214387 325.46711614 -18.31679726 331.03377151 C-14.71832319 333.6391403 -12.1450281 335.02887283 -7.71132851 335.69392776 C-4.02148778 335.05530148 -2.26681699 334.6336202 0.53867149 332.13142776 C4.16321659 326.41033207 5.56328843 320.81731205 4.53867149 314.13142776 C2.39825218 304.72273966 -0.15544644 296.88051241 -8.27382851 291.25642776 C-13.19228977 288.46311297 -17.8903255 286.78749438 -23.21132851 289.56892776 Z M13.41367149 338.56892776 C12.52421837 339.0213887 11.63476524 339.47384964 10.71835899 339.94002151 C8.62459643 340.95172836 8.62459643 340.95172836 7.53867149 342.13142776 C7.41337961 345.05260509 7.35256478 347.95128018 7.33334923 350.87385941 C7.32344963 351.79084106 7.31355003 352.70782272 7.30335045 353.65259171 C7.27163501 356.69889576 7.2469385 359.74521544 7.22226524 362.79158401 C7.20170438 364.89766227 7.18070815 367.00373632 7.15929222 369.10980606 C7.10398192 374.66480995 7.05461229 380.21985162 7.00644493 385.77492142 C6.95629514 391.43871313 6.90057511 397.10244967 6.84531212 402.76619339 C6.73762105 413.8878911 6.63620056 425.00963663 6.53867149 436.13142776 C7.85867149 436.13142776 9.17867149 436.13142776 10.53867149 436.13142776 C10.53867149 435.14142776 10.53867149 434.15142776 10.53867149 433.13142776 C11.24894493 432.99865433 11.95921837 432.86588089 12.69101524 432.72908401 C14.06966759 432.46418167 14.06966759 432.46418167 15.47617149 432.19392776 C16.85095665 431.93289261 16.85095665 431.93289261 18.25351524 431.66658401 C20.49156994 431.35427788 20.49156994 431.35427788 21.53867149 430.13142776 C21.63392517 427.20948112 21.66419886 424.31122447 21.65219688 421.38899612 C21.65234291 420.47201447 21.65248894 419.55503281 21.65263939 418.61026382 C21.65193989 415.56390941 21.64414577 412.51761532 21.63632774 409.47127151 C21.6344637 407.36519784 21.63303973 405.25912373 21.63204002 403.15304947 C21.6282138 397.59799893 21.61838263 392.04297436 21.60733604 386.48793411 C21.59712416 380.82418036 21.59254288 375.16042243 21.58749962 369.49666214 C21.57676046 358.37490591 21.55968279 347.25316899 21.53867149 336.13142776 C18.07592277 336.13142776 16.46835139 336.99705896 13.41367149 338.56892776 Z M2.76914024 439.43220901 C0.23320203 442.24861966 -2.13072585 445.14368495 -4.46132851 448.13142776 C-5.61937901 449.4308249 -6.78519608 450.72337421 -7.96132851 452.00642776 C-25.40477553 472.18447693 -27.4311303 487.49200735 -27.77382851 513.69392776 C-27.80355751 514.89468948 -27.83328651 516.0954512 -27.8639164 517.33259964 C-27.91101683 524.42047112 -27.42115127 529.17063073 -23.46132851 535.13142776 C-19.2099014 538.66269195 -15.11420024 539.32265359 -9.68398476 539.22517776 C-8.70308876 539.21164261 -7.72219276 539.19810745 -6.71157265 539.18416214 C-5.96899208 539.1667598 -5.22641151 539.14935745 -4.46132851 539.13142776 C-4.49130676 537.94111198 -4.49130676 537.94111198 -4.52189064 536.72674942 C-4.70357569 529.18221964 -4.83991645 521.63877637 -4.92763805 514.09261608 C-4.97425763 510.21453509 -5.037288 506.33828761 -5.14028358 502.46126175 C-5.98539524 469.79715855 -5.98539524 469.79715855 4.53867149 458.13142776 C5.91743713 456.36352476 7.29311067 454.59319909 8.66367149 452.81892776 C9.62660118 451.6626387 9.62660118 451.6626387 10.60898399 450.48299026 C12.68692817 447.9507587 14.62900108 445.35519536 16.53867149 442.69392776 C17.11617149 441.89084183 17.69367149 441.08775589 18.28867149 440.26033401 C19.79183573 438.11171627 19.79183573 438.11171627 19.53867149 435.13142776 C13.27814443 435.13142776 7.75391014 435.29112373 2.76914024 439.43220901 Z M354.53867149 436.13142776 C355.09611617 439.90502657 356.08013708 442.34758621 358.26914024 445.45955276 C358.82537071 446.26006058 359.38160118 447.06056839 359.95468712 447.88533401 C360.53927696 448.70904495 361.12386681 449.53275589 361.72617149 450.38142776 C362.86602023 452.01126849 364.00534519 453.64147565 365.14414024 455.27205276 C365.70907188 456.07328568 366.27400352 456.87451859 366.85605431 457.70003128 C369.01359786 460.81770049 371.05992919 464.00276103 373.08725548 467.20637894 C375.43234966 470.31673513 378.24720765 472.09072018 381.53867149 474.13142776 C379.55867149 474.62642776 379.55867149 474.62642776 377.53867149 475.13142776 C377.51554439 483.32833337 377.49775454 491.52522545 377.48685932 499.72215557 C377.48163129 503.52794354 377.47453511 507.33370925 377.46323204 511.13948441 C377.45240029 514.8093532 377.44639405 518.47920055 377.44379425 522.14908409 C377.44194052 523.55217769 377.43832089 524.95527006 377.43294144 526.35835457 C377.4257273 528.31712457 377.42526341 530.27591597 377.4251461 532.23469925 C377.42181519 533.91015068 377.42181519 533.91015068 377.41841698 535.61944962 C377.25356373 538.0704819 377.25356373 538.0704819 378.53867149 539.13142776 C385.77284154 539.93867421 390.78454844 538.50245285 396.91367149 534.63142776 C400.35040336 531.45905989 399.87075036 526.75895519 400.10117149 522.38142776 C400.16377159 521.2105159 400.16377159 521.2105159 400.22763634 520.01594925 C400.54405484 513.40926008 400.64584619 506.80765523 400.66367149 500.19392776 C400.66826378 499.26032425 400.67285606 498.32672073 400.67758751 497.3648262 C400.62997664 475.82947721 393.50101319 465.41094484 379.16367149 449.97517776 C376.34166892 446.91800831 373.59627923 443.80454774 370.87851524 440.65486526 C366.30575596 435.45551797 361.20716652 434.50496556 354.53867149 436.13142776 Z M21.60765076 444.88838023 C21.07850602 445.99868876 21.07850602 445.99868876 20.53867149 447.13142776 C12.17528924 459.81486592 12.17528924 459.81486592 7.56992149 465.51033401 C6.27029953 467.23308249 6.27029953 467.23308249 6.53867149 470.13142776 C125.33867149 470.13142776 244.13867149 470.13142776 366.53867149 470.13142776 C363.4690276 464.60606876 360.71012692 459.74389213 357.10117149 454.69392776 C356.38058556 453.68459183 355.65999962 452.67525589 354.91757774 451.63533401 C354.52842501 451.10011952 354.13927227 450.56490502 353.73832703 450.0134719 C352.53867149 448.13142776 352.53867149 448.13142776 351.4448967 445.64615554 C350.06557681 442.72387325 348.74609606 440.50120979 346.53867149 438.13142776 C342.28697183 436.63388026 338.18133473 436.78428998 333.70908165 436.86832047 C331.74763679 436.84597895 331.74763679 436.84597895 329.74656677 436.8231861 C326.12230418 436.78339425 322.50070833 436.80592931 318.87647533 436.83884013 C314.96624615 436.86352457 311.05644148 436.83062977 307.14627647 436.80511856 C299.48855976 436.76449629 291.83184317 436.77782874 284.17412329 436.81026999 C277.95093684 436.83558366 271.72802635 436.84101364 265.50479698 436.83220863 C264.1764415 436.83034322 264.1764415 436.83034322 262.82125056 436.82844013 C261.02225407 436.82581518 259.22325766 436.82313876 257.42426133 436.82041141 C240.55326525 436.79706572 223.68282008 436.83425419 206.81193566 436.89263096 C192.3345541 436.94139578 177.85787503 436.94066268 163.38046837 436.90315628 C146.57009901 436.85964145 129.76013357 436.84506323 112.9497261 436.87792796 C111.1573328 436.88136511 109.36493943 436.88477169 107.57254601 436.88814735 C106.69064492 436.88983082 105.80874383 436.89151429 104.90011847 436.89324877 C98.68411289 436.90317372 92.46833543 436.8925742 86.25235558 436.87420464 C78.67732893 436.8524536 71.10316154 436.86297589 63.52826738 436.9147834 C59.66281651 436.94043321 55.79875519 436.95169804 51.93328667 436.92399597 C47.74369908 436.8944706 43.55768561 436.93460384 39.36826134 436.98184586 C38.14472765 436.96245148 36.92119396 436.9430571 35.6605835 436.92307502 C28.25332788 437.08195748 25.14293161 438.20286128 21.60765076 444.88838023 Z M2.53867149 479.13142776 C2.43961997 480.96715407 2.41067942 482.80670352 2.40927696 484.64509964 C2.4061248 485.82302078 2.40297264 487.00094193 2.39972496 488.21455765 C2.40174919 489.49681229 2.40377342 490.77906693 2.40585899 492.10017776 C2.40490227 493.40595779 2.40394554 494.71173782 2.40295982 496.05708694 C2.40148316 498.82455499 2.40363638 501.5919908 2.4083004 504.35945511 C2.41399769 507.91405426 2.41071851 511.46857791 2.40472794 515.02317429 C2.40025403 518.4030149 2.40338263 521.782835 2.40585899 525.16267776 C2.40383476 526.4449324 2.40181053 527.72718704 2.39972496 529.04829788 C2.40287712 530.22621902 2.40602928 531.40414017 2.40927696 532.61775589 C2.41007256 533.66064774 2.41086815 534.70353958 2.41168785 535.77803421 C2.27361743 538.08903412 2.27361743 538.08903412 3.53867149 539.13142776 C5.16374769 539.24052558 6.79352699 539.28048889 8.42221642 539.29256058 C9.46387459 539.30216812 10.50553276 539.31177567 11.57875633 539.32167435 C13.28174637 539.32804916 13.28174637 539.32804916 15.01914024 539.33455276 C16.17988564 539.34025284 17.34063103 539.34595291 18.53655052 539.35182571 C21.00054571 539.36129518 23.46455368 539.36781738 25.92856407 539.37166214 C29.692707 539.38134171 33.45629811 539.4123368 37.22031212 539.44392776 C39.61158491 539.45046007 42.00286162 539.45570964 44.39414024 539.45955276 C45.51934578 539.47189957 46.64455132 539.48424637 47.80385399 539.49696732 C53.44371265 539.48096063 57.72402638 539.42818415 62.53867149 536.13142776 C65.14879228 533.53464261 65.14879228 533.53464261 67.41367149 530.56892776 C68.19484337 529.5982637 68.97601524 528.62759964 69.78085899 527.62752151 C71.7305977 525.36771442 71.7305977 525.36771442 71.53867149 523.13142776 C77.23974394 520.82018218 81.79264041 519.98127909 87.93190575 519.97752762 C88.79862115 519.97314536 89.66533655 519.96876311 90.55831605 519.96424806 C93.47388918 519.95085191 96.38943208 519.94467935 99.30502892 519.93855667 C101.39098815 519.93065634 103.47694602 519.92238744 105.56290245 519.9137764 C112.42330175 519.88754812 119.28370719 519.87224788 126.14414024 519.85799026 C128.5049477 519.8526309 130.86575512 519.8472534 133.2265625 519.84185791 C143.04631045 519.82022795 152.86605674 519.80149095 162.68582249 519.79023552 C176.76301499 519.77399464 190.83993155 519.74081451 204.91702002 519.68383467 C214.8126651 519.6451445 224.70823635 519.6256039 234.60395509 519.62031496 C240.51536051 519.61666025 246.42647166 519.60462584 252.33779526 519.57221222 C257.90039397 519.54214821 263.46252011 519.53581406 269.02518272 519.54759598 C271.06495296 519.54781685 273.10474502 519.5395006 275.1444397 519.52194214 C277.9337004 519.49924138 280.72124876 519.50754969 283.51051903 519.52342606 C284.31394192 519.50954397 285.11736482 519.49566188 285.94513386 519.48135912 C292.68226576 519.57556633 297.35543108 522.12194939 302.21991223 526.72089541 C303.65533717 528.21033421 305.01006043 529.74424148 306.35117149 531.31892776 C310.72817622 536.88765634 310.72817622 536.88765634 317.02541161 539.3719368 C318.01358376 539.36749557 319.00175591 539.36305435 320.01987267 539.35847855 C321.15646324 539.35823685 322.29305382 539.35799515 323.46408653 539.35774612 C325.25477562 539.34239822 325.25477562 539.34239822 327.08164024 539.32674026 C328.17947838 539.3247261 329.27731651 539.32271194 330.40842247 539.32063675 C334.51438124 539.31016273 338.62028051 539.2822402 342.72617149 539.25642776 C351.90429649 539.21517776 361.08242149 539.17392776 370.53867149 539.13142776 C370.53867149 519.00142776 370.53867149 498.87142776 370.53867149 478.13142776 C323.80206323 478.10884437 277.06545626 478.0909306 230.32884363 478.08036244 C224.81732465 478.07911165 219.30580569 478.07781734 213.79428673 478.07649612 C212.69699342 478.07623381 211.59970011 478.0759715 210.46915548 478.07570124 C192.6771818 478.07134409 174.88521133 478.0634563 157.09323955 478.05427497 C138.85144475 478.04493968 120.60965163 478.03937242 102.36785454 478.03733927 C91.10208612 478.03596378 79.83632679 478.03161181 68.57056116 478.0235113 C60.85632625 478.01824537 53.14209607 478.01662312 45.42785949 478.01792639 C40.97011781 478.01857001 36.51239205 478.01754955 32.05465317 478.01222229 C27.98057791 478.00738878 23.90652944 478.00708879 19.83245301 478.01052887 C18.35195994 478.01095461 16.87146527 478.00965847 15.39097542 478.00654458 C13.39175223 478.0025813 11.39251904 478.00527109 9.39329433 478.00837994 C8.27881517 478.00800022 7.164336 478.0076205 6.01608473 478.00722927 C3.59559748 477.85089664 3.59559748 477.85089664 2.53867149 479.13142776 Z " fill="#000000" transform="translate(147.46132850646973,91.86857223510742)"/>
<path d="M0 0 C9.8394558 7.6016629 17.36543552 20.66935337 19 33 C20.50025833 49.79348997 16.506778 64.92052909 5.8125 78.25 C-2.86459132 87.55503872 -16.40190556 94.26075283 -29.09375 95.23828125 C-44.47363687 95.57339346 -58.7356194 90.61451248 -70 80 C-81.74646351 66.41551073 -86.08429586 51.77879633 -85.1953125 34.16210938 C-84.01259643 21.06944246 -75.63137637 8.47183862 -65.7890625 0.125 C-45.09353763 -15.4133876 -20.79784472 -14.32806063 0 0 Z M-62 9 C-62.64710938 9.52335937 -63.29421875 10.04671875 -63.9609375 10.5859375 C-70.43970357 16.38570625 -75.38995552 25.35900951 -76.19287109 34.09960938 C-76.76977238 50.1689325 -74.65453757 60.94129007 -63.73828125 73.296875 C-55.06731312 81.85651829 -45.12163061 85.98397966 -33 86.375 C-19.36533357 86.00314546 -8.7482139 80.43254971 0.59179688 70.67675781 C9.72209839 59.80524068 11.12107791 46.63316265 10 33 C9.16634415 29.00321569 7.84920691 25.62885117 6 22 C5.59910156 21.15179688 5.19820313 20.30359375 4.78515625 19.4296875 C-0.27749647 9.83265887 -8.57488193 3.31743395 -18.7109375 -0.34375 C-34.42977784 -4.85017522 -49.51735033 -1.36545114 -62 9 Z " fill="#000000" transform="translate(367,152)"/>
<path d="M0 0 C5.58741417 3.88107811 9.61435799 8.1802315 11 15 C11.64893693 22.44681728 11.63290343 28.87305375 7 35 C2.61873608 39.98283642 -2.45442105 42.8558988 -9 44 C-16.05166851 44.28831353 -22.44232594 42.17132032 -27.7265625 37.4609375 C-32.01289936 32.83676128 -34.7886327 27.95833299 -35.12890625 21.5859375 C-34.74003953 13.97357684 -31.85602806 7.31340683 -26.1875 2.125 C-17.70881304 -3.52745798 -9.25306454 -4.87194754 0 0 Z M-24 11 C-27.03876373 15.61053808 -27.78560573 19.61913885 -27 25 C-25.28271412 29.69994029 -23.13393334 32.20959499 -19 35 C-14.93268603 36.35577132 -11.25292704 36.53161588 -7 36 C-2.13365483 33.42910066 2.22361005 30.32916985 4 25 C4.6184788 19.94614463 4.78597447 15.44261321 1.9375 11.0625 C-0.926183 7.61306366 -3.74681641 6.31462038 -8 5 C-14.4498068 5 -19.38163142 6.38163142 -24 11 Z " fill="#000000" transform="translate(191,152)"/>
<path d="M0 0 C4.86601402 4.14574344 8.14659486 9.67484508 9.26953125 15.99609375 C9.26953125 24.61943844 7.29469525 30.62287696 1.26953125 36.93359375 C-5.42934786 42.15871945 -11.42844716 42.58126919 -19.73046875 41.93359375 C-26.29632317 40.38077529 -30.15200026 36.12591109 -33.98046875 30.80859375 C-37.60714941 24.85047552 -37.52021581 18.73161254 -36.73046875 11.93359375 C-34.01324887 4.32122967 -28.90206757 -0.53276392 -21.73046875 -4.06640625 C-14.04205949 -6.60902978 -6.55180742 -4.3025255 0 0 Z M-28.16796875 10.05859375 C-30.38857085 14.52863693 -30.52778837 19.06108498 -29.73046875 23.93359375 C-27.54610721 28.30231683 -24.92694857 31.41570586 -20.73046875 33.93359375 C-15.93226916 35.3583465 -11.99802694 35.41063538 -7.41796875 33.30859375 C-3.38528991 30.99502501 -0.81316952 28.0989953 1.26953125 23.93359375 C1.78801684 18.73173837 1.88971138 14.29799004 -0.29296875 9.49609375 C-4.4880083 5.08592397 -8.16940943 2.74335828 -14.23046875 2.43359375 C-20.60926819 2.77046391 -24.28273002 5.07751845 -28.16796875 10.05859375 Z " fill="#000000" transform="translate(252.73046875,154.06640625)"/>
<path d="M0 0 C5.41022562 3.77802675 8.9642339 9.00187342 10.8515625 15.29296875 C11.93946304 23.24673051 10.58119425 28.83044162 5.8515625 35.29296875 C1.78499761 40.21565257 -2.42349218 42.77227747 -8.69140625 43.6484375 C-15.77892648 44.01830809 -21.44450319 42.60837965 -27.1484375 38.29296875 C-32.3031705 32.48722392 -35.48893119 26.25974714 -35.0234375 18.41796875 C-34.01712556 10.80201703 -31.15670826 5.29648385 -25.0625 0.55078125 C-16.82429349 -4.86289731 -8.60592277 -4.74868647 0 0 Z M-22.65234375 8.765625 C-26.54652252 13.28109725 -27.50975316 16.10676424 -27.42578125 21.91015625 C-26.83027705 27.02645991 -24.29511231 30.20222929 -20.5859375 33.73046875 C-15.70064704 35.95105532 -11.4285289 36.04839166 -6.1484375 35.29296875 C-1.30018409 33.17736726 1.13128333 30.24971864 3.2109375 25.5 C4.3742553 21.49222832 4.23327926 18.22607339 2.8515625 14.29296875 C0.49484684 10.12943775 -2.14633401 7.15147073 -6.58984375 5.24609375 C-12.76644875 3.69958502 -17.86431293 4.07708573 -22.65234375 8.765625 Z " fill="#000000" transform="translate(500.1484375,152.70703125)"/>
<path d="M0 0 C4.87947835 3.52854839 8.00636411 8.72296965 9.890625 14.3671875 C10.85031966 21.73228607 9.933776 28.08966358 5.890625 34.3671875 C1.64043918 39.63459788 -2.22253122 42.8373949 -9.08984375 43.7734375 C-17.24648676 44.01187773 -22.88404909 42.8375765 -29.109375 37.3671875 C-33.86528838 31.81488297 -36.48861163 25.29154235 -35.984375 17.9296875 C-34.90660745 10.72824069 -31.92135609 5.14020159 -26.16015625 0.625 C-17.60052102 -4.62490961 -8.79520466 -4.74387023 0 0 Z M-24.859375 10.1171875 C-27.70024404 14.220665 -29.58347228 17.52749143 -28.73046875 22.63671875 C-27.27284858 27.6592614 -25.48733965 31.29329743 -21.109375 34.3671875 C-16.21990855 36.19652236 -11.76335296 36.94968029 -6.734375 35.3046875 C-1.50588368 32.87454365 0.70611351 29.23458038 2.765625 23.9921875 C4.11739258 19.52095629 3.8868084 16.69225153 1.890625 12.3671875 C-2.1194905 7.46593522 -6.26088788 4.67238255 -12.609375 3.9921875 C-18.05690785 4.57585173 -20.99904687 6.25685937 -24.859375 10.1171875 Z " fill="#000000" transform="translate(442.109375,152.6328125)"/>
<path d="M0 0 C8.84735627 5.00123152 15.05265794 12.59689893 18.16015625 22.3515625 C19.95064978 31.47015842 18.18318567 40.51010954 13.72265625 48.5390625 C12.40265625 48.5390625 11.08265625 48.5390625 9.72265625 48.5390625 C10.04621094 47.54777344 10.36976563 46.55648437 10.703125 45.53515625 C11.83093386 41.56937742 12.06958789 37.70974855 12.03515625 33.6015625 C12.0295166 32.89644531 12.02387695 32.19132812 12.01806641 31.46484375 C11.81259801 22.67649257 8.95525245 15.82538798 2.72265625 9.5390625 C-5.28178324 3.92483758 -12.59828423 2.69169724 -22.27734375 3.5390625 C-29.98755447 5.4475305 -36.61018761 9.13998679 -40.78125 16.01953125 C-44.71273037 23.96089759 -46.47957668 31.16159415 -43.96484375 39.7890625 C-43.41847768 41.37803538 -42.85722187 42.9620108 -42.27734375 44.5390625 C-41.88546875 45.7353125 -41.49359375 46.9315625 -41.08984375 48.1640625 C-40.82171875 48.9478125 -40.55359375 49.7315625 -40.27734375 50.5390625 C-42.75234375 51.0340625 -42.75234375 51.0340625 -45.27734375 51.5390625 C-50.97984977 44.03576511 -52.56649857 36.16164054 -52.15625 26.765625 C-50.81719102 18.01342506 -45.77914535 10.11476222 -39.41015625 4.07421875 C-27.65158978 -4.38936481 -13.0514695 -6.15602909 0 0 Z " fill="#000000" transform="translate(350.27734375,162.4609375)"/>
<path d="M0 0 C-0.59964357 2.92261237 -1.46670117 5.00076997 -3.14453125 7.4609375 C-3.57443359 8.09773437 -4.00433594 8.73453125 -4.44726562 9.390625 C-4.89779297 10.04546875 -5.34832031 10.7003125 -5.8125 11.375 C-6.47088867 12.34566406 -6.47088867 12.34566406 -7.14257812 13.3359375 C-8.01007553 14.61462609 -8.87998289 15.89168344 -9.75244141 17.16699219 C-10.93661612 18.90687159 -12.10168745 20.65802776 -13.26171875 22.4140625 C-15 25 -15 25 -16 26 C-22.2080292 26.45985401 -22.2080292 26.45985401 -24.9375 24.875 C-26.55824231 22.01486651 -26.51742613 20.23391331 -26 17 C-21.84555536 11.55624496 -15.54717161 7.90749295 -10 4 C-9.3709375 3.53722656 -8.741875 3.07445312 -8.09375 2.59765625 C-4.99617044 0.37719743 -4.00483007 0 0 0 Z " fill="#000000" transform="translate(352,175)"/>
<path d="M0 0 C94.05 0 188.1 0 285 0 C286 3 286 3 285 6 C248.85412793 6.04573766 212.70826092 6.08099896 176.5623659 6.10213066 C172.29890144 6.10463219 168.03543703 6.10722083 163.77197266 6.10986328 C162.92316268 6.1103879 162.07435271 6.11091252 161.19982122 6.11145304 C147.44039521 6.12016518 133.68098584 6.13593959 119.92156972 6.15430559 C105.81222627 6.17298217 91.70289156 6.18411196 77.59353626 6.18817699 C68.88124624 6.19092672 60.16900327 6.19962394 51.45672773 6.21583293 C45.48940723 6.22637217 39.52211119 6.22960761 33.55478205 6.22700275 C30.10749837 6.22571667 26.66029712 6.22774338 23.21302795 6.23841095 C19.48270068 6.24828237 15.75257881 6.24599755 12.02224731 6.24050903 C10.92304368 6.24633472 9.82384005 6.2521604 8.69132721 6.25816262 C7.69806077 6.25418052 6.70479433 6.25019842 5.68142891 6.24609566 C4.81946376 6.2468551 3.95749861 6.24761454 3.0694133 6.24839699 C1 6 1 6 -1 4 C-0.67 2.68 -0.34 1.36 0 0 Z " fill="#000000" transform="translate(192,536)"/>
<path d="M0 0 C1.04155823 -0.00583219 2.08311646 -0.01166439 3.15623707 -0.01767331 C4.30427265 -0.01389399 5.45230824 -0.01011467 6.63513279 -0.00622082 C7.8517724 -0.01004636 9.06841202 -0.01387191 10.3219195 -0.01781338 C13.70516215 -0.02636717 17.08818828 -0.02590198 20.47142494 -0.02163279 C24.11771129 -0.01917244 27.76397178 -0.0281711 31.41024876 -0.03567028 C38.55603388 -0.04843856 45.70178147 -0.05020833 52.84757607 -0.04787002 C58.65411131 -0.04608909 64.46063513 -0.04783165 70.267169 -0.05209446 C71.09266529 -0.05268965 71.91816157 -0.05328484 72.7686729 -0.05389806 C74.44551138 -0.05510978 76.12234985 -0.05632391 77.79918832 -0.05754044 C93.53489107 -0.06842416 109.27057241 -0.06624954 125.00627638 -0.06015559 C139.41083133 -0.05498556 153.81531867 -0.06624268 168.21986025 -0.08525381 C183.00054315 -0.10461226 197.78119404 -0.11289173 212.56188971 -0.10913056 C220.86409705 -0.1072155 229.16624684 -0.10973569 237.46844387 -0.1238451 C244.5360549 -0.13573451 251.60357294 -0.13719133 258.67118519 -0.12505493 C262.27876173 -0.11914902 265.88616801 -0.11811372 269.49373341 -0.13005733 C273.40057094 -0.14284169 277.30714791 -0.13249238 281.21399021 -0.11974621 C282.35979508 -0.12712049 283.50559995 -0.13449478 284.68612617 -0.14209253 C285.73029215 -0.13488598 286.77445813 -0.12767944 287.8502655 -0.12025452 C288.75237367 -0.12030953 289.65448184 -0.12036455 290.58392662 -0.12042123 C293.44390107 0.32555998 294.83855274 1.36399349 296.98805332 3.25447559 C296.65805332 4.24447559 296.32805332 5.23447559 295.98805332 6.25447559 C195.66805332 6.25447559 95.34805332 6.25447559 -8.01194668 6.25447559 C-8.01194668 4.93447559 -8.01194668 3.61447559 -8.01194668 2.25447559 C-4.73312534 0.0685947 -3.79888566 0.00365076 0 0 Z " fill="#000000" transform="translate(190.01194667816162,547.7455244064331)"/>
</svg>
