<?xml version="1.0" encoding="UTF-8"?>
<svg version="1.1" xmlns="http://www.w3.org/2000/svg" width="668" height="705">
<path d="M0 0 C8.17503505 4.43931206 12.90449311 9.79245963 16.21875 18.47265625 C17.86451595 27.00071618 17.10635487 34.2887887 12.90625 42.03515625 C10.18448116 45.37572866 7.30440496 48.37829764 3.90625 51.03515625 C3.24625 51.03515625 2.58625 51.03515625 1.90625 51.03515625 C2.89625 55.49015625 2.89625 55.49015625 3.90625 60.03515625 C4.55883789 60.0194458 5.21142578 60.00373535 5.88378906 59.98754883 C20.55123606 59.68315435 34.49820589 60.21931881 48.90625 63.03515625 C49.99679687 63.22851562 51.08734375 63.421875 52.2109375 63.62109375 C70.79489108 67.49904612 88.96572652 78.8422367 100.09375 94.22265625 C104.08532406 100.45079593 106.90625 107.60522352 106.90625 115.03515625 C107.793125 115.11765625 108.68 115.20015625 109.59375 115.28515625 C113.48310141 116.16576412 115.13177402 117.18569443 117.90625 120.03515625 C120.83974025 125.29520772 121.46517044 129.16649165 120.90625 135.03515625 C119.62533207 138.36554287 118.71906802 140.43387786 115.83496094 142.56738281 C112.78889039 146.4648108 113.30301176 150.45619851 113.296875 155.26953125 C113.28033875 156.26269348 113.26380249 157.25585571 113.24676514 158.27911377 C113.19822231 161.44785711 113.17689988 164.61612031 113.15625 167.78515625 C113.12809563 169.93492007 113.09816896 172.08466146 113.06640625 174.234375 C112.99246204 179.50121473 112.94085634 184.76791909 112.90625 190.03515625 C113.4577774 190.03122864 114.00930481 190.02730103 114.57754517 190.02325439 C135.1861487 189.89580012 135.1861487 189.89580012 143.28125 190.78515625 C144.10592773 190.87458496 144.93060547 190.96401367 145.78027344 191.05615234 C164.38627415 193.27598077 180.01856316 200.65952912 193.90625 213.03515625 C195.16308594 214.01162109 195.16308594 214.01162109 196.4453125 215.0078125 C221.41389482 235.57716841 230.14279728 274.5882709 233.22265625 305.17773438 C233.53556293 308.56623649 233.82237431 311.95558179 234.09375 315.34765625 C234.17778076 316.39638916 234.26181152 317.44512207 234.34838867 318.52563477 C237.35283021 360.07137713 232.49830158 409.461539 206.90625 444.03515625 C206.24625 444.03515625 205.58625 444.03515625 204.90625 444.03515625 C204.63329102 444.63046143 204.36033203 445.2257666 204.07910156 445.83911133 C195.22782596 462.41222208 173.42856928 473.33633916 156.41015625 479.25 C148.90322613 481.50804368 141.31268303 483.00075301 133.59765625 484.32421875 C129.92623953 484.95276084 129.92623953 484.95276084 126.55859375 486.12109375 C121.93902576 487.27722093 117.63992474 487.20659719 112.90625 487.03515625 C112.92196045 487.83099121 112.9376709 488.62682617 112.95385742 489.44677734 C113.01675425 493.10116282 113.05541375 496.75543386 113.09375 500.41015625 C113.13145508 502.28767578 113.13145508 502.28767578 113.16992188 504.203125 C113.26627204 516.47171266 110.83660406 527.08817007 102.71875 536.59765625 C100.90625 538.03515625 100.90625 538.03515625 98.90625 538.03515625 C99.1736499 538.6492334 99.4410498 539.26331055 99.71655273 539.89599609 C100.94005586 542.72805614 102.14193108 545.56883019 103.34375 548.41015625 C103.76462891 549.37566406 104.18550781 550.34117187 104.61914062 551.3359375 C107.56340084 558.35505385 109.90601184 565.33627559 108.28125 572.97265625 C105.84259658 576.63063638 102.61199999 577.84115484 98.453125 578.984375 C94.6098979 579.73166916 90.77091048 580.40867445 86.90625 581.03515625 C86.07351563 581.21304688 85.24078125 581.3909375 84.3828125 581.57421875 C79.78920626 582.17189986 77.16543231 580.79396582 73.46850586 578.06030273 C71.19013452 576.2721835 68.96802272 574.42194772 66.75097656 572.55859375 C63.48665552 569.86280718 60.10205735 567.32875504 56.71875 564.78515625 C56.09025146 564.30272461 55.46175293 563.82029297 54.81420898 563.32324219 C53.57223156 562.3836104 52.31400413 561.46501646 51.03939819 560.57014465 C48.90625 559.03515625 48.90625 559.03515625 47.10734558 557.48008728 C38.26031806 550.79884569 27.24509552 552.02936364 16.6875 551.9921875 C14.50288181 551.97032638 12.31827072 551.94774598 10.13366699 551.92448425 C5.56094898 551.88415244 0.98890209 551.86893482 -3.58398438 551.8684082 C-9.39754114 551.86344541 -15.20607879 551.77134502 -21.01836395 551.6565752 C-25.53149523 551.58172451 -30.04345137 551.56701425 -34.55714417 551.56812096 C-36.69718192 551.55928994 -38.83725353 551.52961621 -40.97666931 551.47727394 C-56.50074118 551.13099868 -65.65600186 554.22485931 -77.38174438 564.53172874 C-79.52011114 566.4095727 -81.76096979 568.13300158 -84.03125 569.84765625 C-86.29872961 571.61371669 -88.53688562 573.40085701 -90.75390625 575.23046875 C-99.53878401 582.16653454 -99.53878401 582.16653454 -105.3671875 581.5625 C-106.26695312 581.38847656 -107.16671875 581.21445312 -108.09375 581.03515625 C-108.7424707 580.92059082 -109.39119141 580.80602539 -110.05957031 580.68798828 C-112.32938194 580.27607444 -114.58599897 579.82110965 -116.84375 579.34765625 C-117.5773877 579.19973633 -118.31102539 579.05181641 -119.06689453 578.89941406 C-123.98228376 577.74668507 -127.10040456 576.34250962 -130.09375 572.03515625 C-130.90080266 565.8541577 -129.42347549 561.08506979 -127.21875 555.34765625 C-126.94933594 554.61482422 -126.67992187 553.88199219 -126.40234375 553.12695312 C-125.28834639 550.11372612 -124.13328199 547.13011054 -122.8984375 544.1640625 C-121.78754664 541.22505512 -121.97029121 539.98423556 -123.09375 537.03515625 C-123.98585671 536.0131859 -124.90649807 535.01588894 -125.84375 534.03515625 C-135.31797121 523.5564393 -135.250423 509.09600239 -135.22073364 495.80583191 C-135.22229363 494.71867411 -135.22385362 493.63151632 -135.22546089 492.51141435 C-135.22942909 488.89195424 -135.22629754 485.27253655 -135.22314453 481.65307617 C-135.22450038 479.04890926 -135.22628136 476.44474253 -135.22845459 473.84057617 C-135.23288777 467.51692057 -135.23194696 461.19327688 -135.22904195 454.86962082 C-135.22677927 449.73069443 -135.22647914 444.59177137 -135.22756577 439.45284462 C-135.227719 438.7201724 -135.22787223 437.98750019 -135.22803011 437.23262579 C-135.22834984 435.74406478 -135.22867406 434.25550378 -135.2290027 432.76694278 C-135.23185005 418.82954649 -135.22858164 404.8921568 -135.22320233 390.9547616 C-135.21873029 378.99758843 -135.21951497 367.04042496 -135.22412109 355.08325195 C-135.22947195 341.18637584 -135.23158035 327.28950549 -135.22850883 313.39262849 C-135.22819029 311.91121535 -135.22787592 310.4298022 -135.22756577 308.94838905 C-135.22733435 307.85513538 -135.22733435 307.85513538 -135.22709826 306.73979577 C-135.22623499 301.60488693 -135.22769181 296.46998175 -135.23004532 291.33507347 C-135.2331416 284.42808994 -135.23093924 277.52112509 -135.22515106 270.61414337 C-135.22382637 268.07645765 -135.22421267 265.53877039 -135.22641373 263.00108528 C-135.22913643 259.54388994 -135.2257303 256.08675392 -135.22073364 252.62956238 C-135.22296436 251.61984648 -135.22519509 250.61013059 -135.22749341 249.56981725 C-135.22358178 248.17948512 -135.22358178 248.17948512 -135.21959114 246.76106548 C-135.21942879 245.96337771 -135.21926644 245.16568994 -135.21909916 244.34382981 C-135.08271452 241.83190534 -134.64121547 239.48765269 -134.09375 237.03515625 C-135.0425 237.07640625 -135.99125 237.11765625 -136.96875 237.16015625 C-140.09375 237.03515625 -140.09375 237.03515625 -142.09375 235.03515625 C-142.33425903 233.16220093 -142.33425903 233.16220093 -142.32080078 230.86083984 C-142.32064972 230.00009857 -142.32049866 229.1393573 -142.32034302 228.25253296 C-142.31002045 227.32228302 -142.29969788 226.39203308 -142.2890625 225.43359375 C-142.2862326 224.48199371 -142.28340271 223.53039368 -142.28048706 222.54995728 C-142.26926989 219.50323033 -142.24416263 216.45679471 -142.21875 213.41015625 C-142.20872218 211.34766049 -142.19959599 209.28516013 -142.19140625 207.22265625 C-142.16932554 202.16004358 -142.1347853 197.09764935 -142.09375 192.03515625 C-140.11375 191.70515625 -138.13375 191.37515625 -136.09375 191.03515625 C-141.09862226 177.60593379 -148.83395484 172.58484331 -161.38061523 166.81030273 C-162.75336837 166.1891696 -164.1333809 165.58409059 -165.515625 164.984375 C-167.09375 164.03515625 -167.09375 164.03515625 -168.15625 161.22265625 C-168.09375 158.03515625 -168.09375 158.03515625 -165.96875 155.41015625 C-164.545625 154.23453125 -164.545625 154.23453125 -163.09375 153.03515625 C-162.35640625 152.41125 -161.6190625 151.78734375 -160.859375 151.14453125 C-157.70417501 148.73802278 -154.43349555 146.82853116 -150.96875 144.91015625 C-147.61313146 143.03352135 -144.29584125 141.16988375 -141.09375 139.03515625 C-141.58875 138.04515625 -141.58875 138.04515625 -142.09375 137.03515625 C-143.78087298 131.97378731 -143.71520395 127.79594245 -141.96875 122.84765625 C-139.6483735 119.36709149 -137.50307257 117.47038666 -134.09375 115.03515625 C-133.4028125 114.92171875 -132.711875 114.80828125 -132 114.69140625 C-131.3709375 114.47484375 -130.741875 114.25828125 -130.09375 114.03515625 C-129.05510798 111.92263467 -129.05510798 111.92263467 -128.53125 109.34765625 C-125.69827013 97.75179456 -117.76027958 86.98494876 -108.09375 80.03515625 C-107.42988281 79.54789062 -106.76601562 79.060625 -106.08203125 78.55859375 C-85.29661186 64.0050685 -61.31986078 59.77432377 -36.40625 59.97265625 C-34.76366211 59.97942383 -34.76366211 59.97942383 -33.08789062 59.98632812 C-30.42311691 59.99796469 -27.75846483 60.01431061 -25.09375 60.03515625 C-24.48622529 54.09198515 -24.48622529 54.09198515 -26.703125 48.8359375 C-27.40953125 48.34480469 -28.1159375 47.85367188 -28.84375 47.34765625 C-34.68095599 42.86146437 -37.63482297 38.32979142 -39.09375 31.03515625 C-40.09058557 22.07873972 -37.96100391 14.37111393 -32.40625 7.22265625 C-24.15828466 -1.67757166 -11.23115845 -4.94815383 0 0 Z M-25.40625 14.53515625 C-29.27137223 19.16112931 -29.44079767 23.37931318 -29.37109375 29.2421875 C-28.94284172 33.55486638 -27.75864226 35.59884781 -25.09375 39.03515625 C-18.92789929 43.81683639 -13.72239457 44.83757664 -6.09375 44.03515625 C-1.46125327 42.65408823 1.29112541 40.79223267 4.34375 37.03515625 C7.07597895 31.78927668 7.44701344 26.8815232 6.90625 21.03515625 C5.092284 15.59325826 1.52362362 12.25682375 -3.09375 9.03515625 C-11.69526005 6.16798623 -19.35137944 7.76457995 -25.40625 14.53515625 Z M-14.09375 54.03515625 C-14.42375 56.34515625 -14.75375 58.65515625 -15.09375 61.03515625 C-10.63875 60.54015625 -10.63875 60.54015625 -6.09375 60.03515625 C-6.42375 58.05515625 -6.75375 56.07515625 -7.09375 54.03515625 C-9.40375 54.03515625 -11.71375 54.03515625 -14.09375 54.03515625 Z M-104.09375 89.03515625 C-104.09375 89.69515625 -104.09375 90.35515625 -104.09375 91.03515625 C-104.66996094 91.26847656 -105.24617188 91.50179687 -105.83984375 91.7421875 C-112.2143442 95.39896332 -116.89200829 103.1547134 -119.09375 110.03515625 C-119.09375 111.35515625 -119.09375 112.67515625 -119.09375 114.03515625 C-12.17375 114.53015625 -12.17375 114.53015625 96.90625 115.03515625 C93.95362359 101.74833741 88.06697234 92.40882488 76.56640625 84.8359375 C61.12095354 75.53813959 43.50793622 69.90010211 25.40087891 69.87402344 C24.56738922 69.86905853 23.73389954 69.86409363 22.87515259 69.85897827 C20.12769732 69.84442126 17.38029995 69.83756256 14.6328125 69.83203125 C13.68741985 69.82920387 12.74202721 69.8263765 11.7679863 69.82346344 C6.75694247 69.80849063 1.74592725 69.79925133 -3.26513672 69.79492188 C-8.39994043 69.78946512 -13.53447523 69.76549107 -18.66919518 69.73694992 C-22.65191362 69.71816206 -26.63456966 69.71310926 -30.61732864 69.711586 C-32.5076404 69.70859111 -34.39795191 69.70067204 -36.28821945 69.68740082 C-59.98604964 69.53300807 -85.14932837 73.53517492 -104.09375 89.03515625 Z M-133.09375 127.03515625 C-133.67708333 130.03515625 -133.67708333 130.03515625 -133.09375 133.03515625 C-131.56983162 135.02783186 -130.68289898 135.91825711 -128.19854355 136.41120374 C-127.47832142 136.4116908 -126.75809929 136.41217786 -126.01605225 136.41267967 C-124.76629545 136.42441454 -124.76629545 136.42441454 -123.49129105 136.43638647 C-122.57603024 136.4296943 -121.66076942 136.42300214 -120.71777344 136.41610718 C-119.25927538 136.42312714 -119.25927538 136.42312714 -117.77131271 136.43028891 C-114.49844657 136.44229813 -111.22599458 136.43275845 -107.953125 136.42333984 C-105.61274978 136.42740291 -103.27237648 136.43274328 -100.93200684 136.43927002 C-94.56436996 136.45298093 -88.19687841 136.44762936 -81.82923889 136.43813276 C-75.84991992 136.43132301 -69.87061448 136.43651204 -63.89129591 136.44091435 C-51.32694321 136.44947371 -38.76265613 136.43962556 -26.19831419 136.42351325 C-15.41212451 136.41010955 -4.62603168 136.41243749 6.16015625 136.42626953 C18.67883779 136.44231572 31.1974618 136.44864969 43.71615219 136.43943274 C50.34549578 136.43468466 56.97478531 136.43415531 63.60412598 136.44404221 C69.83557298 136.45268594 76.06683645 136.44673741 82.29826355 136.42935944 C84.59005935 136.42538071 86.88187051 136.42655216 89.17366028 136.43314743 C92.29274236 136.44129827 95.41122965 136.43111958 98.53027344 136.41610718 C99.44553425 136.42279934 100.36079506 136.42949151 101.30379105 136.43638647 C102.13696224 136.42856322 102.97013344 136.42073998 103.82855225 136.41267967 C104.54877438 136.41219262 105.26899651 136.41170556 106.01104355 136.41120374 C108.49549317 135.91823843 109.38510328 135.03033238 110.90625 133.03515625 C111.44652443 128.92431844 111.44652443 128.92431844 109.63651794 125.37125146 C107.52480069 123.74060499 106.49155969 123.65943019 103.84696293 123.65763283 C102.60335628 123.64589796 102.60335628 123.64589796 101.33462626 123.63392603 C99.96859464 123.64396428 99.96859464 123.64396428 98.57496643 123.65420532 C97.12365205 123.64718536 97.12365205 123.64718536 95.64301819 123.64002359 C92.38630488 123.62801452 89.13000778 123.63755401 85.87329102 123.64697266 C83.54439039 123.64290956 81.2154917 123.63756916 78.88659668 123.63104248 C72.54988317 123.61733121 66.21331571 123.62268348 59.87659955 123.63217974 C53.92533033 123.63899009 47.97407941 123.63380017 42.02280974 123.62939815 C29.51613068 123.62083852 17.00951752 123.630687 4.50284927 123.64679925 C-6.23128781 123.66019984 -16.96532757 123.65787762 -27.69946289 123.64404297 C-40.15919045 123.62799185 -52.61886019 123.62166585 -65.07859665 123.63087976 C-71.67611883 123.63556336 -78.27357394 123.63616233 -84.87109184 123.62627029 C-91.07381507 123.61762048 -97.27635405 123.62358633 -103.47905731 123.64095306 C-105.75914516 123.64492869 -108.03924845 123.64376558 -110.31933022 123.63716507 C-113.42492559 123.629002 -116.52992564 123.63920803 -119.63548279 123.65420532 C-120.99816832 123.64416707 -120.99816832 123.64416707 -122.38838285 123.63392603 C-128.39427835 123.59279666 -128.39427835 123.59279666 -133.09375 127.03515625 Z M-6.09375 145.03515625 C-6.09375 159.88515625 -6.09375 174.73515625 -6.09375 190.03515625 C30.20625 190.03515625 66.50625 190.03515625 103.90625 190.03515625 C103.90625 175.51515625 103.90625 160.99515625 103.90625 146.03515625 C100.37023143 145.32795254 97.80180156 144.91073044 94.31877136 144.91490173 C92.98323212 144.91283974 92.98323212 144.91283974 91.62071228 144.91073608 C90.65686111 144.91433136 89.69300995 144.91792664 88.69995117 144.92163086 C87.67509613 144.92148483 86.65024109 144.92133881 85.59432983 144.92118835 C82.21260448 144.92188407 78.83093446 144.92966055 75.44921875 144.9375 C73.10223928 144.93936539 70.75525942 144.94078872 68.40827942 144.94178772 C62.23514732 144.94560336 56.0620388 144.95542554 49.88891602 144.9664917 C43.58805663 144.97672629 37.28719343 144.98128973 30.98632812 144.98632812 C18.62629006 144.99704864 6.26627568 145.01463776 -6.09375 145.03515625 Z M-139.71875 149.91015625 C-140.35941406 150.26207031 -141.00007813 150.61398438 -141.66015625 150.9765625 C-142.89847066 151.65776204 -144.13103945 152.34955481 -145.35644531 153.05371094 C-147.88535819 154.4823548 -150.48539615 155.75906929 -153.09375 157.03515625 C-153.09375 157.69515625 -153.09375 158.35515625 -153.09375 159.03515625 C-150.93070347 160.48118736 -148.76299716 161.82863796 -146.53125 163.16015625 C-137.02097391 169.10124943 -132.12889588 174.75717356 -128.13671875 185.3984375 C-127.13485683 188.20074026 -127.13485683 188.20074026 -125.09375 191.03515625 C-123.07681321 191.46517083 -123.07681321 191.46517083 -120.71517944 191.35795593 C-119.79528732 191.35366577 -118.8753952 191.34937561 -117.92762756 191.34495544 C-116.91558762 191.32481888 -115.90354767 191.30468231 -114.86083984 191.28393555 C-113.7974086 191.27462006 -112.73397736 191.26530457 -111.63832092 191.25570679 C-108.11012533 191.22122889 -104.58260222 191.16535226 -101.0546875 191.109375 C-98.61375373 191.08135396 -96.17280437 191.05466228 -93.73184204 191.0292511 C-87.2970646 190.95867385 -80.86265797 190.86997433 -74.42816162 190.77758789 C-67.8662982 190.68655065 -61.3042457 190.61253116 -54.7421875 190.53710938 C-41.85911711 190.38651262 -28.97644237 190.21521248 -16.09375 190.03515625 C-15.76375 175.51515625 -15.43375 160.99515625 -15.09375 146.03515625 C-18.46922143 145.36006196 -20.89258476 144.91001612 -24.19392395 144.90817261 C-25.36856705 144.90394287 -25.36856705 144.90394287 -26.56694031 144.89962769 C-27.41214737 144.90165192 -28.25735443 144.90367615 -29.12817383 144.90576172 C-30.02979248 144.9040094 -30.93141113 144.90225708 -31.86035156 144.90045166 C-34.84051442 144.89605262 -37.82061779 144.89896704 -40.80078125 144.90234375 C-42.88522859 144.90166951 -44.96967585 144.90069847 -47.05412292 144.89944458 C-51.42956285 144.8979697 -55.80498237 144.90011305 -60.18041992 144.90478516 C-65.74673778 144.91044342 -71.31300699 144.90722706 -76.87932301 144.90121269 C-81.19059096 144.89756805 -85.50184775 144.8987641 -89.81311607 144.90134048 C-91.86250502 144.90200104 -93.91189503 144.90121232 -95.96128273 144.89886093 C-118.63459308 143.71477153 -118.63459308 143.71477153 -139.71875 149.91015625 Z M-133.09375 200.03515625 C-133.09375 209.27515625 -133.09375 218.51515625 -133.09375 228.03515625 C-100.36225797 228.10299051 -67.63079301 228.15669327 -34.8992469 228.18835224 C-31.03406813 228.19210431 -27.1688895 228.19598728 -23.30371094 228.19995117 C-22.53423081 228.2007381 -21.76475068 228.20152503 -20.97195297 228.20233581 C-8.51633894 228.21538599 3.93923352 228.2390377 16.3948229 228.26661464 C29.17755921 228.29467963 41.96027375 228.31133482 54.74303961 228.31742173 C62.62925832 228.32153591 70.51535948 228.33452531 78.40154201 228.35890565 C84.45099067 228.37665382 90.50033844 228.37851911 96.54981613 228.37447929 C99.02980142 228.3753048 101.50979114 228.38127452 103.98974991 228.39277267 C107.37650885 228.40770528 110.76276549 228.40410661 114.14953613 228.3959198 C115.62037903 228.40902759 115.62037903 228.40902759 117.12093592 228.42240018 C124.44687079 228.37455768 130.24520477 227.46972954 135.84375 222.34765625 C138.27461341 218.44354229 139.33556473 215.62882391 138.90625 211.03515625 C137.66535575 206.7533051 136.26318378 203.9228503 132.47949791 201.44759655 C127.64080377 199.53494823 123.39489657 199.62941845 118.2381897 199.6743927 C117.16317243 199.67182943 116.08815516 199.66926615 114.98056161 199.6666252 C111.37832731 199.66168376 107.7765121 199.67818673 104.17431641 199.69458008 C101.59218353 199.69542627 99.01004993 199.69495136 96.42791748 199.69325256 C90.86874681 199.69168092 85.30968193 199.70107863 79.75053787 199.71796608 C71.7130063 199.74236641 63.67552579 199.7501624 55.63796119 199.75393005 C42.59699072 199.76049292 29.5560766 199.7804496 16.51513672 199.80883789 C3.84847292 199.83638273 -8.81817557 199.85761423 -21.48486328 199.87036133 C-22.65638803 199.87154358 -22.65638803 199.87154358 -23.85157995 199.87274972 C-27.76978272 199.87666489 -31.68798559 199.880456 -35.60618854 199.88418543 C-68.10208508 199.91527621 -100.59790599 199.96893422 -133.09375 200.03515625 Z M144.90625 201.03515625 C145.23109375 201.89238281 145.5559375 202.74960937 145.890625 203.6328125 C146.92718787 207.10529811 147.17358877 209.86185645 147.15625 213.47265625 C147.16140625 214.54386719 147.1665625 215.61507812 147.171875 216.71875 C146.87413665 220.43610091 146.03556809 223.49035224 144.90625 227.03515625 C146.68128906 227.56302734 146.68128906 227.56302734 148.4921875 228.1015625 C164.64727388 233.07341044 176.84521001 240.25311108 185.12548828 255.6315918 C205.76575833 296.25215168 205.970771 355.61652712 192.32519531 398.44750977 C185.78463057 417.47699587 174.88587699 432.55610444 157.09375 442.49609375 C149.20344962 446.30587114 141.58156575 447.95074178 132.90625 449.03515625 C132.90625 457.28515625 132.90625 465.53515625 132.90625 474.03515625 C152.3917235 471.6268393 170.02424794 465.08865293 184.90625 452.03515625 C186.00839844 451.16503906 186.00839844 451.16503906 187.1328125 450.27734375 C212.39214844 429.65929922 220.57221248 393.83898559 224.21875 363.03515625 C228.61980748 318.82941261 224.91192925 265.17928647 196.46875 229.09765625 C183.46182987 214.1464027 168.20507301 205.26474411 148.90625 201.03515625 C147.58625 201.03515625 146.26625 201.03515625 144.90625 201.03515625 Z M119.09179688 236.54345703 C117.35005188 236.68087814 117.35005188 236.68087814 115.57312012 236.82107544 C114.69305298 236.89172211 113.81298584 236.96236877 112.90625 237.03515625 C112.8829242 262.96426133 112.8652724 288.89336485 112.85443783 314.82247829 C112.84927419 326.8609038 112.84223021 338.89932281 112.83081055 350.93774414 C112.82086577 361.42633269 112.81439707 371.91491654 112.81216151 382.40350968 C112.81085405 387.96082489 112.80776598 393.51812663 112.80051994 399.07543755 C112.79376298 404.29968385 112.79163237 409.52391105 112.79314232 414.74816132 C112.79286584 416.67152319 112.79085881 418.59488567 112.78704453 420.51824379 C112.78211233 423.1322172 112.78324994 425.74611726 112.78599548 428.36009216 C112.78308264 429.13147803 112.7801698 429.9028639 112.77716869 430.6976251 C112.47307724 434.15638476 112.47307724 434.15638476 113.90625 437.03515625 C116.40689649 437.4090847 118.89618578 437.74039641 121.40625 438.03515625 C128.77111486 438.90002111 128.77111486 438.90002111 129.90625 440.03515625 C141.67425204 440.89101094 152.47507392 436.12998405 161.61328125 428.890625 C164.12790645 426.67760403 166.5337435 424.39927933 168.90625 422.03515625 C169.47085938 421.49375 170.03546875 420.95234375 170.6171875 420.39453125 C191.44555909 398.57433244 192.4411952 357.50020565 192.1171875 329.43359375 C191.43451556 302.15200039 188.27718803 268.61637726 168.1953125 248.0859375 C158.47975205 239.38172379 148.39732331 235.84387526 135.40625 235.91015625 C134.67921875 235.90628906 133.9521875 235.90242187 133.203125 235.8984375 C128.47693786 235.9065861 123.80342996 236.16892163 119.09179688 236.54345703 Z M-125.09375 237.03515625 C-125.09375 258.15515625 -125.09375 279.27515625 -125.09375 301.03515625 C-121.46375 301.03515625 -117.83375 301.03515625 -114.09375 301.03515625 C-114.07187622 298.9483252 -114.07187622 298.9483252 -114.04956055 296.81933594 C-113.99114824 291.60815004 -113.91392096 286.39737703 -113.83129883 281.18652344 C-113.79825008 278.94049837 -113.77015723 276.69439424 -113.74731445 274.44824219 C-113.71339706 271.20083232 -113.66106555 267.95413404 -113.60546875 264.70703125 C-113.59907883 263.71902527 -113.5926889 262.73101929 -113.58610535 261.71307373 C-113.4369439 254.47819323 -112.05645176 247.98350057 -110.09375 241.03515625 C-109.76375 239.71515625 -109.43375 238.39515625 -109.09375 237.03515625 C-114.37375 237.03515625 -119.65375 237.03515625 -125.09375 237.03515625 Z M-98.09375 237.03515625 C-98.72407133 238.24072229 -99.3476997 239.44978814 -99.96875 240.66015625 C-100.31679687 241.33304688 -100.66484375 242.0059375 -101.0234375 242.69921875 C-103.98257354 249.15747917 -104.38019386 254.58402299 -104.35203552 261.58882141 C-104.35571123 262.65184406 -104.35938693 263.71486671 -104.36317402 264.81010216 C-104.37315469 268.37255507 -104.36900291 271.93485189 -104.36499023 275.49731445 C-104.36937746 278.05186631 -104.3746796 280.60641674 -104.38082886 283.16096497 C-104.39233387 288.66440677 -104.39798139 294.16780613 -104.39871025 299.67125893 C-104.40003843 307.64679224 -104.41517401 315.62225567 -104.43420542 323.59776428 C-104.46504433 336.56264474 -104.48920716 349.52752697 -104.50708008 362.49243164 C-104.50815276 363.26812042 -104.50922544 364.04380921 -104.51033062 364.84300371 C-104.522133 373.48344868 -104.53233984 382.12389436 -104.54077148 390.76434326 C-104.54384507 393.89082847 -104.54693394 397.01731366 -104.55004883 400.14379883 C-104.55081417 400.91520347 -104.55157951 401.68660812 -104.55236804 402.48138867 C-104.56549071 415.38530151 -104.59019046 428.28916405 -104.62379223 441.1930396 C-104.64398923 449.13795469 -104.65438453 457.08276182 -104.65180302 465.02770277 C-104.65063692 471.13348979 -104.6649019 477.23915446 -104.68461227 483.34490776 C-104.69017858 485.83561723 -104.69072792 488.32634419 -104.68567467 490.81705475 C-104.65427368 508.11898915 -105.54006912 524.20267452 -111.40625 540.66015625 C-111.7060376 541.53115967 -112.0058252 542.40216309 -112.31469727 543.29956055 C-114.99087191 550.97868131 -117.9490991 558.53637333 -121.09375 566.03515625 C-118.49394136 569.36473573 -115.98310445 569.65277337 -111.90625 570.22265625 C-110.81957031 570.38121094 -109.73289062 570.53976562 -108.61328125 570.703125 C-107.36611328 570.86748047 -107.36611328 570.86748047 -106.09375 571.03515625 C-102.83383494 563.09154734 -99.86760089 555.05417083 -96.96875 546.97265625 C-96.52660156 545.75771484 -96.08445312 544.54277344 -95.62890625 543.29101562 C-90.91550784 530.15473153 -88.94080689 518.20774427 -88.95330811 504.27690125 C-88.95033698 503.22820525 -88.94736586 502.17950926 -88.9443047 501.09903461 C-88.93566929 497.60336837 -88.93411386 494.10773658 -88.93261719 490.61206055 C-88.92798546 488.098215 -88.92296033 485.58437016 -88.91757202 483.07052612 C-88.90448259 476.25435476 -88.89797286 469.43819464 -88.89356136 462.62201285 C-88.89079092 458.36058984 -88.88655223 454.09916907 -88.88205719 449.83774757 C-88.86987345 438.0224341 -88.85957111 426.20712241 -88.8561821 414.39180279 C-88.85596253 413.63696153 -88.85574297 412.88212027 -88.85551675 412.10440503 C-88.85529847 411.34784181 -88.85508019 410.59127859 -88.8548553 409.81178921 C-88.85441184 408.2789044 -88.85396528 406.74601958 -88.85351562 405.21313477 C-88.85318348 404.07260863 -88.85318348 404.07260863 -88.85284463 402.90904156 C-88.84889672 390.5892605 -88.8314389 378.26953858 -88.8081561 365.94978037 C-88.78440583 353.27973611 -88.77197864 340.60972151 -88.77081418 327.93965465 C-88.7698997 320.83446417 -88.7642043 313.72935087 -88.74599457 306.62418175 C-88.72892401 299.9403985 -88.72736828 293.25678635 -88.73613358 286.57297897 C-88.73690279 284.12530818 -88.73257661 281.67762945 -88.72267532 279.22997856 C-88.70991465 275.87793385 -88.71585526 272.52640401 -88.72625732 269.17436218 C-88.71820092 268.21548165 -88.71014452 267.25660111 -88.70184398 266.26866359 C-88.77449976 256.19611823 -90.99350658 246.75492726 -96.09375 238.03515625 C-96.75375 237.70515625 -97.41375 237.37515625 -98.09375 237.03515625 Z M-86.09375 237.03515625 C-85.79660599 237.9183403 -85.49946198 238.80152435 -85.1933136 239.71147156 C-82.34224912 248.32947181 -80.64328076 256.07137477 -80.58203125 265.171875 C-80.56408005 266.17732864 -80.54612885 267.18278229 -80.52763367 268.21870422 C-80.47404896 271.38664729 -80.43980287 274.55444432 -80.40625 277.72265625 C-80.37303108 279.88869198 -80.33853729 282.05470856 -80.30273438 284.22070312 C-80.21835338 289.49205626 -80.14978768 294.76342959 -80.09375 300.03515625 C-76.36762562 300.89903432 -72.93149336 301.15686448 -69.11010742 301.14868164 C-67.92926071 301.14860611 -66.748414 301.14853058 -65.53178406 301.14845276 C-64.26703751 301.14329147 -63.00229095 301.13813019 -61.69921875 301.1328125 C-59.74548088 301.13069008 -59.74548088 301.13069008 -57.75227356 301.12852478 C-54.30158546 301.1247198 -50.85093992 301.11490689 -47.40026855 301.1038208 C-43.87427343 301.09356314 -40.34827139 301.08901785 -36.82226562 301.08398438 C-29.91274301 301.07328269 -23.00324855 301.05623068 -16.09375 301.03515625 C-15.94014796 292.83834516 -15.79196634 284.641462 -15.6507864 276.44442844 C-15.58506531 272.63859743 -15.51744721 268.83281948 -15.44555664 265.02709961 C-15.3763024 261.3573009 -15.311949 257.68744654 -15.25105476 254.01749992 C-15.22689979 252.61437778 -15.20095133 251.21128538 -15.17321587 249.80822945 C-15.1347971 247.84953421 -15.10323309 245.8907081 -15.07202148 243.93188477 C-15.05203598 242.81491714 -15.03205048 241.69794952 -15.01145935 240.5471344 C-14.80526903 238.09577863 -14.80526903 238.09577863 -16.09375 237.03515625 C-18.27180719 236.94086283 -20.4529628 236.91773087 -22.63305664 236.92163086 C-23.31595261 236.92148483 -23.99884857 236.92133881 -24.70243835 236.92118835 C-26.96962614 236.92188749 -29.23673274 236.92967985 -31.50390625 236.9375 C-33.07189387 236.93936418 -34.63988207 236.94078808 -36.20787048 236.94178772 C-40.34251503 236.94561291 -44.47712466 236.95544319 -48.61175537 236.9664917 C-52.82775398 236.97670581 -57.04375822 236.98128534 -61.25976562 236.98632812 C-69.53777647 236.99706546 -77.8157589 237.01414189 -86.09375 237.03515625 Z M-6.09375 237.03515625 C-6.09375 258.15515625 -6.09375 279.27515625 -6.09375 301.03515625 C15.02625 301.03515625 36.14625 301.03515625 57.90625 301.03515625 C58.11551549 287.51461009 58.11551549 287.51461009 58.29418945 273.99365234 C58.51269934 260.71980897 59.60846008 249.39666606 64.90625 237.03515625 C41.47625 237.03515625 18.04625 237.03515625 -6.09375 237.03515625 Z M87.90625 237.03515625 C88.68005257 242.61717807 88.68005257 242.61717807 89.94287109 246.18383789 C91.23951932 251.36747343 91.26215519 256.3317127 91.3203125 261.65625 C91.33967865 262.75614761 91.3590448 263.85604523 91.3789978 264.98927307 C91.43851908 268.48365658 91.48506927 271.97807351 91.53125 275.47265625 C91.56945501 277.84962331 91.6085082 280.2265769 91.6484375 282.60351562 C91.74419799 288.41394244 91.82932508 294.22445117 91.90625 300.03515625 C95.66026344 300.8395877 99.05612889 301.21016176 102.90625 301.03515625 C104.19135776 299.97421039 104.19135776 299.97421039 104.02650452 297.5231781 C104.02428391 296.40621048 104.02206329 295.28924286 104.01977539 294.13842773 C104.01966209 292.24657997 104.01966209 292.24657997 104.01954651 290.31651306 C104.0144391 288.92975831 104.00922309 287.54300396 104.00390625 286.15625 C104.00204201 284.74520416 104.00061814 283.33415768 103.99961853 281.92311096 C103.99579379 278.2027509 103.9859639 274.48242965 103.97491455 270.76208496 C103.96469948 266.96834844 103.96012071 263.17460567 103.95507812 259.38085938 C103.94434158 251.93227189 103.92674515 244.48372445 103.90625 237.03515625 C98.62625 237.03515625 93.34625 237.03515625 87.90625 237.03515625 Z M74.90625 238.03515625 C69.73467636 247.66498303 67.45116375 256.21589273 67.52529907 267.15922546 C67.5206191 268.23524405 67.51593913 269.31126263 67.51111734 270.41988784 C67.49921309 274.00230237 67.50860706 277.58433111 67.51806641 281.16674805 C67.51399857 283.7448397 67.5086555 286.32292961 67.50213623 288.90101624 C67.48883338 295.16388917 67.49166185 301.42665391 67.50037415 307.68953099 C67.50716695 312.78499653 67.50806053 317.88043188 67.5048027 322.97590065 C67.504343 323.70291027 67.50388331 324.4299199 67.50340968 325.17896012 C67.50245043 326.65622682 67.50147778 328.13349351 67.5004919 329.61076019 C67.49194732 343.44785568 67.50175591 357.28489144 67.517893 371.12197713 C67.53128118 382.96798542 67.52897868 394.81390543 67.51513672 406.65991211 C67.49903993 420.44190017 67.49278606 434.22383586 67.50197351 448.00583202 C67.50292906 449.47899901 67.50387218 450.95216601 67.5048027 452.42533302 C67.50526553 453.14999757 67.50572836 453.87466213 67.50620521 454.62128621 C67.5087839 459.70191516 67.50444814 464.78251062 67.49736404 469.86313438 C67.48801382 476.71931563 67.49478222 483.57532866 67.51204681 490.43149376 C67.51599318 492.93917568 67.51490959 495.44687168 67.50825882 497.95454788 C67.46929408 514.14705248 68.17278249 528.80902278 73.90234375 544.12109375 C74.31456932 545.25099228 74.31456932 545.25099228 74.73512268 546.40371704 C75.30678707 547.95970563 75.88406021 549.51364554 76.46704102 551.06542969 C77.35842223 553.4493966 78.21971775 555.84296802 79.08007812 558.23828125 C79.64407314 559.76237127 80.20976303 561.28583543 80.77734375 562.80859375 C81.03164658 563.52195892 81.2859494 564.2353241 81.54795837 564.9703064 C82.88747495 568.71262266 82.88747495 568.71262266 85.92700195 571.02172852 C88.69028396 571.04047534 91.01222506 570.38456843 93.65625 569.59765625 C95.13351562 569.16646484 95.13351562 569.16646484 96.640625 568.7265625 C97.38828125 568.49839844 98.1359375 568.27023437 98.90625 568.03515625 C98.29810604 560.67661428 95.39223378 554.44324988 92.49609375 547.71484375 C84.79995038 528.97640772 83.18292121 510.74919358 83.32617188 490.65478516 C83.32590458 488.07507207 83.32336108 485.49535838 83.31874084 482.91564941 C83.31200991 477.40418868 83.32266511 471.89299562 83.3452301 466.38158035 C83.3774486 458.39711806 83.37672822 450.41289971 83.36758965 442.42838959 C83.35313939 429.44620701 83.35708383 416.46410804 83.37646484 403.48193359 C83.37761329 402.70822148 83.37876173 401.93450937 83.37994498 401.13735144 C83.38821941 395.64495222 83.39716071 390.15255417 83.40625 384.66015625 C83.41664515 378.37548895 83.42672851 372.09082136 83.43603516 365.80615234 C83.43718879 365.03158375 83.43834243 364.25701516 83.43953103 363.45897479 C83.45820374 350.51166278 83.45721227 337.56442266 83.44237375 324.6171068 C83.43419542 316.65801437 83.44347277 308.69931588 83.47596943 300.74028353 C83.49962091 294.63931322 83.4977052 288.53859235 83.48672295 282.43759155 C83.48646413 279.947621 83.4947061 277.45763182 83.51236153 274.96772385 C83.60144172 261.75672211 83.4066657 250.23714977 77.90625 238.03515625 C76.91625 238.03515625 75.92625 238.03515625 74.90625 238.03515625 Z M-125.09375 310.03515625 C-125.09375 356.89515625 -125.09375 403.75515625 -125.09375 452.03515625 C-121.46375 452.03515625 -117.83375 452.03515625 -114.09375 452.03515625 C-114.09375 405.17515625 -114.09375 358.31515625 -114.09375 310.03515625 C-117.72375 310.03515625 -121.35375 310.03515625 -125.09375 310.03515625 Z M-80.09375 310.03515625 C-80.09375 356.89515625 -80.09375 403.75515625 -80.09375 452.03515625 C-62.93375 452.03515625 -45.77375 452.03515625 -28.09375 452.03515625 C-27.92339983 441.68435557 -27.92339983 441.68435557 -27.79589844 431.33300781 C-27.7652832 430.04362305 -27.73466797 428.75423828 -27.703125 427.42578125 C-27.68217773 426.10610352 -27.66123047 424.78642578 -27.63964844 423.42675781 C-27.09375 420.03515625 -27.09375 420.03515625 -25.49316406 417.69824219 C-23.09375 416.03515625 -23.09375 416.03515625 -16.09375 414.03515625 C-16.09375 379.71515625 -16.09375 345.39515625 -16.09375 310.03515625 C-37.21375 310.03515625 -58.33375 310.03515625 -80.09375 310.03515625 Z M-6.09375 310.03515625 C-6.09375 344.35515625 -6.09375 378.67515625 -6.09375 414.03515625 C-3.45375 414.69515625 -0.81375 415.35515625 1.90625 416.03515625 C4.17620318 417.60590415 4.75163351 418.33060793 5.33862305 421.00537109 C5.36480713 421.74480957 5.39099121 422.48424805 5.41796875 423.24609375 C5.47126343 424.48697754 5.47126343 424.48697754 5.52563477 425.75292969 C5.54811279 426.62981445 5.57059082 427.50669922 5.59375 428.41015625 C5.62718506 429.30250977 5.66062012 430.19486328 5.69506836 431.11425781 C5.93692499 438.08726718 6.02082924 445.05855387 5.90625 452.03515625 C21.40965464 459.78685857 40.57638229 452.3817536 57.90625 452.03515625 C57.90625 405.17515625 57.90625 358.31515625 57.90625 310.03515625 C36.78625 310.03515625 15.66625 310.03515625 -6.09375 310.03515625 Z M91.90625 310.03515625 C91.90625 357.22515625 91.90625 404.41515625 91.90625 453.03515625 C99.42837719 450.07641199 99.42837719 450.07641199 103.90625 444.03515625 C104.60430713 439.9881956 104.54850733 436.01236216 104.48974609 431.91455078 C104.49325073 430.08908722 104.49325073 430.08908722 104.49682617 428.22674561 C104.49816187 424.89962247 104.47729178 421.57406186 104.44615126 418.24717951 C104.41851452 414.75693059 104.41860617 411.26667794 104.41543579 407.77633667 C104.40624129 401.91372533 104.37874636 396.05144103 104.33837891 390.18896484 C104.28163131 381.94049763 104.25922906 373.69219554 104.24309421 365.4435637 C104.23060513 359.71096809 104.20995079 353.97839704 104.1877141 348.24583197 C104.1823652 346.86115011 104.17722758 345.47646742 104.17230177 344.091784 C104.15570903 339.53264068 104.12966792 334.97362656 104.09912109 330.41455078 C104.09486115 329.2745462 104.0906012 328.13454163 104.08621216 326.95999146 C104.03981786 321.22839397 103.76365341 315.7042932 102.90625 310.03515625 C99.27625 310.03515625 95.64625 310.03515625 91.90625 310.03515625 Z M-19.09375 424.03515625 C-19.09375 433.27515625 -19.09375 442.51515625 -19.09375 452.03515625 C-13.48375 452.03515625 -7.87375 452.03515625 -2.09375 452.03515625 C-2.58875 438.17515625 -2.58875 438.17515625 -3.09375 424.03515625 C-8.37375 424.03515625 -13.65375 424.03515625 -19.09375 424.03515625 Z M112.90625 446.03515625 C112.060625 447.41703125 111.215 448.79890625 110.34375 450.22265625 C105.5044393 457.44195582 100.0147432 460.33232518 91.90625 463.03515625 C91.90625 466.99515625 91.90625 470.95515625 91.90625 475.03515625 C93.82050781 475.12603516 93.82050781 475.12603516 95.7734375 475.21875 C97.44272016 475.30315193 99.11199037 475.38780011 100.78125 475.47265625 C101.62300781 475.51197266 102.46476562 475.55128906 103.33203125 475.59179688 C104.54052734 475.65463867 104.54052734 475.65463867 105.7734375 475.71875 C106.51706543 475.75540771 107.26069336 475.79206543 108.02685547 475.82983398 C109.90625 476.03515625 109.90625 476.03515625 111.90625 477.03515625 C115.53625 477.03515625 119.16625 477.03515625 122.90625 477.03515625 C122.90625 467.13515625 122.90625 457.23515625 122.90625 447.03515625 C119.60625 446.70515625 116.30625 446.37515625 112.90625 446.03515625 Z M-80.09375 463.03515625 C-80.09375 466.99515625 -80.09375 470.95515625 -80.09375 475.03515625 C-34.55375 475.03515625 10.98625 475.03515625 57.90625 475.03515625 C57.90625 470.74515625 57.90625 466.45515625 57.90625 462.03515625 C42.57106979 462.01188611 27.23589166 461.99410012 11.90069771 461.98334408 C4.77835611 461.97821442 -2.34397423 461.97123617 -9.46630859 461.9597168 C-15.68293997 461.94966717 -21.89956319 461.94327869 -28.11620247 461.94106776 C-31.39984594 461.93977788 -34.68346099 461.936257 -37.96709824 461.92942619 C-52.04557351 461.90133007 -66.04836046 462.01099058 -80.09375 463.03515625 Z M-125.09375 463.03515625 C-125.09375 466.99515625 -125.09375 470.95515625 -125.09375 475.03515625 C-121.46375 475.03515625 -117.83375 475.03515625 -114.09375 475.03515625 C-114.09375 471.07515625 -114.09375 467.11515625 -114.09375 463.03515625 C-119.74088178 461.9265437 -119.74088178 461.9265437 -125.09375 463.03515625 Z M-125.09375 485.03515625 C-125.17560891 488.9522568 -125.23466527 492.86760211 -125.28125 496.78515625 C-125.30638672 497.87699219 -125.33152344 498.96882813 -125.35742188 500.09375 C-125.44595615 510.06861196 -124.53459442 520.03962525 -118.09375 528.03515625 C-114.41738948 524.35879573 -114.15457838 519.09003806 -113.86669922 514.09765625 C-113.86700913 512.74344829 -113.87789909 511.38920849 -113.8984375 510.03515625 C-113.9012674 509.31400635 -113.90409729 508.59285645 -113.90701294 507.84985352 C-113.91808304 505.57810878 -113.94316105 503.30677898 -113.96875 501.03515625 C-113.9787969 499.48177658 -113.98791973 497.92839065 -113.99609375 496.375 C-114.01797889 492.59489563 -114.05241486 488.81509593 -114.09375 485.03515625 C-117.72375 485.03515625 -121.35375 485.03515625 -125.09375 485.03515625 Z M-80.09375 485.03515625 C-80.42375 496.25515625 -80.75375 507.47515625 -81.09375 519.03515625 C-82.08375 524.31515625 -83.07375 529.59515625 -84.09375 535.03515625 C-84.42375 537.01515625 -84.75375 538.99515625 -85.09375 541.03515625 C-76.7095803 541.86478552 -68.42302185 542.17934862 -60.00073242 542.16455078 C-58.12765411 542.16717926 -58.12765411 542.16717926 -56.21673584 542.16986084 C-52.83069892 542.17347783 -49.44472407 542.1726731 -46.05869079 542.16948175 C-42.49724105 542.16692733 -38.93579373 542.16930394 -35.37434387 542.17086792 C-29.40230846 542.1726795 -23.43028547 542.17030872 -17.45825195 542.16552734 C-10.56783914 542.16007418 -3.67745587 542.16185909 3.21295625 542.16735375 C9.15211451 542.17189889 15.09126391 542.17252894 21.03042334 542.16991508 C24.56783672 542.16836162 28.10523623 542.16813318 31.6426487 542.17145157 C35.58184577 542.17488995 39.52100996 542.17011769 43.46020508 542.16455078 C45.20354378 542.16758713 45.20354378 542.16758713 46.98210144 542.17068481 C52.39790196 542.15651435 57.57245824 541.99902212 62.90625 541.03515625 C62.20048404 535.85953921 61.33685328 530.72606656 60.40625 525.5859375 C58.51619768 512.1636128 58.44671884 498.54687721 57.90625 485.03515625 C12.36625 485.03515625 -33.17375 485.03515625 -80.09375 485.03515625 Z M91.90625 485.03515625 C91.43612297 506.7149288 91.43612297 506.7149288 94.90625 528.03515625 C97.89707902 527.3642168 97.89707902 527.3642168 99.00390625 525.50390625 C99.48150391 524.529375 99.48150391 524.529375 99.96875 523.53515625 C100.28972656 522.90609375 100.61070312 522.27703125 100.94140625 521.62890625 C103.98109429 513.45743719 104.16107274 505.62584105 104.03125 496.97265625 C104.02222656 495.82087891 104.01320313 494.66910156 104.00390625 493.48242188 C103.98053823 490.66657547 103.94467476 487.85083744 103.90625 485.03515625 C99.94625 485.03515625 95.98625 485.03515625 91.90625 485.03515625 Z M-89.09375 551.03515625 C-89.774375 552.45828125 -90.455 553.88140625 -91.15625 555.34765625 C-91.53910156 556.14816406 -91.92195313 556.94867187 -92.31640625 557.7734375 C-93.39110514 560.15544378 -93.39110514 560.15544378 -92.09375 563.03515625 C-91.43375 562.70515625 -90.77375 562.37515625 -90.09375 562.03515625 C-90.09375 561.37515625 -90.09375 560.71515625 -90.09375 560.03515625 C-89.43375 559.82890625 -88.77375 559.62265625 -88.09375 559.41015625 C-84.00073622 557.5341916 -80.51880088 554.95027399 -77.09375 552.03515625 C-77.09375 551.70515625 -77.09375 551.37515625 -77.09375 551.03515625 C-81.05375 551.03515625 -85.01375 551.03515625 -89.09375 551.03515625 Z M55.90625 551.03515625 C60.31634417 555.88625983 65.48629353 559.38326325 70.90625 563.03515625 C72.2086498 561.01582487 72.2086498 561.01582487 71.12890625 558.65234375 C70.74605469 557.74742187 70.36320313 556.8425 69.96875 555.91015625 C68.9478125 553.49703125 68.9478125 553.49703125 67.90625 551.03515625 C63.94625 551.03515625 59.98625 551.03515625 55.90625 551.03515625 Z " fill="#000000" transform="translate(325.09375,70.96484375)"/>
<path d="M0 0 C3 2.0625 3 2.0625 5 5 C5.06944397 8.95830645 4.5699479 11.14507816 2.375 14.4375 C-0.9617771 16.63274809 -3.08548544 16.55921637 -7 16 C-10.00342896 13.94502229 -10.83287356 12.52366286 -11.9375 9.0625 C-12.01221891 5.40127319 -11.21363944 3.8695326 -9 1 C-5.86128812 -0.56935594 -3.46144178 -0.35201103 0 0 Z M-4 5 C-4.66 6.32 -5.32 7.64 -6 9 C-3.525 9.495 -3.525 9.495 -1 10 C-1.33 8.35 -1.66 6.7 -2 5 C-2.66 5 -3.32 5 -4 5 Z " fill="#000000" transform="translate(452,277)"/>
</svg>
