<?xml version="1.0" encoding="UTF-8"?>
<svg version="1.1" xmlns="http://www.w3.org/2000/svg" width="563" height="563">
<path d="M0 0 C4.62295082 3.24590164 4.62295082 3.24590164 6 6 C6.84477267 12.7669811 4.26673656 17.13242084 1 22.9375 C0.52304687 23.81212891 0.04609375 24.68675781 -0.4453125 25.58789062 C-1.61737747 27.73276953 -2.80232509 29.86934907 -4 32 C-3.39631592 31.98042236 -2.79263184 31.96084473 -2.1706543 31.94067383 C4.14797046 31.82561264 9.99845574 32.45154885 16.1875 33.6875 C17.09733643 33.86611572 18.00717285 34.04473145 18.94458008 34.22875977 C42.59483698 39.072036 62.9811384 49.75053324 77 70 C77.51175781 70.72316406 78.02351563 71.44632812 78.55078125 72.19140625 C90.3290885 90.17843361 96.69936424 117.73414649 96 139 C95.67 139.66 95.34 140.32 95 141 C68.5731343 142.64881658 36.75412165 135.12045115 16.109375 117.890625 C15.41328125 117.26671875 14.7171875 116.6428125 14 116 C13.18015625 115.27296875 12.3603125 114.5459375 11.515625 113.796875 C0.76577055 103.69852688 -5.02945627 91.61251179 -10 78 C-10.25408322 85.54303031 -9.5141848 92.68436163 -8.3125 100.125 C-8.04131348 101.82571655 -8.04131348 101.82571655 -7.76464844 103.56079102 C-2.88141852 133.49033177 5.46436042 161.97908154 15.9921875 190.3828125 C16.31759521 191.26130859 16.64300293 192.13980469 16.97827148 193.04492188 C17.60381402 194.72747049 18.23334778 196.40854224 18.86743164 198.08789062 C21 203.78456992 21 203.78456992 21 206 C22.16917969 205.57847656 23.33835937 205.15695312 24.54296875 204.72265625 C26.09108079 204.16908891 27.63926151 203.61571359 29.1875 203.0625 C29.95642578 202.78470703 30.72535156 202.50691406 31.51757812 202.22070312 C44.91621525 197.44779805 57.05934937 198.01232568 70 204.0625 C84.0588779 211.22360477 93.74805997 223.20840328 99 238 C104.24972304 256.6201114 101.6847625 277.92071128 93 295 C90.5138649 299.14019659 87.83490463 303.09179815 85 307 C84.57976562 307.59554688 84.15953125 308.19109375 83.7265625 308.8046875 C74.62835884 320.74204691 58.44077746 328.77017732 44 332 C43.2471875 332.18304688 42.494375 332.36609375 41.71875 332.5546875 C38.20477764 333.13025194 34.73829853 333.19082161 31.1875 333.1875 C30.47916016 333.18814453 29.77082031 333.18878906 29.04101562 333.18945312 C24.02417101 333.13868469 19.74242947 332.58080982 15 331 C14.88914062 332.16917969 14.77828125 333.33835937 14.6640625 334.54296875 C12.43960791 352.16421441 0.45959581 368.4022365 -13.125 379.125 C-30.35763985 392.2308761 -50.4115291 397.24721912 -71.8828125 394.50390625 C-91.06335784 391.0183246 -109.7526311 381.05858175 -121.1875 364.8125 C-121.785625 363.884375 -122.38375 362.95625 -123 362 C-123.33 362 -123.66 362 -124 362 C-124.07476562 362.69222656 -124.14953125 363.38445312 -124.2265625 364.09765625 C-126.86211206 383.70924565 -136.77132166 400.49416417 -152 413 C-166.97842694 423.82847089 -185.17535392 428.95147443 -203.53125 426.53515625 C-222.45579768 423.23118047 -238.89313751 414.11376519 -251 399 C-255.53184944 392.45379196 -258.94805263 385.33211745 -262 378 C-263.51013672 378.433125 -263.51013672 378.433125 -265.05078125 378.875 C-285.90114104 384.51810243 -304.60351643 383.02664971 -323.83984375 372.85546875 C-328.2527604 370.26444847 -332.18382383 367.4032032 -336 364 C-336.61230469 363.45730469 -337.22460938 362.91460937 -337.85546875 362.35546875 C-350.24633087 350.67578194 -358.59275077 334.20377126 -359.3515625 317.15234375 C-359.39512837 315.03931743 -359.42370052 312.92593034 -359.4375 310.8125 C-359.4475708 309.81524902 -359.4576416 308.81799805 -359.46801758 307.79052734 C-359.35114045 297.74572575 -356.90229195 288.84115133 -352.3125 279.9375 C-351.96364746 279.25486084 -351.61479492 278.57222168 -351.25537109 277.86889648 C-345.06241233 266.11284208 -335.59651366 255.66799535 -324 249 C-323.34 249 -322.68 249 -322 249 C-322 248.34 -322 247.68 -322 247 C-322.56332031 246.74992188 -323.12664062 246.49984375 -323.70703125 246.2421875 C-338.31657296 238.32764872 -346.30338383 222.43126406 -353 208 C-353.77923828 206.35451172 -353.77923828 206.35451172 -354.57421875 204.67578125 C-357.66924979 198.0334367 -359.14251652 193.41085928 -359 186 C-353.52974586 183.84150062 -348.16895941 182.17171027 -342.4375 180.875 C-341.72142578 180.70613281 -341.00535156 180.53726563 -340.26757812 180.36328125 C-319.70834155 175.61164696 -299.70044672 177.64964393 -280 185 C-280.52400391 183.58847656 -280.52400391 183.58847656 -281.05859375 182.1484375 C-281.51850345 180.89072526 -281.97812347 179.63290707 -282.4375 178.375 C-282.88996094 177.14523438 -283.34242188 175.91546875 -283.80859375 174.6484375 C-291.316624 151.65663339 -284.24225007 126.97487961 -274.57421875 105.890625 C-271.73750394 100.37527855 -271.73750394 100.37527855 -269.234375 99.1015625 C-258.86802971 98.63036499 -244.69688804 112.38861006 -237.625 118.6875 C-236.07650345 120.11764013 -234.53398317 121.55430363 -233 123 C-232.42765625 123.53109375 -231.8553125 124.0621875 -231.265625 124.609375 C-230.13084684 125.6931519 -229.05553783 126.83890839 -228 128 C-228 128.66 -228 129.32 -228 130 C-227.34 130 -226.68 130 -226 130 C-224.72428516 132.1847753 -223.45439327 134.37261619 -222.1875 136.5625 C-221.83107422 137.17158203 -221.47464844 137.78066406 -221.10742188 138.40820312 C-218.74518233 142.50419646 -216.78642845 146.62127791 -215 151 C-214.59910156 150.40574219 -214.19820312 149.81148437 -213.78515625 149.19921875 C-199.84647804 128.87593056 -181.50058035 112.15755326 -157 106 C-154.296875 105.6328125 -154.296875 105.6328125 -152 106 C-148.69946644 109.04016664 -148.00570775 112.94494208 -146.9375 117.1875 C-146.68262817 118.19224365 -146.68262817 118.19224365 -146.42260742 119.21728516 C-145.93820933 121.14231991 -145.4687083 123.07108506 -145 125 C-144.67128906 126.32064453 -144.67128906 126.32064453 -144.3359375 127.66796875 C-140.93938048 141.98927262 -139.18470108 161.36940217 -146 175 C-145.13375 174.67 -144.2675 174.34 -143.375 174 C-131.30741556 170.64248659 -118.91871618 173.42839343 -108 179 C-107.89623047 178.33572998 -107.79246094 177.67145996 -107.68554688 176.98706055 C-106.52019948 170.02727921 -104.77005803 163.48808566 -102.5 156.8125 C-102.15324219 155.78511719 -101.80648438 154.75773438 -101.44921875 153.69921875 C-94.38746818 133.18770296 -85.7209868 113.2784701 -74.5703125 94.65234375 C-73.20111807 92.33969943 -71.93583857 90.00382699 -70.6875 87.625 C-67.04935223 81.03828803 -62.47367846 75.03472062 -58 69 C-57.57493164 68.42636719 -57.14986328 67.85273438 -56.71191406 67.26171875 C-51.17047055 59.82755398 -45.28327013 52.82351391 -39 46 C-37.24957609 44.02300765 -35.51317458 42.03663133 -33.79736328 40.02954102 C-32 38 -32 38 -30.2512207 36.29785156 C-24.77651265 30.76324849 -23.30939588 25.38250855 -21.8125 17.875 C-19.08254425 4.80623225 -19.08254425 4.80623225 -15 0 C-9.20034277 -3.6805517 -5.71106546 -3.16084126 0 0 Z M-9 5 C-11.33470891 9.29010937 -12.69735569 13.22216078 -13.6875 18 C-13.93886719 19.175625 -14.19023437 20.35125 -14.44921875 21.5625 C-14.96507046 24.78200001 -15.10412335 27.74738494 -15 31 C-11.00647749 27.35013373 -8.69232644 22.63248857 -6 18 C-5.57847656 17.30519531 -5.15695312 16.61039063 -4.72265625 15.89453125 C-2.50664599 12.21495987 -2.50664599 12.21495987 -2 8 C-4.31 7.01 -6.62 6.02 -9 5 Z M0 40 C1.38543409 43.21186675 2.92108258 45.04346214 5.60546875 47.265625 C9.97219921 50.96259942 14.14925094 54.82656038 18.3125 58.75 C19.01439453 59.40871094 19.71628906 60.06742188 20.43945312 60.74609375 C25.79193167 65.77711744 25.79193167 65.77711744 27.59448242 67.70800781 C28.92721864 69.22558299 28.92721864 69.22558299 31 69 C31 69.66 31 70.32 31 71 C32.30933018 72.32589935 32.30933018 72.32589935 34.11328125 73.7421875 C40.84977146 79.47139366 46.96036955 85.85536628 53.1875 92.125 C54.45744687 93.39997412 55.72762749 94.67471546 56.99804688 95.94921875 C59.84519636 98.80626541 62.68995177 101.66567268 65.53283691 104.52696228 C66.9203995 105.92008078 68.31390591 107.30727182 69.70776367 108.6940918 C71.52023451 110.51737298 73.28386075 112.3558989 75.0078125 114.26171875 C75.51957031 114.82310547 76.03132813 115.38449219 76.55859375 115.96289062 C77.61222944 117.12294089 78.66428725 118.28442606 79.71484375 119.44726562 C82.03507821 121.98777551 84.1233011 124.08220073 87 126 C84.15046671 106.18647688 79.81933442 85.92935046 67 70 C66.39800781 69.20851563 65.79601562 68.41703125 65.17578125 67.6015625 C50.95808006 50.13495265 28.76599369 43.13412096 7.17480469 40.67871094 C4.78425166 40.43738532 2.39355613 40.20920704 0 40 Z M-26 43 C-27.38801076 44.42615904 -28.73585264 45.89158831 -30.0625 47.375 C-31.16271484 48.59316406 -31.16271484 48.59316406 -32.28515625 49.8359375 C-34.20702175 51.80106412 -34.20702175 51.80106412 -34 54 C-34.66 54 -35.32 54 -36 54 C-39.28437 57.41482395 -42.0992834 61.25783183 -45 65 C-45.77512939 65.9895166 -45.77512939 65.9895166 -46.56591797 66.99902344 C-60.28519712 84.62242675 -71.4787872 103.81689121 -81 124 C-81.45503906 124.94230469 -81.91007812 125.88460937 -82.37890625 126.85546875 C-88.15618104 139.11633092 -92.36948281 151.88612761 -96.375 164.8125 C-96.73311768 165.96435791 -97.09123535 167.11621582 -97.46020508 168.30297852 C-97.79044678 169.38506592 -98.12068848 170.46715332 -98.4609375 171.58203125 C-98.75790527 172.55374268 -99.05487305 173.5254541 -99.36083984 174.52661133 C-100.12509797 177.05832455 -100.12509797 177.05832455 -100 180 C-99.06800781 179.95359375 -98.13601563 179.9071875 -97.17578125 179.859375 C-84.18297041 179.49153 -72.57141278 181.904774 -62 190 C-59.76034676 192.23067668 -57.91960401 194.47420524 -56 197 C-54.03886118 193.64845625 -53.55947965 190.71620363 -53.140625 186.875 C-52.99794189 185.63057129 -52.85525879 184.38614258 -52.70825195 183.10400391 C-52.63434235 182.43798157 -52.56043274 181.77195923 -52.48428345 181.08575439 C-47.81119858 139.48269875 -39.28399786 98.43377143 -28.75878906 57.93847656 C-27.47496316 52.96674922 -26.23833518 47.98322013 -25 43 C-25.33 43 -25.66 43 -26 43 Z M-7 46 C-6.63497865 66.34164436 -0.70285772 86.01323718 12 102 C12.44730469 102.62390625 12.89460938 103.2478125 13.35546875 103.890625 C26.21246486 120.82229988 50.22886818 128.25932831 70.30810547 131.35595703 C73.8682948 131.77306797 77.41618492 131.98624255 81 132 C76.84443819 126.94593833 72.37752009 122.29814817 67.69604492 117.7331543 C64.102146 114.204292 64.102146 114.204292 63 112 C62.34 112 61.68 112 61 112 C60.67 111.01 60.34 110.02 60 109 C59.34 109 58.68 109 58 109 C57.34 107.68 56.68 106.36 56 105 C55.34 105 54.68 105 54 105 C53.67 104.01 53.34 103.02 53 102 C52.34 102 51.68 102 51 102 C50.75507813 101.42894531 50.51015625 100.85789063 50.2578125 100.26953125 C47.08492723 94.54454261 41.32437602 90.07545728 36.375 85.875 C32.19614538 82.30031713 28.36687503 78.4042019 24.5 74.5 C20.15687517 70.1193433 15.83466904 65.80071734 11.109375 61.828125 C9.26499034 60.22965829 7.48162316 58.59258539 5.703125 56.921875 C5.11418457 56.36975342 4.52524414 55.81763184 3.91845703 55.2487793 C2.73870265 54.13952752 1.56248316 53.02650204 0.39013672 51.90942383 C-2.34331563 48.96755709 -2.34331563 48.96755709 -6 48 C-6.33 47.34 -6.66 46.68 -7 46 Z M-21 61 C-23.31189573 67.58798782 -25.19172223 74.22588816 -26.875 81 C-27.1325708 82.03165283 -27.3901416 83.06330566 -27.65551758 84.1262207 C-29.77374636 92.76528421 -31.58597272 101.45096267 -33.26318359 110.18554688 C-34.23038792 115.21938661 -35.27240132 120.21348274 -36.46484375 125.19921875 C-38.27513662 132.95310558 -39.6080756 140.76839688 -40.875 148.625 C-41.00250641 149.41389618 -41.13001282 150.20279236 -41.26138306 151.01559448 C-46.38156302 182.95735053 -49.51726781 215.02235384 -51.51953125 247.30078125 C-51.56925079 248.09566956 -51.61897034 248.89055786 -51.67019653 249.70953369 C-51.91388433 253.81347407 -52.05028992 257.88644788 -52 262 C-49.36 261.67 -46.72 261.34 -44 261 C-43.87044922 259.40285156 -43.87044922 259.40285156 -43.73828125 257.7734375 C-42.39585607 243.18090389 -39.46636179 230.93288567 -29 220 C-28.47921875 219.43925781 -27.9584375 218.87851562 -27.421875 218.30078125 C-18.90225519 210.10387431 -7.27933948 206.05878066 4.25 205.4375 C4.99507813 205.39431641 5.74015625 205.35113281 6.5078125 205.30664062 C8.338349 205.20103275 10.16915176 205.10005799 12 205 C10.46789428 199.50244419 8.71065202 194.15525419 6.69116211 188.82128906 C2.22772707 177.02958572 -1.52191592 165.05848108 -5.11279297 152.97509766 C-5.87472723 150.42008089 -6.65483694 147.87171378 -7.44140625 145.32421875 C-15.59815644 118.25835599 -19.16403462 89.19221192 -20 61 C-20.33 61 -20.66 61 -21 61 Z M-267 109 C-271.19928794 118.21043821 -274.47407052 127.18125875 -277 137 C-277.1750708 137.61633301 -277.3501416 138.23266602 -277.53051758 138.86767578 C-280.73653678 153.4289715 -278.72007475 170.96642625 -271.33203125 183.92578125 C-270.89246094 184.61027344 -270.45289063 185.29476562 -270 186 C-269.55011719 185.64808594 -269.10023438 185.29617188 -268.63671875 184.93359375 C-262.97862698 180.59080988 -257.05588508 176.76266389 -251 173 C-251.62573287 167.73971815 -252.77407378 162.87576282 -254.3125 157.8125 C-254.53180176 157.07290039 -254.75110352 156.33330078 -254.97705078 155.57128906 C-256.60034137 150.15093047 -258.41465978 144.81579448 -260.3984375 139.515625 C-261.08239534 136.65543766 -260.77809622 134.80923052 -260 132 C-257.71875 131.9375 -257.71875 131.9375 -255 133 C-253.34320182 135.82245065 -252.46505142 138.88508721 -251.5 142 C-251.20665771 142.89106445 -250.91331543 143.78212891 -250.61108398 144.70019531 C-249.71296056 147.45890949 -248.84998579 150.22610311 -248 153 C-247.73590332 153.86173828 -247.47180664 154.72347656 -247.19970703 155.61132812 C-245.74807489 160.39339511 -244.35232666 165.1889577 -243 170 C-239.18622797 169.72362039 -235.37437365 169.42635166 -231.5625 169.125 C-230.47388672 169.04636719 -229.38527344 168.96773437 -228.26367188 168.88671875 C-227.22919922 168.80292969 -226.19472656 168.71914062 -225.12890625 168.6328125 C-224.17056885 168.55949707 -223.21223145 168.48618164 -222.22485352 168.41064453 C-221.49065186 168.27513184 -220.7564502 168.13961914 -220 168 C-218.36912212 164.73824423 -220.11812594 161.67455981 -221.1875 158.375 C-221.42380127 157.64369873 -221.66010254 156.91239746 -221.90356445 156.15893555 C-229.05309163 134.49260191 -245.41445881 119.86800987 -265 109 C-265.66 109 -266.32 109 -267 109 Z M-191 134 C-191.69351563 134.60585937 -192.38703125 135.21171875 -193.1015625 135.8359375 C-202.80436682 144.94033098 -209.44871747 156.74808646 -211 170 C-209.97519531 170.40992188 -208.95039063 170.81984375 -207.89453125 171.2421875 C-202.26302083 173.49479167 -196.63151042 175.74739583 -191 178 C-190.60208252 177.11328613 -190.20416504 176.22657227 -189.79418945 175.31298828 C-188.29598906 171.97593034 -186.79499256 168.640136 -185.29321289 165.3046875 C-184.64761056 163.86980136 -184.00273441 162.43458824 -183.35864258 160.99902344 C-181.53233088 156.92920062 -179.69439743 152.86512005 -177.83218384 148.81158447 C-177.06562637 147.14286233 -176.30441188 145.47168854 -175.54370117 143.80029297 C-175.11677979 142.89682129 -174.6898584 141.99334961 -174.25 141.0625 C-173.89035156 140.29292969 -173.53070313 139.52335937 -173.16015625 138.73046875 C-172 137 -172 137 -168.6875 135.875 C-167.800625 135.91625 -166.91375 135.9575 -166 136 C-166.49723375 142.03898408 -168.42660047 146.55341619 -171.125 151.9375 C-171.94329155 153.61626985 -172.75966713 155.29597483 -173.57421875 156.9765625 C-173.9820459 157.81477539 -174.38987305 158.65298828 -174.81005859 159.51660156 C-176.5979395 163.24789508 -178.28132152 167.02124266 -179.9375 170.8125 C-180.21932129 171.4511499 -180.50114258 172.0897998 -180.79150391 172.74780273 C-182.39986253 176.44309274 -183.78233289 180.15876029 -185 184 C-184.45730469 184.59167969 -183.91460937 185.18335938 -183.35546875 185.79296875 C-182.64003906 186.58316406 -181.92460937 187.37335938 -181.1875 188.1875 C-180.47980469 188.96480469 -179.77210938 189.74210937 -179.04296875 190.54296875 C-177.06664371 192.91984915 -175.51417406 195.31078866 -174 198 C-171.77328197 195.8336448 -169.75332594 193.56059871 -167.75 191.1875 C-165.45132571 188.49601428 -163.25833682 186.40844496 -160.375 184.375 C-152.60519375 177.94963213 -150.92288016 164.53642834 -150 155 C-148.95537807 141.7183783 -151.56405339 127.52132447 -156 115 C-168.18150237 115 -182.23370277 126.31342267 -191 134 Z M-266 194 C-274.42375963 204.01966721 -279.1562281 215.38419603 -279.125 228.5 C-279.12757813 229.5828125 -279.13015625 230.665625 -279.1328125 231.78125 C-279.00272728 234.93390353 -278.5876874 237.90298066 -278 241 C-276.92363281 241.27972656 -275.84726562 241.55945313 -274.73828125 241.84765625 C-257.2033555 246.58333668 -242.42405574 254.48836163 -231 269 C-229.61484776 266.37055846 -228.59098105 263.84639741 -227.75 261 C-221.92307972 243.40385459 -211.29567766 230.82300146 -194.88671875 222.40234375 C-188.41048521 219.5212178 -182.0157877 217.92531058 -175 217 C-177.73823578 203.55775163 -184.92324157 193.13936619 -196 185 C-219.85459679 171.19404288 -246.58520425 173.2032483 -266 194 Z M-161.375 194.375 C-166.26089136 200.11936562 -166.26089136 200.11936562 -169 207 C-168.44053998 210.2257154 -167.39475064 213.04641041 -166 216 C-165.175 216.07476562 -164.35 216.14953125 -163.5 216.2265625 C-146.97772102 218.10744694 -132.06125701 223.59826544 -120.9375 236.5 C-120.41027344 237.1703125 -119.88304687 237.840625 -119.33984375 238.53125 C-118.89769531 239.0159375 -118.45554687 239.500625 -118 240 C-117.34 240 -116.68 240 -116 240 C-115.731875 240.70125 -115.46375 241.4025 -115.1875 242.125 C-113.93025234 245.16886276 -112.49654121 248.06677922 -111 251 C-109.15431859 254.61753557 -107.45076824 258.20568306 -106 262 C-105.19175781 261.72285156 -104.38351562 261.44570313 -103.55078125 261.16015625 C-101.94783203 260.61681641 -101.94783203 260.61681641 -100.3125 260.0625 C-98.72888672 259.52302734 -98.72888672 259.52302734 -97.11328125 258.97265625 C-87.49350987 255.96723207 -77.61365199 256.06702143 -68 259 C-66.59201177 259.36523309 -65.18180087 259.72200144 -63.76953125 260.0703125 C-61.90361328 260.53050781 -61.90361328 260.53050781 -60 261 C-59.56796117 255.3444279 -59.14090158 249.68850882 -58.71826172 244.03222656 C-58.57409046 242.11187836 -58.42860759 240.19162812 -58.28173828 238.27148438 C-58.06970857 235.49634727 -57.86254794 232.7208809 -57.65625 229.9453125 C-57.59062866 229.1001004 -57.52500732 228.25488831 -57.45739746 227.38406372 C-56.60969168 215.80941161 -56.18301457 208.14547656 -63.76171875 198.8359375 C-69.64521024 192.46314956 -77.15477711 187.57686236 -86 187 C-91.12875194 186.83718248 -95.94384429 186.98876886 -101 188 C-103.39763185 190.39763185 -103.34280586 191.33273498 -103.625 194.625 C-103.810625 196.790625 -103.810625 196.790625 -104 199 C-99.71 198.67 -95.42 198.34 -91 198 C-90.505 200.475 -90.505 200.475 -90 203 C-97.69737617 206.84868808 -105.41974862 208.0143306 -113.828125 205.79296875 C-118.83159311 203.96616295 -122.80920247 201.55164526 -126.0625 197.3125 C-126.371875 196.549375 -126.68125 195.78625 -127 195 C-126.67 194.34 -126.34 193.68 -126 193 C-121.03183257 193.46215511 -118.81268621 194.9086328 -115 198 C-114.01 197.67 -113.02 197.34 -112 197 C-111.34 193.7 -110.68 190.4 -110 187 C-111.9151579 186.18395001 -113.83218834 185.37229368 -115.75 184.5625 C-116.81734375 184.11003906 -117.8846875 183.65757812 -118.984375 183.19140625 C-134.12157235 177.21103683 -150.56357024 182.76272359 -161.375 194.375 Z M-350 191 C-347.95230173 208.94580014 -335.08797633 226.4469052 -322 238 C-321.25878906 238.66644531 -320.51757812 239.33289063 -319.75390625 240.01953125 C-316.73374456 242.40443611 -314.48269915 244.00947412 -310.5546875 243.984375 C-308.7549004 243.65128007 -306.96708686 243.24841141 -305.1953125 242.7890625 C-301.25639897 241.81637236 -297.33767165 241.34075907 -293.3125 240.875 C-291.91274636 240.70584548 -290.51300561 240.53658413 -289.11328125 240.3671875 C-288.08589844 240.24601562 -287.05851562 240.12484375 -286 240 C-285.89680681 238.29427726 -285.87044311 236.58383531 -285.875 234.875 C-285.85179687 233.92367187 -285.82859375 232.97234375 -285.8046875 231.9921875 C-287.81219477 226.96685884 -292.35446289 225.40291642 -297 223 C-298.01239746 222.4632666 -299.02479492 221.9265332 -300.06787109 221.37353516 C-304.38528268 219.10664442 -308.73021824 216.89507671 -313.07421875 214.6796875 C-318.24820816 212.02057052 -323.26789689 209.39189209 -328 206 C-327.67 204.35 -327.34 202.7 -327 201 C-321.62670068 201.51411197 -318.02817789 203.41807578 -313.5 206.125 C-312.08877863 206.94406374 -310.67598467 207.76042328 -309.26171875 208.57421875 C-308.55321777 208.9820459 -307.8447168 209.38987305 -307.11474609 209.81005859 C-303.89717526 211.62054581 -300.61809215 213.29449959 -297.3125 214.9375 C-296.21550781 215.48277344 -295.11851562 216.02804687 -293.98828125 216.58984375 C-291.35525134 217.83235852 -288.71701557 218.95654504 -286 220 C-285.84144531 219.24976563 -285.68289063 218.49953125 -285.51953125 217.7265625 C-284.05285746 211.29264543 -282.16454792 205.75129976 -278.98828125 199.9609375 C-277.84998082 198.06831677 -277.84998082 198.06831677 -278 196 C-302.64848167 183.33810873 -323.45649249 184.93659853 -350 191 Z M26 213 C26.55105909 216.9492568 27.38935371 220.34920174 29 224 C32.33262917 223.61912809 33.86859511 223.10840904 36.5 220.9375 C39.32466501 218.74838462 40.52512531 218.60287146 44 219 C45 222 45 222 44.375 224.5625 C42.5919084 227.7234351 41.44136582 227.9526278 38 229 C36.906875 229.53625 35.81375 230.0725 34.6875 230.625 C27.17021925 233.43145148 16.48651654 233.3074437 9 230.5 C8.01 230.005 7.02 229.51 6 229 C6 227.02 6 225.04 6 223 C6.59167969 223.144375 7.18335938 223.28875 7.79296875 223.4375 C11.92529941 224.40822694 15.7229762 225.27593702 20 225 C19.49513741 220.65818169 18.76196064 217.4524508 16 214 C6.1012449 211.25613455 -3.86407221 212.60512205 -13 217 C-16.32808239 218.88413915 -16.32808239 218.88413915 -19 221 C-19.94875 221.70125 -20.8975 222.4025 -21.875 223.125 C-22.57625 223.74375 -23.2775 224.3625 -24 225 C-24 225.66 -24 226.32 -24 227 C-24.66 227 -25.32 227 -26 227 C-33.37107525 237.01755769 -36.61703294 247.65934111 -36 260 C-35.12859375 260.08636719 -34.2571875 260.17273438 -33.359375 260.26171875 C-17.87347271 262.08851891 -5.69376904 267.59497417 4.37109375 279.71484375 C13.68235627 292.77740628 15.43995052 307.50962638 17 323 C31.13088121 327.46050543 45.73487966 324.99142119 58.8125 318.25 C65.3250568 314.42423794 71.98509069 309.70606668 77 304 C77 303.34 77 302.68 77 302 C77.66 302 78.32 302 79 302 C84.4217114 294.61849249 88.41638776 286.78428163 91 278 C91.22429687 277.31164062 91.44859375 276.62328125 91.6796875 275.9140625 C95.94588913 260.66093066 93.14699154 242.4533554 85.72265625 228.75390625 C78.93722979 217.90645579 68.65049963 210.30772817 56.125 207.3125 C55.09375 207.209375 54.0625 207.10625 53 207 C52.36707031 206.93554688 51.73414063 206.87109375 51.08203125 206.8046875 C42.28922103 206.32420607 34.01840924 209.70354287 26 213 Z M-210 243 C-219.35252692 254.11851467 -223.96851806 268.47222912 -223 283 C-222.46701714 285.40761223 -221.78165275 287.65504174 -221 290 C-219.7625 289.71125 -218.525 289.4225 -217.25 289.125 C-195.14916525 284.28287658 -175.77492871 285.3834284 -156 297 C-149.23302414 301.61199199 -143.70671296 307.08484269 -138.4609375 313.34765625 C-137.97882813 313.89292969 -137.49671875 314.43820312 -137 315 C-136.67 315 -136.34 315 -136 315 C-135.82984375 313.82824219 -135.6596875 312.65648437 -135.484375 311.44921875 C-133.13456773 295.92228802 -129.8332517 281.10841 -117 270.75 C-113.5312681 267.95607317 -113.5312681 267.95607317 -112.5625 263.6875 C-118.37189467 248.78513977 -127.74396142 236.25003303 -142.375 229.1875 C-166.29841594 219.2696693 -192.18716211 223.59388502 -210 243 Z M-334 268 C-334.63164062 268.61230469 -335.26328125 269.22460938 -335.9140625 269.85546875 C-347.3276631 281.6461707 -351.28397064 297.50914617 -351.24438477 313.44848633 C-350.96915868 330.17611631 -343.51043643 345.02054749 -332 357 C-319.6750702 368.7699611 -303.50782747 374.46364929 -286.71533203 374.3605957 C-278.65302196 374.13848646 -271.20986001 372.68765987 -264 369 C-264.03480469 367.71867187 -264.06960938 366.43734375 -264.10546875 365.1171875 C-264.5318682 342.79723268 -259.53681556 323.01291977 -244.17578125 305.9921875 C-239.55561787 301.76187632 -234.24168284 298.40512329 -229 295 C-229.71888262 282.06011284 -237.52961092 272.1265368 -246.5625 263.375 C-272.30070331 240.93254224 -310.76323947 243.68346435 -334 268 Z M-118 282 C-128.98264454 296.1117779 -129.31794857 314.86005272 -127.609375 331.89453125 C-124.91662273 346.99810968 -116.79134234 358.51744607 -106 369 C-105.3709375 369.61488281 -104.741875 370.22976563 -104.09375 370.86328125 C-89.54951604 384.13832498 -71.09657737 387.71494575 -52 387 C-33.86791877 385.23470697 -17.53988018 374.73324782 -6 361 C6.0231752 344.76447997 9.42396472 326.82946619 8 307 C6.58745175 297.60916994 2.101966 288.2673282 -4 281 C-4.66 281 -5.32 281 -6 281 C-6.495 279.515 -6.495 279.515 -7 278 C-18.15834182 269.23273143 -27.99718032 267.09515678 -42 268 C-45.41890927 268.49021126 -48.64102607 269.17317565 -52 270 C-52.33 273.63 -52.66 277.26 -53 281 C-46.61100772 280.64508889 -46.61100772 280.64508889 -41 278 C-38.3125 278.375 -38.3125 278.375 -36 279 C-36 280.65 -36 282.3 -36 284 C-47.40055892 289.31696349 -57.02088576 290.23203744 -69 286 C-72.85608752 284.31436019 -74.68664333 282.74066121 -76.375 278.75 C-76.58125 277.8425 -76.7875 276.935 -77 276 C-71.66570033 275.33321254 -68.95322344 276.96286737 -64.734375 279.90625 C-63.0597914 281.17780649 -63.0597914 281.17780649 -61 281 C-60.67 277.37 -60.34 273.74 -60 270 C-81.452119 259.94431922 -102.17293269 263.33217701 -118 282 Z M-239.64453125 312.58984375 C-252.38314023 325.62420816 -256.42919851 341.59656819 -256.36352539 359.27661133 C-256.10905136 373.48531038 -251.31196203 386.03716382 -242 397 C-241.34 397 -240.68 397 -240 397 C-239.76023437 397.58007812 -239.52046875 398.16015625 -239.2734375 398.7578125 C-233.91337224 408.19547342 -220.54639149 413.78217778 -210.625 416.8125 C-192.85978136 421.05683693 -176.40520574 418.48055535 -160.83349609 409.20166016 C-156.06479484 406.07628764 -151.75887318 402.28447833 -148 398 C-148 397.34 -148 396.68 -148 396 C-147.34 396 -146.68 396 -146 396 C-135.48136727 382.77884703 -130.54758168 365.73038825 -132 349 C-135.12294689 330.18751755 -144.06258204 315.51259263 -159.2578125 303.8203125 C-185.65392844 286.29810448 -217.12978748 291.68080263 -239.64453125 312.58984375 Z " fill="#000000" transform="translate(411,77)"/>
<path d="M0 0 C2.0625 1.625 2.0625 1.625 3 4 C2.25 7.0625 2.25 7.0625 1 10 C-0.20007295 12.9409907 -0.20007295 12.9409907 0.25 15.9375 C0 19 0 19 -1.9375 21.25 C-4.70843597 22.83339199 -6.21533915 23.33290647 -9.25 23.875 C-13.0956831 24.56492321 -15.47405225 25.82362519 -18.625 28.125 C-21.61405332 30.23920845 -23.05327675 31.01065535 -26.75 31.75 C-31.15173421 30.73421518 -32.31735213 28.52979983 -35 25 C-37.61818456 23.66701026 -37.61818456 23.66701026 -40 23 C-41 22 -41 22 -41.4375 19.75 C-40.79458329 15.70880925 -38.12800107 14.27296661 -35 12 C-31.64902069 9.33289402 -29.21275312 7.3416944 -26.9375 3.6875 C-23.36062366 0.41503867 -22.15690606 0.64536245 -17.4375 0.6875 C-16.32246094 0.75324219 -15.20742187 0.81898438 -14.05859375 0.88671875 C-9.21450478 1.06612945 -4.93766242 -0.4488784 0 0 Z M-22.83984375 10.5234375 C-24.14997987 12.39847107 -24.14997987 12.39847107 -25.1328125 14.37109375 C-26 16 -26 16 -28 17 C-27.34 18.98 -26.68 20.96 -26 23 C-25.52691406 22.66226562 -25.05382812 22.32453125 -24.56640625 21.9765625 C-19.51220552 18.56768638 -15.01129318 16.93230704 -9 16 C-9 13.69 -9 11.38 -9 9 C-16.34330436 7.95296405 -16.34330436 7.95296405 -22.83984375 10.5234375 Z " fill="#000000" transform="translate(190,259)"/>
<path d="M0 0 C5.42426852 0.93301077 8.14556926 4.1957143 11.5625 8.25 C13.83631161 10.82531149 15.87794234 11.97617694 19.0625 13.25 C22.20242096 14.50596838 24.39916476 15.60887292 26.5625 18.25 C27.6417346 21.79605656 27.96059088 23.47277496 26.25 26.8125 C25.693125 27.616875 25.13625 28.42125 24.5625 29.25 C23.10123516 32.24943837 22.5398745 33.88799206 22.75 37.25 C22.5625 40.25 22.5625 40.25 20.5625 43.125 C17.42732302 45.34575036 15.55048458 45.91301776 11.71875 45.69140625 C9.32611138 45.20160885 7.4893004 44.35023064 5.3125 43.25 C1.46799654 41.33107973 -1.34063923 41.08053208 -5.625 41.25 C-11.01842275 41.45638097 -13.4623711 40.90282116 -17.4375 37.25 C-18.56693449 34.99113103 -18.53337118 33.62952104 -18.625 31.125 C-18.99130011 27.1841161 -19.97689926 25.15745911 -22.5 22.125 C-24.87394197 19.25338827 -25.42087038 18.34977774 -26.0625 14.5 C-25.4375 11.25 -25.4375 11.25 -24.125 8.9375 C-20.56750926 6.70372674 -17.22674006 6.47882001 -13.109375 5.890625 C-10.3108926 5.21964384 -9.28419997 4.57850783 -7.3125 2.5625 C-4.26100807 0.1080391 -3.7032234 -0.15559762 0 0 Z M-1.4375 8.25 C-2.7059375 9.425625 -2.7059375 9.425625 -4 10.625 C-7.93510047 14.22138296 -12.30731273 14.13847419 -17.4375 14.25 C-16.26649299 16.75479974 -15.29942793 18.39644007 -13.375 20.4375 C-11.02427641 23.84984069 -10.84840993 26.30172584 -10.61328125 30.359375 C-10.6394529 32.26091681 -10.6394529 32.26091681 -9.4375 33.25 C-6.34422978 33.45370316 -3.25873371 33.59610352 -0.16015625 33.6796875 C4.27207863 33.88867303 6.90248627 34.80778469 10.5625 37.25 C12.81578412 37.04356801 12.81578412 37.04356801 14.5625 36.25 C14.43875 34.39375 14.43875 34.39375 14.3125 32.5 C14.28911841 29.18566007 14.29925696 28.55437477 16.5625 25.9375 C17.2225 25.380625 17.8825 24.82375 18.5625 24.25 C18.5625 23.26 18.5625 22.27 18.5625 21.25 C17.75425781 20.97027344 16.94601562 20.69054687 16.11328125 20.40234375 C8.9894122 17.72981869 5.45106283 15.77275056 1.5625 9.25 C0.5725 8.92 -0.4175 8.59 -1.4375 8.25 Z " fill="#000000" transform="translate(256.4375,306.75)"/>
<path d="M0 0 C4.55737263 0.43820891 7.57653445 0.85041169 11 4 C10.67 5.65 10.34 7.3 10 9 C7 10 7 10 3.9375 8.6875 C1 7 1 7 -1 5 C-0.625 2.375 -0.625 2.375 0 0 Z " fill="#000000" transform="translate(252,325)"/>
<path d="M0 0 C2.9375 2.375 2.9375 2.375 5 5 C5 5.66 5 6.32 5 7 C5.99580078 7.02126953 5.99580078 7.02126953 7.01171875 7.04296875 C11.49045112 7.28488568 14.32039156 7.55145843 18.125 10.0625 C20.48977962 13.76732141 20.92000903 16.77293146 20 21 C18.125 24.3125 18.125 24.3125 16 27 C13.74272555 30.38591168 13.69722961 31.94853113 13.5 35.9375 C13.15179384 42.96255931 13.15179384 42.96255931 11 46 C7.11217576 49.04534723 4.04637289 49.34642962 -0.8125 49.4375 C-6.19608518 49.69627212 -9.71770208 50.44295345 -14.33203125 53.12890625 C-17.03542666 54.54074975 -19.03987624 54.52624422 -22 54 C-24.69990662 52.20006226 -26.5418865 50.916227 -28 48 C-27.96844098 46.26999201 -27.90068998 44.54054691 -27.8125 42.8125 C-27.75706848 38.95245062 -27.90942248 36.45907044 -30 33.1875 C-32.20985418 29.6655449 -32.54217282 28.06629614 -32 24 C-30.690098 20.63726652 -29.28909911 19.23441115 -26.1875 17.4375 C-25.47335938 17.00953125 -24.75921875 16.5815625 -24.0234375 16.140625 C-22.48114376 15.27122389 -20.90337776 14.4644403 -19.3125 13.6875 C-16.36671909 11.53787609 -15.08220384 9.04429095 -13.2421875 5.94140625 C-9.82225636 0.59641953 -6.24588388 -1.00380277 0 0 Z M-5 8 C-6.65250522 10.55387171 -8.07711365 13.15422731 -9.4375 15.875 C-12.6959745 20.86007652 -18.89436633 23.28662865 -24 26 C-22.79618552 28.49361571 -21.54571278 30.68143083 -20 33 C-19.8046875 36.13671875 -19.8046875 36.13671875 -19.875 39.6875 C-19.89304687 40.86699219 -19.91109375 42.04648437 -19.9296875 43.26171875 C-19.96449219 44.61716797 -19.96449219 44.61716797 -20 46 C-16.59687262 44.94124926 -13.98646769 43.99097846 -11 42 C-8.64753566 41.91048887 -6.29037872 41.92213845 -3.9375 42 C-1.62625994 42.07632578 0.6893159 42.09162564 3 42 C5.7620896 39.2379104 5.43995673 37.164843 5.8125 33.3125 C6.61093691 26.97693556 7.93723671 23.81116705 12 19 C12 18.01 12 17.02 12 16 C11.00419922 15.88785156 11.00419922 15.88785156 9.98828125 15.7734375 C1.88166837 14.56632142 1.88166837 14.56632142 -1 10.875 C-1.66 9.92625 -2.32 8.9775 -3 8 C-3.66 8 -4.32 8 -5 8 Z " fill="#000000" transform="translate(103,338)"/>
<path d="M0 0 C2.625 0.375 2.625 0.375 5 1 C5.9375 3.0625 5.9375 3.0625 6 6 C4.71875 7.50390625 4.71875 7.50390625 2.9375 9.125 C-3.75083041 15.29164064 -7.38641027 22.92038298 -8.48046875 31.90625 C-9.09825793 34.39598685 -10.06294091 35.37099074 -12 37 C-14.4375 36.25 -14.4375 36.25 -17 35 C-18.94291169 31.07570312 -17.19134291 27.16193567 -15.9375 23.25 C-15.70998047 22.53352295 -15.48246094 21.8170459 -15.24804688 21.07885742 C-13.39538558 15.56417762 -11.06264203 11.22300948 -7 7 C-6.0925 6.05125 -5.185 5.1025 -4.25 4.125 C-3.5075 3.42375 -2.765 2.7225 -2 2 C-1.34 1.34 -0.68 0.68 0 0 Z " fill="#000000" transform="translate(313,358)"/>
<path d="M0 0 C0.75 2.1875 0.75 2.1875 1 5 C-0.625 7.8125 -0.625 7.8125 -3 10 C-5.75 10.3125 -5.75 10.3125 -8 10 C-8.66 8.35 -9.32 6.7 -10 5 C-5 -1.5 -5 -1.5 0 0 Z " fill="#000000" transform="translate(102,360)"/>
<path d="M0 0 C2.63651906 2.16780456 4.54758873 3.837924 5.796875 7.046875 C7.90030334 10.46153139 11.68462687 10.72196375 15.37109375 11.77734375 C18.65419952 13.30425624 19.51467106 14.74408027 21 18 C21.54921431 22.31525527 21.3510957 24.38255583 19.1875 28.1875 C17.95071271 29.77765509 16.69118869 31.35229548 15.36328125 32.8671875 C13.68521194 35.49247644 13.77281043 36.8657077 14 39.9375 C14.1594733 45.35959204 12.89683164 47.81134811 9.375 51.875 C4.79434393 54.04478445 -0.42020475 52.37171653 -5.1875 51.25 C-8.88637094 50.92121147 -10.74846704 52.30649325 -14 54 C-17.53092754 54.43235847 -19.48296799 54.22326382 -22.75 52.8125 C-25.53653941 50.5677877 -26.18250874 49.4929172 -27 46 C-26.93064767 44.41599269 -26.84569417 42.83263436 -26.75 41.25 C-26.59019188 35.87245692 -28.52502191 33.29777857 -31.6484375 29.09375 C-33.70948228 25.90091763 -33.69414283 23.67895697 -33 20 C-31.6875 16.8125 -31.6875 16.8125 -29 14 C-27.23107685 13.33216942 -25.43502851 12.73420249 -23.625 12.1875 C-19.05951471 10.76078585 -17.1299397 9.46509685 -14.625 5.375 C-14.02558594 4.21097656 -14.02558594 4.21097656 -13.4140625 3.0234375 C-10.0731213 -1.75724632 -5.17769433 -1.38688241 0 0 Z M-6 7 C-8.09600132 8.88640119 -9.30659589 10.52559296 -10.75 13 C-13.49476618 16.65968824 -15.73073179 17.50201115 -20 19 C-20.969375 19.391875 -21.93875 19.78375 -22.9375 20.1875 C-23.618125 20.455625 -24.29875 20.72375 -25 21 C-24.66496312 24.60164644 -24.36454226 26.56710606 -22 29.375 C-18.33389595 34.18676156 -18.85319576 40.12783057 -19 46 C-18.34 46.33 -17.68 46.66 -17 47 C-15.52008589 46.36027617 -14.06518284 45.6622522 -12.625 44.9375 C-7.10508389 42.56836812 -3.11837989 43.19436082 2.62890625 44.51953125 C3.41136719 44.67808594 4.19382812 44.83664062 5 45 C6.74479099 43.25520901 6.21032036 40.68598707 6.3125 38.3125 C6.80186446 31.67450786 8.31372957 28.68627043 13 24 C12.67958603 21.39719432 12.67958603 21.39719432 12 19 C11.38511719 18.81824219 10.77023438 18.63648438 10.13671875 18.44921875 C9.32847656 18.19785156 8.52023438 17.94648438 7.6875 17.6875 C6.88699219 17.44386719 6.08648437 17.20023437 5.26171875 16.94921875 C1.77008204 15.48381681 0.35715788 13.6250263 -1.5 10.375 C-2.83729307 7.70243687 -2.83729307 7.70243687 -6 7 Z " fill="#000000" transform="translate(243,417)"/>
<path d="M0 0 C4.875 0.875 4.875 0.875 6 2 C6.25 4.9375 6.25 4.9375 6 8 C3 10 3 10 0.9375 9.9375 C-1 9 -1 9 -2.4375 6.6875 C-3 4 -3 4 -1.625 1.6875 C-0.820625 0.8521875 -0.820625 0.8521875 0 0 Z " fill="#000000" transform="translate(235,440)"/>
</svg>
