<?xml version="1.0" encoding="UTF-8"?>
<svg version="1.1" xmlns="http://www.w3.org/2000/svg" width="668" height="705">
<path d="M0 0 C1.79736328 1.94165039 1.79736328 1.94165039 3 5 C2.79733434 8.70432491 1.96527455 12.23770309 1.140625 15.84765625 C0.80487457 17.42092934 0.80487457 17.42092934 0.46234131 19.02598572 C-0.25701944 22.37570592 -1.00316635 25.71880943 -1.75 29.0625 C-2.23873834 31.3179789 -2.72573807 33.57383529 -3.2109375 35.83007812 C-6.56721856 51.36505678 -6.56721856 51.36505678 -8 57 C-7.27818039 57.15479324 -6.55636078 57.30958649 -5.81266785 57.46907043 C0.83935276 58.99949509 6.86497644 61.07545999 13.09484863 63.84631348 C59.76480403 84.40867565 105.49462724 85.05031495 155.51245117 83.81713867 C156.816122 83.78586946 158.11979282 83.75460026 159.46296883 83.7223835 C165.64648072 83.56888421 171.82586931 83.38481462 178.00622559 83.13391113 C193.7479362 82.56337401 206.3769023 83.22756027 218.53662109 94.41357422 C224.4953157 100.0852715 230.18701544 106.00255201 235.5 112.28515625 C237.06719949 114.07682441 238.7253045 115.72225573 240.4375 117.375 C243 120 243 120 243 122 C243.66 122 244.32 122 245 122 C253.53498898 130.0730437 260.65461572 140.50882174 261.46875 152.47265625 C261.49483288 154.00241728 261.50519957 155.53252546 261.5 157.0625 C261.52835938 157.79404297 261.55671875 158.52558594 261.5859375 159.27929688 C261.61399406 167.60507978 258.68358445 175.23019849 256 183 C255.69072571 183.90003754 255.38145142 184.80007507 255.06280518 185.72738647 C252.52002954 193.10354692 249.92056913 200.45922283 247.3125 207.8125 C246.50218102 210.10359126 245.69187838 212.3946883 244.8815918 214.68579102 C240.4361037 227.23687847 235.96216473 239.77513293 231.25708008 252.23168945 C229.00323368 258.20900028 226.86683814 264.22037468 224.76953125 270.25390625 C221.12862995 280.71530826 217.32749018 291.11468886 213.48339844 301.50292969 C212.36603072 304.52425261 211.25321398 307.54722704 210.140625 310.5703125 C197.80793845 344.00100955 197.80793845 344.00100955 187.18106079 349.10778809 C183.76797018 350.50398948 180.36146036 351.13883904 176.73046875 351.703125 C175.96881912 351.83064148 175.20716949 351.95815796 174.42243958 352.08953857 C172.82260612 352.35435412 171.2217144 352.6128485 169.61987305 352.86523438 C167.2012417 353.24782626 164.78734077 353.6535226 162.37304688 354.0625 C141.81276711 357.46020868 141.81276711 357.46020868 135.0625 354.875 C129.42977999 349.75434544 127.47872223 343.32834527 125.25 336.25 C124.93417969 335.3115625 124.61835938 334.373125 124.29296875 333.40625 C122.0486243 326.37202755 120.24505626 319.01129998 123.3125 312 C125.35381508 309.58066361 126.99076126 308.1218974 130.19921875 307.734375 C134.31571796 307.76022429 138.08433687 307.88164089 142.0625 309 C147.81100735 310.60261417 152.83573933 311.02087767 158.3125 308.4375 C167.7911067 299.84062416 167.79762254 285.7137891 169.37768555 273.75585938 C173.48975928 242.70031581 181.1066679 214.22185515 194.71484375 185.88671875 C198.60880024 177.69247987 200.9792791 169.61186207 198.27734375 160.5859375 C195.8881108 155.42055128 192.72608367 152.51449093 187.75 149.75 C180.7331019 147.83630052 174.6719766 148.99651627 168.16015625 151.89453125 C167.44351807 152.1967157 166.72687988 152.49890015 165.98852539 152.8102417 C163.67134253 153.79245783 161.36599041 154.7986155 159.0625 155.8125 C155.84541823 157.22781247 152.62725316 158.64050608 149.40625 160.046875 C148.60768082 160.3973439 147.80911163 160.74781281 146.98634338 161.10890198 C142.05872847 163.23321095 137.19453788 164.93006192 132.03125 166.390625 C122.248184 169.24521234 122.248184 169.24521234 114 175 C109.86000723 182.91340948 109.7276462 192.11340518 109.26464844 200.86962891 C108.93606117 206.69281237 108.01217868 212.42036967 107.1187439 218.17959595 C106.57766329 221.72721913 106.08821057 225.28211103 105.58984375 228.8359375 C103.7219457 242.02094957 101.82387859 255.20162541 99.88997364 268.3771143 C99.32596924 272.22104461 98.76569662 276.0654336 98.21450806 279.91122437 C97.68860525 283.57974726 97.15271264 287.24667868 96.6095562 290.91268539 C96.40838416 292.2822975 96.21076308 293.65243649 96.0169239 295.02310562 C95.74736288 296.92476011 95.46356736 298.82438026 95.17919922 300.72387695 C94.94534012 302.3309124 94.94534012 302.3309124 94.70675659 303.97041321 C93.59712273 308.72697598 91.8757216 312.81479722 87.875 315.75 C84.97862658 317.6854598 84.97862658 317.6854598 84 320 C83.89126108 321.64839123 83.84367711 323.30099713 83.82641602 324.95288086 C83.80618126 326.49974831 83.80618126 326.49974831 83.78553772 328.0778656 C83.77509933 329.19556839 83.76466095 330.31327118 83.75390625 331.46484375 C83.72097417 333.81445694 83.68776242 336.16406622 83.65429688 338.51367188 C83.60681429 342.2313371 83.56237894 345.94898575 83.52319336 349.66674805 C83.483575 353.24544817 83.43201032 356.82382196 83.37890625 360.40234375 C83.3704921 361.51802231 83.36207794 362.63370087 83.35340881 363.78318787 C83.33676682 364.81758499 83.32012482 365.85198212 83.30297852 366.91772461 C83.29267105 367.82880478 83.28236359 368.73988495 83.27174377 369.67857361 C83 372 83 372 81 375 C78.8359375 375.73046875 78.8359375 375.73046875 76.375 376.1875 C75.14910156 376.42533203 75.14910156 376.42533203 73.8984375 376.66796875 C72.95871094 376.83232422 72.95871094 376.83232422 72 377 C74.94351707 386.29184865 81.16509259 391.27382317 88.69140625 397.07421875 C92.47790492 400.23283778 93.33356139 402.88301588 94.10986328 407.59326172 C94.30441605 408.75080963 94.49896881 409.90835754 94.69941711 411.10098267 C94.90431259 412.36445526 95.10920807 413.62792786 95.3203125 414.9296875 C95.54151874 416.25983006 95.763432 417.5898552 95.98600769 418.91976929 C96.45964294 421.75726884 96.92899824 424.59542916 97.39492798 427.4342041 C98.4958932 434.14039526 99.61808509 440.84304854 100.73854256 447.54600525 C101.11390923 449.79282136 101.48842659 452.03977799 101.86289978 454.28674316 C103.92191342 466.62436715 106.09059935 478.94067316 108.3125 491.25 C111.04525195 506.41517205 113.62282478 521.59785011 116.01098633 536.82128906 C117.28322735 544.88548395 118.72450727 552.88414083 120.39550781 560.87597656 C121.86722 568.48180416 121.1308751 574.34127595 117 581 C113.54034048 585.43298991 109.86816842 587.24416692 104.44062805 588.51191711 C103.37516062 588.76310617 102.30969318 589.01429523 101.21193886 589.27309608 C100.15199903 589.51297438 99.09205921 589.75285267 98 590 C96.6319777 590.31535233 96.6319777 590.31535233 95.23631859 590.63707542 C54.82924823 599.75540734 15.72533554 601.62549128 -25.5164901 601.34222877 C-31.08553322 601.30866334 -36.6525548 601.32900722 -42.22143555 601.37915039 C-152.0035883 602.34380765 -152.0035883 602.34380765 -180.25 583.875 C-184.39265762 579.54403976 -186.85931628 575.00615083 -187.14257812 568.95336914 C-186.97380092 564.27355881 -186.23656509 559.86587547 -185.3828125 555.26953125 C-185.21025436 554.31072052 -185.03769623 553.35190979 -184.85990906 552.36404419 C-184.48413292 550.27740069 -184.10581414 548.19121385 -183.72525024 546.10543823 C-182.68399529 540.39317357 -181.66400711 534.67712326 -180.64453125 528.9609375 C-180.42909164 527.75426926 -180.21365204 526.54760101 -179.99168396 525.30436707 C-177.48485319 511.20109351 -175.14831695 497.06991167 -172.8125 482.9375 C-169.53572824 463.13970591 -166.23615643 443.34872856 -162.63745117 423.60644531 C-162.15991197 420.90471835 -161.70921069 418.20432156 -161.27856445 415.49511719 C-161.09009193 414.34428902 -161.09009193 414.34428902 -160.89781189 413.17021179 C-160.65458119 411.68155265 -160.41961694 410.19151081 -160.1943512 408.70002747 C-159.13332822 402.30509793 -156.85351923 399.082716 -152 395 C-149.9027607 393.18215683 -147.82279895 391.3456429 -145.75 389.5 C-145.22188721 389.03440674 -144.69377441 388.56881348 -144.1496582 388.08911133 C-140.04193954 384.34447685 -138.21601644 381.37073928 -137 376 C-138.60875 376.061875 -138.60875 376.061875 -140.25 376.125 C-143.65712165 376.01142928 -145.26226767 375.89535315 -148 374 C-149.23956922 371.52086157 -149.11148419 369.89862731 -149.09423828 367.12646484 C-149.09026535 365.60380508 -149.09026535 365.60380508 -149.08621216 364.05038452 C-149.08096527 362.948367 -149.07571838 361.84634949 -149.0703125 360.7109375 C-149.07890027 358.38410711 -149.0893775 356.05728308 -149.1015625 353.73046875 C-149.11823272 350.05664739 -149.125064 346.38423715 -149.09960938 342.71044922 C-149.07858915 339.16806422 -149.10193878 335.62820302 -149.1328125 332.0859375 C-149.11542023 330.99606537 -149.09802795 329.90619324 -149.08010864 328.78329468 C-149.18774925 321.93995119 -150.39125462 318.36623083 -155.30392456 313.52041626 C-155.86362946 313.01867889 -156.42333435 312.51694153 -157 312 C-159.30134454 309.69865546 -159.4102309 308.82230737 -159.94506836 305.69189453 C-160.10068741 304.79558319 -160.25630646 303.89927185 -160.41664124 302.97579956 C-160.57692307 301.99636383 -160.7372049 301.0169281 -160.90234375 300.0078125 C-161.16167946 298.47376266 -161.16167946 298.47376266 -161.42625427 296.90872192 C-162.68194611 289.32995151 -163.74286182 281.73184232 -164.75390625 274.1171875 C-165.20573305 270.81172903 -165.65998326 267.50661503 -166.11547852 264.20166016 C-166.41374813 261.98198689 -166.69921705 259.76055631 -166.97192383 257.53759766 C-169.02735054 240.95561584 -173.37836201 228.29055971 -182 214 C-182.80224509 212.59920706 -183.59956747 211.19557803 -184.39086914 209.78857422 C-185.59501222 207.64954124 -186.81290473 205.51812719 -188.05078125 203.3984375 C-192.42216784 195.77698193 -196.5303858 188.02503138 -200.54003906 180.20825195 C-203.32642341 174.78785024 -206.16105925 169.39301352 -209 164 C-209.5352832 162.97696777 -210.07056641 161.95393555 -210.62207031 160.89990234 C-212.13981225 158.02316429 -213.68906349 155.16598361 -215.25 152.3125 C-215.69617676 151.45865723 -216.14235352 150.60481445 -216.60205078 149.72509766 C-220.28464742 143.11718572 -224.90355402 138.90136174 -232.06201172 136.23071289 C-233.95771656 135.69708782 -235.88599873 135.28371191 -237.8125 134.875 C-242.76353234 133.81514598 -245.85092679 133.10545841 -249 129 C-249.64003123 125.31982044 -249.23242224 123.46484448 -247.5625 120.125 C-240.62405698 110.82505181 -230.22748162 103.70860314 -219 101 C-217.09134594 100.95875899 -215.18172061 100.92179946 -213.27288818 100.95373535 C-198.261123 101.05643271 -184.12759981 95.71501148 -169.99370956 91.21170044 C-166.19534027 90.00686487 -162.3889621 88.82788306 -158.58325195 87.64648438 C-152.38507263 85.71938647 -146.1912785 83.77882253 -140.00048828 81.828125 C-131.61308973 79.18635651 -123.21365358 76.58495553 -114.80859375 74 C-113.55408417 73.61396606 -112.29957458 73.22793213 -111.00704956 72.8302002 C-108.56961787 72.08018417 -106.13216923 71.33022325 -103.69470215 70.58032227 C-98.18382301 68.88280807 -92.67563941 67.17664088 -87.16796875 65.46875 C-86.18982208 65.16578003 -85.21167542 64.86281006 -84.20388794 64.55065918 C-79.80621749 63.18717345 -75.41103902 61.81673458 -71.02197266 60.42578125 C-70.26958817 60.1879895 -69.51720367 59.95019775 -68.74201965 59.7052002 C-66.77555439 59.08262504 -64.81021068 58.45651031 -62.8449707 57.83007812 C-60 57 -60 57 -58 57 C-58.14447067 56.3596431 -58.28894135 55.71928619 -58.43778992 55.05952454 C-59.93682486 48.39735619 -61.40854374 41.72957315 -62.86450195 35.05786133 C-63.41154043 32.56835756 -63.96553961 30.08037276 -64.52661133 27.59399414 C-65.33165548 24.0208531 -66.11155235 20.44300663 -66.88671875 16.86328125 C-67.14281418 15.75165115 -67.39890961 14.64002106 -67.6627655 13.4947052 C-67.88322037 12.45400375 -68.10367523 11.41330231 -68.33081055 10.34106445 C-68.63392403 8.97205742 -68.63392403 8.97205742 -68.94316101 7.57539368 C-69.01735679 4.21355817 -67.98501924 2.66424946 -66 0 C-46.10068261 -13.81897041 -19.86234135 -13.11664052 0 0 Z M-44.1875 2.875 C-44.88552734 3.04902344 -45.58355469 3.22304687 -46.30273438 3.40234375 C-49.76411592 4.29156641 -52.84483928 5.33874855 -56 7 C-55.40726347 16.02997064 -53.50155769 24.69132307 -51.56152344 33.50756836 C-50.99478608 36.08622332 -50.43822686 38.6669319 -49.8828125 41.24804688 C-49.52663415 42.88554565 -49.16988457 44.52292031 -48.8125 46.16015625 C-48.64580811 46.93295425 -48.47911621 47.70575226 -48.30737305 48.50196838 C-47.76817961 52.0456092 -47.76817961 52.0456092 -46 55 C-44.07332493 55.08748207 -42.14348139 55.10697334 -40.21484375 55.09765625 C-39.04501953 55.09443359 -37.87519531 55.09121094 -36.66992188 55.08789062 C-34.82237305 55.07532227 -34.82237305 55.07532227 -32.9375 55.0625 C-31.70193359 55.05798828 -30.46636719 55.05347656 -29.19335938 55.04882812 C-26.12885883 55.03699608 -23.06445279 55.02051173 -20 55 C-18.57745058 52.35140922 -17.64467598 49.97421403 -17.05444336 47.02929688 C-16.8976561 46.26170044 -16.74086884 45.494104 -16.57933044 44.70324707 C-16.41779984 43.88336304 -16.25626923 43.063479 -16.08984375 42.21875 C-15.91747696 41.36825073 -15.74511017 40.51775146 -15.56752014 39.64147949 C-15.01882597 36.9286999 -14.47793397 34.21443604 -13.9375 31.5 C-13.39184601 28.7859185 -12.84460955 26.07216126 -12.29676819 23.35852051 C-11.95678404 21.67159349 -11.61837356 19.98434837 -11.28172302 18.29675293 C-11.12808792 17.52915649 -10.97445282 16.76156006 -10.81616211 15.97070312 C-10.68229599 15.29881958 -10.54842987 14.62693604 -10.4105072 13.93469238 C-9.98785858 11.94277833 -9.50551171 9.97236324 -9 8 C-20.40820428 1.63773223 -31.51488124 -0.48056666 -44.1875 2.875 Z M-88.82823181 77.56517029 C-97.5326544 80.55708732 -106.30014672 83.28450727 -115.11328125 85.93359375 C-116.13074904 86.23989086 -116.13074904 86.23989086 -117.16877174 86.55237579 C-122.57199711 88.17821291 -127.97767464 89.79583904 -133.38335037 91.41350555 C-137.78675606 92.73218466 -142.18683142 94.0615618 -146.5859375 95.39453125 C-147.71377151 95.73036728 -148.84160553 96.06620331 -150.00361633 96.41221619 C-151.54555916 96.88069725 -151.54555916 96.88069725 -153.11865234 97.35864258 C-154.01756195 97.62872635 -154.91647156 97.89881012 -155.84262085 98.17707825 C-158.16833114 98.89588895 -158.16833114 98.89588895 -160 101 C-78.49 101 3.02 101 87 101 C85.52948231 98.05896461 83.63150504 97.94815524 80.5625 96.85546875 C79.37833496 96.43249512 78.19416992 96.00952148 76.97412109 95.57373047 C75.64965602 95.11096057 74.32494044 94.64890712 73 94.1875 C72.32495422 93.95001038 71.64990845 93.71252075 70.95440674 93.46783447 C57.08615714 88.59341666 43.10259849 84.07079926 29.05981445 79.7265625 C27.31457416 79.1863327 25.56937512 78.6459696 23.82421875 78.10546875 C22.97505386 77.84269135 22.12588898 77.57991394 21.25099182 77.30917358 C16.1814909 75.72594988 11.18938631 74.01482662 6.20703125 72.17578125 C-27.73804138 59.87485207 -55.63557055 66.09035073 -88.82823181 77.56517029 Z M108 95 C108 95.66 108 96.32 108 97 C108.84304688 97.33773437 109.68609375 97.67546875 110.5546875 98.0234375 C112.19824219 98.69246094 112.19824219 98.69246094 113.875 99.375 C115.51082031 100.03628906 115.51082031 100.03628906 117.1796875 100.7109375 C120 102 120 102 122 104 C122.37278237 115.29692665 119.73517614 126.95006392 117.9375 138.0625 C117.51350285 140.69842534 117.091311 143.33459401 116.67372131 145.97154236 C116.41609674 147.59713486 116.15477561 149.22214735 115.8891449 150.84645081 C115.29261211 154.59845318 114.84569906 158.19815698 115 162 C115.59425781 161.76200684 116.18851562 161.52401367 116.80078125 161.27880859 C117.62964844 160.94703613 118.45851563 160.61526367 119.3125 160.2734375 C120.22644531 159.90702148 121.14039063 159.54060547 122.08203125 159.16308594 C123.97256038 158.40953165 125.8656552 157.66236998 127.76171875 156.92285156 C130.51686213 155.84496558 133.25852894 154.73714287 136 153.625 C137.40958984 153.08359375 137.40958984 153.08359375 138.84765625 152.53125 C139.74355469 152.16257813 140.63945312 151.79390625 141.5625 151.4140625 C142.36816406 151.0938916 143.17382812 150.7737207 144.00390625 150.44384766 C146.90290058 148.34689897 147.19069237 146.45394678 148 143 C148.42234505 140.21467427 148.78122956 137.47005304 149.0703125 134.671875 C149.19924393 133.48830414 149.19924393 133.48830414 149.33078003 132.28082275 C149.51037977 130.61708633 149.68668138 128.95299093 149.85986328 127.28857422 C150.12283246 124.77075333 150.39849305 122.25456081 150.67578125 119.73828125 C150.84972283 118.11206076 151.02292345 116.4857608 151.1953125 114.859375 C151.27653351 114.12048035 151.35775452 113.38158569 151.44143677 112.62030029 C152.01631998 106.99350602 152 101.73470222 152 96 C130.22 95.505 130.22 95.505 108 95 Z M163 96 C162.62468653 98.77224945 162.30682394 101.5301073 162.02734375 104.3125 C161.93997452 105.15538574 161.85260529 105.99827148 161.7625885 106.86669922 C161.57805904 108.65879257 161.39579056 110.45111992 161.21557617 112.24365234 C160.94139984 114.96134404 160.65776841 117.67792663 160.37304688 120.39453125 C160.19473509 122.13796187 160.0169837 123.88144992 159.83984375 125.625 C159.75548569 126.42848877 159.67112762 127.23197754 159.58421326 128.05981445 C159.05606561 133.39866291 158.92804912 138.63480712 159 144 C159.83660156 143.566875 160.67320312 143.13375 161.53515625 142.6875 C171.14639797 138.08943087 180.01040999 135.9187754 190.69921875 138.703125 C199.55892364 142.25302373 205.226767 148.33335546 209 157 C214.0589969 171.22842878 207.84298344 183.87792052 202.13253784 196.8465271 C191.15455667 221.86222902 183.44921687 247.34721557 180.359375 274.59765625 C176.58866056 307.48095756 176.58866056 307.48095756 166 316.875 C160.11456724 321.04384821 154.35421377 322.48547831 147.140625 321.44140625 C145.85671875 321.15136719 144.5728125 320.86132812 143.25 320.5625 C138.17881329 319.3945562 138.17881329 319.3945562 133 319 C133.59541209 324.61920161 135.05392156 329.52045178 137 334.8125 C137.27328125 335.57498047 137.5465625 336.33746094 137.828125 337.12304688 C139.25983594 341.12595314 139.25983594 341.12595314 141 345 C150.05557582 344.40786421 158.92972187 343.19827849 167.875 341.6875 C169.15375 341.48705078 170.4325 341.28660156 171.75 341.08007812 C180.64309065 339.77166926 180.64309065 339.77166926 188 335 C191.22600724 329.08359019 193.58201844 323.01849012 195.828125 316.67578125 C196.18082458 315.69369186 196.53352417 314.71160248 196.89691162 313.69975281 C198.01930504 310.57232734 199.13506664 307.44259189 200.25 304.3125 C201.71071488 300.2242442 203.17452007 296.13710709 204.640625 292.05078125 C205.00119492 291.04493988 205.36176483 290.03909851 205.73326111 289.0027771 C208.49543333 281.3279254 211.36047565 273.6959362 214.29852295 266.08674622 C216.4485599 260.50889323 218.47793348 254.89751498 220.4375 249.25 C220.75686523 248.3314624 221.07623047 247.4129248 221.40527344 246.46655273 C221.78474121 245.36742554 221.78474121 245.36742554 222.171875 244.24609375 C224.13640331 238.58683981 226.15701883 232.94837819 228.1875 227.3125 C228.55576904 226.28866211 228.92403809 225.26482422 229.3034668 224.20996094 C231.5346394 218.02064967 233.79143463 211.84127222 236.06640625 205.66796875 C249.57266139 175.27884144 249.57266139 175.27884144 247.75 143.9375 C243.99827091 137.2488565 238.78461219 131.93781903 233.43310547 126.52050781 C231.95008023 124.94703572 230.60361469 123.30568315 229.25390625 121.6171875 C228.51011719 120.75351563 227.76632812 119.88984375 227 119 C226.34 119 225.68 119 225 119 C224.60385498 118.11924805 224.60385498 118.11924805 224.19970703 117.22070312 C222.12536867 113.3810243 218.93747263 110.56843075 215.875 107.5 C215.235625 106.83613281 214.59625 106.17226562 213.9375 105.48828125 C205.96750257 97.47027179 197.24405008 93.9368997 185.9375 93.8125 C173.7470968 93.19746415 173.7470968 93.19746415 163 96 Z M-230.5 119.125 C-231.1496875 119.62257812 -231.799375 120.12015625 -232.46875 120.6328125 C-234.12498896 121.94219823 -234.12498896 121.94219823 -235 124 C-233.74896484 124.31130859 -233.74896484 124.31130859 -232.47265625 124.62890625 C-218.93131513 128.33610044 -213.04177223 134.16188985 -206 146 C-203.70186702 150.06846988 -201.49874765 154.18302549 -199.3125 158.3125 C-198.08383904 160.61355135 -196.85466383 162.91432817 -195.625 165.21484375 C-195.0165625 166.35550293 -194.408125 167.49616211 -193.78125 168.67138672 C-191.15087096 173.58676334 -188.48559989 178.48275607 -185.8125 183.375 C-185.33176025 184.25534912 -184.85102051 185.13569824 -184.35571289 186.04272461 C-179.25639517 195.37238327 -174.131525 204.68802526 -169 214 C-168.67 214 -168.34 214 -168 214 C-164.1361314 188.77075329 -160.80569783 163.48564172 -157.64697266 138.15917969 C-157.23340352 134.84615722 -156.81158987 131.53440305 -156.38037109 128.22363281 C-156.28584152 127.49060944 -156.19131195 126.75758606 -156.09391785 126.00234985 C-155.84416739 124.06852539 -155.5915208 122.13507555 -155.33862305 120.20166016 C-155.04523554 117.4276993 -154.97438443 114.78365677 -155 112 C-162.92829932 111.90694125 -170.85636693 111.83605486 -178.785079 111.79275131 C-182.46751258 111.771958 -186.14956997 111.74379412 -189.83178711 111.69824219 C-193.39150198 111.65448592 -196.95085714 111.63080095 -200.51082039 111.62049103 C-202.51648459 111.60960358 -204.52200594 111.57842576 -206.52745056 111.54681396 C-216.01966864 111.54450233 -222.96333799 113.22539982 -230.5 119.125 Z M-144 113 C-144.25662791 114.36481156 -144.45516928 115.74062046 -144.62915039 117.1184082 C-144.74368561 118.00798721 -144.85822083 118.89756622 -144.97622681 119.81410217 C-145.09879852 120.79970627 -145.22137024 121.78531036 -145.34765625 122.80078125 C-145.54625748 124.35344948 -145.54625748 124.35344948 -145.74887085 125.93748474 C-146.19057153 129.39534772 -146.62653651 132.85390937 -147.0625 136.3125 C-147.68773325 141.23077259 -148.31610509 146.14864064 -148.9453125 151.06640625 C-149.10932053 152.35058441 -149.27332855 153.63476257 -149.44230652 154.95785522 C-150.57832547 163.81672112 -151.75525183 172.669382 -152.96030617 181.51910973 C-153.24068398 183.57879874 -153.52021264 185.63860128 -153.79948425 187.69844055 C-155.24688149 198.36928376 -155.24688149 198.36928376 -155.98001099 203.67959595 C-156.49122147 207.38458411 -156.99435587 211.09059394 -157.49609375 214.796875 C-157.64887787 215.88640976 -157.80166199 216.97594452 -157.95907593 218.09849548 C-159.15484156 227.01841781 -159.43152024 235.40045503 -158.08203125 244.32421875 C-157.98467682 244.98133347 -157.88732239 245.63844818 -157.78701782 246.31547546 C-157.46993411 248.4407399 -157.14198302 250.56412518 -156.8125 252.6875 C-156.58508373 254.17720275 -156.35795614 255.6669496 -156.13110352 257.15673828 C-155.66173431 260.22969087 -155.18705045 263.30177272 -154.70996094 266.37353516 C-154.12264839 270.1722695 -153.56332818 273.97445824 -153.0146637 277.77894592 C-152.60062325 280.63323143 -152.1726895 283.48531963 -151.74154663 286.33706665 C-151.54009884 287.68731074 -151.34408369 289.03837738 -151.15371704 290.39022827 C-150.88756194 292.2702322 -150.5985776 294.14696137 -150.30859375 296.0234375 C-150.15189209 297.08481934 -149.99519043 298.14620117 -149.83374023 299.23974609 C-148.84709298 302.50622746 -147.61886672 303.8565705 -145 306 C-142.1235953 307.50371737 -142.1235953 307.50371737 -139 308.6875 C-137.96875 309.10386719 -136.9375 309.52023437 -135.875 309.94921875 C-126.51976091 313.36845695 -116.93256104 313.06552872 -107.71875 309.28515625 C-99.85913178 305.90551175 -99.85913178 305.90551175 -93 301 C-93.05647367 298.61391017 -93.17753898 296.26755457 -93.35107422 293.88916016 C-93.40025434 293.16806376 -93.44943447 292.44696735 -93.5001049 291.70401955 C-94.01399228 284.38344128 -94.68188117 277.07824173 -95.3828125 269.7734375 C-95.519484 268.32771751 -95.65588379 266.88197181 -95.79203796 265.436203 C-96.08263657 262.3541673 -96.37457375 259.27226289 -96.66763306 256.19046021 C-97.4582068 247.87369013 -98.23909513 239.55600779 -99.01953125 231.23828125 C-99.10039412 230.37712896 -99.18125698 229.51597668 -99.26457024 228.62872887 C-101.40705368 205.7964411 -103.44497153 182.95478755 -105.47472 160.11224365 C-105.8223672 156.20107557 -106.17068423 152.2899675 -106.51953125 148.37890625 C-106.61785751 147.2762933 -106.61785751 147.2762933 -106.71817017 146.15140533 C-107.735726 134.75974269 -108.81524546 123.37559893 -110 112 C-114.68139254 111.97534712 -119.36274759 111.95716261 -124.04418945 111.94506836 C-125.63794614 111.94002843 -127.23169819 111.9331965 -128.82543945 111.92456055 C-131.11150253 111.91248001 -133.39750467 111.90676845 -135.68359375 111.90234375 C-136.40026718 111.89718246 -137.11694061 111.89202118 -137.85533142 111.88670349 C-141.2120654 111.58767174 -141.2120654 111.58767174 -144 113 Z M-99 112 C-98.27639514 124.87600727 -98.27639514 124.87600727 -97.26318359 137.71020508 C-97.1625796 138.80589986 -97.1625796 138.80589986 -97.0599432 139.9237299 C-96.84209438 142.28925124 -96.62030189 144.65438348 -96.3984375 147.01953125 C-96.23926548 148.73948885 -96.08035275 150.45947046 -95.92167664 152.17947388 C-95.49720095 156.77331933 -95.06933193 161.36684263 -94.64076614 165.96030807 C-94.1926932 170.76900945 -93.74769842 175.57799558 -93.30249023 180.38696289 C-92.75289103 186.32157092 -92.20298494 192.25614982 -91.6516571 198.19059753 C-90.49186099 210.67579773 -89.34011935 223.16170854 -88.19675446 235.64842415 C-87.95194253 238.3218183 -87.70693345 240.9951943 -87.46185303 243.66856384 C-87.38270409 244.53196664 -87.30355515 245.39536943 -87.22200775 246.28493595 C-87.06490901 247.99864743 -86.90780961 249.71235885 -86.75070953 251.42607021 C-86.37022802 255.57726458 -85.99011902 259.72849243 -85.61077881 263.87979126 C-85.25667796 267.75426644 -84.90130463 271.62862293 -84.54499245 275.50289536 C-84.41571213 276.91105754 -84.2868893 278.31926182 -84.15857506 279.72751236 C-83.7856073 283.81968983 -83.40093852 287.91046784 -83 292 C-82.91714752 292.85879761 -82.83429504 293.71759521 -82.74893188 294.60241699 C-82.46767663 298.48616151 -82.46767663 298.48616151 -80.453125 301.6640625 C-52.71643707 313.76197958 -23.20270953 315.95148787 5.3125 305.4375 C7.22844327 304.67362719 9.12731757 303.86452344 11 303 C11.85078125 302.67483398 12.7015625 302.34966797 13.578125 302.01464844 C16.81399208 299.32287675 16.80221098 297.4418542 17.22592163 293.3719635 C17.29960968 292.43066086 17.37329773 291.48935822 17.44921875 290.51953125 C17.54820465 289.49625229 17.64719055 288.47297333 17.74917603 287.41868591 C18.08465634 283.88501489 18.38577846 280.34920316 18.6875 276.8125 C18.92218962 274.25926635 19.15883764 271.70621213 19.3972168 269.15332031 C19.95562349 263.12854619 20.49355045 257.10213718 21.02246094 251.07470703 C21.74360401 242.86086463 22.48158466 234.64863727 23.22753906 226.43701172 C23.33596602 225.24341002 23.44439299 224.04980833 23.55610561 222.82003689 C23.78039857 220.35113137 24.00469229 217.88222592 24.22898674 215.41332054 C26.04424619 195.41146463 27.84631661 175.40837727 29.61964035 155.40275764 C29.82070522 153.1371344 30.02245813 150.87157208 30.22496414 148.60607719 C30.50661149 145.45273305 30.78551254 142.29915702 31.0637207 139.14550781 C31.14422008 138.24989545 31.22471945 137.35428308 31.3076582 136.43153095 C32.02048062 128.2898429 32.48959461 120.16648624 33 112 C-10.56 112 -54.12 112 -99 112 Z M44 112 C43.443125 118.001875 42.88625 124.00375 42.3125 130.1875 C41.15190673 142.68858147 39.98504226 155.18900617 38.796875 167.6875 C34.57661063 212.09969404 30.47695962 256.52262868 27 301 C28.5633473 301.95470579 30.12888719 302.90582162 31.6953125 303.85546875 C32.56687988 304.38551514 33.43844727 304.91556152 34.33642578 305.46166992 C44.56785864 311.37076786 54.42114337 313.90411293 66.23828125 311.28125 C69.27624211 310.32392561 72.10709271 309.33725119 75 308 C75.64684753 307.71082703 76.29369507 307.42165405 76.96014404 307.12371826 C80.08861987 305.49535085 82.45280778 304.19916555 83.95231628 300.91300964 C84.55347097 298.28441357 84.91608319 295.70738656 85.21484375 293.02734375 C85.42737289 291.51917839 85.42737289 291.51917839 85.64419556 289.98054504 C86.10814814 286.63642523 86.52215508 283.28797459 86.9375 279.9375 C87.25850669 277.56556586 87.5833733 275.19415128 87.91186523 272.82324219 C88.60507124 267.79983397 89.28164385 262.7745633 89.94824219 257.74755859 C91.47996506 246.3193379 93.24479105 234.9264692 94.98675537 223.52880859 C98.49244749 200.51975414 101.82246183 177.48612183 105.0874939 154.44187927 C105.28781723 153.0281881 105.28781723 153.0281881 105.4921875 151.5859375 C105.6870726 150.21037437 105.6870726 150.21037437 105.88589478 148.80702209 C107.1899805 139.62356077 108.54657144 130.44822684 109.93481445 121.27709961 C110.07878662 120.3206958 110.22275879 119.36429199 110.37109375 118.37890625 C110.49411865 117.5701001 110.61714355 116.76129395 110.74389648 115.92797852 C111.04389286 113.9937215 111.04389286 113.9937215 111 112 C88.89 112 66.78 112 44 112 Z M-94 314 C-94 314.33 -94 314.66 -94 315 C-88.39 315 -82.78 315 -77 315 C-84.04827208 309.71379594 -86.89363301 309.16767045 -94 314 Z M17.640625 310.6796875 C16.85171875 311.07414062 16.0628125 311.46859375 15.25 311.875 C14.05117188 312.45894531 14.05117188 312.45894531 12.828125 313.0546875 C12.22484375 313.36664063 11.6215625 313.67859375 11 314 C11 314.33 11 314.66 11 315 C16.61 315 22.22 315 28 315 C23.28318075 310.86890959 23.28318075 310.86890959 17.640625 310.6796875 Z M-137 323 C-137 336.53 -137 350.06 -137 364 C-133.81958879 365.59020561 -130.39175068 365.11199365 -126.90097046 365.08229065 C-126.05396627 365.07906152 -125.20696208 365.07583239 -124.3342911 365.07250541 C-121.47981467 365.06038632 -118.62543239 365.04102268 -115.77099609 365.02172852 C-113.73132026 365.01159038 -111.69164219 365.00189621 -109.65196228 364.99261475 C-104.10057402 364.96608709 -98.54923777 364.93331717 -92.99789 364.89946485 C-87.20162491 364.86516791 -81.4053319 364.8365586 -75.60903931 364.80735779 C-64.62659007 364.75115964 -53.64417581 364.6898125 -42.66176474 364.62663645 C-30.16137212 364.55497738 -17.66095146 364.48902647 -5.16052508 364.42356598 C20.55968634 364.28874952 46.27985398 364.14672909 72 364 C72.02464705 358.32169922 72.04283462 352.64342931 72.05493164 346.96508789 C72.05997256 345.03181415 72.06680519 343.09854424 72.07543945 341.1652832 C72.08751565 338.39273128 72.09323057 335.62022959 72.09765625 332.84765625 C72.10281754 331.97786636 72.10797882 331.10807648 72.11329651 330.21192932 C72.11349185 328.14094186 72.06208168 326.07005676 72 324 C70.21379477 322.21379477 67.80533412 322.87743667 65.42691082 322.87091869 C64.62050641 322.87383153 63.81410201 322.87674437 62.98326111 322.87974548 C61.70791113 322.87846385 61.70791113 322.87846385 60.40679651 322.87715632 C57.5354183 322.8754989 54.66409751 322.88102714 51.79272461 322.88647461 C49.7433421 322.88675645 47.69395948 322.88659881 45.64457703 322.8860321 C40.06216088 322.88574401 34.47976602 322.89164264 28.89735484 322.89860606 C23.07037001 322.90483764 17.24338474 322.90544324 11.41639709 322.90663147 C0.37372706 322.90974536 -10.66893313 322.91795953 -21.71159881 322.92798096 C-34.27970079 322.93914029 -46.84780323 322.94465209 -59.41590893 322.94967639 C-85.27727935 322.9601421 -111.13863625 322.9784883 -137 323 Z M-126 376 C-126.99 379.96 -127.98 383.92 -129 388 C-65.64 388 -2.28 388 63 388 C62.01 384.04 61.02 380.08 60 376 C-1.38 376 -62.76 376 -126 376 Z M-94 396 C-94 396.66 -94 397.32 -94 398 C-91.62928983 399.61208291 -89.63838413 400.95741272 -87 402 C-83.83333333 401.5 -83.83333333 401.5 -81 400 C-79.576875 399.443125 -79.576875 399.443125 -78.125 398.875 C-77.42375 398.58625 -76.7225 398.2975 -76 398 C-76.33 397.34 -76.66 396.68 -77 396 C-82.61 396 -88.22 396 -94 396 Z M11 396 C11 396.66 11 397.32 11 398 C12.24176695 398.70226141 13.49385599 399.38629109 14.75 400.0625 C15.44609375 400.44535156 16.1421875 400.82820313 16.859375 401.22265625 C19.41669868 402.15131941 20.48548143 401.94809717 23 401 C24.68991979 400.0398183 26.36209288 399.04644066 28 398 C27.67 397.34 27.34 396.68 27 396 C21.72 396 16.44 396 11 396 Z M-146 406 C-148.78920312 409.80862636 -149.65201104 413.25818423 -150.43530273 417.87646484 C-150.55324755 418.55459229 -150.67119236 419.23271973 -150.79271126 419.93139648 C-151.18290096 422.18967095 -151.55821545 424.45015773 -151.93359375 426.7109375 C-152.20979132 428.32719007 -152.48690788 429.94328583 -152.76487732 431.55923462 C-153.51267188 435.92227732 -154.24757431 440.28740063 -154.97982025 444.65307617 C-155.74494707 449.20345651 -156.52075047 453.75201593 -157.29541016 458.30078125 C-158.41079834 464.85703368 -159.52173889 471.41401562 -160.62768936 477.97186661 C-162.44794186 488.76453025 -164.29472204 499.55239 -166.15644264 510.33797073 C-166.99987784 515.22963281 -167.83857011 520.12210934 -168.67673397 525.01467705 C-169.33828635 528.87560481 -170.00183348 532.7361628 -170.67037964 536.59588623 C-171.2954814 540.20673856 -171.91321735 543.81877736 -172.52543831 547.43183517 C-172.85456689 549.36343187 -173.19110606 551.2937614 -173.52793884 553.22402954 C-176.02939148 564.51924353 -176.02939148 564.51924353 -172.91967773 574.95874023 C-169.60294258 577.27759822 -167.26357795 577.9835762 -163.28515625 578.66015625 C-162.31875214 578.83331108 -162.31875214 578.83331108 -161.33282471 579.00996399 C-159.24548627 579.37957534 -157.15464584 579.72126039 -155.0625 580.0625 C-153.62036421 580.31210788 -152.17855093 580.56358603 -150.73706055 580.81689453 C-147.85291499 581.32139988 -144.9673285 581.81583617 -142.08007812 582.30224609 C-138.43648615 582.91956737 -134.80330314 583.58387318 -131.171875 584.26953125 C-130.17019287 584.45829834 -129.16851074 584.64706543 -128.13647461 584.84155273 C-126.30377133 585.18774939 -124.47124094 585.53486303 -122.63891602 585.88305664 C-116.86131006 586.96535434 -116.86131006 586.96535434 -111 587 C-109.3432971 585.3432971 -109.61531168 583.28059667 -109.38671875 580.99658203 C-109.21968948 579.36003662 -109.21968948 579.36003662 -109.04928589 577.69042969 C-108.92989655 576.47516602 -108.8105072 575.25990234 -108.6875 574.0078125 C-108.55787872 572.72406738 -108.42825745 571.44032227 -108.29470825 570.11767578 C-107.93376731 566.54088607 -107.57852851 562.96354961 -107.22434235 559.38608551 C-106.84759683 555.5889699 -106.46616915 551.79232424 -106.08544922 547.99560547 C-105.32860313 540.43881514 -104.57722205 532.88148913 -103.82720375 525.32401848 C-103.15611704 518.56469383 -102.48158431 511.8057179 -101.80566406 505.046875 C-100.77761577 494.76637292 -99.75260755 484.48557155 -98.72998047 474.20452881 C-98.32843062 470.1675433 -97.92602885 466.13064408 -97.52294922 462.09381104 C-97.04261436 457.28139764 -96.56485025 452.46873515 -96.08892441 447.65588379 C-95.91324278 445.88307495 -95.73675451 444.11034582 -95.5593605 442.33770752 C-94.51542362 431.89925273 -93.61974105 421.47302491 -93 411 C-109.54810406 399.39850955 -127.7182215 395.06887174 -146 406 Z M-65.02131653 404.42469788 C-67 405 -67 405 -70.8503418 405.6628418 C-75.56311467 406.93183773 -78.93379107 408.08637852 -82 412 C-85.36541639 421.02981582 -85.39369901 431.28178857 -85.97577667 440.8320961 C-86.22694824 444.69149447 -86.56087834 448.54365923 -86.88818359 452.3972168 C-87.41006554 458.64077856 -87.8905911 464.88606521 -88.33984375 471.13525391 C-89.14763234 482.30766273 -90.22151619 493.45194535 -91.31356812 504.59970093 C-91.62364803 507.79855277 -91.9228502 510.99822628 -92.21801758 514.19848633 C-93.79188435 531.24743456 -95.58191074 548.27025438 -97.47705078 565.28637695 C-97.57947586 566.22010132 -97.68190094 567.15382568 -97.78742981 568.11584473 C-97.97636594 569.83776949 -98.16868093 571.55932883 -98.36528015 573.28039551 C-98.44945694 574.0519397 -98.53363373 574.82348389 -98.62036133 575.6184082 C-98.69410477 576.27573441 -98.76784821 576.93306061 -98.84382629 577.61030579 C-99.06970261 581.06655544 -99 584.53637736 -99 588 C-55.44 588 -11.88 588 33 588 C33 581.46146287 32.86248786 575.35482328 32.1171875 568.921875 C32.02265793 568.06278534 31.92812836 567.20369568 31.83073425 566.318573 C31.62488494 564.44873968 31.41683648 562.57914742 31.20681763 560.70977783 C30.62020844 555.47728645 30.05372871 550.24262716 29.48828125 545.0078125 C29.36704391 543.88639862 29.24580658 542.76498474 29.12089539 541.60958862 C27.79638113 529.25979447 26.61581718 516.89683643 25.43798828 504.53234863 C25.06196982 500.61948297 24.67693197 496.70760593 24.2890625 492.79589844 C23.16740257 481.44070956 22.05913904 470.0904436 21.18389034 458.71357536 C20.72379572 452.7351369 20.21429982 446.7619896 19.69039917 440.78875732 C19.48179947 438.28293698 19.29340766 435.77534416 19.12625122 433.26641846 C18.88882949 420.29688955 18.88882949 420.29688955 13.39331055 409.22558594 C10.23925414 407.58550633 7.47109522 406.71915571 4 406 C2.60942707 405.48051213 1.22408134 404.94651591 -0.15234375 404.390625 C-21.74049213 397.88521806 -43.50105732 397.36837987 -65.02131653 404.42469788 Z M27 411 C27.0516103 413.36372083 27.1690205 415.6864392 27.33959961 418.04248047 C27.38849051 418.76177671 27.43738142 419.48107296 27.48775387 420.22216606 C28.03158964 427.93595543 28.78348433 435.62769923 29.56640625 443.3203125 C29.72280857 444.87918698 29.8789593 446.43808671 30.03488159 447.99700928 C30.45348028 452.17386542 30.87590392 456.35032583 31.29932785 460.52669525 C31.65344973 464.02294878 32.00567411 467.51939251 32.35794544 471.0158329 C33.28213704 480.18785455 34.21092868 489.35940496 35.1415987 498.53077126 C35.81144945 505.13419227 36.47826257 511.73791513 37.14355469 518.34179688 C38.06132512 527.45108071 38.98359214 536.55990015 39.90914917 545.668396 C40.26158655 549.13784207 40.61233531 552.60745272 40.96170044 556.07720947 C41.37183957 560.14901013 41.78579413 564.22040473 42.2027626 568.29151154 C42.35529944 569.78705363 42.50648534 571.2827342 42.65624619 572.77855682 C42.86020789 574.81351413 43.06947785 576.84793734 43.27905273 578.88232422 C43.39482162 580.02224823 43.51059052 581.16217224 43.62986755 582.3366394 C43.8508758 584.96828451 43.8508758 584.96828451 45 587 C51.92495457 586.39931779 58.73005577 585.46333332 65.57421875 584.2578125 C66.54228958 584.08877411 67.51036041 583.91973572 68.50776672 583.74557495 C70.53751187 583.38951092 72.56690291 583.03142281 74.59594727 582.67138672 C77.68813157 582.12488838 80.78241022 581.59155234 83.87695312 581.05859375 C85.85951693 580.70913757 87.84194386 580.35890379 89.82421875 580.0078125 C90.74103928 579.85144318 91.6578598 579.69507385 92.60246277 579.53396606 C101.73340382 578.01883945 101.73340382 578.01883945 108.97460938 572.68823242 C110.24600614 569.35505391 110.03440921 567.4927343 109.40625 563.98828125 C109.19484375 562.7451416 108.9834375 561.50200195 108.765625 560.22119141 C108.641875 559.54235901 108.518125 558.86352661 108.390625 558.16412354 C107.98282238 555.9048333 107.60535191 553.64208217 107.234375 551.37646484 C106.34702845 545.9759715 105.42427581 540.58177699 104.5 535.1875 C104.15045814 533.13908114 103.80093052 531.09065985 103.45141602 529.04223633 C101.4944288 517.59611948 99.50721486 506.15547583 97.49609375 494.71875 C97.28580032 493.52242447 97.0755069 492.32609894 96.85884094 491.09352112 C95.79490936 485.0458365 94.72693173 478.99889795 93.65356445 472.95288086 C91.66558422 461.72342737 89.73270288 450.49213172 87.984375 439.22265625 C87.67468002 437.25429435 87.36486902 435.2859507 87.05493164 433.31762695 C86.48712434 429.70584464 85.94578701 426.09145023 85.41967773 422.47338867 C85.17007598 420.87273288 84.91956433 419.27221861 84.66796875 417.671875 C84.57243713 416.96011612 84.47690552 416.24835724 84.378479 415.51502991 C83.56597168 410.55379831 81.85679828 408.15976899 78 405 C61.665358 396.62109037 40.7656197 397.2343803 27 411 Z " fill="#000000" transform="translate(328,63)"/>
<path d="M0 0 C2.49259555 1.20095287 4.81404356 2.41679616 7.1875 3.8125 C7.80302734 4.15603516 8.41855469 4.49957031 9.05273438 4.85351562 C15.35739946 8.49423772 15.35739946 8.49423772 17 12 C17.47493104 15.32067169 17.50962035 18.58721312 17.5 21.9375 C17.52835938 22.83146484 17.55671875 23.72542969 17.5859375 24.64648438 C17.59884605 28.99343924 17.52806081 31.28116862 14.90234375 34.85546875 C11.70119866 37.22078323 8.51172837 39.39234344 5.0625 41.375 C4.46759766 41.74238281 3.87269531 42.10976563 3.25976562 42.48828125 C0.37661198 44.15830467 -1.67197429 45.00339045 -5.0234375 44.96875 C-8.62371306 43.79700677 -11.49062173 42.15228866 -14.6875 40.125 C-15.80511719 39.42632813 -16.92273438 38.72765625 -18.07421875 38.0078125 C-23.7753034 34.09545267 -23.7753034 34.09545267 -24.48339844 30.64331055 C-24.61987446 27.65697193 -24.70574297 24.67669353 -24.75 21.6875 C-24.811875 20.65431641 -24.87375 19.62113281 -24.9375 18.55664062 C-25.05240085 11.09287259 -25.05240085 11.09287259 -22.1081543 8.03540039 C-19.80191488 6.49051794 -17.49128696 5.21940814 -15 4 C-13.69482422 3.15115234 -13.69482422 3.15115234 -12.36328125 2.28515625 C-11.34814453 1.67994141 -11.34814453 1.67994141 -10.3125 1.0625 C-9.62800781 0.64097656 -8.94351563 0.21945312 -8.23828125 -0.21484375 C-5.07616678 -1.32406715 -3.226424 -0.87993382 0 0 Z M-13.57421875 12.5390625 C-16.67599097 15.68578794 -17.08775234 17.62582261 -17.4375 22 C-17.08329249 26.34370258 -16.54819698 28.37086118 -13.671875 31.671875 C-10.38902039 33.95784182 -7.93114596 35.22280793 -4 36 C0.62325817 34.71763642 4.58938356 32.41061644 8 29 C8.80131454 24.17918831 9.02413543 19.79337612 8 15 C4.79020307 11.65339206 1.28831945 9.71275221 -3 8 C-7.02479309 8 -10.28984439 10.40748179 -13.57421875 12.5390625 Z " fill="#000000" transform="translate(207,479)"/>
<path d="M0 0 C2 3 2 3 1.875 5.5 C1 8 1 8 -0.6875 9.9375 C-3 11 -3 11 -6.25 10.1875 C-7.61125 9.5996875 -7.61125 9.5996875 -9 9 C-9.78260048 6.18263828 -10.19511109 4.54030762 -9.1875 1.75 C-6.67760532 -1.94879216 -3.95442505 -0.98860626 0 0 Z " fill="#000000" transform="translate(207,496)"/>
</svg>
