<?xml version="1.0" encoding="UTF-8"?>
<svg version="1.1" xmlns="http://www.w3.org/2000/svg" width="668" height="705">
<path d="M0 0 C0.9715654 0.062444 1.9431308 0.124888 2.94413757 0.18922424 C5.01959976 0.32328201 7.09452971 0.46580172 9.16888428 0.61602783 C13.24887232 0.904717 17.3310991 1.13013342 21.41508484 1.35380554 C24.58495101 1.52766844 27.75426597 1.70974204 30.92358398 1.89331055 C110.08641523 6.44097031 188.39467756 6.35097999 267.55639648 1.80541992 C272.88686047 1.50130399 278.21778358 1.22015306 283.55108643 0.97058105 C285.33892112 0.88653167 287.12651983 0.79720707 288.91375732 0.70129395 C291.15608374 0.58741714 293.39645944 0.50759511 295.640625 0.44140625 C297.43004517 0.37300537 297.43004517 0.37300537 299.25561523 0.30322266 C303.35228436 1.01780711 304.8439927 2.57468038 307.33203125 5.83984375 C306.64004292 12.6787497 303.22600448 18.67597348 300.20703125 24.77734375 C299.28626551 26.66072822 298.36691216 28.5448041 297.44921875 30.4296875 C297.04300293 31.25331787 296.63678711 32.07694824 296.21826172 32.92553711 C295.26201213 34.63950621 295.26201213 34.63950621 295.33203125 35.83984375 C295.9353125 35.865625 296.53859375 35.89140625 297.16015625 35.91796875 C300.8748072 36.18158914 303.64728026 36.4390139 306.89453125 38.33984375 C309.06312297 42.11130762 309.19403825 45.60586819 308.33203125 49.83984375 C307.11618226 52.57165636 305.75580722 55.21120953 304.33203125 57.83984375 C305.4921875 57.865625 306.65234375 57.89140625 307.84765625 57.91796875 C322.90902317 58.401057 333.83915139 60.92602388 345.08203125 71.40234375 C345.82453125 72.20671875 346.56703125 73.01109375 347.33203125 73.83984375 C348.01265625 74.54109375 348.69328125 75.24234375 349.39453125 75.96484375 C356.41994846 86.38965639 356.8863946 98.37822076 354.671875 110.43359375 C351.29449575 122.71497284 343.99988825 131.78224497 335.33203125 140.83984375 C334.7803125 141.45472656 334.22859375 142.06960937 333.66015625 142.703125 C316.33879389 161.3536018 288.09563226 173.14222983 265.25109863 183.16516113 C263.84651828 183.78170492 262.44311183 184.40092996 261.04089355 185.02282715 C248.08452789 190.76312334 248.08452789 190.76312334 241.73828125 192.4765625 C232.60881584 194.99352546 228.58361356 197.93957277 223.5847168 206.23461914 C219.87798039 212.93400693 216.71886594 219.56326725 214.33203125 226.83984375 C215.10131454 226.83318192 215.87059784 226.82652008 216.66319275 226.81965637 C223.94486146 226.75932079 231.22640742 226.71375605 238.50826168 226.68440723 C242.25114116 226.66881101 245.99381252 226.64768477 249.73657227 226.61352539 C253.35462527 226.58071421 256.97247922 226.56294539 260.59066963 226.55521202 C261.96485079 226.54970724 263.33902216 226.53895862 264.7131176 226.52265358 C282.09995509 226.3247147 282.09995509 226.3247147 288.70703125 231.8125 C289.24328125 232.50214844 289.77953125 233.19179688 290.33203125 233.90234375 C291.16734375 234.94068359 291.16734375 234.94068359 292.01953125 236 C294.96225849 240.12507301 294.78201558 243.90668223 294.33203125 248.83984375 C292.50668534 254.11306528 289.72483922 256.63675461 285.33203125 259.83984375 C281.85568563 260.99862562 279.05456264 260.87545999 275.39453125 260.90234375 C270.62251945 261.06957636 270.62251945 261.06957636 266.62890625 263.296875 C265.52008272 265.45732084 264.91462716 267.4828054 264.33203125 269.83984375 C264.04199219 270.64808594 263.75195312 271.45632813 263.453125 272.2890625 C260.83854258 280.13280975 261.03424908 287.66737742 261.33203125 295.83984375 C264.40850869 294.83442868 267.45745929 293.79280824 270.48828125 292.65625 C290.18822492 285.26877112 311.47693276 281.73720196 331.26171875 290.57421875 C338.80417375 294.07569993 345.57668638 297.71713644 351.33203125 303.83984375 C351.90824219 304.41992188 352.48445313 305 353.078125 305.59765625 C377.58904387 331.6916857 394.45901173 385.83576445 393.51953125 421.125 C391.88281868 444.82323402 384.16049549 463.92627225 365.96875 479.87890625 C361.81372521 483.36391716 357.37570368 486.4177174 352.89453125 489.46484375 C351.67830078 490.29580566 351.67830078 490.29580566 350.4375 491.14355469 C346.75275889 493.63312454 343.06576292 496.02946263 339.1875 498.20703125 C335.86947194 500.12484627 332.94988733 501.99002574 330.33203125 504.83984375 C329.44749496 509.39063048 330.45031249 513.34158362 331.33203125 517.83984375 C332.47028762 536.99050787 327.10094734 552.86557035 314.99609375 567.703125 C310.03077974 573.09339832 305.06027287 576.98733988 298.58203125 580.33984375 C297.69076538 580.81103638 297.69076538 580.81103638 296.78149414 581.29174805 C282.2291465 588.22713304 265.75747719 587.27055761 250.07592773 587.22802734 C247.54473647 587.23209875 245.01354699 587.23744381 242.48236084 587.24395752 C236.35351332 587.25615927 230.22481061 587.25445349 224.09596138 587.2457196 C219.1102558 587.23891212 214.12458106 587.23803948 209.13887215 587.24129105 C208.42612805 587.24175075 207.71338396 587.24221044 206.97904157 587.24268407 C205.53060181 587.24364336 204.08216205 587.244616 202.63372231 587.24560185 C189.08992367 587.25413201 175.54618621 587.24435872 162.0023976 587.22820075 C150.40855024 587.21479683 138.81479301 587.21713087 127.22094727 587.23095703 C113.72019996 587.24704997 100.21950609 587.25331129 86.71875054 587.24412024 C85.2762919 587.2431647 83.83383325 587.24222159 82.39137459 587.24129105 C81.32710993 587.24059681 81.32710993 587.24059681 80.24134497 587.23988854 C75.26738919 587.23730998 70.29346762 587.24164496 65.31951714 587.24872971 C58.61264778 587.25807386 51.9059737 587.25132108 45.19911194 587.23404694 C42.74583275 587.23009873 40.29253918 587.23118737 37.83926582 587.23783493 C16.23722441 587.29094865 -2.87506956 585.96224511 -19.66796875 570.83984375 C-20.60576172 570.05867187 -20.60576172 570.05867187 -21.5625 569.26171875 C-31.44309199 560.42940627 -38.0120775 545.85982774 -38.79467773 532.7109375 C-38.8749479 530.25308043 -38.90288231 527.79893323 -38.91796875 525.33984375 C-38.93859375 524.5303125 -38.95921875 523.72078125 -38.98046875 522.88671875 C-39.06439438 509.37469293 -34.51121819 496.63137208 -30.29296875 483.96484375 C-29.76018374 482.34756814 -29.22813818 480.73004877 -28.69677734 479.11230469 C-27.58443861 475.7272819 -26.46883504 472.34335811 -25.3515625 468.95996094 C-23.70722374 463.97079071 -22.09021894 458.97307745 -20.48046875 453.97265625 C-14.44511826 435.24144152 -8.23734835 416.57841531 -1.84619141 397.96557617 C3.28647483 383.01482706 8.31487997 368.03042593 13.27754211 353.0223999 C14.48291423 349.37974006 15.70319536 345.74280318 16.94189453 342.11132812 C17.21151001 341.31597153 17.48112549 340.52061493 17.75891113 339.70115662 C18.27341128 338.18444733 18.79143933 336.6689278 19.31384277 335.15492249 C23.12256621 323.88972189 27.09318986 310.12519837 22.30859375 298.72265625 C17.99847612 290.41274946 11.02523562 286.88211198 2.6015625 283.8671875 C0.24196259 282.79907256 -1.05698546 281.85230237 -2.66796875 279.83984375 C-3.29296875 277.15234375 -3.29296875 277.15234375 -2.66796875 273.83984375 C0.81140476 268.65077808 5.07884223 265.0918179 10.33203125 261.83984375 C10.66203125 261.17984375 10.99203125 260.51984375 11.33203125 259.83984375 C10.65140625 259.96359375 9.97078125 260.08734375 9.26953125 260.21484375 C4.76089836 259.63927359 2.25125306 257.21923846 -0.66796875 253.83984375 C-3.31919587 249.45720301 -4.33618472 244.92824017 -3.4453125 239.86328125 C-1.6670867 235.23453268 2.01394439 231.29413824 6.1875 228.67578125 C10.89174481 226.84206834 15.79885512 226.70476791 20.79638672 226.63452148 C22.05724091 226.61457626 23.31809509 226.59463104 24.61715698 226.57408142 C25.97784302 226.55710241 27.33853031 226.54022342 28.69921875 226.5234375 C30.10312476 226.50284259 31.50702493 226.48184549 32.91091919 226.46046448 C36.59003945 226.40550554 40.26921322 226.35598185 43.94842529 226.30761719 C47.70915438 226.2572099 51.46980661 226.20162462 55.23046875 226.14648438 C62.597591 226.03922345 69.96477755 225.93770854 77.33203125 225.83984375 C75.30410108 222.07963741 73.27336733 218.3209518 71.2421875 214.5625 C70.67713501 213.5146936 70.11208252 212.46688721 69.52990723 211.3873291 C65.69713415 204.29936151 61.76989928 197.27192567 57.76953125 190.27734375 C52.92467406 181.76666658 48.32768214 173.157563 43.84472656 164.45141602 C40.3911139 157.77853492 36.7586131 151.23143201 33.01953125 144.71484375 C27.68712498 135.40665455 22.69977032 125.94612727 17.80847168 116.40209961 C13.73166011 108.44797891 9.58617595 100.54238848 5.26953125 92.71484375 C-1.61838369 80.21755955 -8.1781953 67.54783353 -14.66796875 54.83984375 C-15.21525635 53.77789795 -15.76254395 52.71595215 -16.32641602 51.62182617 C-18.25609577 47.62024276 -18.10059797 45.23824077 -17.66796875 40.83984375 C-16.12458784 38.66507974 -15.03131602 38.02151738 -12.66796875 36.83984375 C-10.9609414 36.76988361 -9.25128872 36.75544221 -7.54296875 36.77734375 C-6.63289063 36.78636719 -5.7228125 36.79539063 -4.78515625 36.8046875 C-4.08648437 36.81628906 -3.3878125 36.82789063 -2.66796875 36.83984375 C-3.1990625 35.65648437 -3.73015625 34.473125 -4.27734375 33.25390625 C-6.09503749 29.19469081 -7.89664728 25.12858522 -9.68896484 21.05810547 C-10.49417319 19.23363588 -11.30835855 17.41313081 -12.125 15.59375 C-12.48980469 14.74683594 -12.85460937 13.89992188 -13.23046875 13.02734375 C-13.54113281 12.31964844 -13.85179687 11.61195312 -14.171875 10.8828125 C-14.83694113 8.14399686 -14.56878879 6.50878499 -13.66796875 3.83984375 C-10.0913381 -1.50821996 -5.76369023 -0.47500181 0 0 Z M-2.66796875 10.83984375 C-1.00973102 16.37636426 1.40427051 21.4554489 3.89453125 26.65234375 C4.30638672 27.52310547 4.71824219 28.39386719 5.14257812 29.29101562 C6.83503 33.33205435 6.83503 33.33205435 9.33203125 36.83984375 C10.79681761 36.93655567 12.2662632 36.96356158 13.73423862 36.96289158 C15.16890078 36.96587815 15.16890078 36.96587815 16.63254601 36.96892506 C18.22735649 36.9645558 18.22735649 36.9645558 19.85438538 36.96009827 C20.97413315 36.96095269 22.09388092 36.96180712 23.24756044 36.96268743 C27.03102294 36.96434551 30.81444192 36.95881553 34.59790039 36.95336914 C37.29752124 36.95253175 39.99714122 36.9532008 42.69676208 36.95381165 C48.5249941 36.95433708 54.35321496 36.95118829 60.18144417 36.94557381 C68.60817944 36.93746138 77.03490929 36.93484385 85.46164804 36.93358582 C99.13206855 36.93139489 112.80248311 36.92473371 126.47290039 36.9152832 C139.75577769 36.90611013 153.03865338 36.89902879 166.3215332 36.89477539 C167.13970727 36.89451267 167.95788133 36.89424994 168.80084855 36.89397926 C172.90521343 36.89267426 177.00957832 36.89141054 181.11394322 36.89016736 C215.18664355 36.87979348 249.25933667 36.86217407 283.33203125 36.83984375 C285.33516042 32.69551512 287.33401031 28.54913721 289.33203125 24.40234375 C289.904375 23.21833984 290.47671875 22.03433594 291.06640625 20.81445312 C291.6078125 19.68974609 292.14921875 18.56503906 292.70703125 17.40625 C293.20976562 16.36412354 293.7125 15.32199707 294.23046875 14.24829102 C295.40135359 12.12967907 295.40135359 12.12967907 295.33203125 10.83984375 C287.98648244 10.64806914 280.72181965 10.94662866 273.39453125 11.42578125 C272.45879776 11.48692612 271.52306427 11.54807098 270.55897522 11.61106873 C268.54525535 11.74323994 266.53154834 11.87560705 264.51785278 12.00814819 C219.99670506 14.89667265 175.13257138 16.58240723 130.5145874 15.87304688 C128.18506039 15.83760789 125.85550918 15.80904367 123.52587891 15.78125 C87.20526019 15.32698429 50.90949397 13.48541055 14.67285156 11.01196289 C8.89362881 10.7142172 3.11764646 10.75848354 -2.66796875 10.83984375 Z M-4.66796875 46.83984375 C-4.09926592 50.47300222 -3.56928994 53.53926766 -1.87719727 56.81542969 C-1.50913467 57.53768738 -1.14107208 58.25994507 -0.76185608 59.00408936 C-0.16044044 60.15255341 -0.16044044 60.15255341 0.453125 61.32421875 C0.87191422 62.13868469 1.29070343 62.95315063 1.72218323 63.79229736 C2.61196096 65.51895887 3.50568662 67.24359088 4.40307617 68.96630859 C5.74136575 71.5357672 7.0680997 74.11090007 8.39257812 76.6875 C13.8428251 87.25266543 19.50289319 97.68727832 25.32774353 108.05021667 C32.04378491 120.01811119 38.31971026 132.22523389 44.66308594 144.39306641 C50.00841762 154.64335886 55.49389957 164.78934821 61.20214844 174.84179688 C63.13963454 178.26798233 65.04770171 181.71041336 66.95703125 185.15234375 C67.35615723 185.8700293 67.7552832 186.58771484 68.16650391 187.32714844 C70.50716304 191.53872124 72.83696768 195.75603791 75.1555481 199.97981262 C76.50130655 202.4296212 77.85089028 204.87731234 79.2008667 207.32479858 C79.86605487 208.53301191 80.52953783 209.74216579 81.19122314 210.95230103 C82.12700354 212.66331445 83.06926451 214.37077856 84.01171875 216.078125 C84.55554199 217.06852783 85.09936523 218.05893066 85.65966797 219.0793457 C87.37339915 221.90812795 89.08414375 224.41050752 91.33203125 226.83984375 C94.8317826 227.44370067 94.8317826 227.44370067 98.58203125 227.15234375 C99.8453125 227.10722656 101.10859375 227.06210937 102.41015625 227.015625 C103.85648438 226.92861328 103.85648438 226.92861328 105.33203125 226.83984375 C102.05550036 218.89894086 98.68219906 211.00819428 95.20703125 203.15234375 C94.23432478 200.94793883 93.26166997 198.7435111 92.2890625 196.5390625 C91.79744629 195.4257959 91.30583008 194.3125293 90.79931641 193.16552734 C89.39450104 189.98143501 87.99327082 186.79579754 86.59375 183.609375 C82.78446348 174.93744784 78.97324658 166.26670867 75.11328125 157.6171875 C74.57630615 156.41304199 74.03933105 155.20889648 73.48608398 153.96826172 C72.45608426 151.66051883 71.42445337 149.35350298 70.39086914 147.04736328 C69.02362783 143.98420118 67.67142366 140.91527706 66.33203125 137.83984375 C65.92452637 136.90640137 65.51702148 135.97295898 65.09716797 135.01123047 C64.54633545 133.7024292 64.54633545 133.7024292 63.984375 132.3671875 C63.50278931 131.23204712 63.50278931 131.23204712 63.01147461 130.07397461 C62.24843078 127.56495049 62.21054733 125.4478708 62.33203125 122.83984375 C63.65203125 122.83984375 64.97203125 122.83984375 66.33203125 122.83984375 C76.20708225 143.68107913 85.91712143 164.58824919 95.41601562 185.60351562 C98.48268244 192.3866811 101.56132311 199.16441338 104.64059448 205.94186401 C105.62325374 208.10549468 106.60479125 210.26963145 107.58618164 212.43383789 C108.18501761 213.75278553 108.78389247 215.07171553 109.3828125 216.390625 C109.90528564 217.54216064 110.42775879 218.69369629 110.96606445 219.88012695 C112.04593189 222.21993623 113.17957117 224.53492359 114.33203125 226.83984375 C118.29203125 226.83984375 122.25203125 226.83984375 126.33203125 226.83984375 C125.70500446 217.13883671 124.20821106 207.73500778 122.4609375 198.19140625 C122.17513424 196.6055188 121.88990296 195.01952818 121.60520935 193.43344116 C120.85943584 189.2853856 120.10745559 185.13848265 119.3536377 180.99188232 C118.1498233 174.36578191 116.95425591 167.73819657 115.7612133 161.11014938 C115.34829542 158.8223754 114.93189663 156.53525671 114.51502991 154.24819946 C110.15478198 130.20354662 110.15478198 130.20354662 110.33203125 122.83984375 C111.65203125 122.83984375 112.97203125 122.83984375 114.33203125 122.83984375 C117.16579008 132.01358193 118.80147568 141.35808395 120.46408081 150.79498291 C121.31821135 155.63761171 122.19069523 160.47693316 123.0625 165.31640625 C123.24408157 166.3257724 123.42566315 167.33513855 123.61274719 168.37509155 C125.56619866 179.199549 127.60352075 190.00775713 129.66741943 200.81164551 C130.06841028 202.91159374 130.46819321 205.011773 130.86676025 207.11218262 C131.42366466 210.04544959 131.98458723 212.9779171 132.546875 215.91015625 C132.71318924 216.78827972 132.87950348 217.6664032 133.05085754 218.57113647 C133.80823991 222.82581482 133.80823991 222.82581482 135.33203125 226.83984375 C141.93203125 226.83984375 148.53203125 226.83984375 155.33203125 226.83984375 C157.31799943 219.10982258 159.08956964 211.40033494 160.56640625 203.55859375 C160.76534485 202.5176355 160.96428345 201.47667725 161.16925049 200.4041748 C161.59200316 198.19013976 162.01325853 195.97581836 162.43310547 193.76123047 C163.08987899 190.29846746 163.75132146 186.83662551 164.4140625 183.375 C166.09873723 174.57163144 167.77743541 165.76713426 169.44726562 156.9609375 C170.25715055 152.68994684 171.07198665 148.41993249 171.89074707 144.15063477 C172.32326374 141.88575497 172.74909834 139.61968364 173.17480469 137.35351562 C173.43516383 135.99471822 173.69588229 134.63598958 173.95703125 133.27734375 C174.28574219 131.54291016 174.28574219 131.54291016 174.62109375 129.7734375 C175.25134392 127.17278982 176.01021898 125.15019083 177.33203125 122.83984375 C178.65203125 122.83984375 179.97203125 122.83984375 181.33203125 122.83984375 C181.47368816 127.9209304 180.98248718 132.62329772 179.98681641 137.58837891 C179.84372543 138.32929779 179.70063446 139.07021667 179.5532074 139.83358765 C179.08185809 142.26657559 178.60143419 144.69767897 178.12109375 147.12890625 C177.78893953 148.83641296 177.45743805 150.54404677 177.1265564 152.25180054 C176.25500688 156.74249551 175.3761021 161.23171675 174.49517822 165.72058105 C173.09085605 172.88187555 171.69687018 180.04518335 170.30451584 187.20881271 C169.82082602 189.69112971 169.33348602 192.17270786 168.84561157 194.65420532 C165.45016766 210.62585913 165.45016766 210.62585913 164.33203125 226.83984375 C167.96203125 226.83984375 171.59203125 226.83984375 175.33203125 226.83984375 C180.93841544 215.80347068 186.25689452 204.66379266 191.39453125 193.40234375 C192.13122315 191.7932 192.86812504 190.18415236 193.60522461 188.57519531 C197.91223727 179.16716026 202.19558499 169.74838087 206.47094727 160.32592773 C207.73689942 157.53641109 209.00560608 154.74817675 210.27709961 151.96118164 C210.87748787 150.6447152 211.47783086 149.32822811 212.078125 148.01171875 C212.36348618 147.38607529 212.64884735 146.76043182 212.94285583 146.11582947 C214.6163966 142.43839993 216.25427093 138.74733783 217.8671875 135.04296875 C218.22997803 134.22666992 218.59276855 133.41037109 218.96655273 132.56933594 C219.59728037 131.14961576 220.21426685 129.72365256 220.81274414 128.29003906 C221.62109375 126.49609375 221.62109375 126.49609375 223.33203125 123.83984375 C226.04296875 122.93359375 226.04296875 122.93359375 228.33203125 122.83984375 C229.71102573 126.9768272 228.05367944 129.37132943 226.31640625 133.12890625 C225.98952316 133.85631516 225.66264008 134.58372406 225.32585144 135.33317566 C224.25345222 137.71451952 223.16777216 140.08955716 222.08203125 142.46484375 C221.34085915 144.1046016 220.60071118 145.74482272 219.86157227 147.38549805 C218.38085046 150.67090089 216.89608566 153.95442957 215.40869141 157.23681641 C212.64290341 163.35236693 209.95429462 169.50082833 207.26953125 175.65234375 C204.50674884 181.95866214 201.709015 188.23885386 198.76953125 194.46484375 C195.69667874 200.97779211 192.7806017 207.55459953 189.89453125 214.15234375 C189.44456787 215.17473145 188.99460449 216.19711914 188.53100586 217.25048828 C188.1160083 218.2042334 187.70101074 219.15797852 187.2734375 220.140625 C186.71184937 221.42706909 186.71184937 221.42706909 186.13891602 222.73950195 C185.21249275 224.77600559 185.21249275 224.77600559 185.33203125 226.83984375 C190.28203125 226.83984375 195.23203125 226.83984375 200.33203125 226.83984375 C215.02781435 201.34550952 215.02781435 201.34550952 228.6015625 175.24609375 C231.57885405 169.38560113 234.86258096 163.7000481 238.11425781 157.98876953 C240.2720981 154.18096877 242.39535963 150.3539972 244.51953125 146.52734375 C244.91116455 145.82319336 245.30279785 145.11904297 245.70629883 144.39355469 C246.91839995 142.21091176 248.12622269 140.0259693 249.33203125 137.83984375 C249.79697998 136.99752197 250.26192871 136.1552002 250.7409668 135.28735352 C255.10061463 127.34623462 259.25595796 119.3051761 263.38867188 111.24414062 C266.66737831 104.89533694 270.10950894 98.68580166 273.76904297 92.5480957 C275.2982738 89.89833663 276.67968498 87.21446676 278.01953125 84.46484375 C281.45811549 77.43857677 285.24374032 70.60664665 289.01831055 63.75634766 C291.90692484 58.5025373 294.69115226 53.22268801 297.33203125 47.83984375 C296.32476975 46.61153424 296.32476975 46.61153424 294.27781194 46.71564525 C293.36382511 46.71602497 292.44983827 46.71640469 291.50815487 46.71679592 C290.45766175 46.71480487 289.40716864 46.71281382 288.32484239 46.71076244 C287.1565798 46.71367528 285.9883172 46.71658812 284.78465271 46.71958923 C283.55464902 46.71873481 282.32464534 46.71788038 281.05736881 46.71700007 C277.6277334 46.71563182 274.19815435 46.71877951 270.76852572 46.72377813 C267.07593891 46.72807916 263.38335399 46.72663645 259.69076538 46.72587585 C253.28794882 46.7253504 246.88514242 46.72849946 240.48232841 46.73411369 C231.22482778 46.74222577 221.96733207 46.74484361 212.70982827 46.74610168 C197.69172192 46.74829267 182.67362098 46.754954 167.65551758 46.7644043 C153.06306994 46.77357722 138.47062377 46.78065864 123.87817383 46.78491211 C122.52993941 46.78530619 122.52993941 46.78530619 121.15446793 46.78570824 C116.64553313 46.78701324 112.13659831 46.78827696 107.62766349 46.78952014 C70.19578225 46.79989419 32.76390717 46.81751376 -4.66796875 46.83984375 Z M296.33203125 70.83984375 C294.59817669 73.36838165 293.40485873 75.97452813 292.33203125 78.83984375 C293.20601563 78.7315625 293.20601563 78.7315625 294.09765625 78.62109375 C306.10166695 77.26214914 319.11892797 76.0540052 329.6015625 83.16796875 C333.90950373 87.33004289 335.47995589 93.36826812 335.89453125 99.21484375 C335.2117541 111.33413825 327.35201001 121.2149261 318.83203125 129.17578125 C316.07318171 131.51587684 313.24407728 133.69353003 310.33203125 135.83984375 C309.336875 136.58363281 308.34171875 137.32742187 307.31640625 138.09375 C299.14092866 143.96577544 290.31598051 148.65453451 281.39453125 153.27734375 C280.7731427 153.59948853 280.15175415 153.9216333 279.51153564 154.25354004 C272.85695492 157.68656623 266.17557096 160.96360859 259.296875 163.9296875 C257.65803345 164.64137085 257.65803345 164.64137085 255.98608398 165.36743164 C253.94621814 166.23886283 251.89527349 167.08498772 249.83227539 167.90014648 C243.79176234 170.46682108 240.90013339 172.94255548 237.95898438 178.85595703 C237.06465246 180.88504239 237.06465246 180.88504239 238.33203125 182.83984375 C299.33060414 159.77657233 299.33060414 159.77657233 341.64453125 113.71484375 C342.22815183 112.09730912 342.79229503 110.47254582 343.33203125 108.83984375 C343.56921875 108.17339844 343.80640625 107.50695312 344.05078125 106.8203125 C346.20827222 99.85104891 345.70033882 92.24737266 342.70703125 85.58984375 C337.64623693 76.81421104 330.8261896 72.95246905 321.33203125 69.83984375 C313.72918892 68.10586217 303.45371222 67.35167348 296.33203125 70.83984375 Z M283.33203125 94.83984375 C281.92422075 97.05556847 281.92422075 97.05556847 280.73828125 99.48828125 C280.27139893 100.4002124 279.8045166 101.31214355 279.32348633 102.25170898 C278.83130615 103.22954346 278.33912598 104.20737793 277.83203125 105.21484375 C276.76475176 107.29776283 275.6956946 109.37977185 274.625 111.4609375 C274.08020996 112.5216748 273.53541992 113.58241211 272.97412109 114.67529297 C270.42979005 119.57859642 267.79651809 124.4316115 265.14453125 129.27734375 C264.65114258 130.17904297 264.15775391 131.08074219 263.64941406 132.00976562 C259.27082596 139.98723311 254.82247225 147.92487451 250.33203125 155.83984375 C250.99203125 156.16984375 251.65203125 156.49984375 252.33203125 156.83984375 C254.61572311 155.90104373 256.76666089 154.90173665 258.96484375 153.7890625 C259.96161133 153.29490845 259.96161133 153.29490845 260.97851562 152.79077148 C263.14309497 151.71276761 265.30053699 150.62142339 267.45703125 149.52734375 C268.18855408 149.15848053 268.9200769 148.78961731 269.67376709 148.40957642 C280.22732708 143.0799022 290.69077587 137.72685338 300.33203125 130.83984375 C300.95190918 130.39833984 301.57178711 129.95683594 302.21044922 129.50195312 C313.15132953 121.58621376 321.63494889 113.19167434 326.26953125 100.21484375 C326.36184867 96.70678183 325.23144791 94.75228263 323.33203125 91.83984375 C313.22066411 84.32113485 291.79525675 85.52866109 283.33203125 94.83984375 Z M7.33203125 240.83984375 C6.83195331 244.3819836 6.83195331 244.3819836 7.33203125 247.83984375 C10.50845511 249.95745966 11.27285993 250.09084555 14.90669155 250.09711266 C15.85071471 250.10356155 16.79473786 250.11001044 17.76736778 250.11665475 C19.32600134 250.11200895 19.32600134 250.11200895 20.91612244 250.10726929 C22.01842259 250.1118004 23.12072273 250.11633151 24.25642592 250.12099993 C27.96908831 250.13371236 31.68160529 250.13201916 35.39428711 250.13037109 C38.04830985 250.13635203 40.70232099 250.14309944 43.3563385 250.15072632 C49.82834279 250.16735224 56.30031065 250.17283656 62.77233451 250.17395107 C68.03157853 250.17490072 73.29081052 250.17900679 78.55005074 250.18535233 C93.45320242 250.20296842 108.35632527 250.21219052 123.25948744 250.21069138 C124.06322915 250.21061147 124.86697085 250.21053155 125.69506836 250.21044922 C126.4997886 250.21036746 127.30450884 250.2102857 128.13361455 250.21020146 C141.18022153 250.20938826 154.22671315 250.22853338 167.27328675 250.25672595 C180.66179621 250.28542972 194.05024936 250.29926766 207.43879038 250.2975384 C214.95854568 250.29687367 222.47818001 250.30240226 229.99790764 250.3238945 C236.39946182 250.34207332 242.80084019 250.34648092 249.20240896 250.33287565 C252.46982272 250.32632932 255.73682745 250.32844653 259.00422287 250.34358215 C262.54343964 250.35891922 266.08176023 250.34980227 269.62095642 250.33432007 C271.17624389 250.34975076 271.17624389 250.34975076 272.76295131 250.36549318 C278.28892461 250.40466646 278.28892461 250.40466646 283.00147343 247.80893898 C283.44055751 247.15913755 283.87964159 246.50933613 284.33203125 245.83984375 C283.06228153 241.42462266 283.06228153 241.42462266 280.33203125 237.83984375 C278.27814565 237.53613109 278.27814565 237.53613109 275.87762547 237.58536816 C274.93497666 237.57953596 273.99232785 237.57370377 273.02111393 237.56769484 C271.45708794 237.57336383 271.45708794 237.57336383 269.86146545 237.57914734 C268.75931416 237.57532179 267.65716287 237.57149624 266.52161306 237.56755477 C262.80350501 237.55718027 259.08555011 237.56122536 255.36743164 237.56518555 C252.71193422 237.56084153 250.0564483 237.55572445 247.4009552 237.54969788 C240.921792 237.53692405 234.44267019 237.53516052 227.96349651 237.53749814 C222.69897647 237.53927849 217.43446902 237.53753776 212.16995049 237.5332737 C211.4217401 237.53267851 210.67352971 237.53208332 209.90264628 237.53147009 C208.38283654 237.53025839 206.8630268 237.52904426 205.34321707 237.52782772 C191.07828637 237.51694182 176.81337928 237.51911962 162.54844724 237.52521256 C149.48818788 237.53038255 136.42800308 237.51912599 123.36775846 237.50011434 C109.96911655 237.48075907 96.57050995 237.47247588 83.17185396 237.4762376 C75.64487438 237.47815318 68.11795828 237.47562752 60.59099007 237.46152306 C54.18318143 237.44963765 47.77547533 237.44817225 41.36766536 237.46031322 C38.09639677 237.46622208 34.82535578 237.46563379 31.55409241 237.45531082 C28.01241164 237.44493699 24.47124237 237.45286861 20.92958069 237.46562195 C19.88912741 237.45824766 18.84867414 237.45087338 17.77669197 237.44327563 C16.83143542 237.45048217 15.88617887 237.45768872 14.91227818 237.46511364 C14.09430557 237.46505862 13.27633296 237.46500361 12.43357331 237.46494693 C9.78567065 237.93730973 8.90419392 238.68050402 7.33203125 240.83984375 Z M17.33203125 268.83984375 C16.06155425 269.79864943 14.79079512 270.75708161 13.51953125 271.71484375 C12.79765625 272.41609375 12.07578125 273.11734375 11.33203125 273.83984375 C11.33203125 274.49984375 11.33203125 275.15984375 11.33203125 275.83984375 C13.31874999 277.15286263 13.31874999 277.15286263 15.83203125 278.46484375 C24.91794952 283.76710767 31.22492263 290.31132025 34.08203125 300.51953125 C38.95046574 323.46202879 25.35403376 350.00727519 18.13671875 371.49609375 C17.77406418 372.57786392 17.77406418 372.57786392 17.40408325 373.68148804 C16.30516769 376.95690022 15.19830811 380.22885653 14.07519531 383.49609375 C13.7087793 384.56859375 13.34236328 385.64109375 12.96484375 386.74609375 C12.64660645 387.66712891 12.32836914 388.58816406 12.00048828 389.53710938 C11.1926413 391.92038878 11.1926413 391.92038878 11.33203125 394.83984375 C100.10203125 394.83984375 188.87203125 394.83984375 280.33203125 394.83984375 C279.65270376 391.44320628 278.96070942 388.46938336 277.88916016 385.22412109 C277.59860748 384.33904877 277.30805481 383.45397644 277.00869751 382.54208374 C276.69516327 381.59620392 276.38162903 380.6503241 276.05859375 379.67578125 C275.73418304 378.68792633 275.40977234 377.70007141 275.07553101 376.68228149 C274.03876449 373.5255619 272.99833732 370.37006857 271.95703125 367.21484375 C270.59186008 363.07786476 269.23042345 358.9396828 267.87109375 354.80078125 C267.56160797 353.86704681 267.25212219 352.93331238 266.93325806 351.97128296 C260.61439447 332.72915683 260.61439447 332.72915683 261.33203125 325.83984375 C263.91229707 321.96944502 266.97589438 321.0452053 271.14453125 319.40234375 C272.28498901 318.94384033 272.28498901 318.94384033 273.44848633 318.47607422 C288.25065909 312.61975804 304.57953757 307.32218263 320.33203125 312.83984375 C338.72447192 321.08687722 345.0581073 337.35578511 351.95556641 355.15576172 C354.5367913 362.06436116 356.9267733 369.03478146 359.26953125 376.02734375 C359.50273071 376.71959045 359.73593018 377.41183716 359.97619629 378.12506104 C364.38912054 391.29071515 367.90270872 403.77588278 367.76953125 417.77734375 C367.76123291 418.91107422 367.75293457 420.04480469 367.74438477 421.21289062 C367.49671579 433.50291257 365.50105163 443.07915402 357.72265625 452.94921875 C356.1345254 454.71720011 356.1345254 454.71720011 356.33203125 456.83984375 C355.80996094 457.06671875 355.28789063 457.29359375 354.75 457.52734375 C351.46977821 459.30788417 348.60628834 461.58566706 345.64453125 463.83984375 C340.02977977 468.02766113 334.28750122 471.87950187 328.26953125 475.46484375 C327.2172937 476.10292969 327.2172937 476.10292969 326.14379883 476.75390625 C322.22795193 479.0395992 318.9543289 480.55807815 314.33203125 480.83984375 C313.34203125 480.50984375 312.35203125 480.17984375 311.33203125 479.83984375 C310.12083319 477.27946305 309.10777759 474.8062939 308.14453125 472.15234375 C307.69062012 470.94010132 307.69062012 470.94010132 307.22753906 469.70336914 C306.57999715 467.96670414 305.93809121 466.22792929 305.30126953 464.48730469 C304.37481923 461.95671852 303.43158314 459.43303282 302.484375 456.91015625 C297.64026157 443.89630749 293.24804487 430.73869679 288.92480469 417.54467773 C288.69371506 416.84284363 288.46262543 416.14100952 288.22453308 415.41790771 C287.59014956 413.49055177 286.95915852 411.56208016 286.32836914 409.63354492 C285.60240796 406.96738992 285.60240796 406.96738992 284.33203125 405.83984375 C282.85160275 405.74308848 281.36655852 405.71612613 279.88297176 405.71679592 C278.91608014 405.71480487 277.94918852 405.71281382 276.95299715 405.71076244 C275.34067739 405.7151317 275.34067739 405.7151317 273.69578552 405.71958923 C272.56378709 405.71873481 271.43178867 405.71788038 270.26548725 405.71700007 C266.44056632 405.71534197 262.61568844 405.72087201 258.79077148 405.72631836 C256.06159436 405.72715575 253.3324181 405.72648671 250.60324097 405.72587585 C244.71116623 405.72535042 238.81910253 405.72849924 232.92703056 405.73411369 C224.40798803 405.74222608 215.88895086 405.74484364 207.36990488 405.74610168 C193.5497415 405.74829262 179.72958401 405.75495382 165.90942383 405.7644043 C152.48103871 405.77357735 139.05265519 405.7806587 125.62426758 405.78491211 C124.79713253 405.78517483 123.96999747 405.78543756 123.11779772 405.78570824 C118.96848063 405.78701324 114.81916353 405.78827696 110.66984642 405.78952014 C76.22390379 405.79989404 41.77796815 405.81751347 7.33203125 405.83984375 C6.69190906 407.42885485 6.05291111 409.01831888 5.41438293 410.60797119 C5.05841947 411.49305485 4.702456 412.3781385 4.33570576 413.29004288 C3.06480053 416.51873428 1.93744294 419.78150734 0.84375 423.07421875 C0.62370804 423.73434967 0.40366608 424.39448059 0.17695618 425.07461548 C-0.54543674 427.24529405 -1.26316445 429.41747879 -1.98046875 431.58984375 C-2.49534669 433.14277272 -3.01032331 434.69566898 -3.52539062 436.24853516 C-5.24620846 441.44346062 -6.95776528 446.64141589 -8.66796875 451.83984375 C-8.98666931 452.80796997 -9.30536987 453.77609619 -9.63372803 454.77355957 C-11.65307411 460.90944165 -13.66753961 467.04690118 -15.67660522 473.18615723 C-16.33034783 475.18338767 -16.98481156 477.18038224 -17.64004517 479.17712402 C-29.79137837 514.27882873 -29.79137837 514.27882873 -23.16796875 550.02734375 C-16.77173047 561.78513471 -6.98633504 569.19676723 5.33203125 573.83984375 C12.02237543 575.77886275 18.41601001 576.12891351 25.3493042 576.10726929 C26.42587949 576.1118004 27.50245478 576.11633151 28.61165357 576.12099993 C32.20175859 576.13361148 35.79171128 576.13202564 39.38183594 576.13037109 C41.96302484 576.13635835 44.54421196 576.14316435 47.12539673 576.15072632 C53.39907006 576.16729144 59.6727058 576.17283382 65.94639918 576.17395107 C71.04953002 576.17490367 76.15264852 576.1790245 81.25577545 576.18535233 C95.74586226 576.20295239 110.23591952 576.21219312 124.72601709 576.21069138 C125.89611129 576.21057151 125.89611129 576.21057151 127.08984375 576.21044922 C127.8708665 576.21036746 128.65188925 576.2102857 129.45657936 576.21020146 C142.10873483 576.20938888 154.76077117 576.22852268 167.41289219 576.25672595 C180.42534116 576.28550199 193.4377321 576.29926366 206.45021367 576.2975384 C213.74716176 576.29687613 221.04398493 576.30229652 228.34090424 576.3238945 C235.20611773 576.34408559 242.07106403 576.34338452 248.93629074 576.32886124 C251.44965628 576.32677507 253.9630384 576.33146243 256.47637558 576.34358215 C274.15700746 576.42328965 290.15390423 576.07523717 303.92578125 563.46484375 C314.57816503 552.42743405 320.76596537 540.29049768 320.58203125 524.96484375 C320.57816406 524.1769043 320.57429688 523.38896484 320.5703125 522.57714844 C320.49590491 517.56083677 320.06762015 512.84830212 318.76953125 507.98046875 C318.16231315 505.00943731 317.86288934 502.86971858 318.33203125 499.83984375 C320.51234043 497.92580796 322.36760019 496.60122258 324.83203125 495.15234375 C326.21576126 494.28531675 327.59854307 493.41677499 328.98046875 492.546875 C329.69944336 492.1029541 330.41841797 491.6590332 331.15917969 491.20166016 C353.88885418 476.95602821 374.97392281 462.35904132 381.33203125 434.83984375 C384.48819932 419.47982582 382.11155047 403.83498381 378.33203125 388.83984375 C378.16074707 388.1545459 377.98946289 387.46924805 377.81298828 386.76318359 C371.37698986 361.76727425 362.98342052 330.59680692 344.33203125 311.83984375 C343.77257812 311.26621094 343.213125 310.69257813 342.63671875 310.1015625 C331.18752143 299.39905196 317.57898543 295.13790969 302.15234375 295.57421875 C289.43012536 296.45879017 279.08028998 300.29703345 267.54321289 305.52294922 C266.55313232 305.96268066 265.56305176 306.40241211 264.54296875 306.85546875 C263.65915527 307.26055664 262.7753418 307.66564453 261.86474609 308.08300781 C258.9146348 308.96457182 257.2405969 308.78425723 254.33203125 307.83984375 C253.22265625 306.16796875 253.22265625 306.16796875 252.58203125 304.08984375 C252.3603125 303.414375 252.13859375 302.73890625 251.91015625 302.04296875 C248.88445837 290.51260658 249.86219873 278.23142451 254.43359375 267.17578125 C255.57135064 264.63473956 255.57135064 264.63473956 255.33203125 260.83984375 C251.41592641 260.66557619 247.50081628 260.5590022 243.58203125 260.46484375 C242.47085937 260.41457031 241.3596875 260.36429687 240.21484375 260.3125 C237.15048047 260.25711994 234.34781238 260.28928036 231.33203125 260.83984375 C227.02844996 265.14342504 225.63558356 271.13562792 223.67578125 276.81640625 C221.77197174 281.09997764 219.94412757 283.20586291 215.55625153 284.93146038 C212.37138198 285.82875718 209.82201458 286.09365083 206.52575684 286.10054016 C205.39026901 286.10762497 204.25478119 286.11470978 203.08488464 286.12200928 C201.85353287 286.11953186 200.62218109 286.11705444 199.35351562 286.11450195 C198.0455452 286.11961288 196.73757477 286.12472382 195.38996887 286.12998962 C191.81356048 286.1433444 188.237258 286.14396237 184.66082954 286.14142632 C181.67123554 286.14035448 178.68166278 286.14524531 175.69207335 286.15003175 C168.63828654 286.16111419 161.58455301 286.16157109 154.53076172 286.15551758 C147.26093996 286.14947453 139.99131158 286.16179999 132.72152281 286.18308765 C126.47166573 286.20071377 120.22187016 286.20670352 113.97198915 286.2034499 C110.24276243 286.20163892 106.51367375 286.20425492 102.7844696 286.21816444 C98.62636789 286.23309464 94.46865918 286.22376388 90.31054688 286.2121582 C88.46351921 286.22362381 88.46351921 286.22362381 86.57917786 286.23532104 C76.11282102 286.17066663 76.11282102 286.17066663 71.33203125 282.83984375 C69.97998047 281.12573242 69.97998047 281.12573242 69.13671875 279.2578125 C68.81316406 278.57267578 68.48960937 277.88753906 68.15625 277.18164062 C67.84300781 276.47072266 67.52976562 275.75980469 67.20703125 275.02734375 C66.24628811 272.9341584 65.27650991 270.85042165 64.26098633 268.78320312 C63.41715497 267.01792124 62.6822813 265.20158533 61.9609375 263.3828125 C57.37336157 258.94520191 51.50558528 259.87187832 45.39453125 259.96484375 C43.42214478 259.97994995 43.42214478 259.97994995 41.40991211 259.99536133 C31.26670035 260.31046204 24.91723276 261.81506091 17.33203125 268.83984375 Z M71.33203125 260.83984375 C74.25608479 269.60098184 74.25608479 269.60098184 79.33203125 276.83984375 C83.46460544 277.73230392 87.53500014 277.63795421 91.74804688 277.58447266 C93.01992355 277.59177399 94.29180023 277.59907532 95.60221863 277.6065979 C99.08808047 277.62540267 102.57281788 277.6065796 106.05859184 277.57993364 C109.7069095 277.55729178 113.35517231 277.56552061 117.00354004 277.56942749 C123.13031373 277.57119308 129.25664469 277.54904004 135.38330078 277.51220703 C142.4657754 277.4698714 149.5476015 277.46285183 156.63017702 277.47533095 C163.44434958 277.48672229 170.25829383 277.47542242 177.07243347 277.45298386 C179.97190067 277.44369701 182.87122814 277.44194186 185.77070618 277.44615555 C189.81948799 277.45062416 193.86736227 277.42169851 197.91601562 277.38916016 C199.12029709 277.39411499 200.32457855 277.39906982 201.56535339 277.4041748 C202.66732559 277.39000519 203.76929779 277.37583557 204.90466309 277.36123657 C205.86181969 277.35713083 206.81897629 277.35302509 207.80513763 277.34879494 C211.07139755 276.69092519 212.2400548 275.37475907 214.33203125 272.83984375 C215.63347351 270.61752018 215.63347351 270.61752018 216.58203125 268.27734375 C216.9171875 267.51292969 217.25234375 266.74851562 217.59765625 265.9609375 C218.49561642 263.74146537 218.49561642 263.74146537 218.33203125 260.83984375 C169.82203125 260.83984375 121.31203125 260.83984375 71.33203125 260.83984375 Z M281.14453125 325.83984375 C280.50870117 326.08871338 279.87287109 326.33758301 279.21777344 326.59399414 C275.95944108 327.94134191 273.71837613 329.27301901 271.33203125 331.83984375 C273.86621388 341.82298743 277.03244778 351.61444954 280.15527344 361.42480469 C281.0705832 364.30383488 281.97883313 367.18502768 282.88671875 370.06640625 C286.25353898 380.69337239 289.85926258 391.18805473 293.76904297 401.62695312 C295.8331003 407.14984723 297.68972707 412.73564139 299.51953125 418.33984375 C302.96073072 428.74623333 306.43168328 439.14205797 309.96060181 449.51904297 C310.49825508 451.10309889 311.03373089 452.6878956 311.56698608 454.2734375 C312.31510554 456.49673568 313.07066988 458.71736797 313.828125 460.9375 C314.05171692 461.60705215 314.27530884 462.27660431 314.50567627 462.96644592 C315.48715692 465.81930952 316.16866867 467.67648117 318.33203125 469.83984375 C342.97449735 455.82403363 342.97449735 455.82403363 357.06640625 432.37890625 C364.31928822 402.09322342 346.87016665 360.66571843 332.33203125 334.83984375 C327.16098903 327.16736241 320.78579963 322.39731425 311.7421875 320.21484375 C301.12330462 318.71790872 290.93494699 322.00244818 281.14453125 325.83984375 Z " fill="#000000" transform="translate(173.66796875,62.16015625)"/>
</svg>
